%TF.GenerationSoftware,KiCad,Pcbnew,(5.1.6-0-10_14)*%
%TF.CreationDate,2021-01-05T22:04:13+01:00*%
%TF.ProjectId,ecsc21-badge,65637363-3231-42d6-9261-6467652e6b69,rev?*%
%TF.SameCoordinates,PX5c07920PY8b3c880*%
%TF.FileFunction,Soldermask,Bot*%
%TF.FilePolarity,Negative*%
%FSLAX46Y46*%
G04 Gerber Fmt 4.6, Leading zero omitted, Abs format (unit mm)*
G04 Created by KiCad (PCBNEW (5.1.6-0-10_14)) date 2021-01-05 22:04:13*
%MOMM*%
%LPD*%
G01*
G04 APERTURE LIST*
%ADD10C,0.010000*%
%ADD11R,0.600000X1.370000*%
%ADD12R,2.400000X3.200000*%
%ADD13R,0.400000X1.200000*%
%ADD14R,5.100000X5.100000*%
%ADD15R,1.000000X2.100000*%
%ADD16R,1.000000X0.900000*%
%ADD17C,1.000000*%
%ADD18R,1.100000X1.650000*%
%ADD19C,1.600000*%
%ADD20C,0.100000*%
%ADD21R,1.400000X1.000000*%
%ADD22R,1.900000X1.550000*%
%ADD23R,1.900000X1.300000*%
%ADD24R,0.400000X1.260000*%
%ADD25C,0.750000*%
%ADD26R,0.700000X1.260000*%
%ADD27R,0.900000X1.000000*%
%ADD28R,3.100000X1.100000*%
%ADD29R,1.900000X2.600000*%
G04 APERTURE END LIST*
D10*
%TO.C,G\u002A\u002A\u002A*%
G36*
X42444485Y10322162D02*
G01*
X42963658Y10240138D01*
X43356324Y10149464D01*
X43816474Y10008102D01*
X44271698Y9828543D01*
X44716167Y9614006D01*
X45144052Y9367712D01*
X45549525Y9092881D01*
X45926757Y8792732D01*
X46108162Y8629281D01*
X46486680Y8245248D01*
X46828533Y7840272D01*
X47133544Y7414644D01*
X47401535Y6968649D01*
X47632329Y6502576D01*
X47825747Y6016714D01*
X47940138Y5660409D01*
X48021778Y5345667D01*
X48091044Y5010415D01*
X48143740Y4675682D01*
X48155150Y4583213D01*
X48168058Y4437520D01*
X48177573Y4260934D01*
X48183619Y4064485D01*
X48186122Y3859204D01*
X48185009Y3656123D01*
X48180204Y3466273D01*
X48171634Y3300684D01*
X48164371Y3214784D01*
X48090875Y2698995D01*
X47978433Y2196941D01*
X47828604Y1710252D01*
X47642944Y1240561D01*
X47423011Y789500D01*
X47170363Y358701D01*
X46886558Y-50206D01*
X46573152Y-435587D01*
X46231704Y-795812D01*
X45863770Y-1129248D01*
X45470909Y-1434264D01*
X45054679Y-1709228D01*
X44616636Y-1952508D01*
X44158338Y-2162473D01*
X43681343Y-2337490D01*
X43187208Y-2475927D01*
X42677491Y-2576154D01*
X42629917Y-2583392D01*
X42470669Y-2602349D01*
X42279767Y-2617521D01*
X42067169Y-2628731D01*
X41842837Y-2635798D01*
X41616730Y-2638544D01*
X41398809Y-2636790D01*
X41199035Y-2630358D01*
X41027367Y-2619069D01*
X40969175Y-2613196D01*
X40445899Y-2532566D01*
X39934944Y-2411842D01*
X39437979Y-2251713D01*
X38956677Y-2052864D01*
X38492704Y-1815982D01*
X38047733Y-1541753D01*
X37640454Y-1244366D01*
X37519984Y-1143649D01*
X37380301Y-1017833D01*
X37229034Y-874551D01*
X37073812Y-721438D01*
X36922265Y-566129D01*
X36782024Y-416257D01*
X36660718Y-279458D01*
X36586731Y-190000D01*
X36369477Y103296D01*
X36160221Y422851D01*
X35964904Y758074D01*
X35789465Y1098373D01*
X35639845Y1433154D01*
X35559919Y1640916D01*
X35404012Y2137628D01*
X35288353Y2641778D01*
X35212754Y3150755D01*
X35177030Y3661952D01*
X35180994Y4172759D01*
X35224459Y4680567D01*
X35307238Y5182767D01*
X35429145Y5676750D01*
X35589994Y6159906D01*
X35789598Y6629627D01*
X35937579Y6921959D01*
X36203885Y7372046D01*
X36502446Y7796576D01*
X36831281Y8194066D01*
X37188410Y8563034D01*
X37571854Y8901995D01*
X37979631Y9209467D01*
X38409762Y9483967D01*
X38860267Y9724011D01*
X39329166Y9928116D01*
X39814478Y10094799D01*
X40314224Y10222578D01*
X40355803Y10231288D01*
X40875773Y10316961D01*
X41398543Y10360628D01*
X41922113Y10362343D01*
X42444485Y10322162D01*
G37*
X42444485Y10322162D02*
X42963658Y10240138D01*
X43356324Y10149464D01*
X43816474Y10008102D01*
X44271698Y9828543D01*
X44716167Y9614006D01*
X45144052Y9367712D01*
X45549525Y9092881D01*
X45926757Y8792732D01*
X46108162Y8629281D01*
X46486680Y8245248D01*
X46828533Y7840272D01*
X47133544Y7414644D01*
X47401535Y6968649D01*
X47632329Y6502576D01*
X47825747Y6016714D01*
X47940138Y5660409D01*
X48021778Y5345667D01*
X48091044Y5010415D01*
X48143740Y4675682D01*
X48155150Y4583213D01*
X48168058Y4437520D01*
X48177573Y4260934D01*
X48183619Y4064485D01*
X48186122Y3859204D01*
X48185009Y3656123D01*
X48180204Y3466273D01*
X48171634Y3300684D01*
X48164371Y3214784D01*
X48090875Y2698995D01*
X47978433Y2196941D01*
X47828604Y1710252D01*
X47642944Y1240561D01*
X47423011Y789500D01*
X47170363Y358701D01*
X46886558Y-50206D01*
X46573152Y-435587D01*
X46231704Y-795812D01*
X45863770Y-1129248D01*
X45470909Y-1434264D01*
X45054679Y-1709228D01*
X44616636Y-1952508D01*
X44158338Y-2162473D01*
X43681343Y-2337490D01*
X43187208Y-2475927D01*
X42677491Y-2576154D01*
X42629917Y-2583392D01*
X42470669Y-2602349D01*
X42279767Y-2617521D01*
X42067169Y-2628731D01*
X41842837Y-2635798D01*
X41616730Y-2638544D01*
X41398809Y-2636790D01*
X41199035Y-2630358D01*
X41027367Y-2619069D01*
X40969175Y-2613196D01*
X40445899Y-2532566D01*
X39934944Y-2411842D01*
X39437979Y-2251713D01*
X38956677Y-2052864D01*
X38492704Y-1815982D01*
X38047733Y-1541753D01*
X37640454Y-1244366D01*
X37519984Y-1143649D01*
X37380301Y-1017833D01*
X37229034Y-874551D01*
X37073812Y-721438D01*
X36922265Y-566129D01*
X36782024Y-416257D01*
X36660718Y-279458D01*
X36586731Y-190000D01*
X36369477Y103296D01*
X36160221Y422851D01*
X35964904Y758074D01*
X35789465Y1098373D01*
X35639845Y1433154D01*
X35559919Y1640916D01*
X35404012Y2137628D01*
X35288353Y2641778D01*
X35212754Y3150755D01*
X35177030Y3661952D01*
X35180994Y4172759D01*
X35224459Y4680567D01*
X35307238Y5182767D01*
X35429145Y5676750D01*
X35589994Y6159906D01*
X35789598Y6629627D01*
X35937579Y6921959D01*
X36203885Y7372046D01*
X36502446Y7796576D01*
X36831281Y8194066D01*
X37188410Y8563034D01*
X37571854Y8901995D01*
X37979631Y9209467D01*
X38409762Y9483967D01*
X38860267Y9724011D01*
X39329166Y9928116D01*
X39814478Y10094799D01*
X40314224Y10222578D01*
X40355803Y10231288D01*
X40875773Y10316961D01*
X41398543Y10360628D01*
X41922113Y10362343D01*
X42444485Y10322162D01*
G36*
X42444485Y10322162D02*
G01*
X42963658Y10240138D01*
X43356324Y10149464D01*
X43816474Y10008102D01*
X44271698Y9828543D01*
X44716167Y9614006D01*
X45144052Y9367712D01*
X45549525Y9092881D01*
X45926757Y8792732D01*
X46108162Y8629281D01*
X46486680Y8245248D01*
X46828533Y7840272D01*
X47133544Y7414644D01*
X47401535Y6968649D01*
X47632329Y6502576D01*
X47825747Y6016714D01*
X47940138Y5660409D01*
X48021778Y5345667D01*
X48091044Y5010415D01*
X48143740Y4675682D01*
X48155150Y4583213D01*
X48168058Y4437520D01*
X48177573Y4260934D01*
X48183619Y4064485D01*
X48186122Y3859204D01*
X48185009Y3656123D01*
X48180204Y3466273D01*
X48171634Y3300684D01*
X48164371Y3214784D01*
X48090875Y2698995D01*
X47978433Y2196941D01*
X47828604Y1710252D01*
X47642944Y1240561D01*
X47423011Y789500D01*
X47170363Y358701D01*
X46886558Y-50206D01*
X46573152Y-435587D01*
X46231704Y-795812D01*
X45863770Y-1129248D01*
X45470909Y-1434264D01*
X45054679Y-1709228D01*
X44616636Y-1952508D01*
X44158338Y-2162473D01*
X43681343Y-2337490D01*
X43187208Y-2475927D01*
X42677491Y-2576154D01*
X42629917Y-2583392D01*
X42470669Y-2602349D01*
X42279767Y-2617521D01*
X42067169Y-2628731D01*
X41842837Y-2635798D01*
X41616730Y-2638544D01*
X41398809Y-2636790D01*
X41199035Y-2630358D01*
X41027367Y-2619069D01*
X40969175Y-2613196D01*
X40445899Y-2532566D01*
X39934944Y-2411842D01*
X39437979Y-2251713D01*
X38956677Y-2052864D01*
X38492704Y-1815982D01*
X38047733Y-1541753D01*
X37640454Y-1244366D01*
X37519984Y-1143649D01*
X37380301Y-1017833D01*
X37229034Y-874551D01*
X37073812Y-721438D01*
X36922265Y-566129D01*
X36782024Y-416257D01*
X36660718Y-279458D01*
X36586731Y-190000D01*
X36369477Y103296D01*
X36160221Y422851D01*
X35964904Y758074D01*
X35789465Y1098373D01*
X35639845Y1433154D01*
X35559919Y1640916D01*
X35404012Y2137628D01*
X35288353Y2641778D01*
X35212754Y3150755D01*
X35177030Y3661952D01*
X35180994Y4172759D01*
X35224459Y4680567D01*
X35307238Y5182767D01*
X35429145Y5676750D01*
X35589994Y6159906D01*
X35789598Y6629627D01*
X35937579Y6921959D01*
X36203885Y7372046D01*
X36502446Y7796576D01*
X36831281Y8194066D01*
X37188410Y8563034D01*
X37571854Y8901995D01*
X37979631Y9209467D01*
X38409762Y9483967D01*
X38860267Y9724011D01*
X39329166Y9928116D01*
X39814478Y10094799D01*
X40314224Y10222578D01*
X40355803Y10231288D01*
X40875773Y10316961D01*
X41398543Y10360628D01*
X41922113Y10362343D01*
X42444485Y10322162D01*
G37*
X42444485Y10322162D02*
X42963658Y10240138D01*
X43356324Y10149464D01*
X43816474Y10008102D01*
X44271698Y9828543D01*
X44716167Y9614006D01*
X45144052Y9367712D01*
X45549525Y9092881D01*
X45926757Y8792732D01*
X46108162Y8629281D01*
X46486680Y8245248D01*
X46828533Y7840272D01*
X47133544Y7414644D01*
X47401535Y6968649D01*
X47632329Y6502576D01*
X47825747Y6016714D01*
X47940138Y5660409D01*
X48021778Y5345667D01*
X48091044Y5010415D01*
X48143740Y4675682D01*
X48155150Y4583213D01*
X48168058Y4437520D01*
X48177573Y4260934D01*
X48183619Y4064485D01*
X48186122Y3859204D01*
X48185009Y3656123D01*
X48180204Y3466273D01*
X48171634Y3300684D01*
X48164371Y3214784D01*
X48090875Y2698995D01*
X47978433Y2196941D01*
X47828604Y1710252D01*
X47642944Y1240561D01*
X47423011Y789500D01*
X47170363Y358701D01*
X46886558Y-50206D01*
X46573152Y-435587D01*
X46231704Y-795812D01*
X45863770Y-1129248D01*
X45470909Y-1434264D01*
X45054679Y-1709228D01*
X44616636Y-1952508D01*
X44158338Y-2162473D01*
X43681343Y-2337490D01*
X43187208Y-2475927D01*
X42677491Y-2576154D01*
X42629917Y-2583392D01*
X42470669Y-2602349D01*
X42279767Y-2617521D01*
X42067169Y-2628731D01*
X41842837Y-2635798D01*
X41616730Y-2638544D01*
X41398809Y-2636790D01*
X41199035Y-2630358D01*
X41027367Y-2619069D01*
X40969175Y-2613196D01*
X40445899Y-2532566D01*
X39934944Y-2411842D01*
X39437979Y-2251713D01*
X38956677Y-2052864D01*
X38492704Y-1815982D01*
X38047733Y-1541753D01*
X37640454Y-1244366D01*
X37519984Y-1143649D01*
X37380301Y-1017833D01*
X37229034Y-874551D01*
X37073812Y-721438D01*
X36922265Y-566129D01*
X36782024Y-416257D01*
X36660718Y-279458D01*
X36586731Y-190000D01*
X36369477Y103296D01*
X36160221Y422851D01*
X35964904Y758074D01*
X35789465Y1098373D01*
X35639845Y1433154D01*
X35559919Y1640916D01*
X35404012Y2137628D01*
X35288353Y2641778D01*
X35212754Y3150755D01*
X35177030Y3661952D01*
X35180994Y4172759D01*
X35224459Y4680567D01*
X35307238Y5182767D01*
X35429145Y5676750D01*
X35589994Y6159906D01*
X35789598Y6629627D01*
X35937579Y6921959D01*
X36203885Y7372046D01*
X36502446Y7796576D01*
X36831281Y8194066D01*
X37188410Y8563034D01*
X37571854Y8901995D01*
X37979631Y9209467D01*
X38409762Y9483967D01*
X38860267Y9724011D01*
X39329166Y9928116D01*
X39814478Y10094799D01*
X40314224Y10222578D01*
X40355803Y10231288D01*
X40875773Y10316961D01*
X41398543Y10360628D01*
X41922113Y10362343D01*
X42444485Y10322162D01*
%TO.C,U2*%
G36*
X72540000Y67270000D02*
G01*
X72540000Y68600000D01*
X71210000Y68600000D01*
X71210000Y67270000D01*
X72540000Y67270000D01*
G37*
X72540000Y67270000D02*
X72540000Y68600000D01*
X71210000Y68600000D01*
X71210000Y67270000D01*
X72540000Y67270000D01*
G36*
X72540000Y65435000D02*
G01*
X72540000Y66765000D01*
X71210000Y66765000D01*
X71210000Y65435000D01*
X72540000Y65435000D01*
G37*
X72540000Y65435000D02*
X72540000Y66765000D01*
X71210000Y66765000D01*
X71210000Y65435000D01*
X72540000Y65435000D01*
G36*
X72540000Y63600000D02*
G01*
X72540000Y64930000D01*
X71210000Y64930000D01*
X71210000Y63600000D01*
X72540000Y63600000D01*
G37*
X72540000Y63600000D02*
X72540000Y64930000D01*
X71210000Y64930000D01*
X71210000Y63600000D01*
X72540000Y63600000D01*
G36*
X76210000Y63600000D02*
G01*
X76210000Y64930000D01*
X74880000Y64930000D01*
X74880000Y63600000D01*
X76210000Y63600000D01*
G37*
X76210000Y63600000D02*
X76210000Y64930000D01*
X74880000Y64930000D01*
X74880000Y63600000D01*
X76210000Y63600000D01*
G36*
X76210000Y65435000D02*
G01*
X76210000Y66765000D01*
X74880000Y66765000D01*
X74880000Y65435000D01*
X76210000Y65435000D01*
G37*
X76210000Y65435000D02*
X76210000Y66765000D01*
X74880000Y66765000D01*
X74880000Y65435000D01*
X76210000Y65435000D01*
G36*
X76210000Y67270000D02*
G01*
X76210000Y68600000D01*
X74880000Y68600000D01*
X74880000Y67270000D01*
X76210000Y67270000D01*
G37*
X76210000Y67270000D02*
X76210000Y68600000D01*
X74880000Y68600000D01*
X74880000Y67270000D01*
X76210000Y67270000D01*
G36*
X74375000Y67270000D02*
G01*
X74375000Y68600000D01*
X73045000Y68600000D01*
X73045000Y67270000D01*
X74375000Y67270000D01*
G37*
X74375000Y67270000D02*
X74375000Y68600000D01*
X73045000Y68600000D01*
X73045000Y67270000D01*
X74375000Y67270000D01*
G36*
X74375000Y63600000D02*
G01*
X74375000Y64930000D01*
X73045000Y64930000D01*
X73045000Y63600000D01*
X74375000Y63600000D01*
G37*
X74375000Y63600000D02*
X74375000Y64930000D01*
X73045000Y64930000D01*
X73045000Y63600000D01*
X74375000Y63600000D01*
G36*
X74375000Y65435000D02*
G01*
X74375000Y66765000D01*
X73045000Y66765000D01*
X73045000Y65435000D01*
X74375000Y65435000D01*
G37*
X74375000Y65435000D02*
X74375000Y66765000D01*
X73045000Y66765000D01*
X73045000Y65435000D01*
X74375000Y65435000D01*
%TD*%
%TO.C,D6*%
G36*
G01*
X41400000Y-1918750D02*
X41400000Y-2481250D01*
G75*
G02*
X41156250Y-2725000I-243750J0D01*
G01*
X40668750Y-2725000D01*
G75*
G02*
X40425000Y-2481250I0J243750D01*
G01*
X40425000Y-1918750D01*
G75*
G02*
X40668750Y-1675000I243750J0D01*
G01*
X41156250Y-1675000D01*
G75*
G02*
X41400000Y-1918750I0J-243750D01*
G01*
G37*
G36*
G01*
X42975000Y-1918750D02*
X42975000Y-2481250D01*
G75*
G02*
X42731250Y-2725000I-243750J0D01*
G01*
X42243750Y-2725000D01*
G75*
G02*
X42000000Y-2481250I0J243750D01*
G01*
X42000000Y-1918750D01*
G75*
G02*
X42243750Y-1675000I243750J0D01*
G01*
X42731250Y-1675000D01*
G75*
G02*
X42975000Y-1918750I0J-243750D01*
G01*
G37*
%TD*%
%TO.C,D5*%
G36*
G01*
X41987500Y9718750D02*
X41987500Y10281250D01*
G75*
G02*
X42231250Y10525000I243750J0D01*
G01*
X42718750Y10525000D01*
G75*
G02*
X42962500Y10281250I0J-243750D01*
G01*
X42962500Y9718750D01*
G75*
G02*
X42718750Y9475000I-243750J0D01*
G01*
X42231250Y9475000D01*
G75*
G02*
X41987500Y9718750I0J243750D01*
G01*
G37*
G36*
G01*
X40412500Y9718750D02*
X40412500Y10281250D01*
G75*
G02*
X40656250Y10525000I243750J0D01*
G01*
X41143750Y10525000D01*
G75*
G02*
X41387500Y10281250I0J-243750D01*
G01*
X41387500Y9718750D01*
G75*
G02*
X41143750Y9475000I-243750J0D01*
G01*
X40656250Y9475000D01*
G75*
G02*
X40412500Y9718750I0J243750D01*
G01*
G37*
%TD*%
D11*
%TO.C,J5*%
X65405000Y95800000D03*
X64135000Y95800000D03*
X62865000Y95800000D03*
X61595000Y95800000D03*
%TD*%
D12*
%TO.C,J4*%
X69670000Y44550000D03*
X46830000Y44550000D03*
D13*
X68000000Y42850000D03*
X67500000Y42850000D03*
X67000000Y42850000D03*
X66500000Y42850000D03*
X66000000Y42850000D03*
X65500000Y42850000D03*
X65000000Y42850000D03*
X64500000Y42850000D03*
X64000000Y42850000D03*
X63500000Y42850000D03*
X63000000Y42850000D03*
X62500000Y42850000D03*
X62000000Y42850000D03*
X61500000Y42850000D03*
X61000000Y42850000D03*
X60500000Y42850000D03*
X60000000Y42850000D03*
X59500000Y42850000D03*
X59000000Y42850000D03*
X58500000Y42850000D03*
X58000000Y42850000D03*
X57500000Y42850000D03*
X57000000Y42850000D03*
X56500000Y42850000D03*
X56000000Y42850000D03*
X55500000Y42850000D03*
X55000000Y42850000D03*
X54500000Y42850000D03*
X54000000Y42850000D03*
X53500000Y42850000D03*
X53000000Y42850000D03*
X52500000Y42850000D03*
X52000000Y42850000D03*
X51500000Y42850000D03*
X51000000Y42850000D03*
X50500000Y42850000D03*
X50000000Y42850000D03*
X49500000Y42850000D03*
X49000000Y42850000D03*
X48500000Y42850000D03*
%TD*%
%TO.C,R29*%
G36*
G01*
X73018750Y93075000D02*
X73581250Y93075000D01*
G75*
G02*
X73825000Y92831250I0J-243750D01*
G01*
X73825000Y92343750D01*
G75*
G02*
X73581250Y92100000I-243750J0D01*
G01*
X73018750Y92100000D01*
G75*
G02*
X72775000Y92343750I0J243750D01*
G01*
X72775000Y92831250D01*
G75*
G02*
X73018750Y93075000I243750J0D01*
G01*
G37*
G36*
G01*
X73018750Y91500000D02*
X73581250Y91500000D01*
G75*
G02*
X73825000Y91256250I0J-243750D01*
G01*
X73825000Y90768750D01*
G75*
G02*
X73581250Y90525000I-243750J0D01*
G01*
X73018750Y90525000D01*
G75*
G02*
X72775000Y90768750I0J243750D01*
G01*
X72775000Y91256250D01*
G75*
G02*
X73018750Y91500000I243750J0D01*
G01*
G37*
%TD*%
%TO.C,R28*%
G36*
G01*
X58181250Y96325000D02*
X57618750Y96325000D01*
G75*
G02*
X57375000Y96568750I0J243750D01*
G01*
X57375000Y97056250D01*
G75*
G02*
X57618750Y97300000I243750J0D01*
G01*
X58181250Y97300000D01*
G75*
G02*
X58425000Y97056250I0J-243750D01*
G01*
X58425000Y96568750D01*
G75*
G02*
X58181250Y96325000I-243750J0D01*
G01*
G37*
G36*
G01*
X58181250Y97900000D02*
X57618750Y97900000D01*
G75*
G02*
X57375000Y98143750I0J243750D01*
G01*
X57375000Y98631250D01*
G75*
G02*
X57618750Y98875000I243750J0D01*
G01*
X58181250Y98875000D01*
G75*
G02*
X58425000Y98631250I0J-243750D01*
G01*
X58425000Y98143750D01*
G75*
G02*
X58181250Y97900000I-243750J0D01*
G01*
G37*
%TD*%
%TO.C,R27*%
G36*
G01*
X36200000Y-3518750D02*
X36200000Y-4081250D01*
G75*
G02*
X35956250Y-4325000I-243750J0D01*
G01*
X35468750Y-4325000D01*
G75*
G02*
X35225000Y-4081250I0J243750D01*
G01*
X35225000Y-3518750D01*
G75*
G02*
X35468750Y-3275000I243750J0D01*
G01*
X35956250Y-3275000D01*
G75*
G02*
X36200000Y-3518750I0J-243750D01*
G01*
G37*
G36*
G01*
X37775000Y-3518750D02*
X37775000Y-4081250D01*
G75*
G02*
X37531250Y-4325000I-243750J0D01*
G01*
X37043750Y-4325000D01*
G75*
G02*
X36800000Y-4081250I0J243750D01*
G01*
X36800000Y-3518750D01*
G75*
G02*
X37043750Y-3275000I243750J0D01*
G01*
X37531250Y-3275000D01*
G75*
G02*
X37775000Y-3518750I0J-243750D01*
G01*
G37*
%TD*%
%TO.C,R12*%
G36*
G01*
X35018750Y6300000D02*
X35581250Y6300000D01*
G75*
G02*
X35825000Y6056250I0J-243750D01*
G01*
X35825000Y5568750D01*
G75*
G02*
X35581250Y5325000I-243750J0D01*
G01*
X35018750Y5325000D01*
G75*
G02*
X34775000Y5568750I0J243750D01*
G01*
X34775000Y6056250D01*
G75*
G02*
X35018750Y6300000I243750J0D01*
G01*
G37*
G36*
G01*
X35018750Y7875000D02*
X35581250Y7875000D01*
G75*
G02*
X35825000Y7631250I0J-243750D01*
G01*
X35825000Y7143750D01*
G75*
G02*
X35581250Y6900000I-243750J0D01*
G01*
X35018750Y6900000D01*
G75*
G02*
X34775000Y7143750I0J243750D01*
G01*
X34775000Y7631250D01*
G75*
G02*
X35018750Y7875000I243750J0D01*
G01*
G37*
%TD*%
%TO.C,R21*%
G36*
G01*
X57718750Y95075000D02*
X58281250Y95075000D01*
G75*
G02*
X58525000Y94831250I0J-243750D01*
G01*
X58525000Y94343750D01*
G75*
G02*
X58281250Y94100000I-243750J0D01*
G01*
X57718750Y94100000D01*
G75*
G02*
X57475000Y94343750I0J243750D01*
G01*
X57475000Y94831250D01*
G75*
G02*
X57718750Y95075000I243750J0D01*
G01*
G37*
G36*
G01*
X57718750Y93500000D02*
X58281250Y93500000D01*
G75*
G02*
X58525000Y93256250I0J-243750D01*
G01*
X58525000Y92768750D01*
G75*
G02*
X58281250Y92525000I-243750J0D01*
G01*
X57718750Y92525000D01*
G75*
G02*
X57475000Y92768750I0J243750D01*
G01*
X57475000Y93256250D01*
G75*
G02*
X57718750Y93500000I243750J0D01*
G01*
G37*
%TD*%
D14*
%TO.C,U2*%
X73710000Y66100000D03*
D15*
X81210000Y75600000D03*
X79940000Y75600000D03*
X78670000Y75600000D03*
X77400000Y75600000D03*
X76130000Y75600000D03*
X74860000Y75600000D03*
X73590000Y75600000D03*
X72320000Y75600000D03*
X71050000Y75600000D03*
X69780000Y75600000D03*
X68510000Y75600000D03*
X67240000Y75600000D03*
X65970000Y75600000D03*
X64700000Y75600000D03*
X63430000Y75600000D03*
X62160000Y75600000D03*
X60890000Y75600000D03*
X59620000Y75600000D03*
X58350000Y75600000D03*
X58350000Y58600000D03*
X59620000Y58600000D03*
X60890000Y58600000D03*
X62160000Y58600000D03*
X63430000Y58600000D03*
X64700000Y58600000D03*
X65970000Y58600000D03*
X67240000Y58600000D03*
X68510000Y58600000D03*
X69780000Y58600000D03*
X71050000Y58600000D03*
X72320000Y58600000D03*
X73590000Y58600000D03*
X74860000Y58600000D03*
X76130000Y58600000D03*
X77400000Y58600000D03*
X78670000Y58600000D03*
X79940000Y58600000D03*
X81210000Y58600000D03*
%TD*%
%TO.C,R26*%
G36*
G01*
X34810000Y3803750D02*
X34810000Y4366250D01*
G75*
G02*
X35053750Y4610000I243750J0D01*
G01*
X35541250Y4610000D01*
G75*
G02*
X35785000Y4366250I0J-243750D01*
G01*
X35785000Y3803750D01*
G75*
G02*
X35541250Y3560000I-243750J0D01*
G01*
X35053750Y3560000D01*
G75*
G02*
X34810000Y3803750I0J243750D01*
G01*
G37*
G36*
G01*
X33235000Y3803750D02*
X33235000Y4366250D01*
G75*
G02*
X33478750Y4610000I243750J0D01*
G01*
X33966250Y4610000D01*
G75*
G02*
X34210000Y4366250I0J-243750D01*
G01*
X34210000Y3803750D01*
G75*
G02*
X33966250Y3560000I-243750J0D01*
G01*
X33478750Y3560000D01*
G75*
G02*
X33235000Y3803750I0J243750D01*
G01*
G37*
%TD*%
D16*
%TO.C,Q1*%
X35730000Y555000D03*
X33730000Y1505000D03*
X33730000Y-395000D03*
%TD*%
%TO.C,D4*%
G36*
G01*
X76325000Y98205000D02*
X76325000Y96895000D01*
G75*
G02*
X76055000Y96625000I-270000J0D01*
G01*
X75245000Y96625000D01*
G75*
G02*
X74975000Y96895000I0J270000D01*
G01*
X74975000Y98205000D01*
G75*
G02*
X75245000Y98475000I270000J0D01*
G01*
X76055000Y98475000D01*
G75*
G02*
X76325000Y98205000I0J-270000D01*
G01*
G37*
G36*
G01*
X73525000Y98205000D02*
X73525000Y96895000D01*
G75*
G02*
X73255000Y96625000I-270000J0D01*
G01*
X72445000Y96625000D01*
G75*
G02*
X72175000Y96895000I0J270000D01*
G01*
X72175000Y98205000D01*
G75*
G02*
X72445000Y98475000I270000J0D01*
G01*
X73255000Y98475000D01*
G75*
G02*
X73525000Y98205000I0J-270000D01*
G01*
G37*
%TD*%
%TO.C,R25*%
G36*
G01*
X75525000Y95581250D02*
X75525000Y95018750D01*
G75*
G02*
X75281250Y94775000I-243750J0D01*
G01*
X74793750Y94775000D01*
G75*
G02*
X74550000Y95018750I0J243750D01*
G01*
X74550000Y95581250D01*
G75*
G02*
X74793750Y95825000I243750J0D01*
G01*
X75281250Y95825000D01*
G75*
G02*
X75525000Y95581250I0J-243750D01*
G01*
G37*
G36*
G01*
X73950000Y95581250D02*
X73950000Y95018750D01*
G75*
G02*
X73706250Y94775000I-243750J0D01*
G01*
X73218750Y94775000D01*
G75*
G02*
X72975000Y95018750I0J243750D01*
G01*
X72975000Y95581250D01*
G75*
G02*
X73218750Y95825000I243750J0D01*
G01*
X73706250Y95825000D01*
G75*
G02*
X73950000Y95581250I0J-243750D01*
G01*
G37*
%TD*%
%TO.C,R24*%
G36*
G01*
X44618750Y98875000D02*
X45181250Y98875000D01*
G75*
G02*
X45425000Y98631250I0J-243750D01*
G01*
X45425000Y98143750D01*
G75*
G02*
X45181250Y97900000I-243750J0D01*
G01*
X44618750Y97900000D01*
G75*
G02*
X44375000Y98143750I0J243750D01*
G01*
X44375000Y98631250D01*
G75*
G02*
X44618750Y98875000I243750J0D01*
G01*
G37*
G36*
G01*
X44618750Y97300000D02*
X45181250Y97300000D01*
G75*
G02*
X45425000Y97056250I0J-243750D01*
G01*
X45425000Y96568750D01*
G75*
G02*
X45181250Y96325000I-243750J0D01*
G01*
X44618750Y96325000D01*
G75*
G02*
X44375000Y96568750I0J243750D01*
G01*
X44375000Y97056250D01*
G75*
G02*
X44618750Y97300000I243750J0D01*
G01*
G37*
%TD*%
%TO.C,C11*%
G36*
G01*
X60925000Y92395000D02*
X60925000Y93705000D01*
G75*
G02*
X61195000Y93975000I270000J0D01*
G01*
X62005000Y93975000D01*
G75*
G02*
X62275000Y93705000I0J-270000D01*
G01*
X62275000Y92395000D01*
G75*
G02*
X62005000Y92125000I-270000J0D01*
G01*
X61195000Y92125000D01*
G75*
G02*
X60925000Y92395000I0J270000D01*
G01*
G37*
G36*
G01*
X63725000Y92395000D02*
X63725000Y93705000D01*
G75*
G02*
X63995000Y93975000I270000J0D01*
G01*
X64805000Y93975000D01*
G75*
G02*
X65075000Y93705000I0J-270000D01*
G01*
X65075000Y92395000D01*
G75*
G02*
X64805000Y92125000I-270000J0D01*
G01*
X63995000Y92125000D01*
G75*
G02*
X63725000Y92395000I0J270000D01*
G01*
G37*
%TD*%
D17*
%TO.C,SW4*%
X27075000Y19400000D03*
X24325000Y19400000D03*
D18*
X26550000Y16750000D03*
X26550000Y22050000D03*
X24850000Y16750000D03*
X24850000Y22050000D03*
%TD*%
D17*
%TO.C,SW3*%
X27075000Y37400000D03*
X24325000Y37400000D03*
D18*
X26550000Y34750000D03*
X26550000Y40050000D03*
X24850000Y34750000D03*
X24850000Y40050000D03*
%TD*%
D17*
%TO.C,SW2*%
X27075000Y55400000D03*
X24325000Y55400000D03*
D18*
X26550000Y52750000D03*
X26550000Y58050000D03*
X24850000Y52750000D03*
X24850000Y58050000D03*
%TD*%
D17*
%TO.C,SW1*%
X27075000Y73600000D03*
X24325000Y73600000D03*
D18*
X26550000Y70950000D03*
X26550000Y76250000D03*
X24850000Y70950000D03*
X24850000Y76250000D03*
%TD*%
%TO.C,C6*%
G36*
G01*
X35295000Y40275000D02*
X36605000Y40275000D01*
G75*
G02*
X36875000Y40005000I0J-270000D01*
G01*
X36875000Y39195000D01*
G75*
G02*
X36605000Y38925000I-270000J0D01*
G01*
X35295000Y38925000D01*
G75*
G02*
X35025000Y39195000I0J270000D01*
G01*
X35025000Y40005000D01*
G75*
G02*
X35295000Y40275000I270000J0D01*
G01*
G37*
G36*
G01*
X35295000Y43075000D02*
X36605000Y43075000D01*
G75*
G02*
X36875000Y42805000I0J-270000D01*
G01*
X36875000Y41995000D01*
G75*
G02*
X36605000Y41725000I-270000J0D01*
G01*
X35295000Y41725000D01*
G75*
G02*
X35025000Y41995000I0J270000D01*
G01*
X35025000Y42805000D01*
G75*
G02*
X35295000Y43075000I270000J0D01*
G01*
G37*
%TD*%
D19*
%TO.C,TP13*%
X45500000Y-4400000D03*
%TD*%
%TO.C,TP12*%
X82700000Y48000000D03*
%TD*%
%TO.C,TP11*%
X68500000Y21400000D03*
%TD*%
%TO.C,TP10*%
X68500000Y24200000D03*
%TD*%
%TO.C,TP9*%
X68500000Y27000000D03*
%TD*%
%TO.C,TP8*%
X68500000Y29800000D03*
%TD*%
%TO.C,TP7*%
X68500000Y32600000D03*
%TD*%
%TO.C,TP6*%
X68500000Y35400000D03*
%TD*%
%TO.C,TP5*%
X68500000Y38200000D03*
%TD*%
%TO.C,TP4*%
X68500000Y18600000D03*
%TD*%
%TO.C,TP3*%
X57300000Y32800000D03*
%TD*%
%TO.C,TP2*%
X42450000Y48000000D03*
%TD*%
%TO.C,TP1*%
X36700000Y46500000D03*
%TD*%
%TO.C,R9*%
G36*
G01*
X49550000Y32581250D02*
X49550000Y32018750D01*
G75*
G02*
X49306250Y31775000I-243750J0D01*
G01*
X48818750Y31775000D01*
G75*
G02*
X48575000Y32018750I0J243750D01*
G01*
X48575000Y32581250D01*
G75*
G02*
X48818750Y32825000I243750J0D01*
G01*
X49306250Y32825000D01*
G75*
G02*
X49550000Y32581250I0J-243750D01*
G01*
G37*
G36*
G01*
X51125000Y32581250D02*
X51125000Y32018750D01*
G75*
G02*
X50881250Y31775000I-243750J0D01*
G01*
X50393750Y31775000D01*
G75*
G02*
X50150000Y32018750I0J243750D01*
G01*
X50150000Y32581250D01*
G75*
G02*
X50393750Y32825000I243750J0D01*
G01*
X50881250Y32825000D01*
G75*
G02*
X51125000Y32581250I0J-243750D01*
G01*
G37*
%TD*%
%TO.C,R6*%
G36*
G01*
X49550000Y34181250D02*
X49550000Y33618750D01*
G75*
G02*
X49306250Y33375000I-243750J0D01*
G01*
X48818750Y33375000D01*
G75*
G02*
X48575000Y33618750I0J243750D01*
G01*
X48575000Y34181250D01*
G75*
G02*
X48818750Y34425000I243750J0D01*
G01*
X49306250Y34425000D01*
G75*
G02*
X49550000Y34181250I0J-243750D01*
G01*
G37*
G36*
G01*
X51125000Y34181250D02*
X51125000Y33618750D01*
G75*
G02*
X50881250Y33375000I-243750J0D01*
G01*
X50393750Y33375000D01*
G75*
G02*
X50150000Y33618750I0J243750D01*
G01*
X50150000Y34181250D01*
G75*
G02*
X50393750Y34425000I243750J0D01*
G01*
X50881250Y34425000D01*
G75*
G02*
X51125000Y34181250I0J-243750D01*
G01*
G37*
%TD*%
%TO.C,R4*%
G36*
G01*
X49550000Y30981250D02*
X49550000Y30418750D01*
G75*
G02*
X49306250Y30175000I-243750J0D01*
G01*
X48818750Y30175000D01*
G75*
G02*
X48575000Y30418750I0J243750D01*
G01*
X48575000Y30981250D01*
G75*
G02*
X48818750Y31225000I243750J0D01*
G01*
X49306250Y31225000D01*
G75*
G02*
X49550000Y30981250I0J-243750D01*
G01*
G37*
G36*
G01*
X51125000Y30981250D02*
X51125000Y30418750D01*
G75*
G02*
X50881250Y30175000I-243750J0D01*
G01*
X50393750Y30175000D01*
G75*
G02*
X50150000Y30418750I0J243750D01*
G01*
X50150000Y30981250D01*
G75*
G02*
X50393750Y31225000I243750J0D01*
G01*
X50881250Y31225000D01*
G75*
G02*
X51125000Y30981250I0J-243750D01*
G01*
G37*
%TD*%
D20*
%TO.C,U4*%
G36*
X38560245Y42854461D02*
G01*
X38550866Y42857306D01*
X38542221Y42861927D01*
X38534645Y42868145D01*
X38528427Y42875721D01*
X38523806Y42884366D01*
X38520961Y42893745D01*
X38520000Y42903500D01*
X38520000Y44636500D01*
X38520961Y44646255D01*
X38523806Y44655634D01*
X38528427Y44664279D01*
X38534645Y44671855D01*
X38542221Y44678073D01*
X38550866Y44682694D01*
X38560245Y44685539D01*
X38570000Y44686500D01*
X41695000Y44686500D01*
X41704755Y44685539D01*
X41714134Y44682694D01*
X41722779Y44678073D01*
X41730355Y44671855D01*
X41736573Y44664279D01*
X41741194Y44655634D01*
X41744039Y44646255D01*
X41745000Y44636500D01*
X41745000Y44270000D01*
X43170000Y44270000D01*
X43179755Y44269039D01*
X43189134Y44266194D01*
X43197779Y44261573D01*
X43205355Y44255355D01*
X43211573Y44247779D01*
X43216194Y44239134D01*
X43219039Y44229755D01*
X43220000Y44220000D01*
X43220000Y43320000D01*
X43219039Y43310245D01*
X43216194Y43300866D01*
X43211573Y43292221D01*
X43205355Y43284645D01*
X43197779Y43278427D01*
X43189134Y43273806D01*
X43179755Y43270961D01*
X43170000Y43270000D01*
X41745000Y43270000D01*
X41745000Y42903500D01*
X41744039Y42893745D01*
X41741194Y42884366D01*
X41736573Y42875721D01*
X41730355Y42868145D01*
X41722779Y42861927D01*
X41714134Y42857306D01*
X41704755Y42854461D01*
X41695000Y42853500D01*
X38570000Y42853500D01*
X38560245Y42854461D01*
G37*
D21*
X42520000Y42270000D03*
X42520000Y45270000D03*
%TD*%
%TO.C,R1*%
G36*
G01*
X52841738Y33080000D02*
X53798262Y33080000D01*
G75*
G02*
X54070000Y32808262I0J-271738D01*
G01*
X54070000Y32101738D01*
G75*
G02*
X53798262Y31830000I-271738J0D01*
G01*
X52841738Y31830000D01*
G75*
G02*
X52570000Y32101738I0J271738D01*
G01*
X52570000Y32808262D01*
G75*
G02*
X52841738Y33080000I271738J0D01*
G01*
G37*
G36*
G01*
X52841738Y35130000D02*
X53798262Y35130000D01*
G75*
G02*
X54070000Y34858262I0J-271738D01*
G01*
X54070000Y34151738D01*
G75*
G02*
X53798262Y33880000I-271738J0D01*
G01*
X52841738Y33880000D01*
G75*
G02*
X52570000Y34151738I0J271738D01*
G01*
X52570000Y34858262D01*
G75*
G02*
X52841738Y35130000I271738J0D01*
G01*
G37*
%TD*%
%TO.C,C10*%
G36*
G01*
X39750000Y39218750D02*
X39750000Y39781250D01*
G75*
G02*
X39993750Y40025000I243750J0D01*
G01*
X40481250Y40025000D01*
G75*
G02*
X40725000Y39781250I0J-243750D01*
G01*
X40725000Y39218750D01*
G75*
G02*
X40481250Y38975000I-243750J0D01*
G01*
X39993750Y38975000D01*
G75*
G02*
X39750000Y39218750I0J243750D01*
G01*
G37*
G36*
G01*
X38175000Y39218750D02*
X38175000Y39781250D01*
G75*
G02*
X38418750Y40025000I243750J0D01*
G01*
X38906250Y40025000D01*
G75*
G02*
X39150000Y39781250I0J-243750D01*
G01*
X39150000Y39218750D01*
G75*
G02*
X38906250Y38975000I-243750J0D01*
G01*
X38418750Y38975000D01*
G75*
G02*
X38175000Y39218750I0J243750D01*
G01*
G37*
%TD*%
%TO.C,C9*%
G36*
G01*
X42750000Y39218750D02*
X42750000Y39781250D01*
G75*
G02*
X42993750Y40025000I243750J0D01*
G01*
X43481250Y40025000D01*
G75*
G02*
X43725000Y39781250I0J-243750D01*
G01*
X43725000Y39218750D01*
G75*
G02*
X43481250Y38975000I-243750J0D01*
G01*
X42993750Y38975000D01*
G75*
G02*
X42750000Y39218750I0J243750D01*
G01*
G37*
G36*
G01*
X41175000Y39218750D02*
X41175000Y39781250D01*
G75*
G02*
X41418750Y40025000I243750J0D01*
G01*
X41906250Y40025000D01*
G75*
G02*
X42150000Y39781250I0J-243750D01*
G01*
X42150000Y39218750D01*
G75*
G02*
X41906250Y38975000I-243750J0D01*
G01*
X41418750Y38975000D01*
G75*
G02*
X41175000Y39218750I0J243750D01*
G01*
G37*
%TD*%
D22*
%TO.C,J3*%
X62500000Y-320000D03*
X52400000Y-320000D03*
D23*
X62500000Y-4500000D03*
X52400000Y-4500000D03*
D24*
X58200000Y710000D03*
X57700000Y710000D03*
X57200000Y710000D03*
X59200000Y710000D03*
X58700000Y710000D03*
X56200000Y710000D03*
X56700000Y710000D03*
X55700000Y710000D03*
D25*
X54560000Y-800000D03*
X60340000Y-800000D03*
D26*
X59850000Y710000D03*
X59850000Y710000D03*
X60650000Y710000D03*
X60650000Y710000D03*
X55050000Y710000D03*
X54250000Y710000D03*
X55050000Y710000D03*
X54250000Y710000D03*
%TD*%
%TO.C,U3*%
G36*
G01*
X63270000Y11250000D02*
X62920000Y11250000D01*
G75*
G02*
X62745000Y11425000I0J175000D01*
G01*
X62745000Y13125000D01*
G75*
G02*
X62920000Y13300000I175000J0D01*
G01*
X63270000Y13300000D01*
G75*
G02*
X63445000Y13125000I0J-175000D01*
G01*
X63445000Y11425000D01*
G75*
G02*
X63270000Y11250000I-175000J0D01*
G01*
G37*
G36*
G01*
X62000000Y11250000D02*
X61650000Y11250000D01*
G75*
G02*
X61475000Y11425000I0J175000D01*
G01*
X61475000Y13125000D01*
G75*
G02*
X61650000Y13300000I175000J0D01*
G01*
X62000000Y13300000D01*
G75*
G02*
X62175000Y13125000I0J-175000D01*
G01*
X62175000Y11425000D01*
G75*
G02*
X62000000Y11250000I-175000J0D01*
G01*
G37*
G36*
G01*
X60730000Y11250000D02*
X60380000Y11250000D01*
G75*
G02*
X60205000Y11425000I0J175000D01*
G01*
X60205000Y13125000D01*
G75*
G02*
X60380000Y13300000I175000J0D01*
G01*
X60730000Y13300000D01*
G75*
G02*
X60905000Y13125000I0J-175000D01*
G01*
X60905000Y11425000D01*
G75*
G02*
X60730000Y11250000I-175000J0D01*
G01*
G37*
G36*
G01*
X59460000Y11250000D02*
X59110000Y11250000D01*
G75*
G02*
X58935000Y11425000I0J175000D01*
G01*
X58935000Y13125000D01*
G75*
G02*
X59110000Y13300000I175000J0D01*
G01*
X59460000Y13300000D01*
G75*
G02*
X59635000Y13125000I0J-175000D01*
G01*
X59635000Y11425000D01*
G75*
G02*
X59460000Y11250000I-175000J0D01*
G01*
G37*
G36*
G01*
X58190000Y11250000D02*
X57840000Y11250000D01*
G75*
G02*
X57665000Y11425000I0J175000D01*
G01*
X57665000Y13125000D01*
G75*
G02*
X57840000Y13300000I175000J0D01*
G01*
X58190000Y13300000D01*
G75*
G02*
X58365000Y13125000I0J-175000D01*
G01*
X58365000Y11425000D01*
G75*
G02*
X58190000Y11250000I-175000J0D01*
G01*
G37*
G36*
G01*
X56920000Y11250000D02*
X56570000Y11250000D01*
G75*
G02*
X56395000Y11425000I0J175000D01*
G01*
X56395000Y13125000D01*
G75*
G02*
X56570000Y13300000I175000J0D01*
G01*
X56920000Y13300000D01*
G75*
G02*
X57095000Y13125000I0J-175000D01*
G01*
X57095000Y11425000D01*
G75*
G02*
X56920000Y11250000I-175000J0D01*
G01*
G37*
G36*
G01*
X55650000Y11250000D02*
X55300000Y11250000D01*
G75*
G02*
X55125000Y11425000I0J175000D01*
G01*
X55125000Y13125000D01*
G75*
G02*
X55300000Y13300000I175000J0D01*
G01*
X55650000Y13300000D01*
G75*
G02*
X55825000Y13125000I0J-175000D01*
G01*
X55825000Y11425000D01*
G75*
G02*
X55650000Y11250000I-175000J0D01*
G01*
G37*
G36*
G01*
X54380000Y11250000D02*
X54030000Y11250000D01*
G75*
G02*
X53855000Y11425000I0J175000D01*
G01*
X53855000Y13125000D01*
G75*
G02*
X54030000Y13300000I175000J0D01*
G01*
X54380000Y13300000D01*
G75*
G02*
X54555000Y13125000I0J-175000D01*
G01*
X54555000Y11425000D01*
G75*
G02*
X54380000Y11250000I-175000J0D01*
G01*
G37*
G36*
G01*
X54380000Y6300000D02*
X54030000Y6300000D01*
G75*
G02*
X53855000Y6475000I0J175000D01*
G01*
X53855000Y8175000D01*
G75*
G02*
X54030000Y8350000I175000J0D01*
G01*
X54380000Y8350000D01*
G75*
G02*
X54555000Y8175000I0J-175000D01*
G01*
X54555000Y6475000D01*
G75*
G02*
X54380000Y6300000I-175000J0D01*
G01*
G37*
G36*
G01*
X55650000Y6300000D02*
X55300000Y6300000D01*
G75*
G02*
X55125000Y6475000I0J175000D01*
G01*
X55125000Y8175000D01*
G75*
G02*
X55300000Y8350000I175000J0D01*
G01*
X55650000Y8350000D01*
G75*
G02*
X55825000Y8175000I0J-175000D01*
G01*
X55825000Y6475000D01*
G75*
G02*
X55650000Y6300000I-175000J0D01*
G01*
G37*
G36*
G01*
X56920000Y6300000D02*
X56570000Y6300000D01*
G75*
G02*
X56395000Y6475000I0J175000D01*
G01*
X56395000Y8175000D01*
G75*
G02*
X56570000Y8350000I175000J0D01*
G01*
X56920000Y8350000D01*
G75*
G02*
X57095000Y8175000I0J-175000D01*
G01*
X57095000Y6475000D01*
G75*
G02*
X56920000Y6300000I-175000J0D01*
G01*
G37*
G36*
G01*
X58190000Y6300000D02*
X57840000Y6300000D01*
G75*
G02*
X57665000Y6475000I0J175000D01*
G01*
X57665000Y8175000D01*
G75*
G02*
X57840000Y8350000I175000J0D01*
G01*
X58190000Y8350000D01*
G75*
G02*
X58365000Y8175000I0J-175000D01*
G01*
X58365000Y6475000D01*
G75*
G02*
X58190000Y6300000I-175000J0D01*
G01*
G37*
G36*
G01*
X59460000Y6300000D02*
X59110000Y6300000D01*
G75*
G02*
X58935000Y6475000I0J175000D01*
G01*
X58935000Y8175000D01*
G75*
G02*
X59110000Y8350000I175000J0D01*
G01*
X59460000Y8350000D01*
G75*
G02*
X59635000Y8175000I0J-175000D01*
G01*
X59635000Y6475000D01*
G75*
G02*
X59460000Y6300000I-175000J0D01*
G01*
G37*
G36*
G01*
X60730000Y6300000D02*
X60380000Y6300000D01*
G75*
G02*
X60205000Y6475000I0J175000D01*
G01*
X60205000Y8175000D01*
G75*
G02*
X60380000Y8350000I175000J0D01*
G01*
X60730000Y8350000D01*
G75*
G02*
X60905000Y8175000I0J-175000D01*
G01*
X60905000Y6475000D01*
G75*
G02*
X60730000Y6300000I-175000J0D01*
G01*
G37*
G36*
G01*
X62000000Y6300000D02*
X61650000Y6300000D01*
G75*
G02*
X61475000Y6475000I0J175000D01*
G01*
X61475000Y8175000D01*
G75*
G02*
X61650000Y8350000I175000J0D01*
G01*
X62000000Y8350000D01*
G75*
G02*
X62175000Y8175000I0J-175000D01*
G01*
X62175000Y6475000D01*
G75*
G02*
X62000000Y6300000I-175000J0D01*
G01*
G37*
G36*
G01*
X63270000Y6300000D02*
X62920000Y6300000D01*
G75*
G02*
X62745000Y6475000I0J175000D01*
G01*
X62745000Y8175000D01*
G75*
G02*
X62920000Y8350000I175000J0D01*
G01*
X63270000Y8350000D01*
G75*
G02*
X63445000Y8175000I0J-175000D01*
G01*
X63445000Y6475000D01*
G75*
G02*
X63270000Y6300000I-175000J0D01*
G01*
G37*
%TD*%
D20*
%TO.C,U1*%
G36*
X38940245Y13284461D02*
G01*
X38930866Y13287306D01*
X38922221Y13291927D01*
X38914645Y13298145D01*
X38908427Y13305721D01*
X38903806Y13314366D01*
X38900961Y13323745D01*
X38900000Y13333500D01*
X38900000Y15066500D01*
X38900961Y15076255D01*
X38903806Y15085634D01*
X38908427Y15094279D01*
X38914645Y15101855D01*
X38922221Y15108073D01*
X38930866Y15112694D01*
X38940245Y15115539D01*
X38950000Y15116500D01*
X42075000Y15116500D01*
X42084755Y15115539D01*
X42094134Y15112694D01*
X42102779Y15108073D01*
X42110355Y15101855D01*
X42116573Y15094279D01*
X42121194Y15085634D01*
X42124039Y15076255D01*
X42125000Y15066500D01*
X42125000Y14700000D01*
X43550000Y14700000D01*
X43559755Y14699039D01*
X43569134Y14696194D01*
X43577779Y14691573D01*
X43585355Y14685355D01*
X43591573Y14677779D01*
X43596194Y14669134D01*
X43599039Y14659755D01*
X43600000Y14650000D01*
X43600000Y13750000D01*
X43599039Y13740245D01*
X43596194Y13730866D01*
X43591573Y13722221D01*
X43585355Y13714645D01*
X43577779Y13708427D01*
X43569134Y13703806D01*
X43559755Y13700961D01*
X43550000Y13700000D01*
X42125000Y13700000D01*
X42125000Y13333500D01*
X42124039Y13323745D01*
X42121194Y13314366D01*
X42116573Y13305721D01*
X42110355Y13298145D01*
X42102779Y13291927D01*
X42094134Y13287306D01*
X42084755Y13284461D01*
X42075000Y13283500D01*
X38950000Y13283500D01*
X38940245Y13284461D01*
G37*
D21*
X42900000Y12700000D03*
X42900000Y15700000D03*
%TD*%
%TO.C,R23*%
G36*
G01*
X64150000Y2231250D02*
X64150000Y1668750D01*
G75*
G02*
X63906250Y1425000I-243750J0D01*
G01*
X63418750Y1425000D01*
G75*
G02*
X63175000Y1668750I0J243750D01*
G01*
X63175000Y2231250D01*
G75*
G02*
X63418750Y2475000I243750J0D01*
G01*
X63906250Y2475000D01*
G75*
G02*
X64150000Y2231250I0J-243750D01*
G01*
G37*
G36*
G01*
X65725000Y2231250D02*
X65725000Y1668750D01*
G75*
G02*
X65481250Y1425000I-243750J0D01*
G01*
X64993750Y1425000D01*
G75*
G02*
X64750000Y1668750I0J243750D01*
G01*
X64750000Y2231250D01*
G75*
G02*
X64993750Y2475000I243750J0D01*
G01*
X65481250Y2475000D01*
G75*
G02*
X65725000Y2231250I0J-243750D01*
G01*
G37*
%TD*%
%TO.C,R22*%
G36*
G01*
X53000000Y4718750D02*
X53000000Y5281250D01*
G75*
G02*
X53243750Y5525000I243750J0D01*
G01*
X53731250Y5525000D01*
G75*
G02*
X53975000Y5281250I0J-243750D01*
G01*
X53975000Y4718750D01*
G75*
G02*
X53731250Y4475000I-243750J0D01*
G01*
X53243750Y4475000D01*
G75*
G02*
X53000000Y4718750I0J243750D01*
G01*
G37*
G36*
G01*
X51425000Y4718750D02*
X51425000Y5281250D01*
G75*
G02*
X51668750Y5525000I243750J0D01*
G01*
X52156250Y5525000D01*
G75*
G02*
X52400000Y5281250I0J-243750D01*
G01*
X52400000Y4718750D01*
G75*
G02*
X52156250Y4475000I-243750J0D01*
G01*
X51668750Y4475000D01*
G75*
G02*
X51425000Y4718750I0J243750D01*
G01*
G37*
%TD*%
%TO.C,R20*%
G36*
G01*
X74408750Y11900000D02*
X74971250Y11900000D01*
G75*
G02*
X75215000Y11656250I0J-243750D01*
G01*
X75215000Y11168750D01*
G75*
G02*
X74971250Y10925000I-243750J0D01*
G01*
X74408750Y10925000D01*
G75*
G02*
X74165000Y11168750I0J243750D01*
G01*
X74165000Y11656250D01*
G75*
G02*
X74408750Y11900000I243750J0D01*
G01*
G37*
G36*
G01*
X74408750Y13475000D02*
X74971250Y13475000D01*
G75*
G02*
X75215000Y13231250I0J-243750D01*
G01*
X75215000Y12743750D01*
G75*
G02*
X74971250Y12500000I-243750J0D01*
G01*
X74408750Y12500000D01*
G75*
G02*
X74165000Y12743750I0J243750D01*
G01*
X74165000Y13231250D01*
G75*
G02*
X74408750Y13475000I243750J0D01*
G01*
G37*
%TD*%
%TO.C,R19*%
G36*
G01*
X70781250Y12500000D02*
X70218750Y12500000D01*
G75*
G02*
X69975000Y12743750I0J243750D01*
G01*
X69975000Y13231250D01*
G75*
G02*
X70218750Y13475000I243750J0D01*
G01*
X70781250Y13475000D01*
G75*
G02*
X71025000Y13231250I0J-243750D01*
G01*
X71025000Y12743750D01*
G75*
G02*
X70781250Y12500000I-243750J0D01*
G01*
G37*
G36*
G01*
X70781250Y10925000D02*
X70218750Y10925000D01*
G75*
G02*
X69975000Y11168750I0J243750D01*
G01*
X69975000Y11656250D01*
G75*
G02*
X70218750Y11900000I243750J0D01*
G01*
X70781250Y11900000D01*
G75*
G02*
X71025000Y11656250I0J-243750D01*
G01*
X71025000Y11168750D01*
G75*
G02*
X70781250Y10925000I-243750J0D01*
G01*
G37*
%TD*%
%TO.C,R18*%
G36*
G01*
X61630000Y15641250D02*
X61630000Y15078750D01*
G75*
G02*
X61386250Y14835000I-243750J0D01*
G01*
X60898750Y14835000D01*
G75*
G02*
X60655000Y15078750I0J243750D01*
G01*
X60655000Y15641250D01*
G75*
G02*
X60898750Y15885000I243750J0D01*
G01*
X61386250Y15885000D01*
G75*
G02*
X61630000Y15641250I0J-243750D01*
G01*
G37*
G36*
G01*
X63205000Y15641250D02*
X63205000Y15078750D01*
G75*
G02*
X62961250Y14835000I-243750J0D01*
G01*
X62473750Y14835000D01*
G75*
G02*
X62230000Y15078750I0J243750D01*
G01*
X62230000Y15641250D01*
G75*
G02*
X62473750Y15885000I243750J0D01*
G01*
X62961250Y15885000D01*
G75*
G02*
X63205000Y15641250I0J-243750D01*
G01*
G37*
%TD*%
%TO.C,R17*%
G36*
G01*
X59200000Y21681250D02*
X59200000Y21118750D01*
G75*
G02*
X58956250Y20875000I-243750J0D01*
G01*
X58468750Y20875000D01*
G75*
G02*
X58225000Y21118750I0J243750D01*
G01*
X58225000Y21681250D01*
G75*
G02*
X58468750Y21925000I243750J0D01*
G01*
X58956250Y21925000D01*
G75*
G02*
X59200000Y21681250I0J-243750D01*
G01*
G37*
G36*
G01*
X60775000Y21681250D02*
X60775000Y21118750D01*
G75*
G02*
X60531250Y20875000I-243750J0D01*
G01*
X60043750Y20875000D01*
G75*
G02*
X59800000Y21118750I0J243750D01*
G01*
X59800000Y21681250D01*
G75*
G02*
X60043750Y21925000I243750J0D01*
G01*
X60531250Y21925000D01*
G75*
G02*
X60775000Y21681250I0J-243750D01*
G01*
G37*
%TD*%
%TO.C,R16*%
G36*
G01*
X68600000Y-1381250D02*
X68600000Y-818750D01*
G75*
G02*
X68843750Y-575000I243750J0D01*
G01*
X69331250Y-575000D01*
G75*
G02*
X69575000Y-818750I0J-243750D01*
G01*
X69575000Y-1381250D01*
G75*
G02*
X69331250Y-1625000I-243750J0D01*
G01*
X68843750Y-1625000D01*
G75*
G02*
X68600000Y-1381250I0J243750D01*
G01*
G37*
G36*
G01*
X67025000Y-1381250D02*
X67025000Y-818750D01*
G75*
G02*
X67268750Y-575000I243750J0D01*
G01*
X67756250Y-575000D01*
G75*
G02*
X68000000Y-818750I0J-243750D01*
G01*
X68000000Y-1381250D01*
G75*
G02*
X67756250Y-1625000I-243750J0D01*
G01*
X67268750Y-1625000D01*
G75*
G02*
X67025000Y-1381250I0J243750D01*
G01*
G37*
%TD*%
%TO.C,R15*%
G36*
G01*
X68000000Y-2418750D02*
X68000000Y-2981250D01*
G75*
G02*
X67756250Y-3225000I-243750J0D01*
G01*
X67268750Y-3225000D01*
G75*
G02*
X67025000Y-2981250I0J243750D01*
G01*
X67025000Y-2418750D01*
G75*
G02*
X67268750Y-2175000I243750J0D01*
G01*
X67756250Y-2175000D01*
G75*
G02*
X68000000Y-2418750I0J-243750D01*
G01*
G37*
G36*
G01*
X69575000Y-2418750D02*
X69575000Y-2981250D01*
G75*
G02*
X69331250Y-3225000I-243750J0D01*
G01*
X68843750Y-3225000D01*
G75*
G02*
X68600000Y-2981250I0J243750D01*
G01*
X68600000Y-2418750D01*
G75*
G02*
X68843750Y-2175000I243750J0D01*
G01*
X69331250Y-2175000D01*
G75*
G02*
X69575000Y-2418750I0J-243750D01*
G01*
G37*
%TD*%
%TO.C,R14*%
G36*
G01*
X30200000Y21281250D02*
X30200000Y20718750D01*
G75*
G02*
X29956250Y20475000I-243750J0D01*
G01*
X29468750Y20475000D01*
G75*
G02*
X29225000Y20718750I0J243750D01*
G01*
X29225000Y21281250D01*
G75*
G02*
X29468750Y21525000I243750J0D01*
G01*
X29956250Y21525000D01*
G75*
G02*
X30200000Y21281250I0J-243750D01*
G01*
G37*
G36*
G01*
X31775000Y21281250D02*
X31775000Y20718750D01*
G75*
G02*
X31531250Y20475000I-243750J0D01*
G01*
X31043750Y20475000D01*
G75*
G02*
X30800000Y20718750I0J243750D01*
G01*
X30800000Y21281250D01*
G75*
G02*
X31043750Y21525000I243750J0D01*
G01*
X31531250Y21525000D01*
G75*
G02*
X31775000Y21281250I0J-243750D01*
G01*
G37*
%TD*%
%TO.C,R13*%
G36*
G01*
X30200000Y40081250D02*
X30200000Y39518750D01*
G75*
G02*
X29956250Y39275000I-243750J0D01*
G01*
X29468750Y39275000D01*
G75*
G02*
X29225000Y39518750I0J243750D01*
G01*
X29225000Y40081250D01*
G75*
G02*
X29468750Y40325000I243750J0D01*
G01*
X29956250Y40325000D01*
G75*
G02*
X30200000Y40081250I0J-243750D01*
G01*
G37*
G36*
G01*
X31775000Y40081250D02*
X31775000Y39518750D01*
G75*
G02*
X31531250Y39275000I-243750J0D01*
G01*
X31043750Y39275000D01*
G75*
G02*
X30800000Y39518750I0J243750D01*
G01*
X30800000Y40081250D01*
G75*
G02*
X31043750Y40325000I243750J0D01*
G01*
X31531250Y40325000D01*
G75*
G02*
X31775000Y40081250I0J-243750D01*
G01*
G37*
%TD*%
%TO.C,R11*%
G36*
G01*
X30200000Y77081250D02*
X30200000Y76518750D01*
G75*
G02*
X29956250Y76275000I-243750J0D01*
G01*
X29468750Y76275000D01*
G75*
G02*
X29225000Y76518750I0J243750D01*
G01*
X29225000Y77081250D01*
G75*
G02*
X29468750Y77325000I243750J0D01*
G01*
X29956250Y77325000D01*
G75*
G02*
X30200000Y77081250I0J-243750D01*
G01*
G37*
G36*
G01*
X31775000Y77081250D02*
X31775000Y76518750D01*
G75*
G02*
X31531250Y76275000I-243750J0D01*
G01*
X31043750Y76275000D01*
G75*
G02*
X30800000Y76518750I0J243750D01*
G01*
X30800000Y77081250D01*
G75*
G02*
X31043750Y77325000I243750J0D01*
G01*
X31531250Y77325000D01*
G75*
G02*
X31775000Y77081250I0J-243750D01*
G01*
G37*
%TD*%
%TO.C,R10*%
G36*
G01*
X35800000Y9481250D02*
X35800000Y8918750D01*
G75*
G02*
X35556250Y8675000I-243750J0D01*
G01*
X35068750Y8675000D01*
G75*
G02*
X34825000Y8918750I0J243750D01*
G01*
X34825000Y9481250D01*
G75*
G02*
X35068750Y9725000I243750J0D01*
G01*
X35556250Y9725000D01*
G75*
G02*
X35800000Y9481250I0J-243750D01*
G01*
G37*
G36*
G01*
X37375000Y9481250D02*
X37375000Y8918750D01*
G75*
G02*
X37131250Y8675000I-243750J0D01*
G01*
X36643750Y8675000D01*
G75*
G02*
X36400000Y8918750I0J243750D01*
G01*
X36400000Y9481250D01*
G75*
G02*
X36643750Y9725000I243750J0D01*
G01*
X37131250Y9725000D01*
G75*
G02*
X37375000Y9481250I0J-243750D01*
G01*
G37*
%TD*%
%TO.C,R8*%
G36*
G01*
X42818750Y94875000D02*
X43381250Y94875000D01*
G75*
G02*
X43625000Y94631250I0J-243750D01*
G01*
X43625000Y94143750D01*
G75*
G02*
X43381250Y93900000I-243750J0D01*
G01*
X42818750Y93900000D01*
G75*
G02*
X42575000Y94143750I0J243750D01*
G01*
X42575000Y94631250D01*
G75*
G02*
X42818750Y94875000I243750J0D01*
G01*
G37*
G36*
G01*
X42818750Y93300000D02*
X43381250Y93300000D01*
G75*
G02*
X43625000Y93056250I0J-243750D01*
G01*
X43625000Y92568750D01*
G75*
G02*
X43381250Y92325000I-243750J0D01*
G01*
X42818750Y92325000D01*
G75*
G02*
X42575000Y92568750I0J243750D01*
G01*
X42575000Y93056250D01*
G75*
G02*
X42818750Y93300000I243750J0D01*
G01*
G37*
%TD*%
%TO.C,R7*%
G36*
G01*
X44578750Y94875000D02*
X45141250Y94875000D01*
G75*
G02*
X45385000Y94631250I0J-243750D01*
G01*
X45385000Y94143750D01*
G75*
G02*
X45141250Y93900000I-243750J0D01*
G01*
X44578750Y93900000D01*
G75*
G02*
X44335000Y94143750I0J243750D01*
G01*
X44335000Y94631250D01*
G75*
G02*
X44578750Y94875000I243750J0D01*
G01*
G37*
G36*
G01*
X44578750Y93300000D02*
X45141250Y93300000D01*
G75*
G02*
X45385000Y93056250I0J-243750D01*
G01*
X45385000Y92568750D01*
G75*
G02*
X45141250Y92325000I-243750J0D01*
G01*
X44578750Y92325000D01*
G75*
G02*
X44335000Y92568750I0J243750D01*
G01*
X44335000Y93056250D01*
G75*
G02*
X44578750Y93300000I243750J0D01*
G01*
G37*
%TD*%
%TO.C,R5*%
G36*
G01*
X54000000Y75318750D02*
X54000000Y75881250D01*
G75*
G02*
X54243750Y76125000I243750J0D01*
G01*
X54731250Y76125000D01*
G75*
G02*
X54975000Y75881250I0J-243750D01*
G01*
X54975000Y75318750D01*
G75*
G02*
X54731250Y75075000I-243750J0D01*
G01*
X54243750Y75075000D01*
G75*
G02*
X54000000Y75318750I0J243750D01*
G01*
G37*
G36*
G01*
X52425000Y75318750D02*
X52425000Y75881250D01*
G75*
G02*
X52668750Y76125000I243750J0D01*
G01*
X53156250Y76125000D01*
G75*
G02*
X53400000Y75881250I0J-243750D01*
G01*
X53400000Y75318750D01*
G75*
G02*
X53156250Y75075000I-243750J0D01*
G01*
X52668750Y75075000D01*
G75*
G02*
X52425000Y75318750I0J243750D01*
G01*
G37*
%TD*%
%TO.C,R3*%
G36*
G01*
X30200000Y58281250D02*
X30200000Y57718750D01*
G75*
G02*
X29956250Y57475000I-243750J0D01*
G01*
X29468750Y57475000D01*
G75*
G02*
X29225000Y57718750I0J243750D01*
G01*
X29225000Y58281250D01*
G75*
G02*
X29468750Y58525000I243750J0D01*
G01*
X29956250Y58525000D01*
G75*
G02*
X30200000Y58281250I0J-243750D01*
G01*
G37*
G36*
G01*
X31775000Y58281250D02*
X31775000Y57718750D01*
G75*
G02*
X31531250Y57475000I-243750J0D01*
G01*
X31043750Y57475000D01*
G75*
G02*
X30800000Y57718750I0J243750D01*
G01*
X30800000Y58281250D01*
G75*
G02*
X31043750Y58525000I243750J0D01*
G01*
X31531250Y58525000D01*
G75*
G02*
X31775000Y58281250I0J-243750D01*
G01*
G37*
%TD*%
%TO.C,R2*%
G36*
G01*
X81000000Y50718750D02*
X81000000Y51281250D01*
G75*
G02*
X81243750Y51525000I243750J0D01*
G01*
X81731250Y51525000D01*
G75*
G02*
X81975000Y51281250I0J-243750D01*
G01*
X81975000Y50718750D01*
G75*
G02*
X81731250Y50475000I-243750J0D01*
G01*
X81243750Y50475000D01*
G75*
G02*
X81000000Y50718750I0J243750D01*
G01*
G37*
G36*
G01*
X79425000Y50718750D02*
X79425000Y51281250D01*
G75*
G02*
X79668750Y51525000I243750J0D01*
G01*
X80156250Y51525000D01*
G75*
G02*
X80400000Y51281250I0J-243750D01*
G01*
X80400000Y50718750D01*
G75*
G02*
X80156250Y50475000I-243750J0D01*
G01*
X79668750Y50475000D01*
G75*
G02*
X79425000Y50718750I0J243750D01*
G01*
G37*
%TD*%
D16*
%TO.C,Q5*%
X60400000Y18400000D03*
X62400000Y17450000D03*
X62400000Y19350000D03*
%TD*%
%TO.C,Q4*%
X56310000Y16690000D03*
X58310000Y15740000D03*
X58310000Y17640000D03*
%TD*%
D27*
%TO.C,Q3*%
X53450000Y30600000D03*
X52500000Y28600000D03*
X54400000Y28600000D03*
%TD*%
D28*
%TO.C,J2*%
X48230000Y96840000D03*
X53270000Y96840000D03*
X48230000Y94300000D03*
X53270000Y94300000D03*
X48230000Y91760000D03*
X53270000Y91760000D03*
%TD*%
%TO.C,D3*%
G36*
G01*
X76018750Y11900000D02*
X76581250Y11900000D01*
G75*
G02*
X76825000Y11656250I0J-243750D01*
G01*
X76825000Y11168750D01*
G75*
G02*
X76581250Y10925000I-243750J0D01*
G01*
X76018750Y10925000D01*
G75*
G02*
X75775000Y11168750I0J243750D01*
G01*
X75775000Y11656250D01*
G75*
G02*
X76018750Y11900000I243750J0D01*
G01*
G37*
G36*
G01*
X76018750Y13475000D02*
X76581250Y13475000D01*
G75*
G02*
X76825000Y13231250I0J-243750D01*
G01*
X76825000Y12743750D01*
G75*
G02*
X76581250Y12500000I-243750J0D01*
G01*
X76018750Y12500000D01*
G75*
G02*
X75775000Y12743750I0J243750D01*
G01*
X75775000Y13231250D01*
G75*
G02*
X76018750Y13475000I243750J0D01*
G01*
G37*
%TD*%
%TO.C,D2*%
G36*
G01*
X71898750Y11900000D02*
X72461250Y11900000D01*
G75*
G02*
X72705000Y11656250I0J-243750D01*
G01*
X72705000Y11168750D01*
G75*
G02*
X72461250Y10925000I-243750J0D01*
G01*
X71898750Y10925000D01*
G75*
G02*
X71655000Y11168750I0J243750D01*
G01*
X71655000Y11656250D01*
G75*
G02*
X71898750Y11900000I243750J0D01*
G01*
G37*
G36*
G01*
X71898750Y13475000D02*
X72461250Y13475000D01*
G75*
G02*
X72705000Y13231250I0J-243750D01*
G01*
X72705000Y12743750D01*
G75*
G02*
X72461250Y12500000I-243750J0D01*
G01*
X71898750Y12500000D01*
G75*
G02*
X71655000Y12743750I0J243750D01*
G01*
X71655000Y13231250D01*
G75*
G02*
X71898750Y13475000I243750J0D01*
G01*
G37*
%TD*%
D29*
%TO.C,D1*%
X48500000Y-2200000D03*
X48500000Y1800000D03*
%TD*%
%TO.C,C8*%
G36*
G01*
X59812500Y5281250D02*
X59812500Y4718750D01*
G75*
G02*
X59568750Y4475000I-243750J0D01*
G01*
X59081250Y4475000D01*
G75*
G02*
X58837500Y4718750I0J243750D01*
G01*
X58837500Y5281250D01*
G75*
G02*
X59081250Y5525000I243750J0D01*
G01*
X59568750Y5525000D01*
G75*
G02*
X59812500Y5281250I0J-243750D01*
G01*
G37*
G36*
G01*
X61387500Y5281250D02*
X61387500Y4718750D01*
G75*
G02*
X61143750Y4475000I-243750J0D01*
G01*
X60656250Y4475000D01*
G75*
G02*
X60412500Y4718750I0J243750D01*
G01*
X60412500Y5281250D01*
G75*
G02*
X60656250Y5525000I243750J0D01*
G01*
X61143750Y5525000D01*
G75*
G02*
X61387500Y5281250I0J-243750D01*
G01*
G37*
%TD*%
%TO.C,C7*%
G36*
G01*
X68000000Y781250D02*
X68000000Y218750D01*
G75*
G02*
X67756250Y-25000I-243750J0D01*
G01*
X67268750Y-25000D01*
G75*
G02*
X67025000Y218750I0J243750D01*
G01*
X67025000Y781250D01*
G75*
G02*
X67268750Y1025000I243750J0D01*
G01*
X67756250Y1025000D01*
G75*
G02*
X68000000Y781250I0J-243750D01*
G01*
G37*
G36*
G01*
X69575000Y781250D02*
X69575000Y218750D01*
G75*
G02*
X69331250Y-25000I-243750J0D01*
G01*
X68843750Y-25000D01*
G75*
G02*
X68600000Y218750I0J243750D01*
G01*
X68600000Y781250D01*
G75*
G02*
X68843750Y1025000I243750J0D01*
G01*
X69331250Y1025000D01*
G75*
G02*
X69575000Y781250I0J-243750D01*
G01*
G37*
%TD*%
%TO.C,C5*%
G36*
G01*
X50225000Y6345000D02*
X50225000Y7655000D01*
G75*
G02*
X50495000Y7925000I270000J0D01*
G01*
X51305000Y7925000D01*
G75*
G02*
X51575000Y7655000I0J-270000D01*
G01*
X51575000Y6345000D01*
G75*
G02*
X51305000Y6075000I-270000J0D01*
G01*
X50495000Y6075000D01*
G75*
G02*
X50225000Y6345000I0J270000D01*
G01*
G37*
G36*
G01*
X47425000Y6345000D02*
X47425000Y7655000D01*
G75*
G02*
X47695000Y7925000I270000J0D01*
G01*
X48505000Y7925000D01*
G75*
G02*
X48775000Y7655000I0J-270000D01*
G01*
X48775000Y6345000D01*
G75*
G02*
X48505000Y6075000I-270000J0D01*
G01*
X47695000Y6075000D01*
G75*
G02*
X47425000Y6345000I0J270000D01*
G01*
G37*
%TD*%
%TO.C,C4*%
G36*
G01*
X45620000Y15991250D02*
X45620000Y15428750D01*
G75*
G02*
X45376250Y15185000I-243750J0D01*
G01*
X44888750Y15185000D01*
G75*
G02*
X44645000Y15428750I0J243750D01*
G01*
X44645000Y15991250D01*
G75*
G02*
X44888750Y16235000I243750J0D01*
G01*
X45376250Y16235000D01*
G75*
G02*
X45620000Y15991250I0J-243750D01*
G01*
G37*
G36*
G01*
X47195000Y15991250D02*
X47195000Y15428750D01*
G75*
G02*
X46951250Y15185000I-243750J0D01*
G01*
X46463750Y15185000D01*
G75*
G02*
X46220000Y15428750I0J243750D01*
G01*
X46220000Y15991250D01*
G75*
G02*
X46463750Y16235000I243750J0D01*
G01*
X46951250Y16235000D01*
G75*
G02*
X47195000Y15991250I0J-243750D01*
G01*
G37*
%TD*%
%TO.C,C3*%
G36*
G01*
X49000000Y9481250D02*
X49000000Y8918750D01*
G75*
G02*
X48756250Y8675000I-243750J0D01*
G01*
X48268750Y8675000D01*
G75*
G02*
X48025000Y8918750I0J243750D01*
G01*
X48025000Y9481250D01*
G75*
G02*
X48268750Y9725000I243750J0D01*
G01*
X48756250Y9725000D01*
G75*
G02*
X49000000Y9481250I0J-243750D01*
G01*
G37*
G36*
G01*
X50575000Y9481250D02*
X50575000Y8918750D01*
G75*
G02*
X50331250Y8675000I-243750J0D01*
G01*
X49843750Y8675000D01*
G75*
G02*
X49600000Y8918750I0J243750D01*
G01*
X49600000Y9481250D01*
G75*
G02*
X49843750Y9725000I243750J0D01*
G01*
X50331250Y9725000D01*
G75*
G02*
X50575000Y9481250I0J-243750D01*
G01*
G37*
%TD*%
%TO.C,C2*%
G36*
G01*
X81000000Y54318750D02*
X81000000Y54881250D01*
G75*
G02*
X81243750Y55125000I243750J0D01*
G01*
X81731250Y55125000D01*
G75*
G02*
X81975000Y54881250I0J-243750D01*
G01*
X81975000Y54318750D01*
G75*
G02*
X81731250Y54075000I-243750J0D01*
G01*
X81243750Y54075000D01*
G75*
G02*
X81000000Y54318750I0J243750D01*
G01*
G37*
G36*
G01*
X79425000Y54318750D02*
X79425000Y54881250D01*
G75*
G02*
X79668750Y55125000I243750J0D01*
G01*
X80156250Y55125000D01*
G75*
G02*
X80400000Y54881250I0J-243750D01*
G01*
X80400000Y54318750D01*
G75*
G02*
X80156250Y54075000I-243750J0D01*
G01*
X79668750Y54075000D01*
G75*
G02*
X79425000Y54318750I0J243750D01*
G01*
G37*
%TD*%
%TO.C,C1*%
G36*
G01*
X81000000Y52518750D02*
X81000000Y53081250D01*
G75*
G02*
X81243750Y53325000I243750J0D01*
G01*
X81731250Y53325000D01*
G75*
G02*
X81975000Y53081250I0J-243750D01*
G01*
X81975000Y52518750D01*
G75*
G02*
X81731250Y52275000I-243750J0D01*
G01*
X81243750Y52275000D01*
G75*
G02*
X81000000Y52518750I0J243750D01*
G01*
G37*
G36*
G01*
X79425000Y52518750D02*
X79425000Y53081250D01*
G75*
G02*
X79668750Y53325000I243750J0D01*
G01*
X80156250Y53325000D01*
G75*
G02*
X80400000Y53081250I0J-243750D01*
G01*
X80400000Y52518750D01*
G75*
G02*
X80156250Y52275000I-243750J0D01*
G01*
X79668750Y52275000D01*
G75*
G02*
X79425000Y52518750I0J243750D01*
G01*
G37*
%TD*%
M02*
