%TF.GenerationSoftware,KiCad,Pcbnew,(5.1.6-0-10_14)*%
%TF.CreationDate,2021-01-05T22:04:13+01:00*%
%TF.ProjectId,ecsc21-badge,65637363-3231-42d6-9261-6467652e6b69,rev?*%
%TF.SameCoordinates,PX5c07920PY8b3c880*%
%TF.FileFunction,Other,User*%
%FSLAX46Y46*%
G04 Gerber Fmt 4.6, Leading zero omitted, Abs format (unit mm)*
G04 Created by KiCad (PCBNEW (5.1.6-0-10_14)) date 2021-01-05 22:04:13*
%MOMM*%
%LPD*%
G01*
G04 APERTURE LIST*
%ADD10C,0.050000*%
G04 APERTURE END LIST*
D10*
%TO.C,D6*%
X43180000Y-2930000D02*
X43180000Y-1470000D01*
X43180000Y-1470000D02*
X40220000Y-1470000D01*
X40220000Y-1470000D02*
X40220000Y-2930000D01*
X40220000Y-2930000D02*
X43180000Y-2930000D01*
%TO.C,D5*%
X40207500Y10730000D02*
X40207500Y9270000D01*
X40207500Y9270000D02*
X43167500Y9270000D01*
X43167500Y9270000D02*
X43167500Y10730000D01*
X43167500Y10730000D02*
X40207500Y10730000D01*
%TO.C,J4*%
X45030000Y41800000D02*
X45030000Y48450000D01*
X45030000Y48450000D02*
X71470000Y48450000D01*
X71470000Y48450000D02*
X71470000Y41800000D01*
X71470000Y41800000D02*
X45030000Y41800000D01*
%TO.C,R29*%
X74030000Y90320000D02*
X74030000Y93280000D01*
X72570000Y90320000D02*
X74030000Y90320000D01*
X72570000Y93280000D02*
X72570000Y90320000D01*
X74030000Y93280000D02*
X72570000Y93280000D01*
%TO.C,R28*%
X57170000Y99080000D02*
X57170000Y96120000D01*
X58630000Y99080000D02*
X57170000Y99080000D01*
X58630000Y96120000D02*
X58630000Y99080000D01*
X57170000Y96120000D02*
X58630000Y96120000D01*
%TO.C,R27*%
X37980000Y-4530000D02*
X37980000Y-3070000D01*
X37980000Y-3070000D02*
X35020000Y-3070000D01*
X35020000Y-3070000D02*
X35020000Y-4530000D01*
X35020000Y-4530000D02*
X37980000Y-4530000D01*
%TO.C,R12*%
X36030000Y8080000D02*
X34570000Y8080000D01*
X34570000Y8080000D02*
X34570000Y5120000D01*
X34570000Y5120000D02*
X36030000Y5120000D01*
X36030000Y5120000D02*
X36030000Y8080000D01*
%TO.C,R21*%
X58730000Y95280000D02*
X57270000Y95280000D01*
X57270000Y95280000D02*
X57270000Y92320000D01*
X57270000Y92320000D02*
X58730000Y92320000D01*
X58730000Y92320000D02*
X58730000Y95280000D01*
%TO.C,U2*%
X88900000Y57350000D02*
X88900000Y76850000D01*
X57000000Y76850000D02*
X88900000Y76850000D01*
X57000000Y57350000D02*
X57000000Y76850000D01*
X88900000Y57350000D02*
X57000000Y57350000D01*
%TO.C,R26*%
X35990000Y4815000D02*
X33030000Y4815000D01*
X35990000Y3355000D02*
X35990000Y4815000D01*
X33030000Y3355000D02*
X35990000Y3355000D01*
X33030000Y4815000D02*
X33030000Y3355000D01*
%TO.C,Q1*%
X33030000Y2305000D02*
X33030000Y-1195000D01*
X36430000Y2305000D02*
X33030000Y2305000D01*
X36430000Y-1195000D02*
X36430000Y2305000D01*
X33030000Y-1195000D02*
X36430000Y-1195000D01*
%TO.C,D4*%
X71970000Y96430000D02*
X76530000Y96430000D01*
X71970000Y98670000D02*
X71970000Y96430000D01*
X76530000Y98670000D02*
X71970000Y98670000D01*
X76530000Y96430000D02*
X76530000Y98670000D01*
%TO.C,R25*%
X72770000Y94570000D02*
X75730000Y94570000D01*
X72770000Y96030000D02*
X72770000Y94570000D01*
X75730000Y96030000D02*
X72770000Y96030000D01*
X75730000Y94570000D02*
X75730000Y96030000D01*
%TO.C,R24*%
X45630000Y96120000D02*
X45630000Y99080000D01*
X44170000Y96120000D02*
X45630000Y96120000D01*
X44170000Y99080000D02*
X44170000Y96120000D01*
X45630000Y99080000D02*
X44170000Y99080000D01*
%TO.C,C11*%
X65280000Y94170000D02*
X60720000Y94170000D01*
X65280000Y91930000D02*
X65280000Y94170000D01*
X60720000Y91930000D02*
X65280000Y91930000D01*
X60720000Y94170000D02*
X60720000Y91930000D01*
%TO.C,C6*%
X37070000Y43280000D02*
X34830000Y43280000D01*
X34830000Y43280000D02*
X34830000Y38720000D01*
X34830000Y38720000D02*
X37070000Y38720000D01*
X37070000Y38720000D02*
X37070000Y43280000D01*
%TO.C,TP13*%
X46750000Y-4400000D02*
G75*
G03*
X46750000Y-4400000I-1250000J0D01*
G01*
%TO.C,TP12*%
X83950000Y48000000D02*
G75*
G03*
X83950000Y48000000I-1250000J0D01*
G01*
%TO.C,TP11*%
X69750000Y21400000D02*
G75*
G03*
X69750000Y21400000I-1250000J0D01*
G01*
%TO.C,TP10*%
X69750000Y24200000D02*
G75*
G03*
X69750000Y24200000I-1250000J0D01*
G01*
%TO.C,TP9*%
X69750000Y27000000D02*
G75*
G03*
X69750000Y27000000I-1250000J0D01*
G01*
%TO.C,TP8*%
X69750000Y29800000D02*
G75*
G03*
X69750000Y29800000I-1250000J0D01*
G01*
%TO.C,TP7*%
X69750000Y32600000D02*
G75*
G03*
X69750000Y32600000I-1250000J0D01*
G01*
%TO.C,TP6*%
X69750000Y35400000D02*
G75*
G03*
X69750000Y35400000I-1250000J0D01*
G01*
%TO.C,TP5*%
X69750000Y38200000D02*
G75*
G03*
X69750000Y38200000I-1250000J0D01*
G01*
%TO.C,TP4*%
X69750000Y18600000D02*
G75*
G03*
X69750000Y18600000I-1250000J0D01*
G01*
%TO.C,TP3*%
X58550000Y32800000D02*
G75*
G03*
X58550000Y32800000I-1250000J0D01*
G01*
%TO.C,TP2*%
X43700000Y48000000D02*
G75*
G03*
X43700000Y48000000I-1250000J0D01*
G01*
%TO.C,TP1*%
X37950000Y46500000D02*
G75*
G03*
X37950000Y46500000I-1250000J0D01*
G01*
%TO.C,R9*%
X51330000Y31570000D02*
X51330000Y33030000D01*
X51330000Y33030000D02*
X48370000Y33030000D01*
X48370000Y33030000D02*
X48370000Y31570000D01*
X48370000Y31570000D02*
X51330000Y31570000D01*
%TO.C,R6*%
X51330000Y33170000D02*
X51330000Y34630000D01*
X51330000Y34630000D02*
X48370000Y34630000D01*
X48370000Y34630000D02*
X48370000Y33170000D01*
X48370000Y33170000D02*
X51330000Y33170000D01*
%TO.C,R4*%
X51330000Y29970000D02*
X51330000Y31430000D01*
X51330000Y31430000D02*
X48370000Y31430000D01*
X48370000Y31430000D02*
X48370000Y29970000D01*
X48370000Y29970000D02*
X51330000Y29970000D01*
%TO.C,U4*%
X43420000Y41270000D02*
X43420000Y46270000D01*
X43420000Y41270000D02*
X38320000Y41270000D01*
X38320000Y46270000D02*
X43420000Y46270000D01*
X38320000Y46270000D02*
X38320000Y41270000D01*
%TO.C,R1*%
X54270000Y31630000D02*
X54270000Y35330000D01*
X52370000Y31630000D02*
X54270000Y31630000D01*
X52370000Y35330000D02*
X52370000Y31630000D01*
X54270000Y35330000D02*
X52370000Y35330000D01*
%TO.C,C10*%
X40930000Y40230000D02*
X37970000Y40230000D01*
X40930000Y38770000D02*
X40930000Y40230000D01*
X37970000Y38770000D02*
X40930000Y38770000D01*
X37970000Y40230000D02*
X37970000Y38770000D01*
%TO.C,C9*%
X43930000Y40230000D02*
X40970000Y40230000D01*
X43930000Y38770000D02*
X43930000Y40230000D01*
X40970000Y38770000D02*
X43930000Y38770000D01*
X40970000Y40230000D02*
X40970000Y38770000D01*
%TO.C,J3*%
X62720000Y-7140000D02*
X52180000Y-7140000D01*
X62720000Y1790000D02*
X62720000Y-7140000D01*
X52180000Y1790000D02*
X62720000Y1790000D01*
X52180000Y-7140000D02*
X52180000Y1790000D01*
%TO.C,U3*%
X63850000Y13500000D02*
X63850000Y6100000D01*
X53450000Y13500000D02*
X63850000Y13500000D01*
X53450000Y6100000D02*
X53450000Y13500000D01*
X63850000Y6100000D02*
X53450000Y6100000D01*
%TO.C,U1*%
X43800000Y11700000D02*
X43800000Y16700000D01*
X43800000Y11700000D02*
X38700000Y11700000D01*
X38700000Y16700000D02*
X43800000Y16700000D01*
X38700000Y16700000D02*
X38700000Y11700000D01*
%TO.C,R23*%
X62970000Y1220000D02*
X65930000Y1220000D01*
X62970000Y2680000D02*
X62970000Y1220000D01*
X65930000Y2680000D02*
X62970000Y2680000D01*
X65930000Y1220000D02*
X65930000Y2680000D01*
%TO.C,R22*%
X54180000Y5730000D02*
X51220000Y5730000D01*
X54180000Y4270000D02*
X54180000Y5730000D01*
X51220000Y4270000D02*
X54180000Y4270000D01*
X51220000Y5730000D02*
X51220000Y4270000D01*
%TO.C,R20*%
X75420000Y10720000D02*
X75420000Y13680000D01*
X73960000Y10720000D02*
X75420000Y10720000D01*
X73960000Y13680000D02*
X73960000Y10720000D01*
X75420000Y13680000D02*
X73960000Y13680000D01*
%TO.C,R19*%
X69770000Y13680000D02*
X69770000Y10720000D01*
X71230000Y13680000D02*
X69770000Y13680000D01*
X71230000Y10720000D02*
X71230000Y13680000D01*
X69770000Y10720000D02*
X71230000Y10720000D01*
%TO.C,R18*%
X60450000Y14630000D02*
X63410000Y14630000D01*
X60450000Y16090000D02*
X60450000Y14630000D01*
X63410000Y16090000D02*
X60450000Y16090000D01*
X63410000Y14630000D02*
X63410000Y16090000D01*
%TO.C,R17*%
X58020000Y20670000D02*
X60980000Y20670000D01*
X58020000Y22130000D02*
X58020000Y20670000D01*
X60980000Y22130000D02*
X58020000Y22130000D01*
X60980000Y20670000D02*
X60980000Y22130000D01*
%TO.C,R16*%
X69780000Y-370000D02*
X66820000Y-370000D01*
X69780000Y-1830000D02*
X69780000Y-370000D01*
X66820000Y-1830000D02*
X69780000Y-1830000D01*
X66820000Y-370000D02*
X66820000Y-1830000D01*
%TO.C,R15*%
X66820000Y-3430000D02*
X69780000Y-3430000D01*
X66820000Y-1970000D02*
X66820000Y-3430000D01*
X69780000Y-1970000D02*
X66820000Y-1970000D01*
X69780000Y-3430000D02*
X69780000Y-1970000D01*
%TO.C,R14*%
X29020000Y20270000D02*
X31980000Y20270000D01*
X29020000Y21730000D02*
X29020000Y20270000D01*
X31980000Y21730000D02*
X29020000Y21730000D01*
X31980000Y20270000D02*
X31980000Y21730000D01*
%TO.C,R13*%
X29020000Y39070000D02*
X31980000Y39070000D01*
X29020000Y40530000D02*
X29020000Y39070000D01*
X31980000Y40530000D02*
X29020000Y40530000D01*
X31980000Y39070000D02*
X31980000Y40530000D01*
%TO.C,R11*%
X29020000Y76070000D02*
X31980000Y76070000D01*
X29020000Y77530000D02*
X29020000Y76070000D01*
X31980000Y77530000D02*
X29020000Y77530000D01*
X31980000Y76070000D02*
X31980000Y77530000D01*
%TO.C,R10*%
X34620000Y8470000D02*
X37580000Y8470000D01*
X34620000Y9930000D02*
X34620000Y8470000D01*
X37580000Y9930000D02*
X34620000Y9930000D01*
X37580000Y8470000D02*
X37580000Y9930000D01*
%TO.C,R8*%
X43830000Y95080000D02*
X42370000Y95080000D01*
X42370000Y95080000D02*
X42370000Y92120000D01*
X42370000Y92120000D02*
X43830000Y92120000D01*
X43830000Y92120000D02*
X43830000Y95080000D01*
%TO.C,R7*%
X45590000Y95080000D02*
X44130000Y95080000D01*
X44130000Y95080000D02*
X44130000Y92120000D01*
X44130000Y92120000D02*
X45590000Y92120000D01*
X45590000Y92120000D02*
X45590000Y95080000D01*
%TO.C,R5*%
X55180000Y76330000D02*
X52220000Y76330000D01*
X55180000Y74870000D02*
X55180000Y76330000D01*
X52220000Y74870000D02*
X55180000Y74870000D01*
X52220000Y76330000D02*
X52220000Y74870000D01*
%TO.C,R3*%
X29020000Y57270000D02*
X31980000Y57270000D01*
X29020000Y58730000D02*
X29020000Y57270000D01*
X31980000Y58730000D02*
X29020000Y58730000D01*
X31980000Y57270000D02*
X31980000Y58730000D01*
%TO.C,R2*%
X82180000Y51730000D02*
X79220000Y51730000D01*
X82180000Y50270000D02*
X82180000Y51730000D01*
X79220000Y50270000D02*
X82180000Y50270000D01*
X79220000Y51730000D02*
X79220000Y50270000D01*
%TO.C,Q5*%
X63100000Y16650000D02*
X63100000Y20150000D01*
X59700000Y16650000D02*
X63100000Y16650000D01*
X59700000Y20150000D02*
X59700000Y16650000D01*
X63100000Y20150000D02*
X59700000Y20150000D01*
%TO.C,Q4*%
X59010000Y14940000D02*
X59010000Y18440000D01*
X55610000Y14940000D02*
X59010000Y14940000D01*
X55610000Y18440000D02*
X55610000Y14940000D01*
X59010000Y18440000D02*
X55610000Y18440000D01*
%TO.C,Q3*%
X51700000Y27900000D02*
X55200000Y27900000D01*
X51700000Y31300000D02*
X51700000Y27900000D01*
X55200000Y31300000D02*
X51700000Y31300000D01*
X55200000Y27900000D02*
X55200000Y31300000D01*
%TO.C,J2*%
X55300000Y98650000D02*
X46250000Y98650000D01*
X46250000Y98650000D02*
X46250000Y90000000D01*
X46250000Y90000000D02*
X55300000Y90000000D01*
X55300000Y90000000D02*
X55300000Y98650000D01*
%TO.C,D3*%
X77030000Y10720000D02*
X77030000Y13680000D01*
X75570000Y10720000D02*
X77030000Y10720000D01*
X75570000Y13680000D02*
X75570000Y10720000D01*
X77030000Y13680000D02*
X75570000Y13680000D01*
%TO.C,D2*%
X72910000Y10720000D02*
X72910000Y13680000D01*
X71450000Y10720000D02*
X72910000Y10720000D01*
X71450000Y13680000D02*
X71450000Y10720000D01*
X72910000Y13680000D02*
X71450000Y13680000D01*
%TO.C,D1*%
X50250000Y3300000D02*
X46750000Y3300000D01*
X50250000Y-3700000D02*
X50250000Y3300000D01*
X46750000Y-3700000D02*
X50250000Y-3700000D01*
X46750000Y3300000D02*
X46750000Y-3700000D01*
%TO.C,C8*%
X58632500Y4270000D02*
X61592500Y4270000D01*
X58632500Y5730000D02*
X58632500Y4270000D01*
X61592500Y5730000D02*
X58632500Y5730000D01*
X61592500Y4270000D02*
X61592500Y5730000D01*
%TO.C,C7*%
X66820000Y-230000D02*
X69780000Y-230000D01*
X66820000Y1230000D02*
X66820000Y-230000D01*
X69780000Y1230000D02*
X66820000Y1230000D01*
X69780000Y-230000D02*
X69780000Y1230000D01*
%TO.C,C5*%
X51780000Y8120000D02*
X47220000Y8120000D01*
X51780000Y5880000D02*
X51780000Y8120000D01*
X47220000Y5880000D02*
X51780000Y5880000D01*
X47220000Y8120000D02*
X47220000Y5880000D01*
%TO.C,C4*%
X44440000Y14980000D02*
X47400000Y14980000D01*
X44440000Y16440000D02*
X44440000Y14980000D01*
X47400000Y16440000D02*
X44440000Y16440000D01*
X47400000Y14980000D02*
X47400000Y16440000D01*
%TO.C,C3*%
X47820000Y8470000D02*
X50780000Y8470000D01*
X47820000Y9930000D02*
X47820000Y8470000D01*
X50780000Y9930000D02*
X47820000Y9930000D01*
X50780000Y8470000D02*
X50780000Y9930000D01*
%TO.C,C2*%
X82180000Y55330000D02*
X79220000Y55330000D01*
X82180000Y53870000D02*
X82180000Y55330000D01*
X79220000Y53870000D02*
X82180000Y53870000D01*
X79220000Y55330000D02*
X79220000Y53870000D01*
%TO.C,C1*%
X82180000Y53530000D02*
X79220000Y53530000D01*
X82180000Y52070000D02*
X82180000Y53530000D01*
X79220000Y52070000D02*
X82180000Y52070000D01*
X79220000Y53530000D02*
X79220000Y52070000D01*
%TD*%
M02*
