%TF.GenerationSoftware,KiCad,Pcbnew,(5.1.6-0-10_14)*%
%TF.CreationDate,2021-01-05T22:04:13+01:00*%
%TF.ProjectId,ecsc21-badge,65637363-3231-42d6-9261-6467652e6b69,rev?*%
%TF.SameCoordinates,PX5c07920PY8b3c880*%
%TF.FileFunction,Legend,Bot*%
%TF.FilePolarity,Positive*%
%FSLAX46Y46*%
G04 Gerber Fmt 4.6, Leading zero omitted, Abs format (unit mm)*
G04 Created by KiCad (PCBNEW (5.1.6-0-10_14)) date 2021-01-05 22:04:13*
%MOMM*%
%LPD*%
G01*
G04 APERTURE LIST*
%ADD10C,0.150000*%
%ADD11C,0.300000*%
%ADD12C,0.120000*%
%ADD13C,0.254000*%
%ADD14C,0.200000*%
%ADD15C,0.127000*%
%ADD16C,0.152000*%
%ADD17C,0.015000*%
%ADD18C,0.010000*%
%ADD19R,0.600000X1.370000*%
%ADD20R,2.400000X3.200000*%
%ADD21R,0.400000X1.200000*%
%ADD22R,5.100000X5.100000*%
%ADD23R,1.000000X2.100000*%
%ADD24R,1.000000X0.900000*%
%ADD25C,1.000000*%
%ADD26R,1.100000X1.650000*%
%ADD27C,1.600000*%
%ADD28C,0.100000*%
%ADD29R,1.400000X1.000000*%
%ADD30R,1.900000X1.550000*%
%ADD31R,1.900000X1.300000*%
%ADD32R,0.400000X1.260000*%
%ADD33C,0.750000*%
%ADD34R,0.700000X1.260000*%
%ADD35R,0.900000X1.000000*%
%ADD36R,3.100000X1.100000*%
%ADD37R,1.900000X2.600000*%
G04 APERTURE END LIST*
D10*
X46490476Y-4452380D02*
X46966666Y-4452380D01*
X47014285Y-4928571D01*
X46966666Y-4880952D01*
X46871428Y-4833333D01*
X46633333Y-4833333D01*
X46538095Y-4880952D01*
X46490476Y-4928571D01*
X46442857Y-5023809D01*
X46442857Y-5261904D01*
X46490476Y-5357142D01*
X46538095Y-5404761D01*
X46633333Y-5452380D01*
X46871428Y-5452380D01*
X46966666Y-5404761D01*
X47014285Y-5357142D01*
X46157142Y-4452380D02*
X45823809Y-5452380D01*
X45490476Y-4452380D01*
X86938095Y48547620D02*
X86319047Y48547620D01*
X86652380Y48166667D01*
X86509523Y48166667D01*
X86414285Y48119048D01*
X86366666Y48071429D01*
X86319047Y47976191D01*
X86319047Y47738096D01*
X86366666Y47642858D01*
X86414285Y47595239D01*
X86509523Y47547620D01*
X86795238Y47547620D01*
X86890476Y47595239D01*
X86938095Y47642858D01*
X86033333Y48547620D02*
X85700000Y47547620D01*
X85366666Y48547620D01*
X85128571Y48547620D02*
X84509523Y48547620D01*
X84842857Y48166667D01*
X84700000Y48166667D01*
X84604761Y48119048D01*
X84557142Y48071429D01*
X84509523Y47976191D01*
X84509523Y47738096D01*
X84557142Y47642858D01*
X84604761Y47595239D01*
X84700000Y47547620D01*
X84985714Y47547620D01*
X85080952Y47595239D01*
X85128571Y47642858D01*
D11*
X77023571Y18707143D02*
X76809285Y18635715D01*
X76737857Y18564286D01*
X76666428Y18421429D01*
X76666428Y18207143D01*
X76737857Y18064286D01*
X76809285Y17992858D01*
X76952142Y17921429D01*
X77523571Y17921429D01*
X77523571Y19421429D01*
X77023571Y19421429D01*
X76880714Y19350000D01*
X76809285Y19278572D01*
X76737857Y19135715D01*
X76737857Y18992858D01*
X76809285Y18850000D01*
X76880714Y18778572D01*
X77023571Y18707143D01*
X77523571Y18707143D01*
X75309285Y17921429D02*
X76023571Y17921429D01*
X76023571Y19421429D01*
X75166428Y17778572D02*
X74023571Y17778572D01*
X73666428Y18707143D02*
X73166428Y18707143D01*
X72952142Y17921429D02*
X73666428Y17921429D01*
X73666428Y19421429D01*
X72952142Y19421429D01*
X72309285Y17921429D02*
X72309285Y19421429D01*
X71452142Y17921429D01*
X71452142Y19421429D01*
X73652142Y39021429D02*
X72795000Y39021429D01*
X73223571Y37521429D02*
X73223571Y39021429D01*
X72295000Y38307143D02*
X71795000Y38307143D01*
X71580714Y37521429D02*
X72295000Y37521429D01*
X72295000Y39021429D01*
X71580714Y39021429D01*
D10*
X43261904Y50700000D02*
X43357142Y50747620D01*
X43500000Y50747620D01*
X43642857Y50700000D01*
X43738095Y50604762D01*
X43785714Y50509524D01*
X43833333Y50319048D01*
X43833333Y50176191D01*
X43785714Y49985715D01*
X43738095Y49890477D01*
X43642857Y49795239D01*
X43500000Y49747620D01*
X43404761Y49747620D01*
X43261904Y49795239D01*
X43214285Y49842858D01*
X43214285Y50176191D01*
X43404761Y50176191D01*
X42785714Y49747620D02*
X42785714Y50747620D01*
X42214285Y49747620D01*
X42214285Y50747620D01*
X41738095Y49747620D02*
X41738095Y50747620D01*
X41500000Y50747620D01*
X41357142Y50700000D01*
X41261904Y50604762D01*
X41214285Y50509524D01*
X41166666Y50319048D01*
X41166666Y50176191D01*
X41214285Y49985715D01*
X41261904Y49890477D01*
X41357142Y49795239D01*
X41500000Y49747620D01*
X41738095Y49747620D01*
D11*
X73952142Y20721429D02*
X74452142Y21435715D01*
X74809285Y20721429D02*
X74809285Y22221429D01*
X74237857Y22221429D01*
X74095000Y22150000D01*
X74023571Y22078572D01*
X73952142Y21935715D01*
X73952142Y21721429D01*
X74023571Y21578572D01*
X74095000Y21507143D01*
X74237857Y21435715D01*
X74809285Y21435715D01*
X73380714Y20792858D02*
X73166428Y20721429D01*
X72809285Y20721429D01*
X72666428Y20792858D01*
X72595000Y20864286D01*
X72523571Y21007143D01*
X72523571Y21150000D01*
X72595000Y21292858D01*
X72666428Y21364286D01*
X72809285Y21435715D01*
X73095000Y21507143D01*
X73237857Y21578572D01*
X73309285Y21650000D01*
X73380714Y21792858D01*
X73380714Y21935715D01*
X73309285Y22078572D01*
X73237857Y22150000D01*
X73095000Y22221429D01*
X72737857Y22221429D01*
X72523571Y22150000D01*
X72095000Y22221429D02*
X71237857Y22221429D01*
X71666428Y20721429D02*
X71666428Y22221429D01*
X76166428Y23521429D02*
X76166428Y25021429D01*
X75666428Y23950000D01*
X75166428Y25021429D01*
X75166428Y23521429D01*
X74452142Y23521429D02*
X74452142Y25021429D01*
X73809285Y23592858D02*
X73595000Y23521429D01*
X73237857Y23521429D01*
X73095000Y23592858D01*
X73023571Y23664286D01*
X72952142Y23807143D01*
X72952142Y23950000D01*
X73023571Y24092858D01*
X73095000Y24164286D01*
X73237857Y24235715D01*
X73523571Y24307143D01*
X73666428Y24378572D01*
X73737857Y24450000D01*
X73809285Y24592858D01*
X73809285Y24735715D01*
X73737857Y24878572D01*
X73666428Y24950000D01*
X73523571Y25021429D01*
X73166428Y25021429D01*
X72952142Y24950000D01*
X72023571Y25021429D02*
X71737857Y25021429D01*
X71595000Y24950000D01*
X71452142Y24807143D01*
X71380714Y24521429D01*
X71380714Y24021429D01*
X71452142Y23735715D01*
X71595000Y23592858D01*
X71737857Y23521429D01*
X72023571Y23521429D01*
X72166428Y23592858D01*
X72309285Y23735715D01*
X72380714Y24021429D01*
X72380714Y24521429D01*
X72309285Y24807143D01*
X72166428Y24950000D01*
X72023571Y25021429D01*
X76166428Y26321429D02*
X76166428Y27821429D01*
X75666428Y26750000D01*
X75166428Y27821429D01*
X75166428Y26321429D01*
X74166428Y27821429D02*
X73880714Y27821429D01*
X73737857Y27750000D01*
X73595000Y27607143D01*
X73523571Y27321429D01*
X73523571Y26821429D01*
X73595000Y26535715D01*
X73737857Y26392858D01*
X73880714Y26321429D01*
X74166428Y26321429D01*
X74309285Y26392858D01*
X74452142Y26535715D01*
X74523571Y26821429D01*
X74523571Y27321429D01*
X74452142Y27607143D01*
X74309285Y27750000D01*
X74166428Y27821429D01*
X72952142Y26392858D02*
X72737857Y26321429D01*
X72380714Y26321429D01*
X72237857Y26392858D01*
X72166428Y26464286D01*
X72095000Y26607143D01*
X72095000Y26750000D01*
X72166428Y26892858D01*
X72237857Y26964286D01*
X72380714Y27035715D01*
X72666428Y27107143D01*
X72809285Y27178572D01*
X72880714Y27250000D01*
X72952142Y27392858D01*
X72952142Y27535715D01*
X72880714Y27678572D01*
X72809285Y27750000D01*
X72666428Y27821429D01*
X72309285Y27821429D01*
X72095000Y27750000D01*
X71452142Y26321429D02*
X71452142Y27821429D01*
X76937857Y29121429D02*
X76937857Y30621429D01*
X76580714Y30621429D01*
X76366428Y30550000D01*
X76223571Y30407143D01*
X76152142Y30264286D01*
X76080714Y29978572D01*
X76080714Y29764286D01*
X76152142Y29478572D01*
X76223571Y29335715D01*
X76366428Y29192858D01*
X76580714Y29121429D01*
X76937857Y29121429D01*
X74580714Y29264286D02*
X74652142Y29192858D01*
X74866428Y29121429D01*
X75009285Y29121429D01*
X75223571Y29192858D01*
X75366428Y29335715D01*
X75437857Y29478572D01*
X75509285Y29764286D01*
X75509285Y29978572D01*
X75437857Y30264286D01*
X75366428Y30407143D01*
X75223571Y30550000D01*
X75009285Y30621429D01*
X74866428Y30621429D01*
X74652142Y30550000D01*
X74580714Y30478572D01*
X72866428Y30692858D02*
X74152142Y28764286D01*
X72509285Y30621429D02*
X71509285Y29121429D01*
X71509285Y30621429D02*
X72509285Y29121429D01*
X75437857Y31992858D02*
X75223571Y31921429D01*
X74866428Y31921429D01*
X74723571Y31992858D01*
X74652142Y32064286D01*
X74580714Y32207143D01*
X74580714Y32350000D01*
X74652142Y32492858D01*
X74723571Y32564286D01*
X74866428Y32635715D01*
X75152142Y32707143D01*
X75295000Y32778572D01*
X75366428Y32850000D01*
X75437857Y32992858D01*
X75437857Y33135715D01*
X75366428Y33278572D01*
X75295000Y33350000D01*
X75152142Y33421429D01*
X74795000Y33421429D01*
X74580714Y33350000D01*
X73080714Y32064286D02*
X73152142Y31992858D01*
X73366428Y31921429D01*
X73509285Y31921429D01*
X73723571Y31992858D01*
X73866428Y32135715D01*
X73937857Y32278572D01*
X74009285Y32564286D01*
X74009285Y32778572D01*
X73937857Y33064286D01*
X73866428Y33207143D01*
X73723571Y33350000D01*
X73509285Y33421429D01*
X73366428Y33421429D01*
X73152142Y33350000D01*
X73080714Y33278572D01*
X72437857Y31921429D02*
X72437857Y33421429D01*
X71580714Y31921429D02*
X72223571Y32778572D01*
X71580714Y33421429D02*
X72437857Y32564286D01*
X73009285Y34864286D02*
X73080714Y34792858D01*
X73295000Y34721429D01*
X73437857Y34721429D01*
X73652142Y34792858D01*
X73795000Y34935715D01*
X73866428Y35078572D01*
X73937857Y35364286D01*
X73937857Y35578572D01*
X73866428Y35864286D01*
X73795000Y36007143D01*
X73652142Y36150000D01*
X73437857Y36221429D01*
X73295000Y36221429D01*
X73080714Y36150000D01*
X73009285Y36078572D01*
X72437857Y34792858D02*
X72223571Y34721429D01*
X71866428Y34721429D01*
X71723571Y34792858D01*
X71652142Y34864286D01*
X71580714Y35007143D01*
X71580714Y35150000D01*
X71652142Y35292858D01*
X71723571Y35364286D01*
X71866428Y35435715D01*
X72152142Y35507143D01*
X72295000Y35578572D01*
X72366428Y35650000D01*
X72437857Y35792858D01*
X72437857Y35935715D01*
X72366428Y36078572D01*
X72295000Y36150000D01*
X72152142Y36221429D01*
X71795000Y36221429D01*
X71580714Y36150000D01*
D10*
X38319047Y50972620D02*
X37700000Y50972620D01*
X38033333Y50591667D01*
X37890476Y50591667D01*
X37795238Y50544048D01*
X37747619Y50496429D01*
X37700000Y50401191D01*
X37700000Y50163096D01*
X37747619Y50067858D01*
X37795238Y50020239D01*
X37890476Y49972620D01*
X38176190Y49972620D01*
X38271428Y50020239D01*
X38319047Y50067858D01*
X37414285Y50972620D02*
X37080952Y49972620D01*
X36747619Y50972620D01*
X36509523Y50972620D02*
X35890476Y50972620D01*
X36223809Y50591667D01*
X36080952Y50591667D01*
X35985714Y50544048D01*
X35938095Y50496429D01*
X35890476Y50401191D01*
X35890476Y50163096D01*
X35938095Y50067858D01*
X35985714Y50020239D01*
X36080952Y49972620D01*
X36366666Y49972620D01*
X36461904Y50020239D01*
X36509523Y50067858D01*
X39438095Y48322620D02*
X39438095Y49322620D01*
X39200000Y49322620D01*
X39057142Y49275000D01*
X38961904Y49179762D01*
X38914285Y49084524D01*
X38866666Y48894048D01*
X38866666Y48751191D01*
X38914285Y48560715D01*
X38961904Y48465477D01*
X39057142Y48370239D01*
X39200000Y48322620D01*
X39438095Y48322620D01*
X38438095Y48322620D02*
X38438095Y49322620D01*
X38009523Y48370239D02*
X37866666Y48322620D01*
X37628571Y48322620D01*
X37533333Y48370239D01*
X37485714Y48417858D01*
X37438095Y48513096D01*
X37438095Y48608334D01*
X37485714Y48703572D01*
X37533333Y48751191D01*
X37628571Y48798810D01*
X37819047Y48846429D01*
X37914285Y48894048D01*
X37961904Y48941667D01*
X38009523Y49036905D01*
X38009523Y49132143D01*
X37961904Y49227381D01*
X37914285Y49275000D01*
X37819047Y49322620D01*
X37580952Y49322620D01*
X37438095Y49275000D01*
X37009523Y48322620D02*
X37009523Y49322620D01*
X36628571Y49322620D01*
X36533333Y49275000D01*
X36485714Y49227381D01*
X36438095Y49132143D01*
X36438095Y48989286D01*
X36485714Y48894048D01*
X36533333Y48846429D01*
X36628571Y48798810D01*
X37009523Y48798810D01*
X35533333Y48322620D02*
X36009523Y48322620D01*
X36009523Y49322620D01*
X35247619Y48608334D02*
X34771428Y48608334D01*
X35342857Y48322620D02*
X35009523Y49322620D01*
X34676190Y48322620D01*
X34152380Y48798810D02*
X34152380Y48322620D01*
X34485714Y49322620D02*
X34152380Y48798810D01*
X33819047Y49322620D01*
D12*
%TO.C,D6*%
X40900000Y-1465000D02*
X43185000Y-1465000D01*
X43185000Y-1465000D02*
X43185000Y-2935000D01*
X43185000Y-2935000D02*
X40900000Y-2935000D01*
%TO.C,D5*%
X42487500Y9265000D02*
X40202500Y9265000D01*
X40202500Y9265000D02*
X40202500Y10735000D01*
X40202500Y10735000D02*
X42487500Y10735000D01*
D13*
%TO.C,J5*%
X66802000Y98975000D02*
X66802000Y95800000D01*
X66802000Y95800000D02*
X65886000Y95800000D01*
X64924000Y95800000D02*
X64616000Y95800000D01*
X63654000Y95800000D02*
X63346000Y95800000D01*
X62384000Y95800000D02*
X62076000Y95800000D01*
X61114000Y95800000D02*
X60198000Y95800000D01*
X60198000Y95800000D02*
X60198000Y98975000D01*
X60198000Y98975000D02*
X66802000Y98975000D01*
X66351000Y97578000D02*
G75*
G03*
X66351000Y97578000I-1200000J0D01*
G01*
X63049000Y97578000D02*
G75*
G03*
X63049000Y97578000I-1200000J0D01*
G01*
D12*
%TO.C,J4*%
X45535000Y46240000D02*
X45425000Y46240000D01*
X45425000Y46240000D02*
X45425000Y46840000D01*
X70965000Y46240000D02*
X71075000Y46240000D01*
X71075000Y46240000D02*
X71075000Y46840000D01*
X48300000Y43650000D02*
X48500000Y44050000D01*
X48500000Y44050000D02*
X48700000Y43650000D01*
X48700000Y43650000D02*
X48300000Y43650000D01*
%TO.C,R29*%
X73810000Y91962779D02*
X73810000Y91637221D01*
X72790000Y91962779D02*
X72790000Y91637221D01*
%TO.C,R28*%
X57390000Y97437221D02*
X57390000Y97762779D01*
X58410000Y97437221D02*
X58410000Y97762779D01*
%TO.C,R27*%
X36662779Y-3290000D02*
X36337221Y-3290000D01*
X36662779Y-4310000D02*
X36337221Y-4310000D01*
%TO.C,R12*%
X34790000Y6762779D02*
X34790000Y6437221D01*
X35810000Y6762779D02*
X35810000Y6437221D01*
%TO.C,R21*%
X57490000Y93962779D02*
X57490000Y93637221D01*
X58510000Y93962779D02*
X58510000Y93637221D01*
D14*
%TO.C,U2*%
X81350000Y56700000D02*
G75*
G03*
X81350000Y56700000I-100000J0D01*
G01*
D15*
X57250000Y76100000D02*
X57450000Y76100000D01*
X57250000Y58100000D02*
X57250000Y76100000D01*
X57450000Y58100000D02*
X57250000Y58100000D01*
X88650000Y76100000D02*
X82080000Y76100000D01*
X88650000Y58100000D02*
X88650000Y76100000D01*
X82080000Y58100000D02*
X88650000Y58100000D01*
D12*
%TO.C,R26*%
X34347221Y4595000D02*
X34672779Y4595000D01*
X34347221Y3575000D02*
X34672779Y3575000D01*
%TO.C,Q1*%
X35490000Y2135000D02*
X34030000Y2135000D01*
X35490000Y-1025000D02*
X33330000Y-1025000D01*
X35490000Y-1025000D02*
X35490000Y-95000D01*
X35490000Y2135000D02*
X35490000Y1205000D01*
%TO.C,D4*%
X76535000Y96415000D02*
X72650000Y96415000D01*
X76535000Y98685000D02*
X76535000Y96415000D01*
X72650000Y98685000D02*
X76535000Y98685000D01*
%TO.C,R25*%
X74412779Y94790000D02*
X74087221Y94790000D01*
X74412779Y95810000D02*
X74087221Y95810000D01*
%TO.C,R24*%
X45410000Y97762779D02*
X45410000Y97437221D01*
X44390000Y97762779D02*
X44390000Y97437221D01*
%TO.C,C11*%
X62397936Y93960000D02*
X63602064Y93960000D01*
X62397936Y92140000D02*
X63602064Y92140000D01*
D13*
%TO.C,SW4*%
X23414000Y19171000D02*
X23724000Y19171000D01*
X23414000Y19651000D02*
X23733000Y19651000D01*
X23414000Y20281000D02*
X23950000Y20281000D01*
X23950000Y19922000D02*
X23950000Y21750000D01*
X23950000Y17050000D02*
X23950000Y18878000D01*
X27450000Y19922000D02*
X27450000Y21750000D01*
X27450000Y17050000D02*
X27450000Y18878000D01*
X27224000Y17050000D02*
X27450000Y17050000D01*
X23414000Y20308000D02*
X23950000Y20308000D01*
X23414000Y18466000D02*
X23950000Y18466000D01*
X23414000Y20700000D02*
X23414000Y18130000D01*
X22950000Y20700000D02*
X23414000Y20700000D01*
X22950000Y18100000D02*
X22950000Y20700000D01*
X23414000Y18100000D02*
X22950000Y18100000D01*
X27450000Y21750000D02*
X27224000Y21750000D01*
%TO.C,SW3*%
X23414000Y37171000D02*
X23724000Y37171000D01*
X23414000Y37651000D02*
X23733000Y37651000D01*
X23414000Y38281000D02*
X23950000Y38281000D01*
X23950000Y37922000D02*
X23950000Y39750000D01*
X23950000Y35050000D02*
X23950000Y36878000D01*
X27450000Y37922000D02*
X27450000Y39750000D01*
X27450000Y35050000D02*
X27450000Y36878000D01*
X27224000Y35050000D02*
X27450000Y35050000D01*
X23414000Y38308000D02*
X23950000Y38308000D01*
X23414000Y36466000D02*
X23950000Y36466000D01*
X23414000Y38700000D02*
X23414000Y36130000D01*
X22950000Y38700000D02*
X23414000Y38700000D01*
X22950000Y36100000D02*
X22950000Y38700000D01*
X23414000Y36100000D02*
X22950000Y36100000D01*
X27450000Y39750000D02*
X27224000Y39750000D01*
%TO.C,SW2*%
X23414000Y55171000D02*
X23724000Y55171000D01*
X23414000Y55651000D02*
X23733000Y55651000D01*
X23414000Y56281000D02*
X23950000Y56281000D01*
X23950000Y55922000D02*
X23950000Y57750000D01*
X23950000Y53050000D02*
X23950000Y54878000D01*
X27450000Y55922000D02*
X27450000Y57750000D01*
X27450000Y53050000D02*
X27450000Y54878000D01*
X27224000Y53050000D02*
X27450000Y53050000D01*
X23414000Y56308000D02*
X23950000Y56308000D01*
X23414000Y54466000D02*
X23950000Y54466000D01*
X23414000Y56700000D02*
X23414000Y54130000D01*
X22950000Y56700000D02*
X23414000Y56700000D01*
X22950000Y54100000D02*
X22950000Y56700000D01*
X23414000Y54100000D02*
X22950000Y54100000D01*
X27450000Y57750000D02*
X27224000Y57750000D01*
%TO.C,SW1*%
X23414000Y73371000D02*
X23724000Y73371000D01*
X23414000Y73851000D02*
X23733000Y73851000D01*
X23414000Y74481000D02*
X23950000Y74481000D01*
X23950000Y74122000D02*
X23950000Y75950000D01*
X23950000Y71250000D02*
X23950000Y73078000D01*
X27450000Y74122000D02*
X27450000Y75950000D01*
X27450000Y71250000D02*
X27450000Y73078000D01*
X27224000Y71250000D02*
X27450000Y71250000D01*
X23414000Y74508000D02*
X23950000Y74508000D01*
X23414000Y72666000D02*
X23950000Y72666000D01*
X23414000Y74900000D02*
X23414000Y72330000D01*
X22950000Y74900000D02*
X23414000Y74900000D01*
X22950000Y72300000D02*
X22950000Y74900000D01*
X23414000Y72300000D02*
X22950000Y72300000D01*
X27450000Y75950000D02*
X27224000Y75950000D01*
D12*
%TO.C,C6*%
X35040000Y41602064D02*
X35040000Y40397936D01*
X36860000Y41602064D02*
X36860000Y40397936D01*
%TO.C,TP13*%
X46450000Y-4400000D02*
G75*
G03*
X46450000Y-4400000I-950000J0D01*
G01*
%TO.C,TP12*%
X83650000Y48000000D02*
G75*
G03*
X83650000Y48000000I-950000J0D01*
G01*
%TO.C,TP11*%
X69450000Y21400000D02*
G75*
G03*
X69450000Y21400000I-950000J0D01*
G01*
%TO.C,TP10*%
X69450000Y24200000D02*
G75*
G03*
X69450000Y24200000I-950000J0D01*
G01*
%TO.C,TP9*%
X69450000Y27000000D02*
G75*
G03*
X69450000Y27000000I-950000J0D01*
G01*
%TO.C,TP8*%
X69450000Y29800000D02*
G75*
G03*
X69450000Y29800000I-950000J0D01*
G01*
%TO.C,TP7*%
X69450000Y32600000D02*
G75*
G03*
X69450000Y32600000I-950000J0D01*
G01*
%TO.C,TP6*%
X69450000Y35400000D02*
G75*
G03*
X69450000Y35400000I-950000J0D01*
G01*
%TO.C,TP5*%
X69450000Y38200000D02*
G75*
G03*
X69450000Y38200000I-950000J0D01*
G01*
%TO.C,TP4*%
X69450000Y18600000D02*
G75*
G03*
X69450000Y18600000I-950000J0D01*
G01*
%TO.C,TP3*%
X58250000Y32800000D02*
G75*
G03*
X58250000Y32800000I-950000J0D01*
G01*
%TO.C,TP2*%
X43400000Y48000000D02*
G75*
G03*
X43400000Y48000000I-950000J0D01*
G01*
%TO.C,TP1*%
X37650000Y46500000D02*
G75*
G03*
X37650000Y46500000I-950000J0D01*
G01*
%TO.C,R9*%
X50012779Y32810000D02*
X49687221Y32810000D01*
X50012779Y31790000D02*
X49687221Y31790000D01*
%TO.C,R6*%
X50012779Y34410000D02*
X49687221Y34410000D01*
X50012779Y33390000D02*
X49687221Y33390000D01*
%TO.C,R4*%
X50012779Y31210000D02*
X49687221Y31210000D01*
X50012779Y30190000D02*
X49687221Y30190000D01*
%TO.C,U4*%
X41930000Y41410000D02*
X41930000Y41640000D01*
X41930000Y46130000D02*
X41930000Y45900000D01*
X41930000Y46130000D02*
X39210000Y46130000D01*
X39210000Y46130000D02*
X39210000Y44820000D01*
X43070000Y45900000D02*
X41930000Y45900000D01*
X39210000Y41410000D02*
X41930000Y41410000D01*
X39210000Y42720000D02*
X39210000Y41410000D01*
%TO.C,R1*%
X54030000Y33741252D02*
X54030000Y33218748D01*
X52610000Y33741252D02*
X52610000Y33218748D01*
%TO.C,C10*%
X39287221Y40010000D02*
X39612779Y40010000D01*
X39287221Y38990000D02*
X39612779Y38990000D01*
%TO.C,C9*%
X42287221Y40010000D02*
X42612779Y40010000D01*
X42287221Y38990000D02*
X42612779Y38990000D01*
%TO.C,J3*%
X61920000Y-1130000D02*
X61920000Y-2930000D01*
X61920000Y-6640000D02*
X61920000Y-5180000D01*
X52980000Y-6640000D02*
X52980000Y-5180000D01*
X52980000Y-1130000D02*
X52980000Y-2930000D01*
X52980000Y-6640000D02*
X61920000Y-6640000D01*
%TO.C,U3*%
X63710000Y9800000D02*
X63710000Y6350000D01*
X63710000Y9800000D02*
X63710000Y11750000D01*
X53590000Y9800000D02*
X53590000Y7850000D01*
X53590000Y9800000D02*
X53590000Y11750000D01*
%TO.C,U1*%
X42310000Y11840000D02*
X42310000Y12070000D01*
X42310000Y16560000D02*
X42310000Y16330000D01*
X42310000Y16560000D02*
X39590000Y16560000D01*
X39590000Y16560000D02*
X39590000Y15250000D01*
X43450000Y16330000D02*
X42310000Y16330000D01*
X39590000Y11840000D02*
X42310000Y11840000D01*
X39590000Y13150000D02*
X39590000Y11840000D01*
%TO.C,R23*%
X64612779Y1440000D02*
X64287221Y1440000D01*
X64612779Y2460000D02*
X64287221Y2460000D01*
%TO.C,R22*%
X52537221Y5510000D02*
X52862779Y5510000D01*
X52537221Y4490000D02*
X52862779Y4490000D01*
%TO.C,R20*%
X75200000Y12362779D02*
X75200000Y12037221D01*
X74180000Y12362779D02*
X74180000Y12037221D01*
%TO.C,R19*%
X69990000Y12037221D02*
X69990000Y12362779D01*
X71010000Y12037221D02*
X71010000Y12362779D01*
%TO.C,R18*%
X62092779Y14850000D02*
X61767221Y14850000D01*
X62092779Y15870000D02*
X61767221Y15870000D01*
%TO.C,R17*%
X59662779Y20890000D02*
X59337221Y20890000D01*
X59662779Y21910000D02*
X59337221Y21910000D01*
%TO.C,R16*%
X68137221Y-590000D02*
X68462779Y-590000D01*
X68137221Y-1610000D02*
X68462779Y-1610000D01*
%TO.C,R15*%
X68462779Y-3210000D02*
X68137221Y-3210000D01*
X68462779Y-2190000D02*
X68137221Y-2190000D01*
%TO.C,R14*%
X30662779Y20490000D02*
X30337221Y20490000D01*
X30662779Y21510000D02*
X30337221Y21510000D01*
%TO.C,R13*%
X30662779Y39290000D02*
X30337221Y39290000D01*
X30662779Y40310000D02*
X30337221Y40310000D01*
%TO.C,R11*%
X30662779Y76290000D02*
X30337221Y76290000D01*
X30662779Y77310000D02*
X30337221Y77310000D01*
%TO.C,R10*%
X36262779Y8690000D02*
X35937221Y8690000D01*
X36262779Y9710000D02*
X35937221Y9710000D01*
%TO.C,R8*%
X42590000Y93762779D02*
X42590000Y93437221D01*
X43610000Y93762779D02*
X43610000Y93437221D01*
%TO.C,R7*%
X44350000Y93762779D02*
X44350000Y93437221D01*
X45370000Y93762779D02*
X45370000Y93437221D01*
%TO.C,R5*%
X53537221Y76110000D02*
X53862779Y76110000D01*
X53537221Y75090000D02*
X53862779Y75090000D01*
%TO.C,R3*%
X30662779Y57490000D02*
X30337221Y57490000D01*
X30662779Y58510000D02*
X30337221Y58510000D01*
%TO.C,R2*%
X80537221Y51510000D02*
X80862779Y51510000D01*
X80537221Y50490000D02*
X80862779Y50490000D01*
%TO.C,Q5*%
X60640000Y16820000D02*
X62100000Y16820000D01*
X60640000Y19980000D02*
X62800000Y19980000D01*
X60640000Y19980000D02*
X60640000Y19050000D01*
X60640000Y16820000D02*
X60640000Y17750000D01*
%TO.C,Q4*%
X56550000Y15110000D02*
X58010000Y15110000D01*
X56550000Y18270000D02*
X58710000Y18270000D01*
X56550000Y18270000D02*
X56550000Y17340000D01*
X56550000Y15110000D02*
X56550000Y16040000D01*
%TO.C,Q3*%
X51870000Y30360000D02*
X51870000Y28900000D01*
X55030000Y30360000D02*
X55030000Y28200000D01*
X55030000Y30360000D02*
X54100000Y30360000D01*
X51870000Y30360000D02*
X52800000Y30360000D01*
%TO.C,J2*%
X53350000Y98170000D02*
X48150000Y98170000D01*
X48150000Y98170000D02*
X48150000Y97600000D01*
X48150000Y96080000D02*
X48150000Y95060000D01*
X48150000Y93540000D02*
X48150000Y92520000D01*
X48150000Y91000000D02*
X48150000Y90430000D01*
X53350000Y90430000D02*
X48150000Y90430000D01*
X53350000Y98170000D02*
X53350000Y97600000D01*
X53350000Y96080000D02*
X53350000Y95060000D01*
X53350000Y93540000D02*
X53350000Y92520000D01*
X53350000Y91000000D02*
X53350000Y90430000D01*
X48150000Y97600000D02*
X46790000Y97600000D01*
%TO.C,D3*%
X77035000Y13685000D02*
X77035000Y11400000D01*
X75565000Y13685000D02*
X77035000Y13685000D01*
X75565000Y11400000D02*
X75565000Y13685000D01*
%TO.C,D2*%
X72915000Y13685000D02*
X72915000Y11400000D01*
X71445000Y13685000D02*
X72915000Y13685000D01*
X71445000Y11400000D02*
X71445000Y13685000D01*
%TO.C,D1*%
X46850000Y3200000D02*
X46850000Y-2200000D01*
X50150000Y3200000D02*
X50150000Y-2200000D01*
X46850000Y3200000D02*
X50150000Y3200000D01*
%TO.C,C8*%
X60275279Y4490000D02*
X59949721Y4490000D01*
X60275279Y5510000D02*
X59949721Y5510000D01*
%TO.C,C7*%
X68462779Y-10000D02*
X68137221Y-10000D01*
X68462779Y1010000D02*
X68137221Y1010000D01*
%TO.C,C5*%
X48897936Y7910000D02*
X50102064Y7910000D01*
X48897936Y6090000D02*
X50102064Y6090000D01*
%TO.C,C4*%
X46082779Y15200000D02*
X45757221Y15200000D01*
X46082779Y16220000D02*
X45757221Y16220000D01*
%TO.C,C3*%
X49462779Y8690000D02*
X49137221Y8690000D01*
X49462779Y9710000D02*
X49137221Y9710000D01*
%TO.C,C2*%
X80537221Y55110000D02*
X80862779Y55110000D01*
X80537221Y54090000D02*
X80862779Y54090000D01*
%TO.C,C1*%
X80537221Y53310000D02*
X80862779Y53310000D01*
X80537221Y52290000D02*
X80862779Y52290000D01*
%TO.C,D6*%
D10*
X42438095Y-1222380D02*
X42438095Y-222380D01*
X42200000Y-222380D01*
X42057142Y-270000D01*
X41961904Y-365238D01*
X41914285Y-460476D01*
X41866666Y-650952D01*
X41866666Y-793809D01*
X41914285Y-984285D01*
X41961904Y-1079523D01*
X42057142Y-1174761D01*
X42200000Y-1222380D01*
X42438095Y-1222380D01*
X41009523Y-222380D02*
X41200000Y-222380D01*
X41295238Y-270000D01*
X41342857Y-317619D01*
X41438095Y-460476D01*
X41485714Y-650952D01*
X41485714Y-1031904D01*
X41438095Y-1127142D01*
X41390476Y-1174761D01*
X41295238Y-1222380D01*
X41104761Y-1222380D01*
X41009523Y-1174761D01*
X40961904Y-1127142D01*
X40914285Y-1031904D01*
X40914285Y-793809D01*
X40961904Y-698571D01*
X41009523Y-650952D01*
X41104761Y-603333D01*
X41295238Y-603333D01*
X41390476Y-650952D01*
X41438095Y-698571D01*
X41485714Y-793809D01*
%TO.C,D5*%
X42425595Y8117620D02*
X42425595Y9117620D01*
X42187500Y9117620D01*
X42044642Y9070000D01*
X41949404Y8974762D01*
X41901785Y8879524D01*
X41854166Y8689048D01*
X41854166Y8546191D01*
X41901785Y8355715D01*
X41949404Y8260477D01*
X42044642Y8165239D01*
X42187500Y8117620D01*
X42425595Y8117620D01*
X40949404Y9117620D02*
X41425595Y9117620D01*
X41473214Y8641429D01*
X41425595Y8689048D01*
X41330357Y8736667D01*
X41092261Y8736667D01*
X40997023Y8689048D01*
X40949404Y8641429D01*
X40901785Y8546191D01*
X40901785Y8308096D01*
X40949404Y8212858D01*
X40997023Y8165239D01*
X41092261Y8117620D01*
X41330357Y8117620D01*
X41425595Y8165239D01*
X41473214Y8212858D01*
%TO.C,J5*%
D16*
X62985485Y99981929D02*
X62985485Y99165500D01*
X63039914Y99002215D01*
X63148771Y98893358D01*
X63312057Y98838929D01*
X63420914Y98838929D01*
X61896914Y99981929D02*
X62441200Y99981929D01*
X62495628Y99437643D01*
X62441200Y99492072D01*
X62332342Y99546500D01*
X62060200Y99546500D01*
X61951342Y99492072D01*
X61896914Y99437643D01*
X61842485Y99328786D01*
X61842485Y99056643D01*
X61896914Y98947786D01*
X61951342Y98893358D01*
X62060200Y98838929D01*
X62332342Y98838929D01*
X62441200Y98893358D01*
X62495628Y98947786D01*
%TO.C,J4*%
D10*
X58583333Y41647620D02*
X58583333Y40933334D01*
X58630952Y40790477D01*
X58726190Y40695239D01*
X58869047Y40647620D01*
X58964285Y40647620D01*
X57678571Y41314286D02*
X57678571Y40647620D01*
X57916666Y41695239D02*
X58154761Y40980953D01*
X57535714Y40980953D01*
%TO.C,R29*%
X72322380Y92442858D02*
X71846190Y92776191D01*
X72322380Y93014286D02*
X71322380Y93014286D01*
X71322380Y92633334D01*
X71370000Y92538096D01*
X71417619Y92490477D01*
X71512857Y92442858D01*
X71655714Y92442858D01*
X71750952Y92490477D01*
X71798571Y92538096D01*
X71846190Y92633334D01*
X71846190Y93014286D01*
X71417619Y92061905D02*
X71370000Y92014286D01*
X71322380Y91919048D01*
X71322380Y91680953D01*
X71370000Y91585715D01*
X71417619Y91538096D01*
X71512857Y91490477D01*
X71608095Y91490477D01*
X71750952Y91538096D01*
X72322380Y92109524D01*
X72322380Y91490477D01*
X72322380Y91014286D02*
X72322380Y90823810D01*
X72274761Y90728572D01*
X72227142Y90680953D01*
X72084285Y90585715D01*
X71893809Y90538096D01*
X71512857Y90538096D01*
X71417619Y90585715D01*
X71370000Y90633334D01*
X71322380Y90728572D01*
X71322380Y90919048D01*
X71370000Y91014286D01*
X71417619Y91061905D01*
X71512857Y91109524D01*
X71750952Y91109524D01*
X71846190Y91061905D01*
X71893809Y91014286D01*
X71941428Y90919048D01*
X71941428Y90728572D01*
X71893809Y90633334D01*
X71846190Y90585715D01*
X71750952Y90538096D01*
%TO.C,R28*%
X56752380Y98242858D02*
X56276190Y98576191D01*
X56752380Y98814286D02*
X55752380Y98814286D01*
X55752380Y98433334D01*
X55800000Y98338096D01*
X55847619Y98290477D01*
X55942857Y98242858D01*
X56085714Y98242858D01*
X56180952Y98290477D01*
X56228571Y98338096D01*
X56276190Y98433334D01*
X56276190Y98814286D01*
X55847619Y97861905D02*
X55800000Y97814286D01*
X55752380Y97719048D01*
X55752380Y97480953D01*
X55800000Y97385715D01*
X55847619Y97338096D01*
X55942857Y97290477D01*
X56038095Y97290477D01*
X56180952Y97338096D01*
X56752380Y97909524D01*
X56752380Y97290477D01*
X56180952Y96719048D02*
X56133333Y96814286D01*
X56085714Y96861905D01*
X55990476Y96909524D01*
X55942857Y96909524D01*
X55847619Y96861905D01*
X55800000Y96814286D01*
X55752380Y96719048D01*
X55752380Y96528572D01*
X55800000Y96433334D01*
X55847619Y96385715D01*
X55942857Y96338096D01*
X55990476Y96338096D01*
X56085714Y96385715D01*
X56133333Y96433334D01*
X56180952Y96528572D01*
X56180952Y96719048D01*
X56228571Y96814286D01*
X56276190Y96861905D01*
X56371428Y96909524D01*
X56561904Y96909524D01*
X56657142Y96861905D01*
X56704761Y96814286D01*
X56752380Y96719048D01*
X56752380Y96528572D01*
X56704761Y96433334D01*
X56657142Y96385715D01*
X56561904Y96338096D01*
X56371428Y96338096D01*
X56276190Y96385715D01*
X56228571Y96433334D01*
X56180952Y96528572D01*
%TO.C,R27*%
X34142857Y-4252380D02*
X34476190Y-3776190D01*
X34714285Y-4252380D02*
X34714285Y-3252380D01*
X34333333Y-3252380D01*
X34238095Y-3300000D01*
X34190476Y-3347619D01*
X34142857Y-3442857D01*
X34142857Y-3585714D01*
X34190476Y-3680952D01*
X34238095Y-3728571D01*
X34333333Y-3776190D01*
X34714285Y-3776190D01*
X33761904Y-3347619D02*
X33714285Y-3300000D01*
X33619047Y-3252380D01*
X33380952Y-3252380D01*
X33285714Y-3300000D01*
X33238095Y-3347619D01*
X33190476Y-3442857D01*
X33190476Y-3538095D01*
X33238095Y-3680952D01*
X33809523Y-4252380D01*
X33190476Y-4252380D01*
X32857142Y-3252380D02*
X32190476Y-3252380D01*
X32619047Y-4252380D01*
%TO.C,R12*%
X35952380Y4442858D02*
X35476190Y4776191D01*
X35952380Y5014286D02*
X34952380Y5014286D01*
X34952380Y4633334D01*
X35000000Y4538096D01*
X35047619Y4490477D01*
X35142857Y4442858D01*
X35285714Y4442858D01*
X35380952Y4490477D01*
X35428571Y4538096D01*
X35476190Y4633334D01*
X35476190Y5014286D01*
X35952380Y3490477D02*
X35952380Y4061905D01*
X35952380Y3776191D02*
X34952380Y3776191D01*
X35095238Y3871429D01*
X35190476Y3966667D01*
X35238095Y4061905D01*
X35047619Y3109524D02*
X35000000Y3061905D01*
X34952380Y2966667D01*
X34952380Y2728572D01*
X35000000Y2633334D01*
X35047619Y2585715D01*
X35142857Y2538096D01*
X35238095Y2538096D01*
X35380952Y2585715D01*
X35952380Y3157143D01*
X35952380Y2538096D01*
%TO.C,R21*%
X57022380Y94442858D02*
X56546190Y94776191D01*
X57022380Y95014286D02*
X56022380Y95014286D01*
X56022380Y94633334D01*
X56070000Y94538096D01*
X56117619Y94490477D01*
X56212857Y94442858D01*
X56355714Y94442858D01*
X56450952Y94490477D01*
X56498571Y94538096D01*
X56546190Y94633334D01*
X56546190Y95014286D01*
X56117619Y94061905D02*
X56070000Y94014286D01*
X56022380Y93919048D01*
X56022380Y93680953D01*
X56070000Y93585715D01*
X56117619Y93538096D01*
X56212857Y93490477D01*
X56308095Y93490477D01*
X56450952Y93538096D01*
X57022380Y94109524D01*
X57022380Y93490477D01*
X57022380Y92538096D02*
X57022380Y93109524D01*
X57022380Y92823810D02*
X56022380Y92823810D01*
X56165238Y92919048D01*
X56260476Y93014286D01*
X56308095Y93109524D01*
%TO.C,U2*%
D17*
X89537380Y61836905D02*
X90346904Y61836905D01*
X90442142Y61789286D01*
X90489761Y61741667D01*
X90537380Y61646429D01*
X90537380Y61455953D01*
X90489761Y61360715D01*
X90442142Y61313096D01*
X90346904Y61265477D01*
X89537380Y61265477D01*
X89632619Y60836905D02*
X89585000Y60789286D01*
X89537380Y60694048D01*
X89537380Y60455953D01*
X89585000Y60360715D01*
X89632619Y60313096D01*
X89727857Y60265477D01*
X89823095Y60265477D01*
X89965952Y60313096D01*
X90537380Y60884524D01*
X90537380Y60265477D01*
%TO.C,R26*%
D10*
X31742857Y3747620D02*
X32076190Y4223810D01*
X32314285Y3747620D02*
X32314285Y4747620D01*
X31933333Y4747620D01*
X31838095Y4700000D01*
X31790476Y4652381D01*
X31742857Y4557143D01*
X31742857Y4414286D01*
X31790476Y4319048D01*
X31838095Y4271429D01*
X31933333Y4223810D01*
X32314285Y4223810D01*
X31361904Y4652381D02*
X31314285Y4700000D01*
X31219047Y4747620D01*
X30980952Y4747620D01*
X30885714Y4700000D01*
X30838095Y4652381D01*
X30790476Y4557143D01*
X30790476Y4461905D01*
X30838095Y4319048D01*
X31409523Y3747620D01*
X30790476Y3747620D01*
X29933333Y4747620D02*
X30123809Y4747620D01*
X30219047Y4700000D01*
X30266666Y4652381D01*
X30361904Y4509524D01*
X30409523Y4319048D01*
X30409523Y3938096D01*
X30361904Y3842858D01*
X30314285Y3795239D01*
X30219047Y3747620D01*
X30028571Y3747620D01*
X29933333Y3795239D01*
X29885714Y3842858D01*
X29838095Y3938096D01*
X29838095Y4176191D01*
X29885714Y4271429D01*
X29933333Y4319048D01*
X30028571Y4366667D01*
X30219047Y4366667D01*
X30314285Y4319048D01*
X30361904Y4271429D01*
X30409523Y4176191D01*
%TO.C,Q1*%
X34825238Y-2492619D02*
X34920476Y-2445000D01*
X35015714Y-2349761D01*
X35158571Y-2206904D01*
X35253809Y-2159285D01*
X35349047Y-2159285D01*
X35301428Y-2397380D02*
X35396666Y-2349761D01*
X35491904Y-2254523D01*
X35539523Y-2064047D01*
X35539523Y-1730714D01*
X35491904Y-1540238D01*
X35396666Y-1445000D01*
X35301428Y-1397380D01*
X35110952Y-1397380D01*
X35015714Y-1445000D01*
X34920476Y-1540238D01*
X34872857Y-1730714D01*
X34872857Y-2064047D01*
X34920476Y-2254523D01*
X35015714Y-2349761D01*
X35110952Y-2397380D01*
X35301428Y-2397380D01*
X33920476Y-2397380D02*
X34491904Y-2397380D01*
X34206190Y-2397380D02*
X34206190Y-1397380D01*
X34301428Y-1540238D01*
X34396666Y-1635476D01*
X34491904Y-1683095D01*
%TO.C,D4*%
X78738095Y97047620D02*
X78738095Y98047620D01*
X78500000Y98047620D01*
X78357142Y98000000D01*
X78261904Y97904762D01*
X78214285Y97809524D01*
X78166666Y97619048D01*
X78166666Y97476191D01*
X78214285Y97285715D01*
X78261904Y97190477D01*
X78357142Y97095239D01*
X78500000Y97047620D01*
X78738095Y97047620D01*
X77309523Y97714286D02*
X77309523Y97047620D01*
X77547619Y98095239D02*
X77785714Y97380953D01*
X77166666Y97380953D01*
%TO.C,R25*%
X71342857Y94947620D02*
X71676190Y95423810D01*
X71914285Y94947620D02*
X71914285Y95947620D01*
X71533333Y95947620D01*
X71438095Y95900000D01*
X71390476Y95852381D01*
X71342857Y95757143D01*
X71342857Y95614286D01*
X71390476Y95519048D01*
X71438095Y95471429D01*
X71533333Y95423810D01*
X71914285Y95423810D01*
X70961904Y95852381D02*
X70914285Y95900000D01*
X70819047Y95947620D01*
X70580952Y95947620D01*
X70485714Y95900000D01*
X70438095Y95852381D01*
X70390476Y95757143D01*
X70390476Y95661905D01*
X70438095Y95519048D01*
X71009523Y94947620D01*
X70390476Y94947620D01*
X69485714Y95947620D02*
X69961904Y95947620D01*
X70009523Y95471429D01*
X69961904Y95519048D01*
X69866666Y95566667D01*
X69628571Y95566667D01*
X69533333Y95519048D01*
X69485714Y95471429D01*
X69438095Y95376191D01*
X69438095Y95138096D01*
X69485714Y95042858D01*
X69533333Y94995239D01*
X69628571Y94947620D01*
X69866666Y94947620D01*
X69961904Y94995239D01*
X70009523Y95042858D01*
%TO.C,R24*%
X43952380Y98242858D02*
X43476190Y98576191D01*
X43952380Y98814286D02*
X42952380Y98814286D01*
X42952380Y98433334D01*
X43000000Y98338096D01*
X43047619Y98290477D01*
X43142857Y98242858D01*
X43285714Y98242858D01*
X43380952Y98290477D01*
X43428571Y98338096D01*
X43476190Y98433334D01*
X43476190Y98814286D01*
X43047619Y97861905D02*
X43000000Y97814286D01*
X42952380Y97719048D01*
X42952380Y97480953D01*
X43000000Y97385715D01*
X43047619Y97338096D01*
X43142857Y97290477D01*
X43238095Y97290477D01*
X43380952Y97338096D01*
X43952380Y97909524D01*
X43952380Y97290477D01*
X43285714Y96433334D02*
X43952380Y96433334D01*
X42904761Y96671429D02*
X43619047Y96909524D01*
X43619047Y96290477D01*
%TO.C,C11*%
X67342857Y92842858D02*
X67390476Y92795239D01*
X67533333Y92747620D01*
X67628571Y92747620D01*
X67771428Y92795239D01*
X67866666Y92890477D01*
X67914285Y92985715D01*
X67961904Y93176191D01*
X67961904Y93319048D01*
X67914285Y93509524D01*
X67866666Y93604762D01*
X67771428Y93700000D01*
X67628571Y93747620D01*
X67533333Y93747620D01*
X67390476Y93700000D01*
X67342857Y93652381D01*
X66390476Y92747620D02*
X66961904Y92747620D01*
X66676190Y92747620D02*
X66676190Y93747620D01*
X66771428Y93604762D01*
X66866666Y93509524D01*
X66961904Y93461905D01*
X65438095Y92747620D02*
X66009523Y92747620D01*
X65723809Y92747620D02*
X65723809Y93747620D01*
X65819047Y93604762D01*
X65914285Y93509524D01*
X66009523Y93461905D01*
%TO.C,SW4*%
D16*
X28962642Y20964515D02*
X29017071Y20801229D01*
X29017071Y20529086D01*
X28962642Y20420229D01*
X28908214Y20365800D01*
X28799357Y20311372D01*
X28690500Y20311372D01*
X28581642Y20365800D01*
X28527214Y20420229D01*
X28472785Y20529086D01*
X28418357Y20746800D01*
X28363928Y20855658D01*
X28309500Y20910086D01*
X28200642Y20964515D01*
X28091785Y20964515D01*
X27982928Y20910086D01*
X27928500Y20855658D01*
X27874071Y20746800D01*
X27874071Y20474658D01*
X27928500Y20311372D01*
X27874071Y19930372D02*
X29017071Y19658229D01*
X28200642Y19440515D01*
X29017071Y19222800D01*
X27874071Y18950658D01*
X28255071Y18025372D02*
X29017071Y18025372D01*
X27819642Y18297515D02*
X28636071Y18569658D01*
X28636071Y17862086D01*
%TO.C,SW3*%
X28962642Y38964515D02*
X29017071Y38801229D01*
X29017071Y38529086D01*
X28962642Y38420229D01*
X28908214Y38365800D01*
X28799357Y38311372D01*
X28690500Y38311372D01*
X28581642Y38365800D01*
X28527214Y38420229D01*
X28472785Y38529086D01*
X28418357Y38746800D01*
X28363928Y38855658D01*
X28309500Y38910086D01*
X28200642Y38964515D01*
X28091785Y38964515D01*
X27982928Y38910086D01*
X27928500Y38855658D01*
X27874071Y38746800D01*
X27874071Y38474658D01*
X27928500Y38311372D01*
X27874071Y37930372D02*
X29017071Y37658229D01*
X28200642Y37440515D01*
X29017071Y37222800D01*
X27874071Y36950658D01*
X27874071Y36624086D02*
X27874071Y35916515D01*
X28309500Y36297515D01*
X28309500Y36134229D01*
X28363928Y36025372D01*
X28418357Y35970943D01*
X28527214Y35916515D01*
X28799357Y35916515D01*
X28908214Y35970943D01*
X28962642Y36025372D01*
X29017071Y36134229D01*
X29017071Y36460800D01*
X28962642Y36569658D01*
X28908214Y36624086D01*
%TO.C,SW2*%
X28037357Y53916515D02*
X27982928Y54079800D01*
X27982928Y54351943D01*
X28037357Y54460800D01*
X28091785Y54515229D01*
X28200642Y54569658D01*
X28309500Y54569658D01*
X28418357Y54515229D01*
X28472785Y54460800D01*
X28527214Y54351943D01*
X28581642Y54134229D01*
X28636071Y54025372D01*
X28690500Y53970943D01*
X28799357Y53916515D01*
X28908214Y53916515D01*
X29017071Y53970943D01*
X29071500Y54025372D01*
X29125928Y54134229D01*
X29125928Y54406372D01*
X29071500Y54569658D01*
X29125928Y54950658D02*
X27982928Y55222800D01*
X28799357Y55440515D01*
X27982928Y55658229D01*
X29125928Y55930372D01*
X29017071Y56311372D02*
X29071500Y56365800D01*
X29125928Y56474658D01*
X29125928Y56746800D01*
X29071500Y56855658D01*
X29017071Y56910086D01*
X28908214Y56964515D01*
X28799357Y56964515D01*
X28636071Y56910086D01*
X27982928Y56256943D01*
X27982928Y56964515D01*
%TO.C,SW1*%
X28962642Y75083486D02*
X29017071Y74920200D01*
X29017071Y74648058D01*
X28962642Y74539200D01*
X28908214Y74484772D01*
X28799357Y74430343D01*
X28690500Y74430343D01*
X28581642Y74484772D01*
X28527214Y74539200D01*
X28472785Y74648058D01*
X28418357Y74865772D01*
X28363928Y74974629D01*
X28309500Y75029058D01*
X28200642Y75083486D01*
X28091785Y75083486D01*
X27982928Y75029058D01*
X27928500Y74974629D01*
X27874071Y74865772D01*
X27874071Y74593629D01*
X27928500Y74430343D01*
X27874071Y74049343D02*
X29017071Y73777200D01*
X28200642Y73559486D01*
X29017071Y73341772D01*
X27874071Y73069629D01*
X29017071Y72035486D02*
X29017071Y72688629D01*
X29017071Y72362058D02*
X27874071Y72362058D01*
X28037357Y72470915D01*
X28146214Y72579772D01*
X28200642Y72688629D01*
%TO.C,C6*%
D10*
X34487142Y41166667D02*
X34534761Y41214286D01*
X34582380Y41357143D01*
X34582380Y41452381D01*
X34534761Y41595239D01*
X34439523Y41690477D01*
X34344285Y41738096D01*
X34153809Y41785715D01*
X34010952Y41785715D01*
X33820476Y41738096D01*
X33725238Y41690477D01*
X33630000Y41595239D01*
X33582380Y41452381D01*
X33582380Y41357143D01*
X33630000Y41214286D01*
X33677619Y41166667D01*
X33582380Y40309524D02*
X33582380Y40500000D01*
X33630000Y40595239D01*
X33677619Y40642858D01*
X33820476Y40738096D01*
X34010952Y40785715D01*
X34391904Y40785715D01*
X34487142Y40738096D01*
X34534761Y40690477D01*
X34582380Y40595239D01*
X34582380Y40404762D01*
X34534761Y40309524D01*
X34487142Y40261905D01*
X34391904Y40214286D01*
X34153809Y40214286D01*
X34058571Y40261905D01*
X34010952Y40309524D01*
X33963333Y40404762D01*
X33963333Y40595239D01*
X34010952Y40690477D01*
X34058571Y40738096D01*
X34153809Y40785715D01*
%TO.C,TP13*%
X47152380Y-2061904D02*
X47152380Y-2633333D01*
X48152380Y-2347619D02*
X47152380Y-2347619D01*
X48152380Y-2966666D02*
X47152380Y-2966666D01*
X47152380Y-3347619D01*
X47200000Y-3442857D01*
X47247619Y-3490476D01*
X47342857Y-3538095D01*
X47485714Y-3538095D01*
X47580952Y-3490476D01*
X47628571Y-3442857D01*
X47676190Y-3347619D01*
X47676190Y-2966666D01*
X48152380Y-4490476D02*
X48152380Y-3919047D01*
X48152380Y-4204761D02*
X47152380Y-4204761D01*
X47295238Y-4109523D01*
X47390476Y-4014285D01*
X47438095Y-3919047D01*
X47152380Y-4823809D02*
X47152380Y-5442857D01*
X47533333Y-5109523D01*
X47533333Y-5252380D01*
X47580952Y-5347619D01*
X47628571Y-5395238D01*
X47723809Y-5442857D01*
X47961904Y-5442857D01*
X48057142Y-5395238D01*
X48104761Y-5347619D01*
X48152380Y-5252380D01*
X48152380Y-4966666D01*
X48104761Y-4871428D01*
X48057142Y-4823809D01*
%TO.C,TP12*%
X84438095Y46899620D02*
X83866666Y46899620D01*
X84152380Y45899620D02*
X84152380Y46899620D01*
X83533333Y45899620D02*
X83533333Y46899620D01*
X83152380Y46899620D01*
X83057142Y46852000D01*
X83009523Y46804381D01*
X82961904Y46709143D01*
X82961904Y46566286D01*
X83009523Y46471048D01*
X83057142Y46423429D01*
X83152380Y46375810D01*
X83533333Y46375810D01*
X82009523Y45899620D02*
X82580952Y45899620D01*
X82295238Y45899620D02*
X82295238Y46899620D01*
X82390476Y46756762D01*
X82485714Y46661524D01*
X82580952Y46613905D01*
X81628571Y46804381D02*
X81580952Y46852000D01*
X81485714Y46899620D01*
X81247619Y46899620D01*
X81152380Y46852000D01*
X81104761Y46804381D01*
X81057142Y46709143D01*
X81057142Y46613905D01*
X81104761Y46471048D01*
X81676190Y45899620D01*
X81057142Y45899620D01*
%TO.C,TP11*%
X66738095Y21947620D02*
X66166666Y21947620D01*
X66452380Y20947620D02*
X66452380Y21947620D01*
X65833333Y20947620D02*
X65833333Y21947620D01*
X65452380Y21947620D01*
X65357142Y21900000D01*
X65309523Y21852381D01*
X65261904Y21757143D01*
X65261904Y21614286D01*
X65309523Y21519048D01*
X65357142Y21471429D01*
X65452380Y21423810D01*
X65833333Y21423810D01*
X64309523Y20947620D02*
X64880952Y20947620D01*
X64595238Y20947620D02*
X64595238Y21947620D01*
X64690476Y21804762D01*
X64785714Y21709524D01*
X64880952Y21661905D01*
X63357142Y20947620D02*
X63928571Y20947620D01*
X63642857Y20947620D02*
X63642857Y21947620D01*
X63738095Y21804762D01*
X63833333Y21709524D01*
X63928571Y21661905D01*
%TO.C,TP10*%
X66738095Y24747620D02*
X66166666Y24747620D01*
X66452380Y23747620D02*
X66452380Y24747620D01*
X65833333Y23747620D02*
X65833333Y24747620D01*
X65452380Y24747620D01*
X65357142Y24700000D01*
X65309523Y24652381D01*
X65261904Y24557143D01*
X65261904Y24414286D01*
X65309523Y24319048D01*
X65357142Y24271429D01*
X65452380Y24223810D01*
X65833333Y24223810D01*
X64309523Y23747620D02*
X64880952Y23747620D01*
X64595238Y23747620D02*
X64595238Y24747620D01*
X64690476Y24604762D01*
X64785714Y24509524D01*
X64880952Y24461905D01*
X63690476Y24747620D02*
X63595238Y24747620D01*
X63500000Y24700000D01*
X63452380Y24652381D01*
X63404761Y24557143D01*
X63357142Y24366667D01*
X63357142Y24128572D01*
X63404761Y23938096D01*
X63452380Y23842858D01*
X63500000Y23795239D01*
X63595238Y23747620D01*
X63690476Y23747620D01*
X63785714Y23795239D01*
X63833333Y23842858D01*
X63880952Y23938096D01*
X63928571Y24128572D01*
X63928571Y24366667D01*
X63880952Y24557143D01*
X63833333Y24652381D01*
X63785714Y24700000D01*
X63690476Y24747620D01*
%TO.C,TP9*%
X66761904Y27547620D02*
X66190476Y27547620D01*
X66476190Y26547620D02*
X66476190Y27547620D01*
X65857142Y26547620D02*
X65857142Y27547620D01*
X65476190Y27547620D01*
X65380952Y27500000D01*
X65333333Y27452381D01*
X65285714Y27357143D01*
X65285714Y27214286D01*
X65333333Y27119048D01*
X65380952Y27071429D01*
X65476190Y27023810D01*
X65857142Y27023810D01*
X64809523Y26547620D02*
X64619047Y26547620D01*
X64523809Y26595239D01*
X64476190Y26642858D01*
X64380952Y26785715D01*
X64333333Y26976191D01*
X64333333Y27357143D01*
X64380952Y27452381D01*
X64428571Y27500000D01*
X64523809Y27547620D01*
X64714285Y27547620D01*
X64809523Y27500000D01*
X64857142Y27452381D01*
X64904761Y27357143D01*
X64904761Y27119048D01*
X64857142Y27023810D01*
X64809523Y26976191D01*
X64714285Y26928572D01*
X64523809Y26928572D01*
X64428571Y26976191D01*
X64380952Y27023810D01*
X64333333Y27119048D01*
%TO.C,TP8*%
X66761904Y30047620D02*
X66190476Y30047620D01*
X66476190Y29047620D02*
X66476190Y30047620D01*
X65857142Y29047620D02*
X65857142Y30047620D01*
X65476190Y30047620D01*
X65380952Y30000000D01*
X65333333Y29952381D01*
X65285714Y29857143D01*
X65285714Y29714286D01*
X65333333Y29619048D01*
X65380952Y29571429D01*
X65476190Y29523810D01*
X65857142Y29523810D01*
X64714285Y29619048D02*
X64809523Y29666667D01*
X64857142Y29714286D01*
X64904761Y29809524D01*
X64904761Y29857143D01*
X64857142Y29952381D01*
X64809523Y30000000D01*
X64714285Y30047620D01*
X64523809Y30047620D01*
X64428571Y30000000D01*
X64380952Y29952381D01*
X64333333Y29857143D01*
X64333333Y29809524D01*
X64380952Y29714286D01*
X64428571Y29666667D01*
X64523809Y29619048D01*
X64714285Y29619048D01*
X64809523Y29571429D01*
X64857142Y29523810D01*
X64904761Y29428572D01*
X64904761Y29238096D01*
X64857142Y29142858D01*
X64809523Y29095239D01*
X64714285Y29047620D01*
X64523809Y29047620D01*
X64428571Y29095239D01*
X64380952Y29142858D01*
X64333333Y29238096D01*
X64333333Y29428572D01*
X64380952Y29523810D01*
X64428571Y29571429D01*
X64523809Y29619048D01*
%TO.C,TP7*%
X66761904Y33047620D02*
X66190476Y33047620D01*
X66476190Y32047620D02*
X66476190Y33047620D01*
X65857142Y32047620D02*
X65857142Y33047620D01*
X65476190Y33047620D01*
X65380952Y33000000D01*
X65333333Y32952381D01*
X65285714Y32857143D01*
X65285714Y32714286D01*
X65333333Y32619048D01*
X65380952Y32571429D01*
X65476190Y32523810D01*
X65857142Y32523810D01*
X64952380Y33047620D02*
X64285714Y33047620D01*
X64714285Y32047620D01*
%TO.C,TP6*%
X66761904Y36047620D02*
X66190476Y36047620D01*
X66476190Y35047620D02*
X66476190Y36047620D01*
X65857142Y35047620D02*
X65857142Y36047620D01*
X65476190Y36047620D01*
X65380952Y36000000D01*
X65333333Y35952381D01*
X65285714Y35857143D01*
X65285714Y35714286D01*
X65333333Y35619048D01*
X65380952Y35571429D01*
X65476190Y35523810D01*
X65857142Y35523810D01*
X64428571Y36047620D02*
X64619047Y36047620D01*
X64714285Y36000000D01*
X64761904Y35952381D01*
X64857142Y35809524D01*
X64904761Y35619048D01*
X64904761Y35238096D01*
X64857142Y35142858D01*
X64809523Y35095239D01*
X64714285Y35047620D01*
X64523809Y35047620D01*
X64428571Y35095239D01*
X64380952Y35142858D01*
X64333333Y35238096D01*
X64333333Y35476191D01*
X64380952Y35571429D01*
X64428571Y35619048D01*
X64523809Y35666667D01*
X64714285Y35666667D01*
X64809523Y35619048D01*
X64857142Y35571429D01*
X64904761Y35476191D01*
%TO.C,TP5*%
X66761904Y38547620D02*
X66190476Y38547620D01*
X66476190Y37547620D02*
X66476190Y38547620D01*
X65857142Y37547620D02*
X65857142Y38547620D01*
X65476190Y38547620D01*
X65380952Y38500000D01*
X65333333Y38452381D01*
X65285714Y38357143D01*
X65285714Y38214286D01*
X65333333Y38119048D01*
X65380952Y38071429D01*
X65476190Y38023810D01*
X65857142Y38023810D01*
X64380952Y38547620D02*
X64857142Y38547620D01*
X64904761Y38071429D01*
X64857142Y38119048D01*
X64761904Y38166667D01*
X64523809Y38166667D01*
X64428571Y38119048D01*
X64380952Y38071429D01*
X64333333Y37976191D01*
X64333333Y37738096D01*
X64380952Y37642858D01*
X64428571Y37595239D01*
X64523809Y37547620D01*
X64761904Y37547620D01*
X64857142Y37595239D01*
X64904761Y37642858D01*
%TO.C,TP4*%
X66761904Y19147620D02*
X66190476Y19147620D01*
X66476190Y18147620D02*
X66476190Y19147620D01*
X65857142Y18147620D02*
X65857142Y19147620D01*
X65476190Y19147620D01*
X65380952Y19100000D01*
X65333333Y19052381D01*
X65285714Y18957143D01*
X65285714Y18814286D01*
X65333333Y18719048D01*
X65380952Y18671429D01*
X65476190Y18623810D01*
X65857142Y18623810D01*
X64428571Y18814286D02*
X64428571Y18147620D01*
X64666666Y19195239D02*
X64904761Y18480953D01*
X64285714Y18480953D01*
%TO.C,TP3*%
X58561904Y31697620D02*
X57990476Y31697620D01*
X58276190Y30697620D02*
X58276190Y31697620D01*
X57657142Y30697620D02*
X57657142Y31697620D01*
X57276190Y31697620D01*
X57180952Y31650000D01*
X57133333Y31602381D01*
X57085714Y31507143D01*
X57085714Y31364286D01*
X57133333Y31269048D01*
X57180952Y31221429D01*
X57276190Y31173810D01*
X57657142Y31173810D01*
X56752380Y31697620D02*
X56133333Y31697620D01*
X56466666Y31316667D01*
X56323809Y31316667D01*
X56228571Y31269048D01*
X56180952Y31221429D01*
X56133333Y31126191D01*
X56133333Y30888096D01*
X56180952Y30792858D01*
X56228571Y30745239D01*
X56323809Y30697620D01*
X56609523Y30697620D01*
X56704761Y30745239D01*
X56752380Y30792858D01*
%TO.C,TP2*%
X43711904Y46899620D02*
X43140476Y46899620D01*
X43426190Y45899620D02*
X43426190Y46899620D01*
X42807142Y45899620D02*
X42807142Y46899620D01*
X42426190Y46899620D01*
X42330952Y46852000D01*
X42283333Y46804381D01*
X42235714Y46709143D01*
X42235714Y46566286D01*
X42283333Y46471048D01*
X42330952Y46423429D01*
X42426190Y46375810D01*
X42807142Y46375810D01*
X41854761Y46804381D02*
X41807142Y46852000D01*
X41711904Y46899620D01*
X41473809Y46899620D01*
X41378571Y46852000D01*
X41330952Y46804381D01*
X41283333Y46709143D01*
X41283333Y46613905D01*
X41330952Y46471048D01*
X41902380Y45899620D01*
X41283333Y45899620D01*
%TO.C,TP1*%
X37961904Y45399620D02*
X37390476Y45399620D01*
X37676190Y44399620D02*
X37676190Y45399620D01*
X37057142Y44399620D02*
X37057142Y45399620D01*
X36676190Y45399620D01*
X36580952Y45352000D01*
X36533333Y45304381D01*
X36485714Y45209143D01*
X36485714Y45066286D01*
X36533333Y44971048D01*
X36580952Y44923429D01*
X36676190Y44875810D01*
X37057142Y44875810D01*
X35533333Y44399620D02*
X36104761Y44399620D01*
X35819047Y44399620D02*
X35819047Y45399620D01*
X35914285Y45256762D01*
X36009523Y45161524D01*
X36104761Y45113905D01*
%TO.C,R9*%
X47466666Y31747620D02*
X47800000Y32223810D01*
X48038095Y31747620D02*
X48038095Y32747620D01*
X47657142Y32747620D01*
X47561904Y32700000D01*
X47514285Y32652381D01*
X47466666Y32557143D01*
X47466666Y32414286D01*
X47514285Y32319048D01*
X47561904Y32271429D01*
X47657142Y32223810D01*
X48038095Y32223810D01*
X46990476Y31747620D02*
X46800000Y31747620D01*
X46704761Y31795239D01*
X46657142Y31842858D01*
X46561904Y31985715D01*
X46514285Y32176191D01*
X46514285Y32557143D01*
X46561904Y32652381D01*
X46609523Y32700000D01*
X46704761Y32747620D01*
X46895238Y32747620D01*
X46990476Y32700000D01*
X47038095Y32652381D01*
X47085714Y32557143D01*
X47085714Y32319048D01*
X47038095Y32223810D01*
X46990476Y32176191D01*
X46895238Y32128572D01*
X46704761Y32128572D01*
X46609523Y32176191D01*
X46561904Y32223810D01*
X46514285Y32319048D01*
%TO.C,R6*%
X47466666Y33347620D02*
X47800000Y33823810D01*
X48038095Y33347620D02*
X48038095Y34347620D01*
X47657142Y34347620D01*
X47561904Y34300000D01*
X47514285Y34252381D01*
X47466666Y34157143D01*
X47466666Y34014286D01*
X47514285Y33919048D01*
X47561904Y33871429D01*
X47657142Y33823810D01*
X48038095Y33823810D01*
X46609523Y34347620D02*
X46800000Y34347620D01*
X46895238Y34300000D01*
X46942857Y34252381D01*
X47038095Y34109524D01*
X47085714Y33919048D01*
X47085714Y33538096D01*
X47038095Y33442858D01*
X46990476Y33395239D01*
X46895238Y33347620D01*
X46704761Y33347620D01*
X46609523Y33395239D01*
X46561904Y33442858D01*
X46514285Y33538096D01*
X46514285Y33776191D01*
X46561904Y33871429D01*
X46609523Y33919048D01*
X46704761Y33966667D01*
X46895238Y33966667D01*
X46990476Y33919048D01*
X47038095Y33871429D01*
X47085714Y33776191D01*
%TO.C,R4*%
X47466666Y30347620D02*
X47800000Y30823810D01*
X48038095Y30347620D02*
X48038095Y31347620D01*
X47657142Y31347620D01*
X47561904Y31300000D01*
X47514285Y31252381D01*
X47466666Y31157143D01*
X47466666Y31014286D01*
X47514285Y30919048D01*
X47561904Y30871429D01*
X47657142Y30823810D01*
X48038095Y30823810D01*
X46609523Y31014286D02*
X46609523Y30347620D01*
X46847619Y31395239D02*
X47085714Y30680953D01*
X46466666Y30680953D01*
%TO.C,U4*%
X41331904Y47817620D02*
X41331904Y47008096D01*
X41284285Y46912858D01*
X41236666Y46865239D01*
X41141428Y46817620D01*
X40950952Y46817620D01*
X40855714Y46865239D01*
X40808095Y46912858D01*
X40760476Y47008096D01*
X40760476Y47817620D01*
X39855714Y47484286D02*
X39855714Y46817620D01*
X40093809Y47865239D02*
X40331904Y47150953D01*
X39712857Y47150953D01*
%TO.C,R1*%
X55266666Y32347620D02*
X55600000Y32823810D01*
X55838095Y32347620D02*
X55838095Y33347620D01*
X55457142Y33347620D01*
X55361904Y33300000D01*
X55314285Y33252381D01*
X55266666Y33157143D01*
X55266666Y33014286D01*
X55314285Y32919048D01*
X55361904Y32871429D01*
X55457142Y32823810D01*
X55838095Y32823810D01*
X54314285Y32347620D02*
X54885714Y32347620D01*
X54600000Y32347620D02*
X54600000Y33347620D01*
X54695238Y33204762D01*
X54790476Y33109524D01*
X54885714Y33061905D01*
%TO.C,C10*%
X40092857Y40442858D02*
X40140476Y40395239D01*
X40283333Y40347620D01*
X40378571Y40347620D01*
X40521428Y40395239D01*
X40616666Y40490477D01*
X40664285Y40585715D01*
X40711904Y40776191D01*
X40711904Y40919048D01*
X40664285Y41109524D01*
X40616666Y41204762D01*
X40521428Y41300000D01*
X40378571Y41347620D01*
X40283333Y41347620D01*
X40140476Y41300000D01*
X40092857Y41252381D01*
X39140476Y40347620D02*
X39711904Y40347620D01*
X39426190Y40347620D02*
X39426190Y41347620D01*
X39521428Y41204762D01*
X39616666Y41109524D01*
X39711904Y41061905D01*
X38521428Y41347620D02*
X38426190Y41347620D01*
X38330952Y41300000D01*
X38283333Y41252381D01*
X38235714Y41157143D01*
X38188095Y40966667D01*
X38188095Y40728572D01*
X38235714Y40538096D01*
X38283333Y40442858D01*
X38330952Y40395239D01*
X38426190Y40347620D01*
X38521428Y40347620D01*
X38616666Y40395239D01*
X38664285Y40442858D01*
X38711904Y40538096D01*
X38759523Y40728572D01*
X38759523Y40966667D01*
X38711904Y41157143D01*
X38664285Y41252381D01*
X38616666Y41300000D01*
X38521428Y41347620D01*
%TO.C,C9*%
X42666666Y40242858D02*
X42714285Y40195239D01*
X42857142Y40147620D01*
X42952380Y40147620D01*
X43095238Y40195239D01*
X43190476Y40290477D01*
X43238095Y40385715D01*
X43285714Y40576191D01*
X43285714Y40719048D01*
X43238095Y40909524D01*
X43190476Y41004762D01*
X43095238Y41100000D01*
X42952380Y41147620D01*
X42857142Y41147620D01*
X42714285Y41100000D01*
X42666666Y41052381D01*
X42190476Y40147620D02*
X42000000Y40147620D01*
X41904761Y40195239D01*
X41857142Y40242858D01*
X41761904Y40385715D01*
X41714285Y40576191D01*
X41714285Y40957143D01*
X41761904Y41052381D01*
X41809523Y41100000D01*
X41904761Y41147620D01*
X42095238Y41147620D01*
X42190476Y41100000D01*
X42238095Y41052381D01*
X42285714Y40957143D01*
X42285714Y40719048D01*
X42238095Y40623810D01*
X42190476Y40576191D01*
X42095238Y40528572D01*
X41904761Y40528572D01*
X41809523Y40576191D01*
X41761904Y40623810D01*
X41714285Y40719048D01*
%TO.C,J3*%
X57783333Y3327620D02*
X57783333Y2613334D01*
X57830952Y2470477D01*
X57926190Y2375239D01*
X58069047Y2327620D01*
X58164285Y2327620D01*
X57402380Y3327620D02*
X56783333Y3327620D01*
X57116666Y2946667D01*
X56973809Y2946667D01*
X56878571Y2899048D01*
X56830952Y2851429D01*
X56783333Y2756191D01*
X56783333Y2518096D01*
X56830952Y2422858D01*
X56878571Y2375239D01*
X56973809Y2327620D01*
X57259523Y2327620D01*
X57354761Y2375239D01*
X57402380Y2422858D01*
%TO.C,U3*%
X64002380Y10561905D02*
X64811904Y10561905D01*
X64907142Y10514286D01*
X64954761Y10466667D01*
X65002380Y10371429D01*
X65002380Y10180953D01*
X64954761Y10085715D01*
X64907142Y10038096D01*
X64811904Y9990477D01*
X64002380Y9990477D01*
X64002380Y9609524D02*
X64002380Y8990477D01*
X64383333Y9323810D01*
X64383333Y9180953D01*
X64430952Y9085715D01*
X64478571Y9038096D01*
X64573809Y8990477D01*
X64811904Y8990477D01*
X64907142Y9038096D01*
X64954761Y9085715D01*
X65002380Y9180953D01*
X65002380Y9466667D01*
X64954761Y9561905D01*
X64907142Y9609524D01*
%TO.C,U1*%
X41711904Y18247620D02*
X41711904Y17438096D01*
X41664285Y17342858D01*
X41616666Y17295239D01*
X41521428Y17247620D01*
X41330952Y17247620D01*
X41235714Y17295239D01*
X41188095Y17342858D01*
X41140476Y17438096D01*
X41140476Y18247620D01*
X40140476Y17247620D02*
X40711904Y17247620D01*
X40426190Y17247620D02*
X40426190Y18247620D01*
X40521428Y18104762D01*
X40616666Y18009524D01*
X40711904Y17961905D01*
%TO.C,R23*%
X65092857Y2927620D02*
X65426190Y3403810D01*
X65664285Y2927620D02*
X65664285Y3927620D01*
X65283333Y3927620D01*
X65188095Y3880000D01*
X65140476Y3832381D01*
X65092857Y3737143D01*
X65092857Y3594286D01*
X65140476Y3499048D01*
X65188095Y3451429D01*
X65283333Y3403810D01*
X65664285Y3403810D01*
X64711904Y3832381D02*
X64664285Y3880000D01*
X64569047Y3927620D01*
X64330952Y3927620D01*
X64235714Y3880000D01*
X64188095Y3832381D01*
X64140476Y3737143D01*
X64140476Y3641905D01*
X64188095Y3499048D01*
X64759523Y2927620D01*
X64140476Y2927620D01*
X63807142Y3927620D02*
X63188095Y3927620D01*
X63521428Y3546667D01*
X63378571Y3546667D01*
X63283333Y3499048D01*
X63235714Y3451429D01*
X63188095Y3356191D01*
X63188095Y3118096D01*
X63235714Y3022858D01*
X63283333Y2975239D01*
X63378571Y2927620D01*
X63664285Y2927620D01*
X63759523Y2975239D01*
X63807142Y3022858D01*
%TO.C,R22*%
X53342857Y3117620D02*
X53676190Y3593810D01*
X53914285Y3117620D02*
X53914285Y4117620D01*
X53533333Y4117620D01*
X53438095Y4070000D01*
X53390476Y4022381D01*
X53342857Y3927143D01*
X53342857Y3784286D01*
X53390476Y3689048D01*
X53438095Y3641429D01*
X53533333Y3593810D01*
X53914285Y3593810D01*
X52961904Y4022381D02*
X52914285Y4070000D01*
X52819047Y4117620D01*
X52580952Y4117620D01*
X52485714Y4070000D01*
X52438095Y4022381D01*
X52390476Y3927143D01*
X52390476Y3831905D01*
X52438095Y3689048D01*
X53009523Y3117620D01*
X52390476Y3117620D01*
X52009523Y4022381D02*
X51961904Y4070000D01*
X51866666Y4117620D01*
X51628571Y4117620D01*
X51533333Y4070000D01*
X51485714Y4022381D01*
X51438095Y3927143D01*
X51438095Y3831905D01*
X51485714Y3689048D01*
X52057142Y3117620D01*
X51438095Y3117620D01*
%TO.C,R20*%
X74952380Y9642858D02*
X74476190Y9976191D01*
X74952380Y10214286D02*
X73952380Y10214286D01*
X73952380Y9833334D01*
X74000000Y9738096D01*
X74047619Y9690477D01*
X74142857Y9642858D01*
X74285714Y9642858D01*
X74380952Y9690477D01*
X74428571Y9738096D01*
X74476190Y9833334D01*
X74476190Y10214286D01*
X74047619Y9261905D02*
X74000000Y9214286D01*
X73952380Y9119048D01*
X73952380Y8880953D01*
X74000000Y8785715D01*
X74047619Y8738096D01*
X74142857Y8690477D01*
X74238095Y8690477D01*
X74380952Y8738096D01*
X74952380Y9309524D01*
X74952380Y8690477D01*
X73952380Y8071429D02*
X73952380Y7976191D01*
X74000000Y7880953D01*
X74047619Y7833334D01*
X74142857Y7785715D01*
X74333333Y7738096D01*
X74571428Y7738096D01*
X74761904Y7785715D01*
X74857142Y7833334D01*
X74904761Y7880953D01*
X74952380Y7976191D01*
X74952380Y8071429D01*
X74904761Y8166667D01*
X74857142Y8214286D01*
X74761904Y8261905D01*
X74571428Y8309524D01*
X74333333Y8309524D01*
X74142857Y8261905D01*
X74047619Y8214286D01*
X74000000Y8166667D01*
X73952380Y8071429D01*
%TO.C,R19*%
X70952380Y9642858D02*
X70476190Y9976191D01*
X70952380Y10214286D02*
X69952380Y10214286D01*
X69952380Y9833334D01*
X70000000Y9738096D01*
X70047619Y9690477D01*
X70142857Y9642858D01*
X70285714Y9642858D01*
X70380952Y9690477D01*
X70428571Y9738096D01*
X70476190Y9833334D01*
X70476190Y10214286D01*
X70952380Y8690477D02*
X70952380Y9261905D01*
X70952380Y8976191D02*
X69952380Y8976191D01*
X70095238Y9071429D01*
X70190476Y9166667D01*
X70238095Y9261905D01*
X70952380Y8214286D02*
X70952380Y8023810D01*
X70904761Y7928572D01*
X70857142Y7880953D01*
X70714285Y7785715D01*
X70523809Y7738096D01*
X70142857Y7738096D01*
X70047619Y7785715D01*
X70000000Y7833334D01*
X69952380Y7928572D01*
X69952380Y8119048D01*
X70000000Y8214286D01*
X70047619Y8261905D01*
X70142857Y8309524D01*
X70380952Y8309524D01*
X70476190Y8261905D01*
X70523809Y8214286D01*
X70571428Y8119048D01*
X70571428Y7928572D01*
X70523809Y7833334D01*
X70476190Y7785715D01*
X70380952Y7738096D01*
%TO.C,R18*%
X65542857Y14747620D02*
X65876190Y15223810D01*
X66114285Y14747620D02*
X66114285Y15747620D01*
X65733333Y15747620D01*
X65638095Y15700000D01*
X65590476Y15652381D01*
X65542857Y15557143D01*
X65542857Y15414286D01*
X65590476Y15319048D01*
X65638095Y15271429D01*
X65733333Y15223810D01*
X66114285Y15223810D01*
X64590476Y14747620D02*
X65161904Y14747620D01*
X64876190Y14747620D02*
X64876190Y15747620D01*
X64971428Y15604762D01*
X65066666Y15509524D01*
X65161904Y15461905D01*
X64019047Y15319048D02*
X64114285Y15366667D01*
X64161904Y15414286D01*
X64209523Y15509524D01*
X64209523Y15557143D01*
X64161904Y15652381D01*
X64114285Y15700000D01*
X64019047Y15747620D01*
X63828571Y15747620D01*
X63733333Y15700000D01*
X63685714Y15652381D01*
X63638095Y15557143D01*
X63638095Y15509524D01*
X63685714Y15414286D01*
X63733333Y15366667D01*
X63828571Y15319048D01*
X64019047Y15319048D01*
X64114285Y15271429D01*
X64161904Y15223810D01*
X64209523Y15128572D01*
X64209523Y14938096D01*
X64161904Y14842858D01*
X64114285Y14795239D01*
X64019047Y14747620D01*
X63828571Y14747620D01*
X63733333Y14795239D01*
X63685714Y14842858D01*
X63638095Y14938096D01*
X63638095Y15128572D01*
X63685714Y15223810D01*
X63733333Y15271429D01*
X63828571Y15319048D01*
%TO.C,R17*%
X60142857Y22377620D02*
X60476190Y22853810D01*
X60714285Y22377620D02*
X60714285Y23377620D01*
X60333333Y23377620D01*
X60238095Y23330000D01*
X60190476Y23282381D01*
X60142857Y23187143D01*
X60142857Y23044286D01*
X60190476Y22949048D01*
X60238095Y22901429D01*
X60333333Y22853810D01*
X60714285Y22853810D01*
X59190476Y22377620D02*
X59761904Y22377620D01*
X59476190Y22377620D02*
X59476190Y23377620D01*
X59571428Y23234762D01*
X59666666Y23139524D01*
X59761904Y23091905D01*
X58857142Y23377620D02*
X58190476Y23377620D01*
X58619047Y22377620D01*
%TO.C,R16*%
X72142857Y-1652380D02*
X72476190Y-1176190D01*
X72714285Y-1652380D02*
X72714285Y-652380D01*
X72333333Y-652380D01*
X72238095Y-700000D01*
X72190476Y-747619D01*
X72142857Y-842857D01*
X72142857Y-985714D01*
X72190476Y-1080952D01*
X72238095Y-1128571D01*
X72333333Y-1176190D01*
X72714285Y-1176190D01*
X71190476Y-1652380D02*
X71761904Y-1652380D01*
X71476190Y-1652380D02*
X71476190Y-652380D01*
X71571428Y-795238D01*
X71666666Y-890476D01*
X71761904Y-938095D01*
X70333333Y-652380D02*
X70523809Y-652380D01*
X70619047Y-700000D01*
X70666666Y-747619D01*
X70761904Y-890476D01*
X70809523Y-1080952D01*
X70809523Y-1461904D01*
X70761904Y-1557142D01*
X70714285Y-1604761D01*
X70619047Y-1652380D01*
X70428571Y-1652380D01*
X70333333Y-1604761D01*
X70285714Y-1557142D01*
X70238095Y-1461904D01*
X70238095Y-1223809D01*
X70285714Y-1128571D01*
X70333333Y-1080952D01*
X70428571Y-1033333D01*
X70619047Y-1033333D01*
X70714285Y-1080952D01*
X70761904Y-1128571D01*
X70809523Y-1223809D01*
%TO.C,R15*%
X72142857Y-3252380D02*
X72476190Y-2776190D01*
X72714285Y-3252380D02*
X72714285Y-2252380D01*
X72333333Y-2252380D01*
X72238095Y-2300000D01*
X72190476Y-2347619D01*
X72142857Y-2442857D01*
X72142857Y-2585714D01*
X72190476Y-2680952D01*
X72238095Y-2728571D01*
X72333333Y-2776190D01*
X72714285Y-2776190D01*
X71190476Y-3252380D02*
X71761904Y-3252380D01*
X71476190Y-3252380D02*
X71476190Y-2252380D01*
X71571428Y-2395238D01*
X71666666Y-2490476D01*
X71761904Y-2538095D01*
X70285714Y-2252380D02*
X70761904Y-2252380D01*
X70809523Y-2728571D01*
X70761904Y-2680952D01*
X70666666Y-2633333D01*
X70428571Y-2633333D01*
X70333333Y-2680952D01*
X70285714Y-2728571D01*
X70238095Y-2823809D01*
X70238095Y-3061904D01*
X70285714Y-3157142D01*
X70333333Y-3204761D01*
X70428571Y-3252380D01*
X70666666Y-3252380D01*
X70761904Y-3204761D01*
X70809523Y-3157142D01*
%TO.C,R14*%
X31142857Y21977620D02*
X31476190Y22453810D01*
X31714285Y21977620D02*
X31714285Y22977620D01*
X31333333Y22977620D01*
X31238095Y22930000D01*
X31190476Y22882381D01*
X31142857Y22787143D01*
X31142857Y22644286D01*
X31190476Y22549048D01*
X31238095Y22501429D01*
X31333333Y22453810D01*
X31714285Y22453810D01*
X30190476Y21977620D02*
X30761904Y21977620D01*
X30476190Y21977620D02*
X30476190Y22977620D01*
X30571428Y22834762D01*
X30666666Y22739524D01*
X30761904Y22691905D01*
X29333333Y22644286D02*
X29333333Y21977620D01*
X29571428Y23025239D02*
X29809523Y22310953D01*
X29190476Y22310953D01*
%TO.C,R13*%
X31142857Y40777620D02*
X31476190Y41253810D01*
X31714285Y40777620D02*
X31714285Y41777620D01*
X31333333Y41777620D01*
X31238095Y41730000D01*
X31190476Y41682381D01*
X31142857Y41587143D01*
X31142857Y41444286D01*
X31190476Y41349048D01*
X31238095Y41301429D01*
X31333333Y41253810D01*
X31714285Y41253810D01*
X30190476Y40777620D02*
X30761904Y40777620D01*
X30476190Y40777620D02*
X30476190Y41777620D01*
X30571428Y41634762D01*
X30666666Y41539524D01*
X30761904Y41491905D01*
X29857142Y41777620D02*
X29238095Y41777620D01*
X29571428Y41396667D01*
X29428571Y41396667D01*
X29333333Y41349048D01*
X29285714Y41301429D01*
X29238095Y41206191D01*
X29238095Y40968096D01*
X29285714Y40872858D01*
X29333333Y40825239D01*
X29428571Y40777620D01*
X29714285Y40777620D01*
X29809523Y40825239D01*
X29857142Y40872858D01*
%TO.C,R11*%
X31142857Y77777620D02*
X31476190Y78253810D01*
X31714285Y77777620D02*
X31714285Y78777620D01*
X31333333Y78777620D01*
X31238095Y78730000D01*
X31190476Y78682381D01*
X31142857Y78587143D01*
X31142857Y78444286D01*
X31190476Y78349048D01*
X31238095Y78301429D01*
X31333333Y78253810D01*
X31714285Y78253810D01*
X30190476Y77777620D02*
X30761904Y77777620D01*
X30476190Y77777620D02*
X30476190Y78777620D01*
X30571428Y78634762D01*
X30666666Y78539524D01*
X30761904Y78491905D01*
X29238095Y77777620D02*
X29809523Y77777620D01*
X29523809Y77777620D02*
X29523809Y78777620D01*
X29619047Y78634762D01*
X29714285Y78539524D01*
X29809523Y78491905D01*
%TO.C,R10*%
X36742857Y9947620D02*
X37076190Y10423810D01*
X37314285Y9947620D02*
X37314285Y10947620D01*
X36933333Y10947620D01*
X36838095Y10900000D01*
X36790476Y10852381D01*
X36742857Y10757143D01*
X36742857Y10614286D01*
X36790476Y10519048D01*
X36838095Y10471429D01*
X36933333Y10423810D01*
X37314285Y10423810D01*
X35790476Y9947620D02*
X36361904Y9947620D01*
X36076190Y9947620D02*
X36076190Y10947620D01*
X36171428Y10804762D01*
X36266666Y10709524D01*
X36361904Y10661905D01*
X35171428Y10947620D02*
X35076190Y10947620D01*
X34980952Y10900000D01*
X34933333Y10852381D01*
X34885714Y10757143D01*
X34838095Y10566667D01*
X34838095Y10328572D01*
X34885714Y10138096D01*
X34933333Y10042858D01*
X34980952Y9995239D01*
X35076190Y9947620D01*
X35171428Y9947620D01*
X35266666Y9995239D01*
X35314285Y10042858D01*
X35361904Y10138096D01*
X35409523Y10328572D01*
X35409523Y10566667D01*
X35361904Y10757143D01*
X35314285Y10852381D01*
X35266666Y10900000D01*
X35171428Y10947620D01*
%TO.C,R8*%
X43552380Y90966667D02*
X43076190Y91300000D01*
X43552380Y91538096D02*
X42552380Y91538096D01*
X42552380Y91157143D01*
X42600000Y91061905D01*
X42647619Y91014286D01*
X42742857Y90966667D01*
X42885714Y90966667D01*
X42980952Y91014286D01*
X43028571Y91061905D01*
X43076190Y91157143D01*
X43076190Y91538096D01*
X42980952Y90395239D02*
X42933333Y90490477D01*
X42885714Y90538096D01*
X42790476Y90585715D01*
X42742857Y90585715D01*
X42647619Y90538096D01*
X42600000Y90490477D01*
X42552380Y90395239D01*
X42552380Y90204762D01*
X42600000Y90109524D01*
X42647619Y90061905D01*
X42742857Y90014286D01*
X42790476Y90014286D01*
X42885714Y90061905D01*
X42933333Y90109524D01*
X42980952Y90204762D01*
X42980952Y90395239D01*
X43028571Y90490477D01*
X43076190Y90538096D01*
X43171428Y90585715D01*
X43361904Y90585715D01*
X43457142Y90538096D01*
X43504761Y90490477D01*
X43552380Y90395239D01*
X43552380Y90204762D01*
X43504761Y90109524D01*
X43457142Y90061905D01*
X43361904Y90014286D01*
X43171428Y90014286D01*
X43076190Y90061905D01*
X43028571Y90109524D01*
X42980952Y90204762D01*
%TO.C,R7*%
X45352380Y90966667D02*
X44876190Y91300000D01*
X45352380Y91538096D02*
X44352380Y91538096D01*
X44352380Y91157143D01*
X44400000Y91061905D01*
X44447619Y91014286D01*
X44542857Y90966667D01*
X44685714Y90966667D01*
X44780952Y91014286D01*
X44828571Y91061905D01*
X44876190Y91157143D01*
X44876190Y91538096D01*
X44352380Y90633334D02*
X44352380Y89966667D01*
X45352380Y90395239D01*
%TO.C,R5*%
X53866666Y73717620D02*
X54200000Y74193810D01*
X54438095Y73717620D02*
X54438095Y74717620D01*
X54057142Y74717620D01*
X53961904Y74670000D01*
X53914285Y74622381D01*
X53866666Y74527143D01*
X53866666Y74384286D01*
X53914285Y74289048D01*
X53961904Y74241429D01*
X54057142Y74193810D01*
X54438095Y74193810D01*
X52961904Y74717620D02*
X53438095Y74717620D01*
X53485714Y74241429D01*
X53438095Y74289048D01*
X53342857Y74336667D01*
X53104761Y74336667D01*
X53009523Y74289048D01*
X52961904Y74241429D01*
X52914285Y74146191D01*
X52914285Y73908096D01*
X52961904Y73812858D01*
X53009523Y73765239D01*
X53104761Y73717620D01*
X53342857Y73717620D01*
X53438095Y73765239D01*
X53485714Y73812858D01*
%TO.C,R3*%
X30666666Y58977620D02*
X31000000Y59453810D01*
X31238095Y58977620D02*
X31238095Y59977620D01*
X30857142Y59977620D01*
X30761904Y59930000D01*
X30714285Y59882381D01*
X30666666Y59787143D01*
X30666666Y59644286D01*
X30714285Y59549048D01*
X30761904Y59501429D01*
X30857142Y59453810D01*
X31238095Y59453810D01*
X30333333Y59977620D02*
X29714285Y59977620D01*
X30047619Y59596667D01*
X29904761Y59596667D01*
X29809523Y59549048D01*
X29761904Y59501429D01*
X29714285Y59406191D01*
X29714285Y59168096D01*
X29761904Y59072858D01*
X29809523Y59025239D01*
X29904761Y58977620D01*
X30190476Y58977620D01*
X30285714Y59025239D01*
X30333333Y59072858D01*
%TO.C,R2*%
X83866666Y50547620D02*
X84200000Y51023810D01*
X84438095Y50547620D02*
X84438095Y51547620D01*
X84057142Y51547620D01*
X83961904Y51500000D01*
X83914285Y51452381D01*
X83866666Y51357143D01*
X83866666Y51214286D01*
X83914285Y51119048D01*
X83961904Y51071429D01*
X84057142Y51023810D01*
X84438095Y51023810D01*
X83485714Y51452381D02*
X83438095Y51500000D01*
X83342857Y51547620D01*
X83104761Y51547620D01*
X83009523Y51500000D01*
X82961904Y51452381D01*
X82914285Y51357143D01*
X82914285Y51261905D01*
X82961904Y51119048D01*
X83533333Y50547620D01*
X82914285Y50547620D01*
%TO.C,Q5*%
X61495238Y20352381D02*
X61590476Y20400000D01*
X61685714Y20495239D01*
X61828571Y20638096D01*
X61923809Y20685715D01*
X62019047Y20685715D01*
X61971428Y20447620D02*
X62066666Y20495239D01*
X62161904Y20590477D01*
X62209523Y20780953D01*
X62209523Y21114286D01*
X62161904Y21304762D01*
X62066666Y21400000D01*
X61971428Y21447620D01*
X61780952Y21447620D01*
X61685714Y21400000D01*
X61590476Y21304762D01*
X61542857Y21114286D01*
X61542857Y20780953D01*
X61590476Y20590477D01*
X61685714Y20495239D01*
X61780952Y20447620D01*
X61971428Y20447620D01*
X60638095Y21447620D02*
X61114285Y21447620D01*
X61161904Y20971429D01*
X61114285Y21019048D01*
X61019047Y21066667D01*
X60780952Y21066667D01*
X60685714Y21019048D01*
X60638095Y20971429D01*
X60590476Y20876191D01*
X60590476Y20638096D01*
X60638095Y20542858D01*
X60685714Y20495239D01*
X60780952Y20447620D01*
X61019047Y20447620D01*
X61114285Y20495239D01*
X61161904Y20542858D01*
%TO.C,Q4*%
X57405238Y18642381D02*
X57500476Y18690000D01*
X57595714Y18785239D01*
X57738571Y18928096D01*
X57833809Y18975715D01*
X57929047Y18975715D01*
X57881428Y18737620D02*
X57976666Y18785239D01*
X58071904Y18880477D01*
X58119523Y19070953D01*
X58119523Y19404286D01*
X58071904Y19594762D01*
X57976666Y19690000D01*
X57881428Y19737620D01*
X57690952Y19737620D01*
X57595714Y19690000D01*
X57500476Y19594762D01*
X57452857Y19404286D01*
X57452857Y19070953D01*
X57500476Y18880477D01*
X57595714Y18785239D01*
X57690952Y18737620D01*
X57881428Y18737620D01*
X56595714Y19404286D02*
X56595714Y18737620D01*
X56833809Y19785239D02*
X57071904Y19070953D01*
X56452857Y19070953D01*
%TO.C,Q3*%
X53395238Y26252381D02*
X53490476Y26300000D01*
X53585714Y26395239D01*
X53728571Y26538096D01*
X53823809Y26585715D01*
X53919047Y26585715D01*
X53871428Y26347620D02*
X53966666Y26395239D01*
X54061904Y26490477D01*
X54109523Y26680953D01*
X54109523Y27014286D01*
X54061904Y27204762D01*
X53966666Y27300000D01*
X53871428Y27347620D01*
X53680952Y27347620D01*
X53585714Y27300000D01*
X53490476Y27204762D01*
X53442857Y27014286D01*
X53442857Y26680953D01*
X53490476Y26490477D01*
X53585714Y26395239D01*
X53680952Y26347620D01*
X53871428Y26347620D01*
X53109523Y27347620D02*
X52490476Y27347620D01*
X52823809Y26966667D01*
X52680952Y26966667D01*
X52585714Y26919048D01*
X52538095Y26871429D01*
X52490476Y26776191D01*
X52490476Y26538096D01*
X52538095Y26442858D01*
X52585714Y26395239D01*
X52680952Y26347620D01*
X52966666Y26347620D01*
X53061904Y26395239D01*
X53109523Y26442858D01*
%TO.C,J2*%
X51083333Y100157620D02*
X51083333Y99443334D01*
X51130952Y99300477D01*
X51226190Y99205239D01*
X51369047Y99157620D01*
X51464285Y99157620D01*
X50654761Y100062381D02*
X50607142Y100110000D01*
X50511904Y100157620D01*
X50273809Y100157620D01*
X50178571Y100110000D01*
X50130952Y100062381D01*
X50083333Y99967143D01*
X50083333Y99871905D01*
X50130952Y99729048D01*
X50702380Y99157620D01*
X50083333Y99157620D01*
%TO.C,D3*%
X76952380Y9738096D02*
X75952380Y9738096D01*
X75952380Y9500000D01*
X76000000Y9357143D01*
X76095238Y9261905D01*
X76190476Y9214286D01*
X76380952Y9166667D01*
X76523809Y9166667D01*
X76714285Y9214286D01*
X76809523Y9261905D01*
X76904761Y9357143D01*
X76952380Y9500000D01*
X76952380Y9738096D01*
X75952380Y8833334D02*
X75952380Y8214286D01*
X76333333Y8547620D01*
X76333333Y8404762D01*
X76380952Y8309524D01*
X76428571Y8261905D01*
X76523809Y8214286D01*
X76761904Y8214286D01*
X76857142Y8261905D01*
X76904761Y8309524D01*
X76952380Y8404762D01*
X76952380Y8690477D01*
X76904761Y8785715D01*
X76857142Y8833334D01*
%TO.C,D2*%
X72452380Y9738096D02*
X71452380Y9738096D01*
X71452380Y9500000D01*
X71500000Y9357143D01*
X71595238Y9261905D01*
X71690476Y9214286D01*
X71880952Y9166667D01*
X72023809Y9166667D01*
X72214285Y9214286D01*
X72309523Y9261905D01*
X72404761Y9357143D01*
X72452380Y9500000D01*
X72452380Y9738096D01*
X71547619Y8785715D02*
X71500000Y8738096D01*
X71452380Y8642858D01*
X71452380Y8404762D01*
X71500000Y8309524D01*
X71547619Y8261905D01*
X71642857Y8214286D01*
X71738095Y8214286D01*
X71880952Y8261905D01*
X72452380Y8833334D01*
X72452380Y8214286D01*
%TO.C,D1*%
X46452380Y538096D02*
X45452380Y538096D01*
X45452380Y300000D01*
X45500000Y157143D01*
X45595238Y61905D01*
X45690476Y14286D01*
X45880952Y-33333D01*
X46023809Y-33333D01*
X46214285Y14286D01*
X46309523Y61905D01*
X46404761Y157143D01*
X46452380Y300000D01*
X46452380Y538096D01*
X46452380Y-985714D02*
X46452380Y-414285D01*
X46452380Y-700000D02*
X45452380Y-700000D01*
X45595238Y-604761D01*
X45690476Y-509523D01*
X45738095Y-414285D01*
%TO.C,C8*%
X57679166Y4642858D02*
X57726785Y4595239D01*
X57869642Y4547620D01*
X57964880Y4547620D01*
X58107738Y4595239D01*
X58202976Y4690477D01*
X58250595Y4785715D01*
X58298214Y4976191D01*
X58298214Y5119048D01*
X58250595Y5309524D01*
X58202976Y5404762D01*
X58107738Y5500000D01*
X57964880Y5547620D01*
X57869642Y5547620D01*
X57726785Y5500000D01*
X57679166Y5452381D01*
X57107738Y5119048D02*
X57202976Y5166667D01*
X57250595Y5214286D01*
X57298214Y5309524D01*
X57298214Y5357143D01*
X57250595Y5452381D01*
X57202976Y5500000D01*
X57107738Y5547620D01*
X56917261Y5547620D01*
X56822023Y5500000D01*
X56774404Y5452381D01*
X56726785Y5357143D01*
X56726785Y5309524D01*
X56774404Y5214286D01*
X56822023Y5166667D01*
X56917261Y5119048D01*
X57107738Y5119048D01*
X57202976Y5071429D01*
X57250595Y5023810D01*
X57298214Y4928572D01*
X57298214Y4738096D01*
X57250595Y4642858D01*
X57202976Y4595239D01*
X57107738Y4547620D01*
X56917261Y4547620D01*
X56822023Y4595239D01*
X56774404Y4642858D01*
X56726785Y4738096D01*
X56726785Y4928572D01*
X56774404Y5023810D01*
X56822023Y5071429D01*
X56917261Y5119048D01*
%TO.C,C7*%
X71066666Y42858D02*
X71114285Y-4761D01*
X71257142Y-52380D01*
X71352380Y-52380D01*
X71495238Y-4761D01*
X71590476Y90477D01*
X71638095Y185715D01*
X71685714Y376191D01*
X71685714Y519048D01*
X71638095Y709524D01*
X71590476Y804762D01*
X71495238Y900000D01*
X71352380Y947620D01*
X71257142Y947620D01*
X71114285Y900000D01*
X71066666Y852381D01*
X70733333Y947620D02*
X70066666Y947620D01*
X70495238Y-52380D01*
%TO.C,C5*%
X53066666Y6842858D02*
X53114285Y6795239D01*
X53257142Y6747620D01*
X53352380Y6747620D01*
X53495238Y6795239D01*
X53590476Y6890477D01*
X53638095Y6985715D01*
X53685714Y7176191D01*
X53685714Y7319048D01*
X53638095Y7509524D01*
X53590476Y7604762D01*
X53495238Y7700000D01*
X53352380Y7747620D01*
X53257142Y7747620D01*
X53114285Y7700000D01*
X53066666Y7652381D01*
X52161904Y7747620D02*
X52638095Y7747620D01*
X52685714Y7271429D01*
X52638095Y7319048D01*
X52542857Y7366667D01*
X52304761Y7366667D01*
X52209523Y7319048D01*
X52161904Y7271429D01*
X52114285Y7176191D01*
X52114285Y6938096D01*
X52161904Y6842858D01*
X52209523Y6795239D01*
X52304761Y6747620D01*
X52542857Y6747620D01*
X52638095Y6795239D01*
X52685714Y6842858D01*
%TO.C,C4*%
X46086666Y16782858D02*
X46134285Y16735239D01*
X46277142Y16687620D01*
X46372380Y16687620D01*
X46515238Y16735239D01*
X46610476Y16830477D01*
X46658095Y16925715D01*
X46705714Y17116191D01*
X46705714Y17259048D01*
X46658095Y17449524D01*
X46610476Y17544762D01*
X46515238Y17640000D01*
X46372380Y17687620D01*
X46277142Y17687620D01*
X46134285Y17640000D01*
X46086666Y17592381D01*
X45229523Y17354286D02*
X45229523Y16687620D01*
X45467619Y17735239D02*
X45705714Y17020953D01*
X45086666Y17020953D01*
%TO.C,C3*%
X52266666Y8642858D02*
X52314285Y8595239D01*
X52457142Y8547620D01*
X52552380Y8547620D01*
X52695238Y8595239D01*
X52790476Y8690477D01*
X52838095Y8785715D01*
X52885714Y8976191D01*
X52885714Y9119048D01*
X52838095Y9309524D01*
X52790476Y9404762D01*
X52695238Y9500000D01*
X52552380Y9547620D01*
X52457142Y9547620D01*
X52314285Y9500000D01*
X52266666Y9452381D01*
X51933333Y9547620D02*
X51314285Y9547620D01*
X51647619Y9166667D01*
X51504761Y9166667D01*
X51409523Y9119048D01*
X51361904Y9071429D01*
X51314285Y8976191D01*
X51314285Y8738096D01*
X51361904Y8642858D01*
X51409523Y8595239D01*
X51504761Y8547620D01*
X51790476Y8547620D01*
X51885714Y8595239D01*
X51933333Y8642858D01*
%TO.C,C2*%
X80736666Y52912858D02*
X80784285Y52865239D01*
X80927142Y52817620D01*
X81022380Y52817620D01*
X81165238Y52865239D01*
X81260476Y52960477D01*
X81308095Y53055715D01*
X81355714Y53246191D01*
X81355714Y53389048D01*
X81308095Y53579524D01*
X81260476Y53674762D01*
X81165238Y53770000D01*
X81022380Y53817620D01*
X80927142Y53817620D01*
X80784285Y53770000D01*
X80736666Y53722381D01*
X80355714Y53722381D02*
X80308095Y53770000D01*
X80212857Y53817620D01*
X79974761Y53817620D01*
X79879523Y53770000D01*
X79831904Y53722381D01*
X79784285Y53627143D01*
X79784285Y53531905D01*
X79831904Y53389048D01*
X80403333Y52817620D01*
X79784285Y52817620D01*
%TO.C,C1*%
X83866666Y52442858D02*
X83914285Y52395239D01*
X84057142Y52347620D01*
X84152380Y52347620D01*
X84295238Y52395239D01*
X84390476Y52490477D01*
X84438095Y52585715D01*
X84485714Y52776191D01*
X84485714Y52919048D01*
X84438095Y53109524D01*
X84390476Y53204762D01*
X84295238Y53300000D01*
X84152380Y53347620D01*
X84057142Y53347620D01*
X83914285Y53300000D01*
X83866666Y53252381D01*
X82914285Y52347620D02*
X83485714Y52347620D01*
X83200000Y52347620D02*
X83200000Y53347620D01*
X83295238Y53204762D01*
X83390476Y53109524D01*
X83485714Y53061905D01*
%TD*%
%LPC*%
D18*
%TO.C,G\u002A\u002A\u002A*%
G36*
X42444485Y10322162D02*
G01*
X42963658Y10240138D01*
X43356324Y10149464D01*
X43816474Y10008102D01*
X44271698Y9828543D01*
X44716167Y9614006D01*
X45144052Y9367712D01*
X45549525Y9092881D01*
X45926757Y8792732D01*
X46108162Y8629281D01*
X46486680Y8245248D01*
X46828533Y7840272D01*
X47133544Y7414644D01*
X47401535Y6968649D01*
X47632329Y6502576D01*
X47825747Y6016714D01*
X47940138Y5660409D01*
X48021778Y5345667D01*
X48091044Y5010415D01*
X48143740Y4675682D01*
X48155150Y4583213D01*
X48168058Y4437520D01*
X48177573Y4260934D01*
X48183619Y4064485D01*
X48186122Y3859204D01*
X48185009Y3656123D01*
X48180204Y3466273D01*
X48171634Y3300684D01*
X48164371Y3214784D01*
X48090875Y2698995D01*
X47978433Y2196941D01*
X47828604Y1710252D01*
X47642944Y1240561D01*
X47423011Y789500D01*
X47170363Y358701D01*
X46886558Y-50206D01*
X46573152Y-435587D01*
X46231704Y-795812D01*
X45863770Y-1129248D01*
X45470909Y-1434264D01*
X45054679Y-1709228D01*
X44616636Y-1952508D01*
X44158338Y-2162473D01*
X43681343Y-2337490D01*
X43187208Y-2475927D01*
X42677491Y-2576154D01*
X42629917Y-2583392D01*
X42470669Y-2602349D01*
X42279767Y-2617521D01*
X42067169Y-2628731D01*
X41842837Y-2635798D01*
X41616730Y-2638544D01*
X41398809Y-2636790D01*
X41199035Y-2630358D01*
X41027367Y-2619069D01*
X40969175Y-2613196D01*
X40445899Y-2532566D01*
X39934944Y-2411842D01*
X39437979Y-2251713D01*
X38956677Y-2052864D01*
X38492704Y-1815982D01*
X38047733Y-1541753D01*
X37640454Y-1244366D01*
X37519984Y-1143649D01*
X37380301Y-1017833D01*
X37229034Y-874551D01*
X37073812Y-721438D01*
X36922265Y-566129D01*
X36782024Y-416257D01*
X36660718Y-279458D01*
X36586731Y-190000D01*
X36369477Y103296D01*
X36160221Y422851D01*
X35964904Y758074D01*
X35789465Y1098373D01*
X35639845Y1433154D01*
X35559919Y1640916D01*
X35404012Y2137628D01*
X35288353Y2641778D01*
X35212754Y3150755D01*
X35177030Y3661952D01*
X35180994Y4172759D01*
X35224459Y4680567D01*
X35307238Y5182767D01*
X35429145Y5676750D01*
X35589994Y6159906D01*
X35789598Y6629627D01*
X35937579Y6921959D01*
X36203885Y7372046D01*
X36502446Y7796576D01*
X36831281Y8194066D01*
X37188410Y8563034D01*
X37571854Y8901995D01*
X37979631Y9209467D01*
X38409762Y9483967D01*
X38860267Y9724011D01*
X39329166Y9928116D01*
X39814478Y10094799D01*
X40314224Y10222578D01*
X40355803Y10231288D01*
X40875773Y10316961D01*
X41398543Y10360628D01*
X41922113Y10362343D01*
X42444485Y10322162D01*
G37*
X42444485Y10322162D02*
X42963658Y10240138D01*
X43356324Y10149464D01*
X43816474Y10008102D01*
X44271698Y9828543D01*
X44716167Y9614006D01*
X45144052Y9367712D01*
X45549525Y9092881D01*
X45926757Y8792732D01*
X46108162Y8629281D01*
X46486680Y8245248D01*
X46828533Y7840272D01*
X47133544Y7414644D01*
X47401535Y6968649D01*
X47632329Y6502576D01*
X47825747Y6016714D01*
X47940138Y5660409D01*
X48021778Y5345667D01*
X48091044Y5010415D01*
X48143740Y4675682D01*
X48155150Y4583213D01*
X48168058Y4437520D01*
X48177573Y4260934D01*
X48183619Y4064485D01*
X48186122Y3859204D01*
X48185009Y3656123D01*
X48180204Y3466273D01*
X48171634Y3300684D01*
X48164371Y3214784D01*
X48090875Y2698995D01*
X47978433Y2196941D01*
X47828604Y1710252D01*
X47642944Y1240561D01*
X47423011Y789500D01*
X47170363Y358701D01*
X46886558Y-50206D01*
X46573152Y-435587D01*
X46231704Y-795812D01*
X45863770Y-1129248D01*
X45470909Y-1434264D01*
X45054679Y-1709228D01*
X44616636Y-1952508D01*
X44158338Y-2162473D01*
X43681343Y-2337490D01*
X43187208Y-2475927D01*
X42677491Y-2576154D01*
X42629917Y-2583392D01*
X42470669Y-2602349D01*
X42279767Y-2617521D01*
X42067169Y-2628731D01*
X41842837Y-2635798D01*
X41616730Y-2638544D01*
X41398809Y-2636790D01*
X41199035Y-2630358D01*
X41027367Y-2619069D01*
X40969175Y-2613196D01*
X40445899Y-2532566D01*
X39934944Y-2411842D01*
X39437979Y-2251713D01*
X38956677Y-2052864D01*
X38492704Y-1815982D01*
X38047733Y-1541753D01*
X37640454Y-1244366D01*
X37519984Y-1143649D01*
X37380301Y-1017833D01*
X37229034Y-874551D01*
X37073812Y-721438D01*
X36922265Y-566129D01*
X36782024Y-416257D01*
X36660718Y-279458D01*
X36586731Y-190000D01*
X36369477Y103296D01*
X36160221Y422851D01*
X35964904Y758074D01*
X35789465Y1098373D01*
X35639845Y1433154D01*
X35559919Y1640916D01*
X35404012Y2137628D01*
X35288353Y2641778D01*
X35212754Y3150755D01*
X35177030Y3661952D01*
X35180994Y4172759D01*
X35224459Y4680567D01*
X35307238Y5182767D01*
X35429145Y5676750D01*
X35589994Y6159906D01*
X35789598Y6629627D01*
X35937579Y6921959D01*
X36203885Y7372046D01*
X36502446Y7796576D01*
X36831281Y8194066D01*
X37188410Y8563034D01*
X37571854Y8901995D01*
X37979631Y9209467D01*
X38409762Y9483967D01*
X38860267Y9724011D01*
X39329166Y9928116D01*
X39814478Y10094799D01*
X40314224Y10222578D01*
X40355803Y10231288D01*
X40875773Y10316961D01*
X41398543Y10360628D01*
X41922113Y10362343D01*
X42444485Y10322162D01*
G36*
X42444485Y10322162D02*
G01*
X42963658Y10240138D01*
X43356324Y10149464D01*
X43816474Y10008102D01*
X44271698Y9828543D01*
X44716167Y9614006D01*
X45144052Y9367712D01*
X45549525Y9092881D01*
X45926757Y8792732D01*
X46108162Y8629281D01*
X46486680Y8245248D01*
X46828533Y7840272D01*
X47133544Y7414644D01*
X47401535Y6968649D01*
X47632329Y6502576D01*
X47825747Y6016714D01*
X47940138Y5660409D01*
X48021778Y5345667D01*
X48091044Y5010415D01*
X48143740Y4675682D01*
X48155150Y4583213D01*
X48168058Y4437520D01*
X48177573Y4260934D01*
X48183619Y4064485D01*
X48186122Y3859204D01*
X48185009Y3656123D01*
X48180204Y3466273D01*
X48171634Y3300684D01*
X48164371Y3214784D01*
X48090875Y2698995D01*
X47978433Y2196941D01*
X47828604Y1710252D01*
X47642944Y1240561D01*
X47423011Y789500D01*
X47170363Y358701D01*
X46886558Y-50206D01*
X46573152Y-435587D01*
X46231704Y-795812D01*
X45863770Y-1129248D01*
X45470909Y-1434264D01*
X45054679Y-1709228D01*
X44616636Y-1952508D01*
X44158338Y-2162473D01*
X43681343Y-2337490D01*
X43187208Y-2475927D01*
X42677491Y-2576154D01*
X42629917Y-2583392D01*
X42470669Y-2602349D01*
X42279767Y-2617521D01*
X42067169Y-2628731D01*
X41842837Y-2635798D01*
X41616730Y-2638544D01*
X41398809Y-2636790D01*
X41199035Y-2630358D01*
X41027367Y-2619069D01*
X40969175Y-2613196D01*
X40445899Y-2532566D01*
X39934944Y-2411842D01*
X39437979Y-2251713D01*
X38956677Y-2052864D01*
X38492704Y-1815982D01*
X38047733Y-1541753D01*
X37640454Y-1244366D01*
X37519984Y-1143649D01*
X37380301Y-1017833D01*
X37229034Y-874551D01*
X37073812Y-721438D01*
X36922265Y-566129D01*
X36782024Y-416257D01*
X36660718Y-279458D01*
X36586731Y-190000D01*
X36369477Y103296D01*
X36160221Y422851D01*
X35964904Y758074D01*
X35789465Y1098373D01*
X35639845Y1433154D01*
X35559919Y1640916D01*
X35404012Y2137628D01*
X35288353Y2641778D01*
X35212754Y3150755D01*
X35177030Y3661952D01*
X35180994Y4172759D01*
X35224459Y4680567D01*
X35307238Y5182767D01*
X35429145Y5676750D01*
X35589994Y6159906D01*
X35789598Y6629627D01*
X35937579Y6921959D01*
X36203885Y7372046D01*
X36502446Y7796576D01*
X36831281Y8194066D01*
X37188410Y8563034D01*
X37571854Y8901995D01*
X37979631Y9209467D01*
X38409762Y9483967D01*
X38860267Y9724011D01*
X39329166Y9928116D01*
X39814478Y10094799D01*
X40314224Y10222578D01*
X40355803Y10231288D01*
X40875773Y10316961D01*
X41398543Y10360628D01*
X41922113Y10362343D01*
X42444485Y10322162D01*
G37*
X42444485Y10322162D02*
X42963658Y10240138D01*
X43356324Y10149464D01*
X43816474Y10008102D01*
X44271698Y9828543D01*
X44716167Y9614006D01*
X45144052Y9367712D01*
X45549525Y9092881D01*
X45926757Y8792732D01*
X46108162Y8629281D01*
X46486680Y8245248D01*
X46828533Y7840272D01*
X47133544Y7414644D01*
X47401535Y6968649D01*
X47632329Y6502576D01*
X47825747Y6016714D01*
X47940138Y5660409D01*
X48021778Y5345667D01*
X48091044Y5010415D01*
X48143740Y4675682D01*
X48155150Y4583213D01*
X48168058Y4437520D01*
X48177573Y4260934D01*
X48183619Y4064485D01*
X48186122Y3859204D01*
X48185009Y3656123D01*
X48180204Y3466273D01*
X48171634Y3300684D01*
X48164371Y3214784D01*
X48090875Y2698995D01*
X47978433Y2196941D01*
X47828604Y1710252D01*
X47642944Y1240561D01*
X47423011Y789500D01*
X47170363Y358701D01*
X46886558Y-50206D01*
X46573152Y-435587D01*
X46231704Y-795812D01*
X45863770Y-1129248D01*
X45470909Y-1434264D01*
X45054679Y-1709228D01*
X44616636Y-1952508D01*
X44158338Y-2162473D01*
X43681343Y-2337490D01*
X43187208Y-2475927D01*
X42677491Y-2576154D01*
X42629917Y-2583392D01*
X42470669Y-2602349D01*
X42279767Y-2617521D01*
X42067169Y-2628731D01*
X41842837Y-2635798D01*
X41616730Y-2638544D01*
X41398809Y-2636790D01*
X41199035Y-2630358D01*
X41027367Y-2619069D01*
X40969175Y-2613196D01*
X40445899Y-2532566D01*
X39934944Y-2411842D01*
X39437979Y-2251713D01*
X38956677Y-2052864D01*
X38492704Y-1815982D01*
X38047733Y-1541753D01*
X37640454Y-1244366D01*
X37519984Y-1143649D01*
X37380301Y-1017833D01*
X37229034Y-874551D01*
X37073812Y-721438D01*
X36922265Y-566129D01*
X36782024Y-416257D01*
X36660718Y-279458D01*
X36586731Y-190000D01*
X36369477Y103296D01*
X36160221Y422851D01*
X35964904Y758074D01*
X35789465Y1098373D01*
X35639845Y1433154D01*
X35559919Y1640916D01*
X35404012Y2137628D01*
X35288353Y2641778D01*
X35212754Y3150755D01*
X35177030Y3661952D01*
X35180994Y4172759D01*
X35224459Y4680567D01*
X35307238Y5182767D01*
X35429145Y5676750D01*
X35589994Y6159906D01*
X35789598Y6629627D01*
X35937579Y6921959D01*
X36203885Y7372046D01*
X36502446Y7796576D01*
X36831281Y8194066D01*
X37188410Y8563034D01*
X37571854Y8901995D01*
X37979631Y9209467D01*
X38409762Y9483967D01*
X38860267Y9724011D01*
X39329166Y9928116D01*
X39814478Y10094799D01*
X40314224Y10222578D01*
X40355803Y10231288D01*
X40875773Y10316961D01*
X41398543Y10360628D01*
X41922113Y10362343D01*
X42444485Y10322162D01*
%TO.C,U2*%
G36*
X72540000Y67270000D02*
G01*
X72540000Y68600000D01*
X71210000Y68600000D01*
X71210000Y67270000D01*
X72540000Y67270000D01*
G37*
X72540000Y67270000D02*
X72540000Y68600000D01*
X71210000Y68600000D01*
X71210000Y67270000D01*
X72540000Y67270000D01*
G36*
X72540000Y65435000D02*
G01*
X72540000Y66765000D01*
X71210000Y66765000D01*
X71210000Y65435000D01*
X72540000Y65435000D01*
G37*
X72540000Y65435000D02*
X72540000Y66765000D01*
X71210000Y66765000D01*
X71210000Y65435000D01*
X72540000Y65435000D01*
G36*
X72540000Y63600000D02*
G01*
X72540000Y64930000D01*
X71210000Y64930000D01*
X71210000Y63600000D01*
X72540000Y63600000D01*
G37*
X72540000Y63600000D02*
X72540000Y64930000D01*
X71210000Y64930000D01*
X71210000Y63600000D01*
X72540000Y63600000D01*
G36*
X76210000Y63600000D02*
G01*
X76210000Y64930000D01*
X74880000Y64930000D01*
X74880000Y63600000D01*
X76210000Y63600000D01*
G37*
X76210000Y63600000D02*
X76210000Y64930000D01*
X74880000Y64930000D01*
X74880000Y63600000D01*
X76210000Y63600000D01*
G36*
X76210000Y65435000D02*
G01*
X76210000Y66765000D01*
X74880000Y66765000D01*
X74880000Y65435000D01*
X76210000Y65435000D01*
G37*
X76210000Y65435000D02*
X76210000Y66765000D01*
X74880000Y66765000D01*
X74880000Y65435000D01*
X76210000Y65435000D01*
G36*
X76210000Y67270000D02*
G01*
X76210000Y68600000D01*
X74880000Y68600000D01*
X74880000Y67270000D01*
X76210000Y67270000D01*
G37*
X76210000Y67270000D02*
X76210000Y68600000D01*
X74880000Y68600000D01*
X74880000Y67270000D01*
X76210000Y67270000D01*
G36*
X74375000Y67270000D02*
G01*
X74375000Y68600000D01*
X73045000Y68600000D01*
X73045000Y67270000D01*
X74375000Y67270000D01*
G37*
X74375000Y67270000D02*
X74375000Y68600000D01*
X73045000Y68600000D01*
X73045000Y67270000D01*
X74375000Y67270000D01*
G36*
X74375000Y63600000D02*
G01*
X74375000Y64930000D01*
X73045000Y64930000D01*
X73045000Y63600000D01*
X74375000Y63600000D01*
G37*
X74375000Y63600000D02*
X74375000Y64930000D01*
X73045000Y64930000D01*
X73045000Y63600000D01*
X74375000Y63600000D01*
G36*
X74375000Y65435000D02*
G01*
X74375000Y66765000D01*
X73045000Y66765000D01*
X73045000Y65435000D01*
X74375000Y65435000D01*
G37*
X74375000Y65435000D02*
X74375000Y66765000D01*
X73045000Y66765000D01*
X73045000Y65435000D01*
X74375000Y65435000D01*
%TD*%
%TO.C,D6*%
G36*
G01*
X41400000Y-1918750D02*
X41400000Y-2481250D01*
G75*
G02*
X41156250Y-2725000I-243750J0D01*
G01*
X40668750Y-2725000D01*
G75*
G02*
X40425000Y-2481250I0J243750D01*
G01*
X40425000Y-1918750D01*
G75*
G02*
X40668750Y-1675000I243750J0D01*
G01*
X41156250Y-1675000D01*
G75*
G02*
X41400000Y-1918750I0J-243750D01*
G01*
G37*
G36*
G01*
X42975000Y-1918750D02*
X42975000Y-2481250D01*
G75*
G02*
X42731250Y-2725000I-243750J0D01*
G01*
X42243750Y-2725000D01*
G75*
G02*
X42000000Y-2481250I0J243750D01*
G01*
X42000000Y-1918750D01*
G75*
G02*
X42243750Y-1675000I243750J0D01*
G01*
X42731250Y-1675000D01*
G75*
G02*
X42975000Y-1918750I0J-243750D01*
G01*
G37*
%TD*%
%TO.C,D5*%
G36*
G01*
X41987500Y9718750D02*
X41987500Y10281250D01*
G75*
G02*
X42231250Y10525000I243750J0D01*
G01*
X42718750Y10525000D01*
G75*
G02*
X42962500Y10281250I0J-243750D01*
G01*
X42962500Y9718750D01*
G75*
G02*
X42718750Y9475000I-243750J0D01*
G01*
X42231250Y9475000D01*
G75*
G02*
X41987500Y9718750I0J243750D01*
G01*
G37*
G36*
G01*
X40412500Y9718750D02*
X40412500Y10281250D01*
G75*
G02*
X40656250Y10525000I243750J0D01*
G01*
X41143750Y10525000D01*
G75*
G02*
X41387500Y10281250I0J-243750D01*
G01*
X41387500Y9718750D01*
G75*
G02*
X41143750Y9475000I-243750J0D01*
G01*
X40656250Y9475000D01*
G75*
G02*
X40412500Y9718750I0J243750D01*
G01*
G37*
%TD*%
D19*
%TO.C,J5*%
X65405000Y95800000D03*
X64135000Y95800000D03*
X62865000Y95800000D03*
X61595000Y95800000D03*
%TD*%
D20*
%TO.C,J4*%
X69670000Y44550000D03*
X46830000Y44550000D03*
D21*
X68000000Y42850000D03*
X67500000Y42850000D03*
X67000000Y42850000D03*
X66500000Y42850000D03*
X66000000Y42850000D03*
X65500000Y42850000D03*
X65000000Y42850000D03*
X64500000Y42850000D03*
X64000000Y42850000D03*
X63500000Y42850000D03*
X63000000Y42850000D03*
X62500000Y42850000D03*
X62000000Y42850000D03*
X61500000Y42850000D03*
X61000000Y42850000D03*
X60500000Y42850000D03*
X60000000Y42850000D03*
X59500000Y42850000D03*
X59000000Y42850000D03*
X58500000Y42850000D03*
X58000000Y42850000D03*
X57500000Y42850000D03*
X57000000Y42850000D03*
X56500000Y42850000D03*
X56000000Y42850000D03*
X55500000Y42850000D03*
X55000000Y42850000D03*
X54500000Y42850000D03*
X54000000Y42850000D03*
X53500000Y42850000D03*
X53000000Y42850000D03*
X52500000Y42850000D03*
X52000000Y42850000D03*
X51500000Y42850000D03*
X51000000Y42850000D03*
X50500000Y42850000D03*
X50000000Y42850000D03*
X49500000Y42850000D03*
X49000000Y42850000D03*
X48500000Y42850000D03*
%TD*%
%TO.C,R29*%
G36*
G01*
X73018750Y93075000D02*
X73581250Y93075000D01*
G75*
G02*
X73825000Y92831250I0J-243750D01*
G01*
X73825000Y92343750D01*
G75*
G02*
X73581250Y92100000I-243750J0D01*
G01*
X73018750Y92100000D01*
G75*
G02*
X72775000Y92343750I0J243750D01*
G01*
X72775000Y92831250D01*
G75*
G02*
X73018750Y93075000I243750J0D01*
G01*
G37*
G36*
G01*
X73018750Y91500000D02*
X73581250Y91500000D01*
G75*
G02*
X73825000Y91256250I0J-243750D01*
G01*
X73825000Y90768750D01*
G75*
G02*
X73581250Y90525000I-243750J0D01*
G01*
X73018750Y90525000D01*
G75*
G02*
X72775000Y90768750I0J243750D01*
G01*
X72775000Y91256250D01*
G75*
G02*
X73018750Y91500000I243750J0D01*
G01*
G37*
%TD*%
%TO.C,R28*%
G36*
G01*
X58181250Y96325000D02*
X57618750Y96325000D01*
G75*
G02*
X57375000Y96568750I0J243750D01*
G01*
X57375000Y97056250D01*
G75*
G02*
X57618750Y97300000I243750J0D01*
G01*
X58181250Y97300000D01*
G75*
G02*
X58425000Y97056250I0J-243750D01*
G01*
X58425000Y96568750D01*
G75*
G02*
X58181250Y96325000I-243750J0D01*
G01*
G37*
G36*
G01*
X58181250Y97900000D02*
X57618750Y97900000D01*
G75*
G02*
X57375000Y98143750I0J243750D01*
G01*
X57375000Y98631250D01*
G75*
G02*
X57618750Y98875000I243750J0D01*
G01*
X58181250Y98875000D01*
G75*
G02*
X58425000Y98631250I0J-243750D01*
G01*
X58425000Y98143750D01*
G75*
G02*
X58181250Y97900000I-243750J0D01*
G01*
G37*
%TD*%
%TO.C,R27*%
G36*
G01*
X36200000Y-3518750D02*
X36200000Y-4081250D01*
G75*
G02*
X35956250Y-4325000I-243750J0D01*
G01*
X35468750Y-4325000D01*
G75*
G02*
X35225000Y-4081250I0J243750D01*
G01*
X35225000Y-3518750D01*
G75*
G02*
X35468750Y-3275000I243750J0D01*
G01*
X35956250Y-3275000D01*
G75*
G02*
X36200000Y-3518750I0J-243750D01*
G01*
G37*
G36*
G01*
X37775000Y-3518750D02*
X37775000Y-4081250D01*
G75*
G02*
X37531250Y-4325000I-243750J0D01*
G01*
X37043750Y-4325000D01*
G75*
G02*
X36800000Y-4081250I0J243750D01*
G01*
X36800000Y-3518750D01*
G75*
G02*
X37043750Y-3275000I243750J0D01*
G01*
X37531250Y-3275000D01*
G75*
G02*
X37775000Y-3518750I0J-243750D01*
G01*
G37*
%TD*%
%TO.C,R12*%
G36*
G01*
X35018750Y6300000D02*
X35581250Y6300000D01*
G75*
G02*
X35825000Y6056250I0J-243750D01*
G01*
X35825000Y5568750D01*
G75*
G02*
X35581250Y5325000I-243750J0D01*
G01*
X35018750Y5325000D01*
G75*
G02*
X34775000Y5568750I0J243750D01*
G01*
X34775000Y6056250D01*
G75*
G02*
X35018750Y6300000I243750J0D01*
G01*
G37*
G36*
G01*
X35018750Y7875000D02*
X35581250Y7875000D01*
G75*
G02*
X35825000Y7631250I0J-243750D01*
G01*
X35825000Y7143750D01*
G75*
G02*
X35581250Y6900000I-243750J0D01*
G01*
X35018750Y6900000D01*
G75*
G02*
X34775000Y7143750I0J243750D01*
G01*
X34775000Y7631250D01*
G75*
G02*
X35018750Y7875000I243750J0D01*
G01*
G37*
%TD*%
%TO.C,R21*%
G36*
G01*
X57718750Y95075000D02*
X58281250Y95075000D01*
G75*
G02*
X58525000Y94831250I0J-243750D01*
G01*
X58525000Y94343750D01*
G75*
G02*
X58281250Y94100000I-243750J0D01*
G01*
X57718750Y94100000D01*
G75*
G02*
X57475000Y94343750I0J243750D01*
G01*
X57475000Y94831250D01*
G75*
G02*
X57718750Y95075000I243750J0D01*
G01*
G37*
G36*
G01*
X57718750Y93500000D02*
X58281250Y93500000D01*
G75*
G02*
X58525000Y93256250I0J-243750D01*
G01*
X58525000Y92768750D01*
G75*
G02*
X58281250Y92525000I-243750J0D01*
G01*
X57718750Y92525000D01*
G75*
G02*
X57475000Y92768750I0J243750D01*
G01*
X57475000Y93256250D01*
G75*
G02*
X57718750Y93500000I243750J0D01*
G01*
G37*
%TD*%
D22*
%TO.C,U2*%
X73710000Y66100000D03*
D23*
X81210000Y75600000D03*
X79940000Y75600000D03*
X78670000Y75600000D03*
X77400000Y75600000D03*
X76130000Y75600000D03*
X74860000Y75600000D03*
X73590000Y75600000D03*
X72320000Y75600000D03*
X71050000Y75600000D03*
X69780000Y75600000D03*
X68510000Y75600000D03*
X67240000Y75600000D03*
X65970000Y75600000D03*
X64700000Y75600000D03*
X63430000Y75600000D03*
X62160000Y75600000D03*
X60890000Y75600000D03*
X59620000Y75600000D03*
X58350000Y75600000D03*
X58350000Y58600000D03*
X59620000Y58600000D03*
X60890000Y58600000D03*
X62160000Y58600000D03*
X63430000Y58600000D03*
X64700000Y58600000D03*
X65970000Y58600000D03*
X67240000Y58600000D03*
X68510000Y58600000D03*
X69780000Y58600000D03*
X71050000Y58600000D03*
X72320000Y58600000D03*
X73590000Y58600000D03*
X74860000Y58600000D03*
X76130000Y58600000D03*
X77400000Y58600000D03*
X78670000Y58600000D03*
X79940000Y58600000D03*
X81210000Y58600000D03*
%TD*%
%TO.C,R26*%
G36*
G01*
X34810000Y3803750D02*
X34810000Y4366250D01*
G75*
G02*
X35053750Y4610000I243750J0D01*
G01*
X35541250Y4610000D01*
G75*
G02*
X35785000Y4366250I0J-243750D01*
G01*
X35785000Y3803750D01*
G75*
G02*
X35541250Y3560000I-243750J0D01*
G01*
X35053750Y3560000D01*
G75*
G02*
X34810000Y3803750I0J243750D01*
G01*
G37*
G36*
G01*
X33235000Y3803750D02*
X33235000Y4366250D01*
G75*
G02*
X33478750Y4610000I243750J0D01*
G01*
X33966250Y4610000D01*
G75*
G02*
X34210000Y4366250I0J-243750D01*
G01*
X34210000Y3803750D01*
G75*
G02*
X33966250Y3560000I-243750J0D01*
G01*
X33478750Y3560000D01*
G75*
G02*
X33235000Y3803750I0J243750D01*
G01*
G37*
%TD*%
D24*
%TO.C,Q1*%
X35730000Y555000D03*
X33730000Y1505000D03*
X33730000Y-395000D03*
%TD*%
%TO.C,D4*%
G36*
G01*
X76325000Y98205000D02*
X76325000Y96895000D01*
G75*
G02*
X76055000Y96625000I-270000J0D01*
G01*
X75245000Y96625000D01*
G75*
G02*
X74975000Y96895000I0J270000D01*
G01*
X74975000Y98205000D01*
G75*
G02*
X75245000Y98475000I270000J0D01*
G01*
X76055000Y98475000D01*
G75*
G02*
X76325000Y98205000I0J-270000D01*
G01*
G37*
G36*
G01*
X73525000Y98205000D02*
X73525000Y96895000D01*
G75*
G02*
X73255000Y96625000I-270000J0D01*
G01*
X72445000Y96625000D01*
G75*
G02*
X72175000Y96895000I0J270000D01*
G01*
X72175000Y98205000D01*
G75*
G02*
X72445000Y98475000I270000J0D01*
G01*
X73255000Y98475000D01*
G75*
G02*
X73525000Y98205000I0J-270000D01*
G01*
G37*
%TD*%
%TO.C,R25*%
G36*
G01*
X75525000Y95581250D02*
X75525000Y95018750D01*
G75*
G02*
X75281250Y94775000I-243750J0D01*
G01*
X74793750Y94775000D01*
G75*
G02*
X74550000Y95018750I0J243750D01*
G01*
X74550000Y95581250D01*
G75*
G02*
X74793750Y95825000I243750J0D01*
G01*
X75281250Y95825000D01*
G75*
G02*
X75525000Y95581250I0J-243750D01*
G01*
G37*
G36*
G01*
X73950000Y95581250D02*
X73950000Y95018750D01*
G75*
G02*
X73706250Y94775000I-243750J0D01*
G01*
X73218750Y94775000D01*
G75*
G02*
X72975000Y95018750I0J243750D01*
G01*
X72975000Y95581250D01*
G75*
G02*
X73218750Y95825000I243750J0D01*
G01*
X73706250Y95825000D01*
G75*
G02*
X73950000Y95581250I0J-243750D01*
G01*
G37*
%TD*%
%TO.C,R24*%
G36*
G01*
X44618750Y98875000D02*
X45181250Y98875000D01*
G75*
G02*
X45425000Y98631250I0J-243750D01*
G01*
X45425000Y98143750D01*
G75*
G02*
X45181250Y97900000I-243750J0D01*
G01*
X44618750Y97900000D01*
G75*
G02*
X44375000Y98143750I0J243750D01*
G01*
X44375000Y98631250D01*
G75*
G02*
X44618750Y98875000I243750J0D01*
G01*
G37*
G36*
G01*
X44618750Y97300000D02*
X45181250Y97300000D01*
G75*
G02*
X45425000Y97056250I0J-243750D01*
G01*
X45425000Y96568750D01*
G75*
G02*
X45181250Y96325000I-243750J0D01*
G01*
X44618750Y96325000D01*
G75*
G02*
X44375000Y96568750I0J243750D01*
G01*
X44375000Y97056250D01*
G75*
G02*
X44618750Y97300000I243750J0D01*
G01*
G37*
%TD*%
%TO.C,C11*%
G36*
G01*
X60925000Y92395000D02*
X60925000Y93705000D01*
G75*
G02*
X61195000Y93975000I270000J0D01*
G01*
X62005000Y93975000D01*
G75*
G02*
X62275000Y93705000I0J-270000D01*
G01*
X62275000Y92395000D01*
G75*
G02*
X62005000Y92125000I-270000J0D01*
G01*
X61195000Y92125000D01*
G75*
G02*
X60925000Y92395000I0J270000D01*
G01*
G37*
G36*
G01*
X63725000Y92395000D02*
X63725000Y93705000D01*
G75*
G02*
X63995000Y93975000I270000J0D01*
G01*
X64805000Y93975000D01*
G75*
G02*
X65075000Y93705000I0J-270000D01*
G01*
X65075000Y92395000D01*
G75*
G02*
X64805000Y92125000I-270000J0D01*
G01*
X63995000Y92125000D01*
G75*
G02*
X63725000Y92395000I0J270000D01*
G01*
G37*
%TD*%
D25*
%TO.C,SW4*%
X27075000Y19400000D03*
X24325000Y19400000D03*
D26*
X26550000Y16750000D03*
X26550000Y22050000D03*
X24850000Y16750000D03*
X24850000Y22050000D03*
%TD*%
D25*
%TO.C,SW3*%
X27075000Y37400000D03*
X24325000Y37400000D03*
D26*
X26550000Y34750000D03*
X26550000Y40050000D03*
X24850000Y34750000D03*
X24850000Y40050000D03*
%TD*%
D25*
%TO.C,SW2*%
X27075000Y55400000D03*
X24325000Y55400000D03*
D26*
X26550000Y52750000D03*
X26550000Y58050000D03*
X24850000Y52750000D03*
X24850000Y58050000D03*
%TD*%
D25*
%TO.C,SW1*%
X27075000Y73600000D03*
X24325000Y73600000D03*
D26*
X26550000Y70950000D03*
X26550000Y76250000D03*
X24850000Y70950000D03*
X24850000Y76250000D03*
%TD*%
%TO.C,C6*%
G36*
G01*
X35295000Y40275000D02*
X36605000Y40275000D01*
G75*
G02*
X36875000Y40005000I0J-270000D01*
G01*
X36875000Y39195000D01*
G75*
G02*
X36605000Y38925000I-270000J0D01*
G01*
X35295000Y38925000D01*
G75*
G02*
X35025000Y39195000I0J270000D01*
G01*
X35025000Y40005000D01*
G75*
G02*
X35295000Y40275000I270000J0D01*
G01*
G37*
G36*
G01*
X35295000Y43075000D02*
X36605000Y43075000D01*
G75*
G02*
X36875000Y42805000I0J-270000D01*
G01*
X36875000Y41995000D01*
G75*
G02*
X36605000Y41725000I-270000J0D01*
G01*
X35295000Y41725000D01*
G75*
G02*
X35025000Y41995000I0J270000D01*
G01*
X35025000Y42805000D01*
G75*
G02*
X35295000Y43075000I270000J0D01*
G01*
G37*
%TD*%
D27*
%TO.C,TP13*%
X45500000Y-4400000D03*
%TD*%
%TO.C,TP12*%
X82700000Y48000000D03*
%TD*%
%TO.C,TP11*%
X68500000Y21400000D03*
%TD*%
%TO.C,TP10*%
X68500000Y24200000D03*
%TD*%
%TO.C,TP9*%
X68500000Y27000000D03*
%TD*%
%TO.C,TP8*%
X68500000Y29800000D03*
%TD*%
%TO.C,TP7*%
X68500000Y32600000D03*
%TD*%
%TO.C,TP6*%
X68500000Y35400000D03*
%TD*%
%TO.C,TP5*%
X68500000Y38200000D03*
%TD*%
%TO.C,TP4*%
X68500000Y18600000D03*
%TD*%
%TO.C,TP3*%
X57300000Y32800000D03*
%TD*%
%TO.C,TP2*%
X42450000Y48000000D03*
%TD*%
%TO.C,TP1*%
X36700000Y46500000D03*
%TD*%
%TO.C,R9*%
G36*
G01*
X49550000Y32581250D02*
X49550000Y32018750D01*
G75*
G02*
X49306250Y31775000I-243750J0D01*
G01*
X48818750Y31775000D01*
G75*
G02*
X48575000Y32018750I0J243750D01*
G01*
X48575000Y32581250D01*
G75*
G02*
X48818750Y32825000I243750J0D01*
G01*
X49306250Y32825000D01*
G75*
G02*
X49550000Y32581250I0J-243750D01*
G01*
G37*
G36*
G01*
X51125000Y32581250D02*
X51125000Y32018750D01*
G75*
G02*
X50881250Y31775000I-243750J0D01*
G01*
X50393750Y31775000D01*
G75*
G02*
X50150000Y32018750I0J243750D01*
G01*
X50150000Y32581250D01*
G75*
G02*
X50393750Y32825000I243750J0D01*
G01*
X50881250Y32825000D01*
G75*
G02*
X51125000Y32581250I0J-243750D01*
G01*
G37*
%TD*%
%TO.C,R6*%
G36*
G01*
X49550000Y34181250D02*
X49550000Y33618750D01*
G75*
G02*
X49306250Y33375000I-243750J0D01*
G01*
X48818750Y33375000D01*
G75*
G02*
X48575000Y33618750I0J243750D01*
G01*
X48575000Y34181250D01*
G75*
G02*
X48818750Y34425000I243750J0D01*
G01*
X49306250Y34425000D01*
G75*
G02*
X49550000Y34181250I0J-243750D01*
G01*
G37*
G36*
G01*
X51125000Y34181250D02*
X51125000Y33618750D01*
G75*
G02*
X50881250Y33375000I-243750J0D01*
G01*
X50393750Y33375000D01*
G75*
G02*
X50150000Y33618750I0J243750D01*
G01*
X50150000Y34181250D01*
G75*
G02*
X50393750Y34425000I243750J0D01*
G01*
X50881250Y34425000D01*
G75*
G02*
X51125000Y34181250I0J-243750D01*
G01*
G37*
%TD*%
%TO.C,R4*%
G36*
G01*
X49550000Y30981250D02*
X49550000Y30418750D01*
G75*
G02*
X49306250Y30175000I-243750J0D01*
G01*
X48818750Y30175000D01*
G75*
G02*
X48575000Y30418750I0J243750D01*
G01*
X48575000Y30981250D01*
G75*
G02*
X48818750Y31225000I243750J0D01*
G01*
X49306250Y31225000D01*
G75*
G02*
X49550000Y30981250I0J-243750D01*
G01*
G37*
G36*
G01*
X51125000Y30981250D02*
X51125000Y30418750D01*
G75*
G02*
X50881250Y30175000I-243750J0D01*
G01*
X50393750Y30175000D01*
G75*
G02*
X50150000Y30418750I0J243750D01*
G01*
X50150000Y30981250D01*
G75*
G02*
X50393750Y31225000I243750J0D01*
G01*
X50881250Y31225000D01*
G75*
G02*
X51125000Y30981250I0J-243750D01*
G01*
G37*
%TD*%
D28*
%TO.C,U4*%
G36*
X38560245Y42854461D02*
G01*
X38550866Y42857306D01*
X38542221Y42861927D01*
X38534645Y42868145D01*
X38528427Y42875721D01*
X38523806Y42884366D01*
X38520961Y42893745D01*
X38520000Y42903500D01*
X38520000Y44636500D01*
X38520961Y44646255D01*
X38523806Y44655634D01*
X38528427Y44664279D01*
X38534645Y44671855D01*
X38542221Y44678073D01*
X38550866Y44682694D01*
X38560245Y44685539D01*
X38570000Y44686500D01*
X41695000Y44686500D01*
X41704755Y44685539D01*
X41714134Y44682694D01*
X41722779Y44678073D01*
X41730355Y44671855D01*
X41736573Y44664279D01*
X41741194Y44655634D01*
X41744039Y44646255D01*
X41745000Y44636500D01*
X41745000Y44270000D01*
X43170000Y44270000D01*
X43179755Y44269039D01*
X43189134Y44266194D01*
X43197779Y44261573D01*
X43205355Y44255355D01*
X43211573Y44247779D01*
X43216194Y44239134D01*
X43219039Y44229755D01*
X43220000Y44220000D01*
X43220000Y43320000D01*
X43219039Y43310245D01*
X43216194Y43300866D01*
X43211573Y43292221D01*
X43205355Y43284645D01*
X43197779Y43278427D01*
X43189134Y43273806D01*
X43179755Y43270961D01*
X43170000Y43270000D01*
X41745000Y43270000D01*
X41745000Y42903500D01*
X41744039Y42893745D01*
X41741194Y42884366D01*
X41736573Y42875721D01*
X41730355Y42868145D01*
X41722779Y42861927D01*
X41714134Y42857306D01*
X41704755Y42854461D01*
X41695000Y42853500D01*
X38570000Y42853500D01*
X38560245Y42854461D01*
G37*
D29*
X42520000Y42270000D03*
X42520000Y45270000D03*
%TD*%
%TO.C,R1*%
G36*
G01*
X52841738Y33080000D02*
X53798262Y33080000D01*
G75*
G02*
X54070000Y32808262I0J-271738D01*
G01*
X54070000Y32101738D01*
G75*
G02*
X53798262Y31830000I-271738J0D01*
G01*
X52841738Y31830000D01*
G75*
G02*
X52570000Y32101738I0J271738D01*
G01*
X52570000Y32808262D01*
G75*
G02*
X52841738Y33080000I271738J0D01*
G01*
G37*
G36*
G01*
X52841738Y35130000D02*
X53798262Y35130000D01*
G75*
G02*
X54070000Y34858262I0J-271738D01*
G01*
X54070000Y34151738D01*
G75*
G02*
X53798262Y33880000I-271738J0D01*
G01*
X52841738Y33880000D01*
G75*
G02*
X52570000Y34151738I0J271738D01*
G01*
X52570000Y34858262D01*
G75*
G02*
X52841738Y35130000I271738J0D01*
G01*
G37*
%TD*%
%TO.C,C10*%
G36*
G01*
X39750000Y39218750D02*
X39750000Y39781250D01*
G75*
G02*
X39993750Y40025000I243750J0D01*
G01*
X40481250Y40025000D01*
G75*
G02*
X40725000Y39781250I0J-243750D01*
G01*
X40725000Y39218750D01*
G75*
G02*
X40481250Y38975000I-243750J0D01*
G01*
X39993750Y38975000D01*
G75*
G02*
X39750000Y39218750I0J243750D01*
G01*
G37*
G36*
G01*
X38175000Y39218750D02*
X38175000Y39781250D01*
G75*
G02*
X38418750Y40025000I243750J0D01*
G01*
X38906250Y40025000D01*
G75*
G02*
X39150000Y39781250I0J-243750D01*
G01*
X39150000Y39218750D01*
G75*
G02*
X38906250Y38975000I-243750J0D01*
G01*
X38418750Y38975000D01*
G75*
G02*
X38175000Y39218750I0J243750D01*
G01*
G37*
%TD*%
%TO.C,C9*%
G36*
G01*
X42750000Y39218750D02*
X42750000Y39781250D01*
G75*
G02*
X42993750Y40025000I243750J0D01*
G01*
X43481250Y40025000D01*
G75*
G02*
X43725000Y39781250I0J-243750D01*
G01*
X43725000Y39218750D01*
G75*
G02*
X43481250Y38975000I-243750J0D01*
G01*
X42993750Y38975000D01*
G75*
G02*
X42750000Y39218750I0J243750D01*
G01*
G37*
G36*
G01*
X41175000Y39218750D02*
X41175000Y39781250D01*
G75*
G02*
X41418750Y40025000I243750J0D01*
G01*
X41906250Y40025000D01*
G75*
G02*
X42150000Y39781250I0J-243750D01*
G01*
X42150000Y39218750D01*
G75*
G02*
X41906250Y38975000I-243750J0D01*
G01*
X41418750Y38975000D01*
G75*
G02*
X41175000Y39218750I0J243750D01*
G01*
G37*
%TD*%
D30*
%TO.C,J3*%
X62500000Y-320000D03*
X52400000Y-320000D03*
D31*
X62500000Y-4500000D03*
X52400000Y-4500000D03*
D32*
X58200000Y710000D03*
X57700000Y710000D03*
X57200000Y710000D03*
X59200000Y710000D03*
X58700000Y710000D03*
X56200000Y710000D03*
X56700000Y710000D03*
X55700000Y710000D03*
D33*
X54560000Y-800000D03*
X60340000Y-800000D03*
D34*
X59850000Y710000D03*
X59850000Y710000D03*
X60650000Y710000D03*
X60650000Y710000D03*
X55050000Y710000D03*
X54250000Y710000D03*
X55050000Y710000D03*
X54250000Y710000D03*
%TD*%
%TO.C,U3*%
G36*
G01*
X63270000Y11250000D02*
X62920000Y11250000D01*
G75*
G02*
X62745000Y11425000I0J175000D01*
G01*
X62745000Y13125000D01*
G75*
G02*
X62920000Y13300000I175000J0D01*
G01*
X63270000Y13300000D01*
G75*
G02*
X63445000Y13125000I0J-175000D01*
G01*
X63445000Y11425000D01*
G75*
G02*
X63270000Y11250000I-175000J0D01*
G01*
G37*
G36*
G01*
X62000000Y11250000D02*
X61650000Y11250000D01*
G75*
G02*
X61475000Y11425000I0J175000D01*
G01*
X61475000Y13125000D01*
G75*
G02*
X61650000Y13300000I175000J0D01*
G01*
X62000000Y13300000D01*
G75*
G02*
X62175000Y13125000I0J-175000D01*
G01*
X62175000Y11425000D01*
G75*
G02*
X62000000Y11250000I-175000J0D01*
G01*
G37*
G36*
G01*
X60730000Y11250000D02*
X60380000Y11250000D01*
G75*
G02*
X60205000Y11425000I0J175000D01*
G01*
X60205000Y13125000D01*
G75*
G02*
X60380000Y13300000I175000J0D01*
G01*
X60730000Y13300000D01*
G75*
G02*
X60905000Y13125000I0J-175000D01*
G01*
X60905000Y11425000D01*
G75*
G02*
X60730000Y11250000I-175000J0D01*
G01*
G37*
G36*
G01*
X59460000Y11250000D02*
X59110000Y11250000D01*
G75*
G02*
X58935000Y11425000I0J175000D01*
G01*
X58935000Y13125000D01*
G75*
G02*
X59110000Y13300000I175000J0D01*
G01*
X59460000Y13300000D01*
G75*
G02*
X59635000Y13125000I0J-175000D01*
G01*
X59635000Y11425000D01*
G75*
G02*
X59460000Y11250000I-175000J0D01*
G01*
G37*
G36*
G01*
X58190000Y11250000D02*
X57840000Y11250000D01*
G75*
G02*
X57665000Y11425000I0J175000D01*
G01*
X57665000Y13125000D01*
G75*
G02*
X57840000Y13300000I175000J0D01*
G01*
X58190000Y13300000D01*
G75*
G02*
X58365000Y13125000I0J-175000D01*
G01*
X58365000Y11425000D01*
G75*
G02*
X58190000Y11250000I-175000J0D01*
G01*
G37*
G36*
G01*
X56920000Y11250000D02*
X56570000Y11250000D01*
G75*
G02*
X56395000Y11425000I0J175000D01*
G01*
X56395000Y13125000D01*
G75*
G02*
X56570000Y13300000I175000J0D01*
G01*
X56920000Y13300000D01*
G75*
G02*
X57095000Y13125000I0J-175000D01*
G01*
X57095000Y11425000D01*
G75*
G02*
X56920000Y11250000I-175000J0D01*
G01*
G37*
G36*
G01*
X55650000Y11250000D02*
X55300000Y11250000D01*
G75*
G02*
X55125000Y11425000I0J175000D01*
G01*
X55125000Y13125000D01*
G75*
G02*
X55300000Y13300000I175000J0D01*
G01*
X55650000Y13300000D01*
G75*
G02*
X55825000Y13125000I0J-175000D01*
G01*
X55825000Y11425000D01*
G75*
G02*
X55650000Y11250000I-175000J0D01*
G01*
G37*
G36*
G01*
X54380000Y11250000D02*
X54030000Y11250000D01*
G75*
G02*
X53855000Y11425000I0J175000D01*
G01*
X53855000Y13125000D01*
G75*
G02*
X54030000Y13300000I175000J0D01*
G01*
X54380000Y13300000D01*
G75*
G02*
X54555000Y13125000I0J-175000D01*
G01*
X54555000Y11425000D01*
G75*
G02*
X54380000Y11250000I-175000J0D01*
G01*
G37*
G36*
G01*
X54380000Y6300000D02*
X54030000Y6300000D01*
G75*
G02*
X53855000Y6475000I0J175000D01*
G01*
X53855000Y8175000D01*
G75*
G02*
X54030000Y8350000I175000J0D01*
G01*
X54380000Y8350000D01*
G75*
G02*
X54555000Y8175000I0J-175000D01*
G01*
X54555000Y6475000D01*
G75*
G02*
X54380000Y6300000I-175000J0D01*
G01*
G37*
G36*
G01*
X55650000Y6300000D02*
X55300000Y6300000D01*
G75*
G02*
X55125000Y6475000I0J175000D01*
G01*
X55125000Y8175000D01*
G75*
G02*
X55300000Y8350000I175000J0D01*
G01*
X55650000Y8350000D01*
G75*
G02*
X55825000Y8175000I0J-175000D01*
G01*
X55825000Y6475000D01*
G75*
G02*
X55650000Y6300000I-175000J0D01*
G01*
G37*
G36*
G01*
X56920000Y6300000D02*
X56570000Y6300000D01*
G75*
G02*
X56395000Y6475000I0J175000D01*
G01*
X56395000Y8175000D01*
G75*
G02*
X56570000Y8350000I175000J0D01*
G01*
X56920000Y8350000D01*
G75*
G02*
X57095000Y8175000I0J-175000D01*
G01*
X57095000Y6475000D01*
G75*
G02*
X56920000Y6300000I-175000J0D01*
G01*
G37*
G36*
G01*
X58190000Y6300000D02*
X57840000Y6300000D01*
G75*
G02*
X57665000Y6475000I0J175000D01*
G01*
X57665000Y8175000D01*
G75*
G02*
X57840000Y8350000I175000J0D01*
G01*
X58190000Y8350000D01*
G75*
G02*
X58365000Y8175000I0J-175000D01*
G01*
X58365000Y6475000D01*
G75*
G02*
X58190000Y6300000I-175000J0D01*
G01*
G37*
G36*
G01*
X59460000Y6300000D02*
X59110000Y6300000D01*
G75*
G02*
X58935000Y6475000I0J175000D01*
G01*
X58935000Y8175000D01*
G75*
G02*
X59110000Y8350000I175000J0D01*
G01*
X59460000Y8350000D01*
G75*
G02*
X59635000Y8175000I0J-175000D01*
G01*
X59635000Y6475000D01*
G75*
G02*
X59460000Y6300000I-175000J0D01*
G01*
G37*
G36*
G01*
X60730000Y6300000D02*
X60380000Y6300000D01*
G75*
G02*
X60205000Y6475000I0J175000D01*
G01*
X60205000Y8175000D01*
G75*
G02*
X60380000Y8350000I175000J0D01*
G01*
X60730000Y8350000D01*
G75*
G02*
X60905000Y8175000I0J-175000D01*
G01*
X60905000Y6475000D01*
G75*
G02*
X60730000Y6300000I-175000J0D01*
G01*
G37*
G36*
G01*
X62000000Y6300000D02*
X61650000Y6300000D01*
G75*
G02*
X61475000Y6475000I0J175000D01*
G01*
X61475000Y8175000D01*
G75*
G02*
X61650000Y8350000I175000J0D01*
G01*
X62000000Y8350000D01*
G75*
G02*
X62175000Y8175000I0J-175000D01*
G01*
X62175000Y6475000D01*
G75*
G02*
X62000000Y6300000I-175000J0D01*
G01*
G37*
G36*
G01*
X63270000Y6300000D02*
X62920000Y6300000D01*
G75*
G02*
X62745000Y6475000I0J175000D01*
G01*
X62745000Y8175000D01*
G75*
G02*
X62920000Y8350000I175000J0D01*
G01*
X63270000Y8350000D01*
G75*
G02*
X63445000Y8175000I0J-175000D01*
G01*
X63445000Y6475000D01*
G75*
G02*
X63270000Y6300000I-175000J0D01*
G01*
G37*
%TD*%
D28*
%TO.C,U1*%
G36*
X38940245Y13284461D02*
G01*
X38930866Y13287306D01*
X38922221Y13291927D01*
X38914645Y13298145D01*
X38908427Y13305721D01*
X38903806Y13314366D01*
X38900961Y13323745D01*
X38900000Y13333500D01*
X38900000Y15066500D01*
X38900961Y15076255D01*
X38903806Y15085634D01*
X38908427Y15094279D01*
X38914645Y15101855D01*
X38922221Y15108073D01*
X38930866Y15112694D01*
X38940245Y15115539D01*
X38950000Y15116500D01*
X42075000Y15116500D01*
X42084755Y15115539D01*
X42094134Y15112694D01*
X42102779Y15108073D01*
X42110355Y15101855D01*
X42116573Y15094279D01*
X42121194Y15085634D01*
X42124039Y15076255D01*
X42125000Y15066500D01*
X42125000Y14700000D01*
X43550000Y14700000D01*
X43559755Y14699039D01*
X43569134Y14696194D01*
X43577779Y14691573D01*
X43585355Y14685355D01*
X43591573Y14677779D01*
X43596194Y14669134D01*
X43599039Y14659755D01*
X43600000Y14650000D01*
X43600000Y13750000D01*
X43599039Y13740245D01*
X43596194Y13730866D01*
X43591573Y13722221D01*
X43585355Y13714645D01*
X43577779Y13708427D01*
X43569134Y13703806D01*
X43559755Y13700961D01*
X43550000Y13700000D01*
X42125000Y13700000D01*
X42125000Y13333500D01*
X42124039Y13323745D01*
X42121194Y13314366D01*
X42116573Y13305721D01*
X42110355Y13298145D01*
X42102779Y13291927D01*
X42094134Y13287306D01*
X42084755Y13284461D01*
X42075000Y13283500D01*
X38950000Y13283500D01*
X38940245Y13284461D01*
G37*
D29*
X42900000Y12700000D03*
X42900000Y15700000D03*
%TD*%
%TO.C,R23*%
G36*
G01*
X64150000Y2231250D02*
X64150000Y1668750D01*
G75*
G02*
X63906250Y1425000I-243750J0D01*
G01*
X63418750Y1425000D01*
G75*
G02*
X63175000Y1668750I0J243750D01*
G01*
X63175000Y2231250D01*
G75*
G02*
X63418750Y2475000I243750J0D01*
G01*
X63906250Y2475000D01*
G75*
G02*
X64150000Y2231250I0J-243750D01*
G01*
G37*
G36*
G01*
X65725000Y2231250D02*
X65725000Y1668750D01*
G75*
G02*
X65481250Y1425000I-243750J0D01*
G01*
X64993750Y1425000D01*
G75*
G02*
X64750000Y1668750I0J243750D01*
G01*
X64750000Y2231250D01*
G75*
G02*
X64993750Y2475000I243750J0D01*
G01*
X65481250Y2475000D01*
G75*
G02*
X65725000Y2231250I0J-243750D01*
G01*
G37*
%TD*%
%TO.C,R22*%
G36*
G01*
X53000000Y4718750D02*
X53000000Y5281250D01*
G75*
G02*
X53243750Y5525000I243750J0D01*
G01*
X53731250Y5525000D01*
G75*
G02*
X53975000Y5281250I0J-243750D01*
G01*
X53975000Y4718750D01*
G75*
G02*
X53731250Y4475000I-243750J0D01*
G01*
X53243750Y4475000D01*
G75*
G02*
X53000000Y4718750I0J243750D01*
G01*
G37*
G36*
G01*
X51425000Y4718750D02*
X51425000Y5281250D01*
G75*
G02*
X51668750Y5525000I243750J0D01*
G01*
X52156250Y5525000D01*
G75*
G02*
X52400000Y5281250I0J-243750D01*
G01*
X52400000Y4718750D01*
G75*
G02*
X52156250Y4475000I-243750J0D01*
G01*
X51668750Y4475000D01*
G75*
G02*
X51425000Y4718750I0J243750D01*
G01*
G37*
%TD*%
%TO.C,R20*%
G36*
G01*
X74408750Y11900000D02*
X74971250Y11900000D01*
G75*
G02*
X75215000Y11656250I0J-243750D01*
G01*
X75215000Y11168750D01*
G75*
G02*
X74971250Y10925000I-243750J0D01*
G01*
X74408750Y10925000D01*
G75*
G02*
X74165000Y11168750I0J243750D01*
G01*
X74165000Y11656250D01*
G75*
G02*
X74408750Y11900000I243750J0D01*
G01*
G37*
G36*
G01*
X74408750Y13475000D02*
X74971250Y13475000D01*
G75*
G02*
X75215000Y13231250I0J-243750D01*
G01*
X75215000Y12743750D01*
G75*
G02*
X74971250Y12500000I-243750J0D01*
G01*
X74408750Y12500000D01*
G75*
G02*
X74165000Y12743750I0J243750D01*
G01*
X74165000Y13231250D01*
G75*
G02*
X74408750Y13475000I243750J0D01*
G01*
G37*
%TD*%
%TO.C,R19*%
G36*
G01*
X70781250Y12500000D02*
X70218750Y12500000D01*
G75*
G02*
X69975000Y12743750I0J243750D01*
G01*
X69975000Y13231250D01*
G75*
G02*
X70218750Y13475000I243750J0D01*
G01*
X70781250Y13475000D01*
G75*
G02*
X71025000Y13231250I0J-243750D01*
G01*
X71025000Y12743750D01*
G75*
G02*
X70781250Y12500000I-243750J0D01*
G01*
G37*
G36*
G01*
X70781250Y10925000D02*
X70218750Y10925000D01*
G75*
G02*
X69975000Y11168750I0J243750D01*
G01*
X69975000Y11656250D01*
G75*
G02*
X70218750Y11900000I243750J0D01*
G01*
X70781250Y11900000D01*
G75*
G02*
X71025000Y11656250I0J-243750D01*
G01*
X71025000Y11168750D01*
G75*
G02*
X70781250Y10925000I-243750J0D01*
G01*
G37*
%TD*%
%TO.C,R18*%
G36*
G01*
X61630000Y15641250D02*
X61630000Y15078750D01*
G75*
G02*
X61386250Y14835000I-243750J0D01*
G01*
X60898750Y14835000D01*
G75*
G02*
X60655000Y15078750I0J243750D01*
G01*
X60655000Y15641250D01*
G75*
G02*
X60898750Y15885000I243750J0D01*
G01*
X61386250Y15885000D01*
G75*
G02*
X61630000Y15641250I0J-243750D01*
G01*
G37*
G36*
G01*
X63205000Y15641250D02*
X63205000Y15078750D01*
G75*
G02*
X62961250Y14835000I-243750J0D01*
G01*
X62473750Y14835000D01*
G75*
G02*
X62230000Y15078750I0J243750D01*
G01*
X62230000Y15641250D01*
G75*
G02*
X62473750Y15885000I243750J0D01*
G01*
X62961250Y15885000D01*
G75*
G02*
X63205000Y15641250I0J-243750D01*
G01*
G37*
%TD*%
%TO.C,R17*%
G36*
G01*
X59200000Y21681250D02*
X59200000Y21118750D01*
G75*
G02*
X58956250Y20875000I-243750J0D01*
G01*
X58468750Y20875000D01*
G75*
G02*
X58225000Y21118750I0J243750D01*
G01*
X58225000Y21681250D01*
G75*
G02*
X58468750Y21925000I243750J0D01*
G01*
X58956250Y21925000D01*
G75*
G02*
X59200000Y21681250I0J-243750D01*
G01*
G37*
G36*
G01*
X60775000Y21681250D02*
X60775000Y21118750D01*
G75*
G02*
X60531250Y20875000I-243750J0D01*
G01*
X60043750Y20875000D01*
G75*
G02*
X59800000Y21118750I0J243750D01*
G01*
X59800000Y21681250D01*
G75*
G02*
X60043750Y21925000I243750J0D01*
G01*
X60531250Y21925000D01*
G75*
G02*
X60775000Y21681250I0J-243750D01*
G01*
G37*
%TD*%
%TO.C,R16*%
G36*
G01*
X68600000Y-1381250D02*
X68600000Y-818750D01*
G75*
G02*
X68843750Y-575000I243750J0D01*
G01*
X69331250Y-575000D01*
G75*
G02*
X69575000Y-818750I0J-243750D01*
G01*
X69575000Y-1381250D01*
G75*
G02*
X69331250Y-1625000I-243750J0D01*
G01*
X68843750Y-1625000D01*
G75*
G02*
X68600000Y-1381250I0J243750D01*
G01*
G37*
G36*
G01*
X67025000Y-1381250D02*
X67025000Y-818750D01*
G75*
G02*
X67268750Y-575000I243750J0D01*
G01*
X67756250Y-575000D01*
G75*
G02*
X68000000Y-818750I0J-243750D01*
G01*
X68000000Y-1381250D01*
G75*
G02*
X67756250Y-1625000I-243750J0D01*
G01*
X67268750Y-1625000D01*
G75*
G02*
X67025000Y-1381250I0J243750D01*
G01*
G37*
%TD*%
%TO.C,R15*%
G36*
G01*
X68000000Y-2418750D02*
X68000000Y-2981250D01*
G75*
G02*
X67756250Y-3225000I-243750J0D01*
G01*
X67268750Y-3225000D01*
G75*
G02*
X67025000Y-2981250I0J243750D01*
G01*
X67025000Y-2418750D01*
G75*
G02*
X67268750Y-2175000I243750J0D01*
G01*
X67756250Y-2175000D01*
G75*
G02*
X68000000Y-2418750I0J-243750D01*
G01*
G37*
G36*
G01*
X69575000Y-2418750D02*
X69575000Y-2981250D01*
G75*
G02*
X69331250Y-3225000I-243750J0D01*
G01*
X68843750Y-3225000D01*
G75*
G02*
X68600000Y-2981250I0J243750D01*
G01*
X68600000Y-2418750D01*
G75*
G02*
X68843750Y-2175000I243750J0D01*
G01*
X69331250Y-2175000D01*
G75*
G02*
X69575000Y-2418750I0J-243750D01*
G01*
G37*
%TD*%
%TO.C,R14*%
G36*
G01*
X30200000Y21281250D02*
X30200000Y20718750D01*
G75*
G02*
X29956250Y20475000I-243750J0D01*
G01*
X29468750Y20475000D01*
G75*
G02*
X29225000Y20718750I0J243750D01*
G01*
X29225000Y21281250D01*
G75*
G02*
X29468750Y21525000I243750J0D01*
G01*
X29956250Y21525000D01*
G75*
G02*
X30200000Y21281250I0J-243750D01*
G01*
G37*
G36*
G01*
X31775000Y21281250D02*
X31775000Y20718750D01*
G75*
G02*
X31531250Y20475000I-243750J0D01*
G01*
X31043750Y20475000D01*
G75*
G02*
X30800000Y20718750I0J243750D01*
G01*
X30800000Y21281250D01*
G75*
G02*
X31043750Y21525000I243750J0D01*
G01*
X31531250Y21525000D01*
G75*
G02*
X31775000Y21281250I0J-243750D01*
G01*
G37*
%TD*%
%TO.C,R13*%
G36*
G01*
X30200000Y40081250D02*
X30200000Y39518750D01*
G75*
G02*
X29956250Y39275000I-243750J0D01*
G01*
X29468750Y39275000D01*
G75*
G02*
X29225000Y39518750I0J243750D01*
G01*
X29225000Y40081250D01*
G75*
G02*
X29468750Y40325000I243750J0D01*
G01*
X29956250Y40325000D01*
G75*
G02*
X30200000Y40081250I0J-243750D01*
G01*
G37*
G36*
G01*
X31775000Y40081250D02*
X31775000Y39518750D01*
G75*
G02*
X31531250Y39275000I-243750J0D01*
G01*
X31043750Y39275000D01*
G75*
G02*
X30800000Y39518750I0J243750D01*
G01*
X30800000Y40081250D01*
G75*
G02*
X31043750Y40325000I243750J0D01*
G01*
X31531250Y40325000D01*
G75*
G02*
X31775000Y40081250I0J-243750D01*
G01*
G37*
%TD*%
%TO.C,R11*%
G36*
G01*
X30200000Y77081250D02*
X30200000Y76518750D01*
G75*
G02*
X29956250Y76275000I-243750J0D01*
G01*
X29468750Y76275000D01*
G75*
G02*
X29225000Y76518750I0J243750D01*
G01*
X29225000Y77081250D01*
G75*
G02*
X29468750Y77325000I243750J0D01*
G01*
X29956250Y77325000D01*
G75*
G02*
X30200000Y77081250I0J-243750D01*
G01*
G37*
G36*
G01*
X31775000Y77081250D02*
X31775000Y76518750D01*
G75*
G02*
X31531250Y76275000I-243750J0D01*
G01*
X31043750Y76275000D01*
G75*
G02*
X30800000Y76518750I0J243750D01*
G01*
X30800000Y77081250D01*
G75*
G02*
X31043750Y77325000I243750J0D01*
G01*
X31531250Y77325000D01*
G75*
G02*
X31775000Y77081250I0J-243750D01*
G01*
G37*
%TD*%
%TO.C,R10*%
G36*
G01*
X35800000Y9481250D02*
X35800000Y8918750D01*
G75*
G02*
X35556250Y8675000I-243750J0D01*
G01*
X35068750Y8675000D01*
G75*
G02*
X34825000Y8918750I0J243750D01*
G01*
X34825000Y9481250D01*
G75*
G02*
X35068750Y9725000I243750J0D01*
G01*
X35556250Y9725000D01*
G75*
G02*
X35800000Y9481250I0J-243750D01*
G01*
G37*
G36*
G01*
X37375000Y9481250D02*
X37375000Y8918750D01*
G75*
G02*
X37131250Y8675000I-243750J0D01*
G01*
X36643750Y8675000D01*
G75*
G02*
X36400000Y8918750I0J243750D01*
G01*
X36400000Y9481250D01*
G75*
G02*
X36643750Y9725000I243750J0D01*
G01*
X37131250Y9725000D01*
G75*
G02*
X37375000Y9481250I0J-243750D01*
G01*
G37*
%TD*%
%TO.C,R8*%
G36*
G01*
X42818750Y94875000D02*
X43381250Y94875000D01*
G75*
G02*
X43625000Y94631250I0J-243750D01*
G01*
X43625000Y94143750D01*
G75*
G02*
X43381250Y93900000I-243750J0D01*
G01*
X42818750Y93900000D01*
G75*
G02*
X42575000Y94143750I0J243750D01*
G01*
X42575000Y94631250D01*
G75*
G02*
X42818750Y94875000I243750J0D01*
G01*
G37*
G36*
G01*
X42818750Y93300000D02*
X43381250Y93300000D01*
G75*
G02*
X43625000Y93056250I0J-243750D01*
G01*
X43625000Y92568750D01*
G75*
G02*
X43381250Y92325000I-243750J0D01*
G01*
X42818750Y92325000D01*
G75*
G02*
X42575000Y92568750I0J243750D01*
G01*
X42575000Y93056250D01*
G75*
G02*
X42818750Y93300000I243750J0D01*
G01*
G37*
%TD*%
%TO.C,R7*%
G36*
G01*
X44578750Y94875000D02*
X45141250Y94875000D01*
G75*
G02*
X45385000Y94631250I0J-243750D01*
G01*
X45385000Y94143750D01*
G75*
G02*
X45141250Y93900000I-243750J0D01*
G01*
X44578750Y93900000D01*
G75*
G02*
X44335000Y94143750I0J243750D01*
G01*
X44335000Y94631250D01*
G75*
G02*
X44578750Y94875000I243750J0D01*
G01*
G37*
G36*
G01*
X44578750Y93300000D02*
X45141250Y93300000D01*
G75*
G02*
X45385000Y93056250I0J-243750D01*
G01*
X45385000Y92568750D01*
G75*
G02*
X45141250Y92325000I-243750J0D01*
G01*
X44578750Y92325000D01*
G75*
G02*
X44335000Y92568750I0J243750D01*
G01*
X44335000Y93056250D01*
G75*
G02*
X44578750Y93300000I243750J0D01*
G01*
G37*
%TD*%
%TO.C,R5*%
G36*
G01*
X54000000Y75318750D02*
X54000000Y75881250D01*
G75*
G02*
X54243750Y76125000I243750J0D01*
G01*
X54731250Y76125000D01*
G75*
G02*
X54975000Y75881250I0J-243750D01*
G01*
X54975000Y75318750D01*
G75*
G02*
X54731250Y75075000I-243750J0D01*
G01*
X54243750Y75075000D01*
G75*
G02*
X54000000Y75318750I0J243750D01*
G01*
G37*
G36*
G01*
X52425000Y75318750D02*
X52425000Y75881250D01*
G75*
G02*
X52668750Y76125000I243750J0D01*
G01*
X53156250Y76125000D01*
G75*
G02*
X53400000Y75881250I0J-243750D01*
G01*
X53400000Y75318750D01*
G75*
G02*
X53156250Y75075000I-243750J0D01*
G01*
X52668750Y75075000D01*
G75*
G02*
X52425000Y75318750I0J243750D01*
G01*
G37*
%TD*%
%TO.C,R3*%
G36*
G01*
X30200000Y58281250D02*
X30200000Y57718750D01*
G75*
G02*
X29956250Y57475000I-243750J0D01*
G01*
X29468750Y57475000D01*
G75*
G02*
X29225000Y57718750I0J243750D01*
G01*
X29225000Y58281250D01*
G75*
G02*
X29468750Y58525000I243750J0D01*
G01*
X29956250Y58525000D01*
G75*
G02*
X30200000Y58281250I0J-243750D01*
G01*
G37*
G36*
G01*
X31775000Y58281250D02*
X31775000Y57718750D01*
G75*
G02*
X31531250Y57475000I-243750J0D01*
G01*
X31043750Y57475000D01*
G75*
G02*
X30800000Y57718750I0J243750D01*
G01*
X30800000Y58281250D01*
G75*
G02*
X31043750Y58525000I243750J0D01*
G01*
X31531250Y58525000D01*
G75*
G02*
X31775000Y58281250I0J-243750D01*
G01*
G37*
%TD*%
%TO.C,R2*%
G36*
G01*
X81000000Y50718750D02*
X81000000Y51281250D01*
G75*
G02*
X81243750Y51525000I243750J0D01*
G01*
X81731250Y51525000D01*
G75*
G02*
X81975000Y51281250I0J-243750D01*
G01*
X81975000Y50718750D01*
G75*
G02*
X81731250Y50475000I-243750J0D01*
G01*
X81243750Y50475000D01*
G75*
G02*
X81000000Y50718750I0J243750D01*
G01*
G37*
G36*
G01*
X79425000Y50718750D02*
X79425000Y51281250D01*
G75*
G02*
X79668750Y51525000I243750J0D01*
G01*
X80156250Y51525000D01*
G75*
G02*
X80400000Y51281250I0J-243750D01*
G01*
X80400000Y50718750D01*
G75*
G02*
X80156250Y50475000I-243750J0D01*
G01*
X79668750Y50475000D01*
G75*
G02*
X79425000Y50718750I0J243750D01*
G01*
G37*
%TD*%
D24*
%TO.C,Q5*%
X60400000Y18400000D03*
X62400000Y17450000D03*
X62400000Y19350000D03*
%TD*%
%TO.C,Q4*%
X56310000Y16690000D03*
X58310000Y15740000D03*
X58310000Y17640000D03*
%TD*%
D35*
%TO.C,Q3*%
X53450000Y30600000D03*
X52500000Y28600000D03*
X54400000Y28600000D03*
%TD*%
D36*
%TO.C,J2*%
X48230000Y96840000D03*
X53270000Y96840000D03*
X48230000Y94300000D03*
X53270000Y94300000D03*
X48230000Y91760000D03*
X53270000Y91760000D03*
%TD*%
%TO.C,D3*%
G36*
G01*
X76018750Y11900000D02*
X76581250Y11900000D01*
G75*
G02*
X76825000Y11656250I0J-243750D01*
G01*
X76825000Y11168750D01*
G75*
G02*
X76581250Y10925000I-243750J0D01*
G01*
X76018750Y10925000D01*
G75*
G02*
X75775000Y11168750I0J243750D01*
G01*
X75775000Y11656250D01*
G75*
G02*
X76018750Y11900000I243750J0D01*
G01*
G37*
G36*
G01*
X76018750Y13475000D02*
X76581250Y13475000D01*
G75*
G02*
X76825000Y13231250I0J-243750D01*
G01*
X76825000Y12743750D01*
G75*
G02*
X76581250Y12500000I-243750J0D01*
G01*
X76018750Y12500000D01*
G75*
G02*
X75775000Y12743750I0J243750D01*
G01*
X75775000Y13231250D01*
G75*
G02*
X76018750Y13475000I243750J0D01*
G01*
G37*
%TD*%
%TO.C,D2*%
G36*
G01*
X71898750Y11900000D02*
X72461250Y11900000D01*
G75*
G02*
X72705000Y11656250I0J-243750D01*
G01*
X72705000Y11168750D01*
G75*
G02*
X72461250Y10925000I-243750J0D01*
G01*
X71898750Y10925000D01*
G75*
G02*
X71655000Y11168750I0J243750D01*
G01*
X71655000Y11656250D01*
G75*
G02*
X71898750Y11900000I243750J0D01*
G01*
G37*
G36*
G01*
X71898750Y13475000D02*
X72461250Y13475000D01*
G75*
G02*
X72705000Y13231250I0J-243750D01*
G01*
X72705000Y12743750D01*
G75*
G02*
X72461250Y12500000I-243750J0D01*
G01*
X71898750Y12500000D01*
G75*
G02*
X71655000Y12743750I0J243750D01*
G01*
X71655000Y13231250D01*
G75*
G02*
X71898750Y13475000I243750J0D01*
G01*
G37*
%TD*%
D37*
%TO.C,D1*%
X48500000Y-2200000D03*
X48500000Y1800000D03*
%TD*%
%TO.C,C8*%
G36*
G01*
X59812500Y5281250D02*
X59812500Y4718750D01*
G75*
G02*
X59568750Y4475000I-243750J0D01*
G01*
X59081250Y4475000D01*
G75*
G02*
X58837500Y4718750I0J243750D01*
G01*
X58837500Y5281250D01*
G75*
G02*
X59081250Y5525000I243750J0D01*
G01*
X59568750Y5525000D01*
G75*
G02*
X59812500Y5281250I0J-243750D01*
G01*
G37*
G36*
G01*
X61387500Y5281250D02*
X61387500Y4718750D01*
G75*
G02*
X61143750Y4475000I-243750J0D01*
G01*
X60656250Y4475000D01*
G75*
G02*
X60412500Y4718750I0J243750D01*
G01*
X60412500Y5281250D01*
G75*
G02*
X60656250Y5525000I243750J0D01*
G01*
X61143750Y5525000D01*
G75*
G02*
X61387500Y5281250I0J-243750D01*
G01*
G37*
%TD*%
%TO.C,C7*%
G36*
G01*
X68000000Y781250D02*
X68000000Y218750D01*
G75*
G02*
X67756250Y-25000I-243750J0D01*
G01*
X67268750Y-25000D01*
G75*
G02*
X67025000Y218750I0J243750D01*
G01*
X67025000Y781250D01*
G75*
G02*
X67268750Y1025000I243750J0D01*
G01*
X67756250Y1025000D01*
G75*
G02*
X68000000Y781250I0J-243750D01*
G01*
G37*
G36*
G01*
X69575000Y781250D02*
X69575000Y218750D01*
G75*
G02*
X69331250Y-25000I-243750J0D01*
G01*
X68843750Y-25000D01*
G75*
G02*
X68600000Y218750I0J243750D01*
G01*
X68600000Y781250D01*
G75*
G02*
X68843750Y1025000I243750J0D01*
G01*
X69331250Y1025000D01*
G75*
G02*
X69575000Y781250I0J-243750D01*
G01*
G37*
%TD*%
%TO.C,C5*%
G36*
G01*
X50225000Y6345000D02*
X50225000Y7655000D01*
G75*
G02*
X50495000Y7925000I270000J0D01*
G01*
X51305000Y7925000D01*
G75*
G02*
X51575000Y7655000I0J-270000D01*
G01*
X51575000Y6345000D01*
G75*
G02*
X51305000Y6075000I-270000J0D01*
G01*
X50495000Y6075000D01*
G75*
G02*
X50225000Y6345000I0J270000D01*
G01*
G37*
G36*
G01*
X47425000Y6345000D02*
X47425000Y7655000D01*
G75*
G02*
X47695000Y7925000I270000J0D01*
G01*
X48505000Y7925000D01*
G75*
G02*
X48775000Y7655000I0J-270000D01*
G01*
X48775000Y6345000D01*
G75*
G02*
X48505000Y6075000I-270000J0D01*
G01*
X47695000Y6075000D01*
G75*
G02*
X47425000Y6345000I0J270000D01*
G01*
G37*
%TD*%
%TO.C,C4*%
G36*
G01*
X45620000Y15991250D02*
X45620000Y15428750D01*
G75*
G02*
X45376250Y15185000I-243750J0D01*
G01*
X44888750Y15185000D01*
G75*
G02*
X44645000Y15428750I0J243750D01*
G01*
X44645000Y15991250D01*
G75*
G02*
X44888750Y16235000I243750J0D01*
G01*
X45376250Y16235000D01*
G75*
G02*
X45620000Y15991250I0J-243750D01*
G01*
G37*
G36*
G01*
X47195000Y15991250D02*
X47195000Y15428750D01*
G75*
G02*
X46951250Y15185000I-243750J0D01*
G01*
X46463750Y15185000D01*
G75*
G02*
X46220000Y15428750I0J243750D01*
G01*
X46220000Y15991250D01*
G75*
G02*
X46463750Y16235000I243750J0D01*
G01*
X46951250Y16235000D01*
G75*
G02*
X47195000Y15991250I0J-243750D01*
G01*
G37*
%TD*%
%TO.C,C3*%
G36*
G01*
X49000000Y9481250D02*
X49000000Y8918750D01*
G75*
G02*
X48756250Y8675000I-243750J0D01*
G01*
X48268750Y8675000D01*
G75*
G02*
X48025000Y8918750I0J243750D01*
G01*
X48025000Y9481250D01*
G75*
G02*
X48268750Y9725000I243750J0D01*
G01*
X48756250Y9725000D01*
G75*
G02*
X49000000Y9481250I0J-243750D01*
G01*
G37*
G36*
G01*
X50575000Y9481250D02*
X50575000Y8918750D01*
G75*
G02*
X50331250Y8675000I-243750J0D01*
G01*
X49843750Y8675000D01*
G75*
G02*
X49600000Y8918750I0J243750D01*
G01*
X49600000Y9481250D01*
G75*
G02*
X49843750Y9725000I243750J0D01*
G01*
X50331250Y9725000D01*
G75*
G02*
X50575000Y9481250I0J-243750D01*
G01*
G37*
%TD*%
%TO.C,C2*%
G36*
G01*
X81000000Y54318750D02*
X81000000Y54881250D01*
G75*
G02*
X81243750Y55125000I243750J0D01*
G01*
X81731250Y55125000D01*
G75*
G02*
X81975000Y54881250I0J-243750D01*
G01*
X81975000Y54318750D01*
G75*
G02*
X81731250Y54075000I-243750J0D01*
G01*
X81243750Y54075000D01*
G75*
G02*
X81000000Y54318750I0J243750D01*
G01*
G37*
G36*
G01*
X79425000Y54318750D02*
X79425000Y54881250D01*
G75*
G02*
X79668750Y55125000I243750J0D01*
G01*
X80156250Y55125000D01*
G75*
G02*
X80400000Y54881250I0J-243750D01*
G01*
X80400000Y54318750D01*
G75*
G02*
X80156250Y54075000I-243750J0D01*
G01*
X79668750Y54075000D01*
G75*
G02*
X79425000Y54318750I0J243750D01*
G01*
G37*
%TD*%
%TO.C,C1*%
G36*
G01*
X81000000Y52518750D02*
X81000000Y53081250D01*
G75*
G02*
X81243750Y53325000I243750J0D01*
G01*
X81731250Y53325000D01*
G75*
G02*
X81975000Y53081250I0J-243750D01*
G01*
X81975000Y52518750D01*
G75*
G02*
X81731250Y52275000I-243750J0D01*
G01*
X81243750Y52275000D01*
G75*
G02*
X81000000Y52518750I0J243750D01*
G01*
G37*
G36*
G01*
X79425000Y52518750D02*
X79425000Y53081250D01*
G75*
G02*
X79668750Y53325000I243750J0D01*
G01*
X80156250Y53325000D01*
G75*
G02*
X80400000Y53081250I0J-243750D01*
G01*
X80400000Y52518750D01*
G75*
G02*
X80156250Y52275000I-243750J0D01*
G01*
X79668750Y52275000D01*
G75*
G02*
X79425000Y52518750I0J243750D01*
G01*
G37*
%TD*%
M02*
