%TF.GenerationSoftware,KiCad,Pcbnew,(5.1.6-0-10_14)*%
%TF.CreationDate,2021-01-05T22:04:13+01:00*%
%TF.ProjectId,ecsc21-badge,65637363-3231-42d6-9261-6467652e6b69,rev?*%
%TF.SameCoordinates,PX5c07920PY8b3c880*%
%TF.FileFunction,Paste,Top*%
%TF.FilePolarity,Positive*%
%FSLAX46Y46*%
G04 Gerber Fmt 4.6, Leading zero omitted, Abs format (unit mm)*
G04 Created by KiCad (PCBNEW (5.1.6-0-10_14)) date 2021-01-05 22:04:13*
%MOMM*%
%LPD*%
G01*
G04 APERTURE LIST*
%ADD10R,0.300000X1.100000*%
%ADD11R,2.300000X3.100000*%
G04 APERTURE END LIST*
D10*
%TO.C,J1*%
X68000000Y36950000D03*
X67500000Y36950000D03*
X67000000Y36950000D03*
X66500000Y36950000D03*
X66000000Y36950000D03*
X65500000Y36950000D03*
X65000000Y36950000D03*
X64500000Y36950000D03*
X64000000Y36950000D03*
X63500000Y36950000D03*
X63000000Y36950000D03*
X62500000Y36950000D03*
X62000000Y36950000D03*
X61500000Y36950000D03*
X61000000Y36950000D03*
X60500000Y36950000D03*
X60000000Y36950000D03*
X59500000Y36950000D03*
X59000000Y36950000D03*
X58500000Y36950000D03*
X58000000Y36950000D03*
X57500000Y36950000D03*
X57000000Y36950000D03*
X56500000Y36950000D03*
X56000000Y36950000D03*
X55500000Y36950000D03*
X55000000Y36950000D03*
X54500000Y36950000D03*
X54000000Y36950000D03*
X53500000Y36950000D03*
X53000000Y36950000D03*
X52500000Y36950000D03*
X52000000Y36950000D03*
X51500000Y36950000D03*
X51000000Y36950000D03*
X50500000Y36950000D03*
X50000000Y36950000D03*
X49500000Y36950000D03*
X49000000Y36950000D03*
X48500000Y36950000D03*
D11*
X69670000Y38650000D03*
X46830000Y38650000D03*
%TD*%
M02*
