%TF.GenerationSoftware,KiCad,Pcbnew,(5.1.6-0-10_14)*%
%TF.CreationDate,2021-01-05T22:04:13+01:00*%
%TF.ProjectId,ecsc21-badge,65637363-3231-42d6-9261-6467652e6b69,rev?*%
%TF.SameCoordinates,PX5c07920PY8b3c880*%
%TF.FileFunction,Other,Fab,Bot*%
%FSLAX46Y46*%
G04 Gerber Fmt 4.6, Leading zero omitted, Abs format (unit mm)*
G04 Created by KiCad (PCBNEW (5.1.6-0-10_14)) date 2021-01-05 22:04:13*
%MOMM*%
%LPD*%
G01*
G04 APERTURE LIST*
%ADD10C,0.100000*%
%ADD11C,0.200000*%
%ADD12C,0.127000*%
%ADD13C,0.150000*%
%ADD14C,0.060000*%
%ADD15C,0.015000*%
%ADD16C,0.075000*%
%ADD17C,0.120000*%
%ADD18C,0.080000*%
G04 APERTURE END LIST*
D10*
%TO.C,D6*%
X40900000Y-1800000D02*
X42200000Y-1800000D01*
X42200000Y-1800000D02*
X42500000Y-2100000D01*
X42500000Y-2100000D02*
X42500000Y-2600000D01*
X42500000Y-2600000D02*
X40900000Y-2600000D01*
X40900000Y-2600000D02*
X40900000Y-1800000D01*
%TO.C,D5*%
X42487500Y9600000D02*
X41187500Y9600000D01*
X41187500Y9600000D02*
X40887500Y9900000D01*
X40887500Y9900000D02*
X40887500Y10400000D01*
X40887500Y10400000D02*
X42487500Y10400000D01*
X42487500Y10400000D02*
X42487500Y9600000D01*
%TO.C,J4*%
X46190000Y43550000D02*
X70310000Y43550000D01*
X70310000Y43550000D02*
X70310000Y46350000D01*
X70310000Y46350000D02*
X70965000Y46350000D01*
X70965000Y46350000D02*
X70965000Y47950000D01*
X70965000Y47950000D02*
X45535000Y47950000D01*
X45535000Y47950000D02*
X45535000Y46350000D01*
X45535000Y46350000D02*
X46190000Y46350000D01*
X46190000Y46350000D02*
X46190000Y43550000D01*
X48100000Y43550000D02*
X48500000Y44350000D01*
X48500000Y44350000D02*
X48900000Y43550000D01*
%TO.C,R29*%
X73700000Y91000000D02*
X73700000Y92600000D01*
X72900000Y91000000D02*
X73700000Y91000000D01*
X72900000Y92600000D02*
X72900000Y91000000D01*
X73700000Y92600000D02*
X72900000Y92600000D01*
%TO.C,R28*%
X57500000Y98400000D02*
X57500000Y96800000D01*
X58300000Y98400000D02*
X57500000Y98400000D01*
X58300000Y96800000D02*
X58300000Y98400000D01*
X57500000Y96800000D02*
X58300000Y96800000D01*
%TO.C,R27*%
X37300000Y-4200000D02*
X37300000Y-3400000D01*
X37300000Y-3400000D02*
X35700000Y-3400000D01*
X35700000Y-3400000D02*
X35700000Y-4200000D01*
X35700000Y-4200000D02*
X37300000Y-4200000D01*
%TO.C,R12*%
X35700000Y7400000D02*
X34900000Y7400000D01*
X34900000Y7400000D02*
X34900000Y5800000D01*
X34900000Y5800000D02*
X35700000Y5800000D01*
X35700000Y5800000D02*
X35700000Y7400000D01*
%TO.C,R21*%
X58400000Y94600000D02*
X57600000Y94600000D01*
X57600000Y94600000D02*
X57600000Y93000000D01*
X57600000Y93000000D02*
X58400000Y93000000D01*
X58400000Y93000000D02*
X58400000Y94600000D01*
D11*
%TO.C,U2*%
X81350000Y56700000D02*
G75*
G03*
X81350000Y56700000I-100000J0D01*
G01*
D12*
X82350000Y58100000D02*
X82350000Y76100000D01*
X82350000Y76100000D02*
X57250000Y76100000D01*
X88650000Y76100000D02*
X82350000Y76100000D01*
X57250000Y76100000D02*
X57250000Y58100000D01*
X88650000Y58100000D02*
X88650000Y76100000D01*
X82350000Y58100000D02*
X88650000Y58100000D01*
X57250000Y58100000D02*
X82350000Y58100000D01*
D10*
%TO.C,R26*%
X35310000Y4485000D02*
X33710000Y4485000D01*
X35310000Y3685000D02*
X35310000Y4485000D01*
X33710000Y3685000D02*
X35310000Y3685000D01*
X33710000Y4485000D02*
X33710000Y3685000D01*
%TO.C,Q1*%
X34030000Y2075000D02*
X35430000Y2075000D01*
X35430000Y-965000D02*
X35430000Y2075000D01*
X34030000Y-395000D02*
X34580000Y-965000D01*
X34580000Y-965000D02*
X35430000Y-965000D01*
X34030000Y-395000D02*
X34030000Y2055000D01*
%TO.C,D4*%
X72650000Y96750000D02*
X72650000Y98350000D01*
X75850000Y96750000D02*
X72650000Y96750000D01*
X75850000Y97950000D02*
X75850000Y96750000D01*
X75450000Y98350000D02*
X75850000Y97950000D01*
X72650000Y98350000D02*
X75450000Y98350000D01*
%TO.C,R25*%
X73450000Y94900000D02*
X75050000Y94900000D01*
X73450000Y95700000D02*
X73450000Y94900000D01*
X75050000Y95700000D02*
X73450000Y95700000D01*
X75050000Y94900000D02*
X75050000Y95700000D01*
%TO.C,R24*%
X45300000Y96800000D02*
X45300000Y98400000D01*
X44500000Y96800000D02*
X45300000Y96800000D01*
X44500000Y98400000D02*
X44500000Y96800000D01*
X45300000Y98400000D02*
X44500000Y98400000D01*
%TO.C,C11*%
X64600000Y93850000D02*
X61400000Y93850000D01*
X64600000Y92250000D02*
X64600000Y93850000D01*
X61400000Y92250000D02*
X64600000Y92250000D01*
X61400000Y93850000D02*
X61400000Y92250000D01*
%TO.C,C6*%
X36750000Y42600000D02*
X35150000Y42600000D01*
X35150000Y42600000D02*
X35150000Y39400000D01*
X35150000Y39400000D02*
X36750000Y39400000D01*
X36750000Y39400000D02*
X36750000Y42600000D01*
%TO.C,R9*%
X50650000Y31900000D02*
X50650000Y32700000D01*
X50650000Y32700000D02*
X49050000Y32700000D01*
X49050000Y32700000D02*
X49050000Y31900000D01*
X49050000Y31900000D02*
X50650000Y31900000D01*
%TO.C,R6*%
X50650000Y33500000D02*
X50650000Y34300000D01*
X50650000Y34300000D02*
X49050000Y34300000D01*
X49050000Y34300000D02*
X49050000Y33500000D01*
X49050000Y33500000D02*
X50650000Y33500000D01*
%TO.C,R4*%
X50650000Y30300000D02*
X50650000Y31100000D01*
X50650000Y31100000D02*
X49050000Y31100000D01*
X49050000Y31100000D02*
X49050000Y30300000D01*
X49050000Y30300000D02*
X50650000Y30300000D01*
%TO.C,U4*%
X40820000Y46020000D02*
X39320000Y46020000D01*
X41820000Y41520000D02*
X41820000Y45020000D01*
X39320000Y41520000D02*
X41820000Y41520000D01*
X39320000Y46020000D02*
X39320000Y41520000D01*
X41820000Y45020000D02*
X40820000Y46020000D01*
%TO.C,R1*%
X53920000Y32480000D02*
X53920000Y34480000D01*
X52720000Y32480000D02*
X53920000Y32480000D01*
X52720000Y34480000D02*
X52720000Y32480000D01*
X53920000Y34480000D02*
X52720000Y34480000D01*
%TO.C,C10*%
X40250000Y39900000D02*
X38650000Y39900000D01*
X40250000Y39100000D02*
X40250000Y39900000D01*
X38650000Y39100000D02*
X40250000Y39100000D01*
X38650000Y39900000D02*
X38650000Y39100000D01*
%TO.C,C9*%
X43250000Y39900000D02*
X41650000Y39900000D01*
X43250000Y39100000D02*
X43250000Y39900000D01*
X41650000Y39100000D02*
X43250000Y39100000D01*
X41650000Y39900000D02*
X41650000Y39100000D01*
%TO.C,J3*%
X61920000Y680000D02*
X52980000Y680000D01*
X52980000Y680000D02*
X52980000Y-6640000D01*
X52980000Y-6640000D02*
X61920000Y-6640000D01*
X61920000Y680000D02*
X61920000Y-6640000D01*
%TO.C,U3*%
X62625000Y7850000D02*
X63600000Y8825000D01*
X53700000Y7850000D02*
X62625000Y7850000D01*
X53700000Y11750000D02*
X53700000Y7850000D01*
X63600000Y11750000D02*
X53700000Y11750000D01*
X63600000Y8825000D02*
X63600000Y11750000D01*
%TO.C,U1*%
X41200000Y16450000D02*
X39700000Y16450000D01*
X42200000Y11950000D02*
X42200000Y15450000D01*
X39700000Y11950000D02*
X42200000Y11950000D01*
X39700000Y16450000D02*
X39700000Y11950000D01*
X42200000Y15450000D02*
X41200000Y16450000D01*
%TO.C,R23*%
X63650000Y1550000D02*
X65250000Y1550000D01*
X63650000Y2350000D02*
X63650000Y1550000D01*
X65250000Y2350000D02*
X63650000Y2350000D01*
X65250000Y1550000D02*
X65250000Y2350000D01*
%TO.C,R22*%
X53500000Y5400000D02*
X51900000Y5400000D01*
X53500000Y4600000D02*
X53500000Y5400000D01*
X51900000Y4600000D02*
X53500000Y4600000D01*
X51900000Y5400000D02*
X51900000Y4600000D01*
%TO.C,R20*%
X75090000Y11400000D02*
X75090000Y13000000D01*
X74290000Y11400000D02*
X75090000Y11400000D01*
X74290000Y13000000D02*
X74290000Y11400000D01*
X75090000Y13000000D02*
X74290000Y13000000D01*
%TO.C,R19*%
X70100000Y13000000D02*
X70100000Y11400000D01*
X70900000Y13000000D02*
X70100000Y13000000D01*
X70900000Y11400000D02*
X70900000Y13000000D01*
X70100000Y11400000D02*
X70900000Y11400000D01*
%TO.C,R18*%
X61130000Y14960000D02*
X62730000Y14960000D01*
X61130000Y15760000D02*
X61130000Y14960000D01*
X62730000Y15760000D02*
X61130000Y15760000D01*
X62730000Y14960000D02*
X62730000Y15760000D01*
%TO.C,R17*%
X58700000Y21000000D02*
X60300000Y21000000D01*
X58700000Y21800000D02*
X58700000Y21000000D01*
X60300000Y21800000D02*
X58700000Y21800000D01*
X60300000Y21000000D02*
X60300000Y21800000D01*
%TO.C,R16*%
X69100000Y-700000D02*
X67500000Y-700000D01*
X69100000Y-1500000D02*
X69100000Y-700000D01*
X67500000Y-1500000D02*
X69100000Y-1500000D01*
X67500000Y-700000D02*
X67500000Y-1500000D01*
%TO.C,R15*%
X67500000Y-3100000D02*
X69100000Y-3100000D01*
X67500000Y-2300000D02*
X67500000Y-3100000D01*
X69100000Y-2300000D02*
X67500000Y-2300000D01*
X69100000Y-3100000D02*
X69100000Y-2300000D01*
%TO.C,R14*%
X29700000Y20600000D02*
X31300000Y20600000D01*
X29700000Y21400000D02*
X29700000Y20600000D01*
X31300000Y21400000D02*
X29700000Y21400000D01*
X31300000Y20600000D02*
X31300000Y21400000D01*
%TO.C,R13*%
X29700000Y39400000D02*
X31300000Y39400000D01*
X29700000Y40200000D02*
X29700000Y39400000D01*
X31300000Y40200000D02*
X29700000Y40200000D01*
X31300000Y39400000D02*
X31300000Y40200000D01*
%TO.C,R11*%
X29700000Y76400000D02*
X31300000Y76400000D01*
X29700000Y77200000D02*
X29700000Y76400000D01*
X31300000Y77200000D02*
X29700000Y77200000D01*
X31300000Y76400000D02*
X31300000Y77200000D01*
%TO.C,R10*%
X35300000Y8800000D02*
X36900000Y8800000D01*
X35300000Y9600000D02*
X35300000Y8800000D01*
X36900000Y9600000D02*
X35300000Y9600000D01*
X36900000Y8800000D02*
X36900000Y9600000D01*
%TO.C,R8*%
X43500000Y94400000D02*
X42700000Y94400000D01*
X42700000Y94400000D02*
X42700000Y92800000D01*
X42700000Y92800000D02*
X43500000Y92800000D01*
X43500000Y92800000D02*
X43500000Y94400000D01*
%TO.C,R7*%
X45260000Y94400000D02*
X44460000Y94400000D01*
X44460000Y94400000D02*
X44460000Y92800000D01*
X44460000Y92800000D02*
X45260000Y92800000D01*
X45260000Y92800000D02*
X45260000Y94400000D01*
%TO.C,R5*%
X54500000Y76000000D02*
X52900000Y76000000D01*
X54500000Y75200000D02*
X54500000Y76000000D01*
X52900000Y75200000D02*
X54500000Y75200000D01*
X52900000Y76000000D02*
X52900000Y75200000D01*
%TO.C,R3*%
X29700000Y57600000D02*
X31300000Y57600000D01*
X29700000Y58400000D02*
X29700000Y57600000D01*
X31300000Y58400000D02*
X29700000Y58400000D01*
X31300000Y57600000D02*
X31300000Y58400000D01*
%TO.C,R2*%
X81500000Y51400000D02*
X79900000Y51400000D01*
X81500000Y50600000D02*
X81500000Y51400000D01*
X79900000Y50600000D02*
X81500000Y50600000D01*
X79900000Y51400000D02*
X79900000Y50600000D01*
%TO.C,Q5*%
X62100000Y16880000D02*
X60700000Y16880000D01*
X60700000Y19920000D02*
X60700000Y16880000D01*
X62100000Y19350000D02*
X61550000Y19920000D01*
X61550000Y19920000D02*
X60700000Y19920000D01*
X62100000Y19350000D02*
X62100000Y16900000D01*
%TO.C,Q4*%
X58010000Y15170000D02*
X56610000Y15170000D01*
X56610000Y18210000D02*
X56610000Y15170000D01*
X58010000Y17640000D02*
X57460000Y18210000D01*
X57460000Y18210000D02*
X56610000Y18210000D01*
X58010000Y17640000D02*
X58010000Y15190000D01*
%TO.C,Q3*%
X51930000Y28900000D02*
X51930000Y30300000D01*
X54970000Y30300000D02*
X51930000Y30300000D01*
X54400000Y28900000D02*
X54970000Y29450000D01*
X54970000Y29450000D02*
X54970000Y30300000D01*
X54400000Y28900000D02*
X51950000Y28900000D01*
%TO.C,J2*%
X53290000Y98110000D02*
X49210000Y98110000D01*
X49210000Y98110000D02*
X48210000Y97110000D01*
X48210000Y97110000D02*
X48210000Y90490000D01*
X48210000Y90490000D02*
X53290000Y90490000D01*
X53290000Y90490000D02*
X53290000Y98110000D01*
X54670000Y97160000D02*
X53290000Y97160000D01*
X53290000Y96520000D02*
X54670000Y96520000D01*
X54670000Y96520000D02*
X54670000Y97160000D01*
X48210000Y97160000D02*
X46830000Y97160000D01*
X46830000Y97160000D02*
X46830000Y96520000D01*
X46830000Y96520000D02*
X48210000Y96520000D01*
X54670000Y94620000D02*
X53290000Y94620000D01*
X53290000Y93980000D02*
X54670000Y93980000D01*
X54670000Y93980000D02*
X54670000Y94620000D01*
X48210000Y94620000D02*
X46830000Y94620000D01*
X46830000Y94620000D02*
X46830000Y93980000D01*
X46830000Y93980000D02*
X48210000Y93980000D01*
X54670000Y92080000D02*
X53290000Y92080000D01*
X53290000Y91440000D02*
X54670000Y91440000D01*
X54670000Y91440000D02*
X54670000Y92080000D01*
X48210000Y92080000D02*
X46830000Y92080000D01*
X46830000Y92080000D02*
X46830000Y91440000D01*
X46830000Y91440000D02*
X48210000Y91440000D01*
%TO.C,D3*%
X76700000Y11400000D02*
X75900000Y11400000D01*
X76700000Y13000000D02*
X76700000Y11400000D01*
X76200000Y13000000D02*
X76700000Y13000000D01*
X75900000Y12700000D02*
X76200000Y13000000D01*
X75900000Y11400000D02*
X75900000Y12700000D01*
%TO.C,D2*%
X72580000Y11400000D02*
X71780000Y11400000D01*
X72580000Y13000000D02*
X72580000Y11400000D01*
X72080000Y13000000D02*
X72580000Y13000000D01*
X71780000Y12700000D02*
X72080000Y13000000D01*
X71780000Y11400000D02*
X71780000Y12700000D01*
%TO.C,D1*%
X48501020Y449440D02*
X47700920Y-701180D01*
X48501020Y449440D02*
X49250320Y-701180D01*
X49250320Y-701180D02*
X47700920Y-701180D01*
X47700920Y449440D02*
X49301120Y449440D01*
X48501020Y-701180D02*
X48501020Y-1699400D01*
X48501020Y449440D02*
X48501020Y1351140D01*
X47000000Y-2500000D02*
X47000000Y2100000D01*
X47000000Y-2500000D02*
X50000000Y-2500000D01*
X50000000Y2100000D02*
X47000000Y2100000D01*
X50000000Y-2500000D02*
X50000000Y2100000D01*
%TO.C,C8*%
X59312500Y4600000D02*
X60912500Y4600000D01*
X59312500Y5400000D02*
X59312500Y4600000D01*
X60912500Y5400000D02*
X59312500Y5400000D01*
X60912500Y4600000D02*
X60912500Y5400000D01*
%TO.C,C7*%
X67500000Y100000D02*
X69100000Y100000D01*
X67500000Y900000D02*
X67500000Y100000D01*
X69100000Y900000D02*
X67500000Y900000D01*
X69100000Y100000D02*
X69100000Y900000D01*
%TO.C,C5*%
X51100000Y7800000D02*
X47900000Y7800000D01*
X51100000Y6200000D02*
X51100000Y7800000D01*
X47900000Y6200000D02*
X51100000Y6200000D01*
X47900000Y7800000D02*
X47900000Y6200000D01*
%TO.C,C4*%
X45120000Y15310000D02*
X46720000Y15310000D01*
X45120000Y16110000D02*
X45120000Y15310000D01*
X46720000Y16110000D02*
X45120000Y16110000D01*
X46720000Y15310000D02*
X46720000Y16110000D01*
%TO.C,C3*%
X48500000Y8800000D02*
X50100000Y8800000D01*
X48500000Y9600000D02*
X48500000Y8800000D01*
X50100000Y9600000D02*
X48500000Y9600000D01*
X50100000Y8800000D02*
X50100000Y9600000D01*
%TO.C,C2*%
X81500000Y55000000D02*
X79900000Y55000000D01*
X81500000Y54200000D02*
X81500000Y55000000D01*
X79900000Y54200000D02*
X81500000Y54200000D01*
X79900000Y55000000D02*
X79900000Y54200000D01*
%TO.C,C1*%
X81500000Y53200000D02*
X79900000Y53200000D01*
X81500000Y52400000D02*
X81500000Y53200000D01*
X79900000Y52400000D02*
X81500000Y52400000D01*
X79900000Y53200000D02*
X79900000Y52400000D01*
%TD*%
%TO.C,D6*%
D13*
X53985714Y-3082380D02*
X53795238Y-3082380D01*
X53700000Y-3130000D01*
X53604761Y-3225238D01*
X53557142Y-3415714D01*
X53557142Y-3749047D01*
X53604761Y-3939523D01*
X53700000Y-4034761D01*
X53795238Y-4082380D01*
X53985714Y-4082380D01*
X54080952Y-4034761D01*
X54176190Y-3939523D01*
X54223809Y-3749047D01*
X54223809Y-3415714D01*
X54176190Y-3225238D01*
X54080952Y-3130000D01*
X53985714Y-3082380D01*
X53128571Y-4082380D02*
X53128571Y-3415714D01*
X53128571Y-3606190D02*
X53080952Y-3510952D01*
X53033333Y-3463333D01*
X52938095Y-3415714D01*
X52842857Y-3415714D01*
X52080952Y-4082380D02*
X52080952Y-3558571D01*
X52128571Y-3463333D01*
X52223809Y-3415714D01*
X52414285Y-3415714D01*
X52509523Y-3463333D01*
X52080952Y-4034761D02*
X52176190Y-4082380D01*
X52414285Y-4082380D01*
X52509523Y-4034761D01*
X52557142Y-3939523D01*
X52557142Y-3844285D01*
X52509523Y-3749047D01*
X52414285Y-3701428D01*
X52176190Y-3701428D01*
X52080952Y-3653809D01*
X51604761Y-3415714D02*
X51604761Y-4082380D01*
X51604761Y-3510952D02*
X51557142Y-3463333D01*
X51461904Y-3415714D01*
X51319047Y-3415714D01*
X51223809Y-3463333D01*
X51176190Y-3558571D01*
X51176190Y-4082380D01*
X50271428Y-3415714D02*
X50271428Y-4225238D01*
X50319047Y-4320476D01*
X50366666Y-4368095D01*
X50461904Y-4415714D01*
X50604761Y-4415714D01*
X50700000Y-4368095D01*
X50271428Y-4034761D02*
X50366666Y-4082380D01*
X50557142Y-4082380D01*
X50652380Y-4034761D01*
X50700000Y-3987142D01*
X50747619Y-3891904D01*
X50747619Y-3606190D01*
X50700000Y-3510952D01*
X50652380Y-3463333D01*
X50557142Y-3415714D01*
X50366666Y-3415714D01*
X50271428Y-3463333D01*
X49414285Y-4034761D02*
X49509523Y-4082380D01*
X49700000Y-4082380D01*
X49795238Y-4034761D01*
X49842857Y-3939523D01*
X49842857Y-3558571D01*
X49795238Y-3463333D01*
X49700000Y-3415714D01*
X49509523Y-3415714D01*
X49414285Y-3463333D01*
X49366666Y-3558571D01*
X49366666Y-3653809D01*
X49842857Y-3749047D01*
X47700000Y-4082380D02*
X48176190Y-4082380D01*
X48176190Y-3082380D01*
X47509523Y-3082380D02*
X46938095Y-3082380D01*
X47223809Y-4082380D02*
X47223809Y-3082380D01*
X46652380Y-4034761D02*
X46509523Y-4082380D01*
X46271428Y-4082380D01*
X46176190Y-4034761D01*
X46128571Y-3987142D01*
X46080952Y-3891904D01*
X46080952Y-3796666D01*
X46128571Y-3701428D01*
X46176190Y-3653809D01*
X46271428Y-3606190D01*
X46461904Y-3558571D01*
X46557142Y-3510952D01*
X46604761Y-3463333D01*
X46652380Y-3368095D01*
X46652380Y-3272857D01*
X46604761Y-3177619D01*
X46557142Y-3130000D01*
X46461904Y-3082380D01*
X46223809Y-3082380D01*
X46080952Y-3130000D01*
X45795238Y-3082380D02*
X45223809Y-3082380D01*
X45509523Y-4082380D02*
X45509523Y-3082380D01*
X44890476Y-3701428D02*
X44128571Y-3701428D01*
X43700000Y-4034761D02*
X43557142Y-4082380D01*
X43319047Y-4082380D01*
X43223809Y-4034761D01*
X43176190Y-3987142D01*
X43128571Y-3891904D01*
X43128571Y-3796666D01*
X43176190Y-3701428D01*
X43223809Y-3653809D01*
X43319047Y-3606190D01*
X43509523Y-3558571D01*
X43604761Y-3510952D01*
X43652380Y-3463333D01*
X43700000Y-3368095D01*
X43700000Y-3272857D01*
X43652380Y-3177619D01*
X43604761Y-3130000D01*
X43509523Y-3082380D01*
X43271428Y-3082380D01*
X43128571Y-3130000D01*
X42747619Y-3177619D02*
X42700000Y-3130000D01*
X42604761Y-3082380D01*
X42366666Y-3082380D01*
X42271428Y-3130000D01*
X42223809Y-3177619D01*
X42176190Y-3272857D01*
X42176190Y-3368095D01*
X42223809Y-3510952D01*
X42795238Y-4082380D01*
X42176190Y-4082380D01*
X41842857Y-3082380D02*
X41176190Y-3082380D01*
X41604761Y-4082380D01*
X40604761Y-3082380D02*
X40509523Y-3082380D01*
X40414285Y-3130000D01*
X40366666Y-3177619D01*
X40319047Y-3272857D01*
X40271428Y-3463333D01*
X40271428Y-3701428D01*
X40319047Y-3891904D01*
X40366666Y-3987142D01*
X40414285Y-4034761D01*
X40509523Y-4082380D01*
X40604761Y-4082380D01*
X40700000Y-4034761D01*
X40747619Y-3987142D01*
X40795238Y-3891904D01*
X40842857Y-3701428D01*
X40842857Y-3463333D01*
X40795238Y-3272857D01*
X40747619Y-3177619D01*
X40700000Y-3130000D01*
X40604761Y-3082380D01*
X39842857Y-4082380D02*
X39842857Y-3082380D01*
X39271428Y-4082380D02*
X39700000Y-3510952D01*
X39271428Y-3082380D02*
X39842857Y-3653809D01*
X38509523Y-3558571D02*
X38842857Y-3558571D01*
X38842857Y-4082380D02*
X38842857Y-3082380D01*
X38366666Y-3082380D01*
X37985714Y-4082380D02*
X37985714Y-3082380D01*
X37414285Y-4082380D02*
X37842857Y-3510952D01*
X37414285Y-3082380D02*
X37985714Y-3653809D01*
X37128571Y-3082380D02*
X36557142Y-3082380D01*
X36842857Y-4082380D02*
X36842857Y-3082380D01*
X36461904Y-4177619D02*
X35700000Y-4177619D01*
X34890476Y-3987142D02*
X34938095Y-4034761D01*
X35080952Y-4082380D01*
X35176190Y-4082380D01*
X35319047Y-4034761D01*
X35414285Y-3939523D01*
X35461904Y-3844285D01*
X35509523Y-3653809D01*
X35509523Y-3510952D01*
X35461904Y-3320476D01*
X35414285Y-3225238D01*
X35319047Y-3130000D01*
X35176190Y-3082380D01*
X35080952Y-3082380D01*
X34938095Y-3130000D01*
X34890476Y-3177619D01*
X33938095Y-4082380D02*
X34509523Y-4082380D01*
X34223809Y-4082380D02*
X34223809Y-3082380D01*
X34319047Y-3225238D01*
X34414285Y-3320476D01*
X34509523Y-3368095D01*
X33080952Y-3082380D02*
X33271428Y-3082380D01*
X33366666Y-3130000D01*
X33414285Y-3177619D01*
X33509523Y-3320476D01*
X33557142Y-3510952D01*
X33557142Y-3891904D01*
X33509523Y-3987142D01*
X33461904Y-4034761D01*
X33366666Y-4082380D01*
X33176190Y-4082380D01*
X33080952Y-4034761D01*
X33033333Y-3987142D01*
X32985714Y-3891904D01*
X32985714Y-3653809D01*
X33033333Y-3558571D01*
X33080952Y-3510952D01*
X33176190Y-3463333D01*
X33366666Y-3463333D01*
X33461904Y-3510952D01*
X33509523Y-3558571D01*
X33557142Y-3653809D01*
X32366666Y-3082380D02*
X32271428Y-3082380D01*
X32176190Y-3130000D01*
X32128571Y-3177619D01*
X32080952Y-3272857D01*
X32033333Y-3463333D01*
X32033333Y-3701428D01*
X32080952Y-3891904D01*
X32128571Y-3987142D01*
X32176190Y-4034761D01*
X32271428Y-4082380D01*
X32366666Y-4082380D01*
X32461904Y-4034761D01*
X32509523Y-3987142D01*
X32557142Y-3891904D01*
X32604761Y-3701428D01*
X32604761Y-3463333D01*
X32557142Y-3272857D01*
X32509523Y-3177619D01*
X32461904Y-3130000D01*
X32366666Y-3082380D01*
X31176190Y-3415714D02*
X31176190Y-4082380D01*
X31414285Y-3034761D02*
X31652380Y-3749047D01*
X31033333Y-3749047D01*
X30747619Y-3082380D02*
X30080952Y-3082380D01*
X30509523Y-4082380D01*
X29747619Y-3177619D02*
X29700000Y-3130000D01*
X29604761Y-3082380D01*
X29366666Y-3082380D01*
X29271428Y-3130000D01*
X29223809Y-3177619D01*
X29176190Y-3272857D01*
X29176190Y-3368095D01*
X29223809Y-3510952D01*
X29795238Y-4082380D01*
X29176190Y-4082380D01*
D14*
X41995238Y-2380952D02*
X41995238Y-1980952D01*
X41900000Y-1980952D01*
X41842857Y-2000000D01*
X41804761Y-2038095D01*
X41785714Y-2076190D01*
X41766666Y-2152380D01*
X41766666Y-2209523D01*
X41785714Y-2285714D01*
X41804761Y-2323809D01*
X41842857Y-2361904D01*
X41900000Y-2380952D01*
X41995238Y-2380952D01*
X41423809Y-1980952D02*
X41500000Y-1980952D01*
X41538095Y-2000000D01*
X41557142Y-2019047D01*
X41595238Y-2076190D01*
X41614285Y-2152380D01*
X41614285Y-2304761D01*
X41595238Y-2342857D01*
X41576190Y-2361904D01*
X41538095Y-2380952D01*
X41461904Y-2380952D01*
X41423809Y-2361904D01*
X41404761Y-2342857D01*
X41385714Y-2304761D01*
X41385714Y-2209523D01*
X41404761Y-2171428D01*
X41423809Y-2152380D01*
X41461904Y-2133333D01*
X41538095Y-2133333D01*
X41576190Y-2152380D01*
X41595238Y-2171428D01*
X41614285Y-2209523D01*
%TO.C,D5*%
D13*
X53973214Y11977620D02*
X53782738Y11977620D01*
X53687500Y11930000D01*
X53592261Y11834762D01*
X53544642Y11644286D01*
X53544642Y11310953D01*
X53592261Y11120477D01*
X53687500Y11025239D01*
X53782738Y10977620D01*
X53973214Y10977620D01*
X54068452Y11025239D01*
X54163690Y11120477D01*
X54211309Y11310953D01*
X54211309Y11644286D01*
X54163690Y11834762D01*
X54068452Y11930000D01*
X53973214Y11977620D01*
X53116071Y10977620D02*
X53116071Y11644286D01*
X53116071Y11453810D02*
X53068452Y11549048D01*
X53020833Y11596667D01*
X52925595Y11644286D01*
X52830357Y11644286D01*
X52068452Y10977620D02*
X52068452Y11501429D01*
X52116071Y11596667D01*
X52211309Y11644286D01*
X52401785Y11644286D01*
X52497023Y11596667D01*
X52068452Y11025239D02*
X52163690Y10977620D01*
X52401785Y10977620D01*
X52497023Y11025239D01*
X52544642Y11120477D01*
X52544642Y11215715D01*
X52497023Y11310953D01*
X52401785Y11358572D01*
X52163690Y11358572D01*
X52068452Y11406191D01*
X51592261Y11644286D02*
X51592261Y10977620D01*
X51592261Y11549048D02*
X51544642Y11596667D01*
X51449404Y11644286D01*
X51306547Y11644286D01*
X51211309Y11596667D01*
X51163690Y11501429D01*
X51163690Y10977620D01*
X50258928Y11644286D02*
X50258928Y10834762D01*
X50306547Y10739524D01*
X50354166Y10691905D01*
X50449404Y10644286D01*
X50592261Y10644286D01*
X50687500Y10691905D01*
X50258928Y11025239D02*
X50354166Y10977620D01*
X50544642Y10977620D01*
X50639880Y11025239D01*
X50687500Y11072858D01*
X50735119Y11168096D01*
X50735119Y11453810D01*
X50687500Y11549048D01*
X50639880Y11596667D01*
X50544642Y11644286D01*
X50354166Y11644286D01*
X50258928Y11596667D01*
X49401785Y11025239D02*
X49497023Y10977620D01*
X49687500Y10977620D01*
X49782738Y11025239D01*
X49830357Y11120477D01*
X49830357Y11501429D01*
X49782738Y11596667D01*
X49687500Y11644286D01*
X49497023Y11644286D01*
X49401785Y11596667D01*
X49354166Y11501429D01*
X49354166Y11406191D01*
X49830357Y11310953D01*
X47687500Y10977620D02*
X48163690Y10977620D01*
X48163690Y11977620D01*
X47497023Y11977620D02*
X46925595Y11977620D01*
X47211309Y10977620D02*
X47211309Y11977620D01*
X46639880Y11025239D02*
X46497023Y10977620D01*
X46258928Y10977620D01*
X46163690Y11025239D01*
X46116071Y11072858D01*
X46068452Y11168096D01*
X46068452Y11263334D01*
X46116071Y11358572D01*
X46163690Y11406191D01*
X46258928Y11453810D01*
X46449404Y11501429D01*
X46544642Y11549048D01*
X46592261Y11596667D01*
X46639880Y11691905D01*
X46639880Y11787143D01*
X46592261Y11882381D01*
X46544642Y11930000D01*
X46449404Y11977620D01*
X46211309Y11977620D01*
X46068452Y11930000D01*
X45782738Y11977620D02*
X45211309Y11977620D01*
X45497023Y10977620D02*
X45497023Y11977620D01*
X44877976Y11358572D02*
X44116071Y11358572D01*
X43687500Y11025239D02*
X43544642Y10977620D01*
X43306547Y10977620D01*
X43211309Y11025239D01*
X43163690Y11072858D01*
X43116071Y11168096D01*
X43116071Y11263334D01*
X43163690Y11358572D01*
X43211309Y11406191D01*
X43306547Y11453810D01*
X43497023Y11501429D01*
X43592261Y11549048D01*
X43639880Y11596667D01*
X43687500Y11691905D01*
X43687500Y11787143D01*
X43639880Y11882381D01*
X43592261Y11930000D01*
X43497023Y11977620D01*
X43258928Y11977620D01*
X43116071Y11930000D01*
X42735119Y11882381D02*
X42687500Y11930000D01*
X42592261Y11977620D01*
X42354166Y11977620D01*
X42258928Y11930000D01*
X42211309Y11882381D01*
X42163690Y11787143D01*
X42163690Y11691905D01*
X42211309Y11549048D01*
X42782738Y10977620D01*
X42163690Y10977620D01*
X41830357Y11977620D02*
X41163690Y11977620D01*
X41592261Y10977620D01*
X40592261Y11977620D02*
X40497023Y11977620D01*
X40401785Y11930000D01*
X40354166Y11882381D01*
X40306547Y11787143D01*
X40258928Y11596667D01*
X40258928Y11358572D01*
X40306547Y11168096D01*
X40354166Y11072858D01*
X40401785Y11025239D01*
X40497023Y10977620D01*
X40592261Y10977620D01*
X40687500Y11025239D01*
X40735119Y11072858D01*
X40782738Y11168096D01*
X40830357Y11358572D01*
X40830357Y11596667D01*
X40782738Y11787143D01*
X40735119Y11882381D01*
X40687500Y11930000D01*
X40592261Y11977620D01*
X39830357Y10977620D02*
X39830357Y11977620D01*
X39258928Y10977620D02*
X39687500Y11549048D01*
X39258928Y11977620D02*
X39830357Y11406191D01*
X38497023Y11501429D02*
X38830357Y11501429D01*
X38830357Y10977620D02*
X38830357Y11977620D01*
X38354166Y11977620D01*
X37973214Y10977620D02*
X37973214Y11977620D01*
X37401785Y10977620D02*
X37830357Y11549048D01*
X37401785Y11977620D02*
X37973214Y11406191D01*
X37116071Y11977620D02*
X36544642Y11977620D01*
X36830357Y10977620D02*
X36830357Y11977620D01*
X36449404Y10882381D02*
X35687500Y10882381D01*
X34877976Y11072858D02*
X34925595Y11025239D01*
X35068452Y10977620D01*
X35163690Y10977620D01*
X35306547Y11025239D01*
X35401785Y11120477D01*
X35449404Y11215715D01*
X35497023Y11406191D01*
X35497023Y11549048D01*
X35449404Y11739524D01*
X35401785Y11834762D01*
X35306547Y11930000D01*
X35163690Y11977620D01*
X35068452Y11977620D01*
X34925595Y11930000D01*
X34877976Y11882381D01*
X33925595Y10977620D02*
X34497023Y10977620D01*
X34211309Y10977620D02*
X34211309Y11977620D01*
X34306547Y11834762D01*
X34401785Y11739524D01*
X34497023Y11691905D01*
X33068452Y11977620D02*
X33258928Y11977620D01*
X33354166Y11930000D01*
X33401785Y11882381D01*
X33497023Y11739524D01*
X33544642Y11549048D01*
X33544642Y11168096D01*
X33497023Y11072858D01*
X33449404Y11025239D01*
X33354166Y10977620D01*
X33163690Y10977620D01*
X33068452Y11025239D01*
X33020833Y11072858D01*
X32973214Y11168096D01*
X32973214Y11406191D01*
X33020833Y11501429D01*
X33068452Y11549048D01*
X33163690Y11596667D01*
X33354166Y11596667D01*
X33449404Y11549048D01*
X33497023Y11501429D01*
X33544642Y11406191D01*
X32354166Y11977620D02*
X32258928Y11977620D01*
X32163690Y11930000D01*
X32116071Y11882381D01*
X32068452Y11787143D01*
X32020833Y11596667D01*
X32020833Y11358572D01*
X32068452Y11168096D01*
X32116071Y11072858D01*
X32163690Y11025239D01*
X32258928Y10977620D01*
X32354166Y10977620D01*
X32449404Y11025239D01*
X32497023Y11072858D01*
X32544642Y11168096D01*
X32592261Y11358572D01*
X32592261Y11596667D01*
X32544642Y11787143D01*
X32497023Y11882381D01*
X32449404Y11930000D01*
X32354166Y11977620D01*
X31163690Y11644286D02*
X31163690Y10977620D01*
X31401785Y12025239D02*
X31639880Y11310953D01*
X31020833Y11310953D01*
X30735119Y11977620D02*
X30068452Y11977620D01*
X30497023Y10977620D01*
X29735119Y11882381D02*
X29687500Y11930000D01*
X29592261Y11977620D01*
X29354166Y11977620D01*
X29258928Y11930000D01*
X29211309Y11882381D01*
X29163690Y11787143D01*
X29163690Y11691905D01*
X29211309Y11549048D01*
X29782738Y10977620D01*
X29163690Y10977620D01*
D14*
X41982738Y9819048D02*
X41982738Y10219048D01*
X41887500Y10219048D01*
X41830357Y10200000D01*
X41792261Y10161905D01*
X41773214Y10123810D01*
X41754166Y10047620D01*
X41754166Y9990477D01*
X41773214Y9914286D01*
X41792261Y9876191D01*
X41830357Y9838096D01*
X41887500Y9819048D01*
X41982738Y9819048D01*
X41392261Y10219048D02*
X41582738Y10219048D01*
X41601785Y10028572D01*
X41582738Y10047620D01*
X41544642Y10066667D01*
X41449404Y10066667D01*
X41411309Y10047620D01*
X41392261Y10028572D01*
X41373214Y9990477D01*
X41373214Y9895239D01*
X41392261Y9857143D01*
X41411309Y9838096D01*
X41449404Y9819048D01*
X41544642Y9819048D01*
X41582738Y9838096D01*
X41601785Y9857143D01*
%TO.C,J4*%
D13*
X58583333Y46297620D02*
X58583333Y45583334D01*
X58630952Y45440477D01*
X58726190Y45345239D01*
X58869047Y45297620D01*
X58964285Y45297620D01*
X57678571Y45964286D02*
X57678571Y45297620D01*
X57916666Y46345239D02*
X58154761Y45630953D01*
X57535714Y45630953D01*
%TO.C,R29*%
X75985714Y92014286D02*
X75985714Y91347620D01*
X76223809Y92395239D02*
X76461904Y91680953D01*
X75842857Y91680953D01*
X75557142Y92347620D02*
X74890476Y92347620D01*
X75319047Y91347620D01*
D14*
X73480952Y92057143D02*
X73290476Y92190477D01*
X73480952Y92285715D02*
X73080952Y92285715D01*
X73080952Y92133334D01*
X73100000Y92095239D01*
X73119047Y92076191D01*
X73157142Y92057143D01*
X73214285Y92057143D01*
X73252380Y92076191D01*
X73271428Y92095239D01*
X73290476Y92133334D01*
X73290476Y92285715D01*
X73119047Y91904762D02*
X73100000Y91885715D01*
X73080952Y91847620D01*
X73080952Y91752381D01*
X73100000Y91714286D01*
X73119047Y91695239D01*
X73157142Y91676191D01*
X73195238Y91676191D01*
X73252380Y91695239D01*
X73480952Y91923810D01*
X73480952Y91676191D01*
X73480952Y91485715D02*
X73480952Y91409524D01*
X73461904Y91371429D01*
X73442857Y91352381D01*
X73385714Y91314286D01*
X73309523Y91295239D01*
X73157142Y91295239D01*
X73119047Y91314286D01*
X73100000Y91333334D01*
X73080952Y91371429D01*
X73080952Y91447620D01*
X73100000Y91485715D01*
X73119047Y91504762D01*
X73157142Y91523810D01*
X73252380Y91523810D01*
X73290476Y91504762D01*
X73309523Y91485715D01*
X73328571Y91447620D01*
X73328571Y91371429D01*
X73309523Y91333334D01*
X73290476Y91314286D01*
X73252380Y91295239D01*
%TO.C,R28*%
D13*
X59585714Y95814286D02*
X59585714Y95147620D01*
X59823809Y96195239D02*
X60061904Y95480953D01*
X59442857Y95480953D01*
X59157142Y96147620D02*
X58490476Y96147620D01*
X58919047Y95147620D01*
D14*
X58080952Y97857143D02*
X57890476Y97990477D01*
X58080952Y98085715D02*
X57680952Y98085715D01*
X57680952Y97933334D01*
X57700000Y97895239D01*
X57719047Y97876191D01*
X57757142Y97857143D01*
X57814285Y97857143D01*
X57852380Y97876191D01*
X57871428Y97895239D01*
X57890476Y97933334D01*
X57890476Y98085715D01*
X57719047Y97704762D02*
X57700000Y97685715D01*
X57680952Y97647620D01*
X57680952Y97552381D01*
X57700000Y97514286D01*
X57719047Y97495239D01*
X57757142Y97476191D01*
X57795238Y97476191D01*
X57852380Y97495239D01*
X58080952Y97723810D01*
X58080952Y97476191D01*
X57852380Y97247620D02*
X57833333Y97285715D01*
X57814285Y97304762D01*
X57776190Y97323810D01*
X57757142Y97323810D01*
X57719047Y97304762D01*
X57700000Y97285715D01*
X57680952Y97247620D01*
X57680952Y97171429D01*
X57700000Y97133334D01*
X57719047Y97114286D01*
X57757142Y97095239D01*
X57776190Y97095239D01*
X57814285Y97114286D01*
X57833333Y97133334D01*
X57852380Y97171429D01*
X57852380Y97247620D01*
X57871428Y97285715D01*
X57890476Y97304762D01*
X57928571Y97323810D01*
X58004761Y97323810D01*
X58042857Y97304762D01*
X58061904Y97285715D01*
X58080952Y97247620D01*
X58080952Y97171429D01*
X58061904Y97133334D01*
X58042857Y97114286D01*
X58004761Y97095239D01*
X57928571Y97095239D01*
X57890476Y97114286D01*
X57871428Y97133334D01*
X57852380Y97171429D01*
%TO.C,R27*%
D13*
X36785714Y-5015714D02*
X36785714Y-5682380D01*
X37023809Y-4634761D02*
X37261904Y-5349047D01*
X36642857Y-5349047D01*
X36357142Y-4682380D02*
X35690476Y-4682380D01*
X36119047Y-5682380D01*
D14*
X36757142Y-3980952D02*
X36890476Y-3790476D01*
X36985714Y-3980952D02*
X36985714Y-3580952D01*
X36833333Y-3580952D01*
X36795238Y-3600000D01*
X36776190Y-3619047D01*
X36757142Y-3657142D01*
X36757142Y-3714285D01*
X36776190Y-3752380D01*
X36795238Y-3771428D01*
X36833333Y-3790476D01*
X36985714Y-3790476D01*
X36604761Y-3619047D02*
X36585714Y-3600000D01*
X36547619Y-3580952D01*
X36452380Y-3580952D01*
X36414285Y-3600000D01*
X36395238Y-3619047D01*
X36376190Y-3657142D01*
X36376190Y-3695238D01*
X36395238Y-3752380D01*
X36623809Y-3980952D01*
X36376190Y-3980952D01*
X36242857Y-3580952D02*
X35976190Y-3580952D01*
X36147619Y-3980952D01*
%TO.C,R12*%
D13*
X36515714Y6885715D02*
X37182380Y6885715D01*
X36134761Y7123810D02*
X36849047Y7361905D01*
X36849047Y6742858D01*
X36182380Y6457143D02*
X36182380Y5790477D01*
X37182380Y6219048D01*
D14*
X35480952Y6857143D02*
X35290476Y6990477D01*
X35480952Y7085715D02*
X35080952Y7085715D01*
X35080952Y6933334D01*
X35100000Y6895239D01*
X35119047Y6876191D01*
X35157142Y6857143D01*
X35214285Y6857143D01*
X35252380Y6876191D01*
X35271428Y6895239D01*
X35290476Y6933334D01*
X35290476Y7085715D01*
X35480952Y6476191D02*
X35480952Y6704762D01*
X35480952Y6590477D02*
X35080952Y6590477D01*
X35138095Y6628572D01*
X35176190Y6666667D01*
X35195238Y6704762D01*
X35119047Y6323810D02*
X35100000Y6304762D01*
X35080952Y6266667D01*
X35080952Y6171429D01*
X35100000Y6133334D01*
X35119047Y6114286D01*
X35157142Y6095239D01*
X35195238Y6095239D01*
X35252380Y6114286D01*
X35480952Y6342858D01*
X35480952Y6095239D01*
%TO.C,R21*%
D13*
X58695238Y90747620D02*
X59266666Y90747620D01*
X58980952Y90747620D02*
X58980952Y91747620D01*
X59076190Y91604762D01*
X59171428Y91509524D01*
X59266666Y91461905D01*
X58076190Y91747620D02*
X57980952Y91747620D01*
X57885714Y91700000D01*
X57838095Y91652381D01*
X57790476Y91557143D01*
X57742857Y91366667D01*
X57742857Y91128572D01*
X57790476Y90938096D01*
X57838095Y90842858D01*
X57885714Y90795239D01*
X57980952Y90747620D01*
X58076190Y90747620D01*
X58171428Y90795239D01*
X58219047Y90842858D01*
X58266666Y90938096D01*
X58314285Y91128572D01*
X58314285Y91366667D01*
X58266666Y91557143D01*
X58219047Y91652381D01*
X58171428Y91700000D01*
X58076190Y91747620D01*
X57314285Y90747620D02*
X57314285Y91747620D01*
X57219047Y91128572D02*
X56933333Y90747620D01*
X56933333Y91414286D02*
X57314285Y91033334D01*
D14*
X58180952Y94057143D02*
X57990476Y94190477D01*
X58180952Y94285715D02*
X57780952Y94285715D01*
X57780952Y94133334D01*
X57800000Y94095239D01*
X57819047Y94076191D01*
X57857142Y94057143D01*
X57914285Y94057143D01*
X57952380Y94076191D01*
X57971428Y94095239D01*
X57990476Y94133334D01*
X57990476Y94285715D01*
X57819047Y93904762D02*
X57800000Y93885715D01*
X57780952Y93847620D01*
X57780952Y93752381D01*
X57800000Y93714286D01*
X57819047Y93695239D01*
X57857142Y93676191D01*
X57895238Y93676191D01*
X57952380Y93695239D01*
X58180952Y93923810D01*
X58180952Y93676191D01*
X58180952Y93295239D02*
X58180952Y93523810D01*
X58180952Y93409524D02*
X57780952Y93409524D01*
X57838095Y93447620D01*
X57876190Y93485715D01*
X57895238Y93523810D01*
%TO.C,U2*%
D15*
X56213571Y75518810D02*
X56213571Y75185477D01*
X56737380Y75042620D02*
X56737380Y75518810D01*
X55737380Y75518810D01*
X55737380Y75042620D01*
X56689761Y74661667D02*
X56737380Y74518810D01*
X56737380Y74280715D01*
X56689761Y74185477D01*
X56642142Y74137858D01*
X56546904Y74090239D01*
X56451666Y74090239D01*
X56356428Y74137858D01*
X56308809Y74185477D01*
X56261190Y74280715D01*
X56213571Y74471191D01*
X56165952Y74566429D01*
X56118333Y74614048D01*
X56023095Y74661667D01*
X55927857Y74661667D01*
X55832619Y74614048D01*
X55785000Y74566429D01*
X55737380Y74471191D01*
X55737380Y74233096D01*
X55785000Y74090239D01*
X56737380Y73661667D02*
X55737380Y73661667D01*
X55737380Y73280715D01*
X55785000Y73185477D01*
X55832619Y73137858D01*
X55927857Y73090239D01*
X56070714Y73090239D01*
X56165952Y73137858D01*
X56213571Y73185477D01*
X56261190Y73280715D01*
X56261190Y73661667D01*
X55737380Y72756905D02*
X55737380Y72137858D01*
X56118333Y72471191D01*
X56118333Y72328334D01*
X56165952Y72233096D01*
X56213571Y72185477D01*
X56308809Y72137858D01*
X56546904Y72137858D01*
X56642142Y72185477D01*
X56689761Y72233096D01*
X56737380Y72328334D01*
X56737380Y72614048D01*
X56689761Y72709286D01*
X56642142Y72756905D01*
X55832619Y71756905D02*
X55785000Y71709286D01*
X55737380Y71614048D01*
X55737380Y71375953D01*
X55785000Y71280715D01*
X55832619Y71233096D01*
X55927857Y71185477D01*
X56023095Y71185477D01*
X56165952Y71233096D01*
X56737380Y71804524D01*
X56737380Y71185477D01*
X56356428Y70756905D02*
X56356428Y69995000D01*
X55737380Y69614048D02*
X56737380Y69375953D01*
X56023095Y69185477D01*
X56737380Y68995000D01*
X55737380Y68756905D01*
X56737380Y67804524D02*
X56261190Y68137858D01*
X56737380Y68375953D02*
X55737380Y68375953D01*
X55737380Y67995000D01*
X55785000Y67899762D01*
X55832619Y67852143D01*
X55927857Y67804524D01*
X56070714Y67804524D01*
X56165952Y67852143D01*
X56213571Y67899762D01*
X56261190Y67995000D01*
X56261190Y68375953D01*
X55737380Y67185477D02*
X55737380Y66995000D01*
X55785000Y66899762D01*
X55880238Y66804524D01*
X56070714Y66756905D01*
X56404047Y66756905D01*
X56594523Y66804524D01*
X56689761Y66899762D01*
X56737380Y66995000D01*
X56737380Y67185477D01*
X56689761Y67280715D01*
X56594523Y67375953D01*
X56404047Y67423572D01*
X56070714Y67423572D01*
X55880238Y67375953D01*
X55785000Y67280715D01*
X55737380Y67185477D01*
X55737380Y66137858D02*
X55737380Y65947381D01*
X55785000Y65852143D01*
X55880238Y65756905D01*
X56070714Y65709286D01*
X56404047Y65709286D01*
X56594523Y65756905D01*
X56689761Y65852143D01*
X56737380Y65947381D01*
X56737380Y66137858D01*
X56689761Y66233096D01*
X56594523Y66328334D01*
X56404047Y66375953D01*
X56070714Y66375953D01*
X55880238Y66328334D01*
X55785000Y66233096D01*
X55737380Y66137858D01*
X56737380Y65280715D02*
X55737380Y65280715D01*
X56451666Y64947381D01*
X55737380Y64614048D01*
X56737380Y64614048D01*
X56356428Y64137858D02*
X56356428Y63375953D01*
X55737380Y62995000D02*
X55737380Y62375953D01*
X56118333Y62709286D01*
X56118333Y62566429D01*
X56165952Y62471191D01*
X56213571Y62423572D01*
X56308809Y62375953D01*
X56546904Y62375953D01*
X56642142Y62423572D01*
X56689761Y62471191D01*
X56737380Y62566429D01*
X56737380Y62852143D01*
X56689761Y62947381D01*
X56642142Y62995000D01*
X55832619Y61995000D02*
X55785000Y61947381D01*
X55737380Y61852143D01*
X55737380Y61614048D01*
X55785000Y61518810D01*
X55832619Y61471191D01*
X55927857Y61423572D01*
X56023095Y61423572D01*
X56165952Y61471191D01*
X56737380Y62042620D01*
X56737380Y61423572D01*
X56737380Y60995000D02*
X55737380Y60995000D01*
X55737380Y60756905D01*
X55785000Y60614048D01*
X55880238Y60518810D01*
X55975476Y60471191D01*
X56165952Y60423572D01*
X56308809Y60423572D01*
X56499285Y60471191D01*
X56594523Y60518810D01*
X56689761Y60614048D01*
X56737380Y60756905D01*
X56737380Y60995000D01*
X85016666Y66471429D02*
X85016666Y65995239D01*
X85302380Y66566667D02*
X84302380Y66233334D01*
X85302380Y65900000D01*
X85302380Y65566667D02*
X84302380Y65566667D01*
X85302380Y64995239D01*
X84302380Y64995239D01*
X84302380Y64661905D02*
X84302380Y64090477D01*
X85302380Y64376191D02*
X84302380Y64376191D01*
X84778571Y63757143D02*
X84778571Y63423810D01*
X85302380Y63280953D02*
X85302380Y63757143D01*
X84302380Y63757143D01*
X84302380Y63280953D01*
X85302380Y62852381D02*
X84302380Y62852381D01*
X85302380Y62280953D01*
X84302380Y62280953D01*
X85302380Y61804762D02*
X84302380Y61804762D01*
X85302380Y61233334D01*
X84302380Y61233334D01*
X85016666Y60804762D02*
X85016666Y60328572D01*
X85302380Y60900000D02*
X84302380Y60566667D01*
X85302380Y60233334D01*
%TO.C,R26*%
D13*
X37895238Y3747620D02*
X38466666Y3747620D01*
X38180952Y3747620D02*
X38180952Y4747620D01*
X38276190Y4604762D01*
X38371428Y4509524D01*
X38466666Y4461905D01*
X37276190Y4747620D02*
X37180952Y4747620D01*
X37085714Y4700000D01*
X37038095Y4652381D01*
X36990476Y4557143D01*
X36942857Y4366667D01*
X36942857Y4128572D01*
X36990476Y3938096D01*
X37038095Y3842858D01*
X37085714Y3795239D01*
X37180952Y3747620D01*
X37276190Y3747620D01*
X37371428Y3795239D01*
X37419047Y3842858D01*
X37466666Y3938096D01*
X37514285Y4128572D01*
X37514285Y4366667D01*
X37466666Y4557143D01*
X37419047Y4652381D01*
X37371428Y4700000D01*
X37276190Y4747620D01*
X36514285Y3747620D02*
X36514285Y4747620D01*
X36419047Y4128572D02*
X36133333Y3747620D01*
X36133333Y4414286D02*
X36514285Y4033334D01*
D14*
X34767142Y3904048D02*
X34900476Y4094524D01*
X34995714Y3904048D02*
X34995714Y4304048D01*
X34843333Y4304048D01*
X34805238Y4285000D01*
X34786190Y4265953D01*
X34767142Y4227858D01*
X34767142Y4170715D01*
X34786190Y4132620D01*
X34805238Y4113572D01*
X34843333Y4094524D01*
X34995714Y4094524D01*
X34614761Y4265953D02*
X34595714Y4285000D01*
X34557619Y4304048D01*
X34462380Y4304048D01*
X34424285Y4285000D01*
X34405238Y4265953D01*
X34386190Y4227858D01*
X34386190Y4189762D01*
X34405238Y4132620D01*
X34633809Y3904048D01*
X34386190Y3904048D01*
X34043333Y4304048D02*
X34119523Y4304048D01*
X34157619Y4285000D01*
X34176666Y4265953D01*
X34214761Y4208810D01*
X34233809Y4132620D01*
X34233809Y3980239D01*
X34214761Y3942143D01*
X34195714Y3923096D01*
X34157619Y3904048D01*
X34081428Y3904048D01*
X34043333Y3923096D01*
X34024285Y3942143D01*
X34005238Y3980239D01*
X34005238Y4075477D01*
X34024285Y4113572D01*
X34043333Y4132620D01*
X34081428Y4151667D01*
X34157619Y4151667D01*
X34195714Y4132620D01*
X34214761Y4113572D01*
X34233809Y4075477D01*
%TO.C,Q1*%
D13*
X40206190Y2888334D02*
X39730000Y2888334D01*
X40301428Y2602620D02*
X39968095Y3602620D01*
X39634761Y2602620D01*
X39110952Y3602620D02*
X38920476Y3602620D01*
X38825238Y3555000D01*
X38730000Y3459762D01*
X38682380Y3269286D01*
X38682380Y2935953D01*
X38730000Y2745477D01*
X38825238Y2650239D01*
X38920476Y2602620D01*
X39110952Y2602620D01*
X39206190Y2650239D01*
X39301428Y2745477D01*
X39349047Y2935953D01*
X39349047Y3269286D01*
X39301428Y3459762D01*
X39206190Y3555000D01*
X39110952Y3602620D01*
X38349047Y3602620D02*
X37730000Y3602620D01*
X38063333Y3221667D01*
X37920476Y3221667D01*
X37825238Y3174048D01*
X37777619Y3126429D01*
X37730000Y3031191D01*
X37730000Y2793096D01*
X37777619Y2697858D01*
X37825238Y2650239D01*
X37920476Y2602620D01*
X38206190Y2602620D01*
X38301428Y2650239D01*
X38349047Y2697858D01*
X36872857Y3269286D02*
X36872857Y2602620D01*
X37110952Y3650239D02*
X37349047Y2935953D01*
X36730000Y2935953D01*
X36158571Y3602620D02*
X36063333Y3602620D01*
X35968095Y3555000D01*
X35920476Y3507381D01*
X35872857Y3412143D01*
X35825238Y3221667D01*
X35825238Y2983572D01*
X35872857Y2793096D01*
X35920476Y2697858D01*
X35968095Y2650239D01*
X36063333Y2602620D01*
X36158571Y2602620D01*
X36253809Y2650239D01*
X36301428Y2697858D01*
X36349047Y2793096D01*
X36396666Y2983572D01*
X36396666Y3221667D01*
X36349047Y3412143D01*
X36301428Y3507381D01*
X36253809Y3555000D01*
X36158571Y3602620D01*
X35206190Y3602620D02*
X35110952Y3602620D01*
X35015714Y3555000D01*
X34968095Y3507381D01*
X34920476Y3412143D01*
X34872857Y3221667D01*
X34872857Y2983572D01*
X34920476Y2793096D01*
X34968095Y2697858D01*
X35015714Y2650239D01*
X35110952Y2602620D01*
X35206190Y2602620D01*
X35301428Y2650239D01*
X35349047Y2697858D01*
X35396666Y2793096D01*
X35444285Y2983572D01*
X35444285Y3221667D01*
X35396666Y3412143D01*
X35349047Y3507381D01*
X35301428Y3555000D01*
X35206190Y3602620D01*
X33396666Y2221667D02*
X33444285Y2269286D01*
X33539523Y2412143D01*
X33587142Y2507381D01*
X33634761Y2650239D01*
X33682380Y2888334D01*
X33682380Y3078810D01*
X33634761Y3316905D01*
X33587142Y3459762D01*
X33539523Y3555000D01*
X33444285Y3697858D01*
X33396666Y3745477D01*
X33063333Y2888334D02*
X32587142Y2888334D01*
X33158571Y2602620D02*
X32825238Y3602620D01*
X32491904Y2602620D01*
X31968095Y3602620D02*
X31872857Y3602620D01*
X31777619Y3555000D01*
X31730000Y3507381D01*
X31682380Y3412143D01*
X31634761Y3221667D01*
X31634761Y2983572D01*
X31682380Y2793096D01*
X31730000Y2697858D01*
X31777619Y2650239D01*
X31872857Y2602620D01*
X31968095Y2602620D01*
X32063333Y2650239D01*
X32110952Y2697858D01*
X32158571Y2793096D01*
X32206190Y2983572D01*
X32206190Y3221667D01*
X32158571Y3412143D01*
X32110952Y3507381D01*
X32063333Y3555000D01*
X31968095Y3602620D01*
X31158571Y2602620D02*
X30968095Y2602620D01*
X30872857Y2650239D01*
X30825238Y2697858D01*
X30730000Y2840715D01*
X30682380Y3031191D01*
X30682380Y3412143D01*
X30730000Y3507381D01*
X30777619Y3555000D01*
X30872857Y3602620D01*
X31063333Y3602620D01*
X31158571Y3555000D01*
X31206190Y3507381D01*
X31253809Y3412143D01*
X31253809Y3174048D01*
X31206190Y3078810D01*
X31158571Y3031191D01*
X31063333Y2983572D01*
X30872857Y2983572D01*
X30777619Y3031191D01*
X30730000Y3078810D01*
X30682380Y3174048D01*
X30396666Y3602620D02*
X29825238Y3602620D01*
X30110952Y2602620D02*
X30110952Y3602620D01*
X29587142Y2221667D02*
X29539523Y2269286D01*
X29444285Y2412143D01*
X29396666Y2507381D01*
X29349047Y2650239D01*
X29301428Y2888334D01*
X29301428Y3078810D01*
X29349047Y3316905D01*
X29396666Y3459762D01*
X29444285Y3555000D01*
X29539523Y3697858D01*
X29587142Y3745477D01*
D16*
X34456190Y507381D02*
X34480000Y459762D01*
X34527619Y412143D01*
X34599047Y340715D01*
X34622857Y293096D01*
X34622857Y245477D01*
X34503809Y269286D02*
X34527619Y221667D01*
X34575238Y174048D01*
X34670476Y150239D01*
X34837142Y150239D01*
X34932380Y174048D01*
X34980000Y221667D01*
X35003809Y269286D01*
X35003809Y364524D01*
X34980000Y412143D01*
X34932380Y459762D01*
X34837142Y483572D01*
X34670476Y483572D01*
X34575238Y459762D01*
X34527619Y412143D01*
X34503809Y364524D01*
X34503809Y269286D01*
X34503809Y959762D02*
X34503809Y674048D01*
X34503809Y816905D02*
X35003809Y816905D01*
X34932380Y769286D01*
X34884761Y721667D01*
X34860952Y674048D01*
%TO.C,D4*%
D13*
X80035714Y95277620D02*
X80035714Y96277620D01*
X78988095Y95277620D02*
X79321428Y95753810D01*
X79559523Y95277620D02*
X79559523Y96277620D01*
X79178571Y96277620D01*
X79083333Y96230000D01*
X79035714Y96182381D01*
X78988095Y96087143D01*
X78988095Y95944286D01*
X79035714Y95849048D01*
X79083333Y95801429D01*
X79178571Y95753810D01*
X79559523Y95753810D01*
X78035714Y95277620D02*
X78607142Y95277620D01*
X78321428Y95277620D02*
X78321428Y96277620D01*
X78416666Y96134762D01*
X78511904Y96039524D01*
X78607142Y95991905D01*
X77654761Y96182381D02*
X77607142Y96230000D01*
X77511904Y96277620D01*
X77273809Y96277620D01*
X77178571Y96230000D01*
X77130952Y96182381D01*
X77083333Y96087143D01*
X77083333Y95991905D01*
X77130952Y95849048D01*
X77702380Y95277620D01*
X77083333Y95277620D01*
X76654761Y95658572D02*
X75892857Y95658572D01*
X75464285Y96182381D02*
X75416666Y96230000D01*
X75321428Y96277620D01*
X75083333Y96277620D01*
X74988095Y96230000D01*
X74940476Y96182381D01*
X74892857Y96087143D01*
X74892857Y95991905D01*
X74940476Y95849048D01*
X75511904Y95277620D01*
X74892857Y95277620D01*
X73940476Y95277620D02*
X74511904Y95277620D01*
X74226190Y95277620D02*
X74226190Y96277620D01*
X74321428Y96134762D01*
X74416666Y96039524D01*
X74511904Y95991905D01*
X72940476Y95372858D02*
X72988095Y95325239D01*
X73130952Y95277620D01*
X73226190Y95277620D01*
X73369047Y95325239D01*
X73464285Y95420477D01*
X73511904Y95515715D01*
X73559523Y95706191D01*
X73559523Y95849048D01*
X73511904Y96039524D01*
X73464285Y96134762D01*
X73369047Y96230000D01*
X73226190Y96277620D01*
X73130952Y96277620D01*
X72988095Y96230000D01*
X72940476Y96182381D01*
X71797619Y96325239D02*
X72654761Y95039524D01*
X71607142Y96277620D02*
X71035714Y96277620D01*
X71321428Y95277620D02*
X71321428Y96277620D01*
X70130952Y95277620D02*
X70464285Y95753810D01*
X70702380Y95277620D02*
X70702380Y96277620D01*
X70321428Y96277620D01*
X70226190Y96230000D01*
X70178571Y96182381D01*
X70130952Y96087143D01*
X70130952Y95944286D01*
X70178571Y95849048D01*
X70226190Y95801429D01*
X70321428Y95753810D01*
X70702380Y95753810D01*
X69559523Y95849048D02*
X69654761Y95896667D01*
X69702380Y95944286D01*
X69750000Y96039524D01*
X69750000Y96087143D01*
X69702380Y96182381D01*
X69654761Y96230000D01*
X69559523Y96277620D01*
X69369047Y96277620D01*
X69273809Y96230000D01*
X69226190Y96182381D01*
X69178571Y96087143D01*
X69178571Y96039524D01*
X69226190Y95944286D01*
X69273809Y95896667D01*
X69369047Y95849048D01*
X69559523Y95849048D01*
X69654761Y95801429D01*
X69702380Y95753810D01*
X69750000Y95658572D01*
X69750000Y95468096D01*
X69702380Y95372858D01*
X69654761Y95325239D01*
X69559523Y95277620D01*
X69369047Y95277620D01*
X69273809Y95325239D01*
X69226190Y95372858D01*
X69178571Y95468096D01*
X69178571Y95658572D01*
X69226190Y95753810D01*
X69273809Y95801429D01*
X69369047Y95849048D01*
D17*
X74840476Y97188096D02*
X74840476Y97988096D01*
X74650000Y97988096D01*
X74535714Y97950000D01*
X74459523Y97873810D01*
X74421428Y97797620D01*
X74383333Y97645239D01*
X74383333Y97530953D01*
X74421428Y97378572D01*
X74459523Y97302381D01*
X74535714Y97226191D01*
X74650000Y97188096D01*
X74840476Y97188096D01*
X73697619Y97721429D02*
X73697619Y97188096D01*
X73888095Y98026191D02*
X74078571Y97454762D01*
X73583333Y97454762D01*
%TO.C,R25*%
D13*
X77385714Y95414286D02*
X77385714Y94747620D01*
X77623809Y95795239D02*
X77861904Y95080953D01*
X77242857Y95080953D01*
X76957142Y95747620D02*
X76290476Y95747620D01*
X76719047Y94747620D01*
D14*
X74507142Y95119048D02*
X74640476Y95309524D01*
X74735714Y95119048D02*
X74735714Y95519048D01*
X74583333Y95519048D01*
X74545238Y95500000D01*
X74526190Y95480953D01*
X74507142Y95442858D01*
X74507142Y95385715D01*
X74526190Y95347620D01*
X74545238Y95328572D01*
X74583333Y95309524D01*
X74735714Y95309524D01*
X74354761Y95480953D02*
X74335714Y95500000D01*
X74297619Y95519048D01*
X74202380Y95519048D01*
X74164285Y95500000D01*
X74145238Y95480953D01*
X74126190Y95442858D01*
X74126190Y95404762D01*
X74145238Y95347620D01*
X74373809Y95119048D01*
X74126190Y95119048D01*
X73764285Y95519048D02*
X73954761Y95519048D01*
X73973809Y95328572D01*
X73954761Y95347620D01*
X73916666Y95366667D01*
X73821428Y95366667D01*
X73783333Y95347620D01*
X73764285Y95328572D01*
X73745238Y95290477D01*
X73745238Y95195239D01*
X73764285Y95157143D01*
X73783333Y95138096D01*
X73821428Y95119048D01*
X73916666Y95119048D01*
X73954761Y95138096D01*
X73973809Y95157143D01*
%TO.C,R24*%
D13*
X41585714Y97814286D02*
X41585714Y97147620D01*
X41823809Y98195239D02*
X42061904Y97480953D01*
X41442857Y97480953D01*
X41157142Y98147620D02*
X40490476Y98147620D01*
X40919047Y97147620D01*
D14*
X45080952Y97857143D02*
X44890476Y97990477D01*
X45080952Y98085715D02*
X44680952Y98085715D01*
X44680952Y97933334D01*
X44700000Y97895239D01*
X44719047Y97876191D01*
X44757142Y97857143D01*
X44814285Y97857143D01*
X44852380Y97876191D01*
X44871428Y97895239D01*
X44890476Y97933334D01*
X44890476Y98085715D01*
X44719047Y97704762D02*
X44700000Y97685715D01*
X44680952Y97647620D01*
X44680952Y97552381D01*
X44700000Y97514286D01*
X44719047Y97495239D01*
X44757142Y97476191D01*
X44795238Y97476191D01*
X44852380Y97495239D01*
X45080952Y97723810D01*
X45080952Y97476191D01*
X44814285Y97133334D02*
X45080952Y97133334D01*
X44661904Y97228572D02*
X44947619Y97323810D01*
X44947619Y97076191D01*
%TO.C,C11*%
D13*
X64171428Y90747620D02*
X64742857Y90747620D01*
X64457142Y90747620D02*
X64457142Y91747620D01*
X64552380Y91604762D01*
X64647619Y91509524D01*
X64742857Y91461905D01*
X63552380Y91747620D02*
X63457142Y91747620D01*
X63361904Y91700000D01*
X63314285Y91652381D01*
X63266666Y91557143D01*
X63219047Y91366667D01*
X63219047Y91128572D01*
X63266666Y90938096D01*
X63314285Y90842858D01*
X63361904Y90795239D01*
X63457142Y90747620D01*
X63552380Y90747620D01*
X63647619Y90795239D01*
X63695238Y90842858D01*
X63742857Y90938096D01*
X63790476Y91128572D01*
X63790476Y91366667D01*
X63742857Y91557143D01*
X63695238Y91652381D01*
X63647619Y91700000D01*
X63552380Y91747620D01*
X62361904Y91414286D02*
X62361904Y90747620D01*
X62790476Y91414286D02*
X62790476Y90890477D01*
X62742857Y90795239D01*
X62647619Y90747620D01*
X62504761Y90747620D01*
X62409523Y90795239D01*
X62361904Y90842858D01*
X61552380Y91271429D02*
X61885714Y91271429D01*
X61885714Y90747620D02*
X61885714Y91747620D01*
X61409523Y91747620D01*
D17*
X63514285Y92764286D02*
X63552380Y92726191D01*
X63666666Y92688096D01*
X63742857Y92688096D01*
X63857142Y92726191D01*
X63933333Y92802381D01*
X63971428Y92878572D01*
X64009523Y93030953D01*
X64009523Y93145239D01*
X63971428Y93297620D01*
X63933333Y93373810D01*
X63857142Y93450000D01*
X63742857Y93488096D01*
X63666666Y93488096D01*
X63552380Y93450000D01*
X63514285Y93411905D01*
X62752380Y92688096D02*
X63209523Y92688096D01*
X62980952Y92688096D02*
X62980952Y93488096D01*
X63057142Y93373810D01*
X63133333Y93297620D01*
X63209523Y93259524D01*
X61990476Y92688096D02*
X62447619Y92688096D01*
X62219047Y92688096D02*
X62219047Y93488096D01*
X62295238Y93373810D01*
X62371428Y93297620D01*
X62447619Y93259524D01*
%TO.C,C6*%
D13*
X36428571Y37347620D02*
X37000000Y37347620D01*
X36714285Y37347620D02*
X36714285Y38347620D01*
X36809523Y38204762D01*
X36904761Y38109524D01*
X37000000Y38061905D01*
X35809523Y38347620D02*
X35714285Y38347620D01*
X35619047Y38300000D01*
X35571428Y38252381D01*
X35523809Y38157143D01*
X35476190Y37966667D01*
X35476190Y37728572D01*
X35523809Y37538096D01*
X35571428Y37442858D01*
X35619047Y37395239D01*
X35714285Y37347620D01*
X35809523Y37347620D01*
X35904761Y37395239D01*
X35952380Y37442858D01*
X36000000Y37538096D01*
X36047619Y37728572D01*
X36047619Y37966667D01*
X36000000Y38157143D01*
X35952380Y38252381D01*
X35904761Y38300000D01*
X35809523Y38347620D01*
X34619047Y38014286D02*
X34619047Y37347620D01*
X35047619Y38014286D02*
X35047619Y37490477D01*
X35000000Y37395239D01*
X34904761Y37347620D01*
X34761904Y37347620D01*
X34666666Y37395239D01*
X34619047Y37442858D01*
X34285714Y38014286D02*
X33904761Y38014286D01*
X34142857Y37347620D02*
X34142857Y38204762D01*
X34095238Y38300000D01*
X34000000Y38347620D01*
X33904761Y38347620D01*
D17*
X36235714Y41133334D02*
X36273809Y41171429D01*
X36311904Y41285715D01*
X36311904Y41361905D01*
X36273809Y41476191D01*
X36197619Y41552381D01*
X36121428Y41590477D01*
X35969047Y41628572D01*
X35854761Y41628572D01*
X35702380Y41590477D01*
X35626190Y41552381D01*
X35550000Y41476191D01*
X35511904Y41361905D01*
X35511904Y41285715D01*
X35550000Y41171429D01*
X35588095Y41133334D01*
X35511904Y40447620D02*
X35511904Y40600000D01*
X35550000Y40676191D01*
X35588095Y40714286D01*
X35702380Y40790477D01*
X35854761Y40828572D01*
X36159523Y40828572D01*
X36235714Y40790477D01*
X36273809Y40752381D01*
X36311904Y40676191D01*
X36311904Y40523810D01*
X36273809Y40447620D01*
X36235714Y40409524D01*
X36159523Y40371429D01*
X35969047Y40371429D01*
X35892857Y40409524D01*
X35854761Y40447620D01*
X35816666Y40523810D01*
X35816666Y40676191D01*
X35854761Y40752381D01*
X35892857Y40790477D01*
X35969047Y40828572D01*
%TO.C,TP12*%
D13*
X86033333Y50297620D02*
X85461904Y50297620D01*
X85747619Y49297620D02*
X85747619Y50297620D01*
X84747619Y49345239D02*
X84842857Y49297620D01*
X85033333Y49297620D01*
X85128571Y49345239D01*
X85176190Y49440477D01*
X85176190Y49821429D01*
X85128571Y49916667D01*
X85033333Y49964286D01*
X84842857Y49964286D01*
X84747619Y49916667D01*
X84700000Y49821429D01*
X84700000Y49726191D01*
X85176190Y49630953D01*
X84319047Y49345239D02*
X84223809Y49297620D01*
X84033333Y49297620D01*
X83938095Y49345239D01*
X83890476Y49440477D01*
X83890476Y49488096D01*
X83938095Y49583334D01*
X84033333Y49630953D01*
X84176190Y49630953D01*
X84271428Y49678572D01*
X84319047Y49773810D01*
X84319047Y49821429D01*
X84271428Y49916667D01*
X84176190Y49964286D01*
X84033333Y49964286D01*
X83938095Y49916667D01*
X83604761Y49964286D02*
X83223809Y49964286D01*
X83461904Y50297620D02*
X83461904Y49440477D01*
X83414285Y49345239D01*
X83319047Y49297620D01*
X83223809Y49297620D01*
X82890476Y49297620D02*
X82890476Y50297620D01*
X82509523Y50297620D01*
X82414285Y50250000D01*
X82366666Y50202381D01*
X82319047Y50107143D01*
X82319047Y49964286D01*
X82366666Y49869048D01*
X82414285Y49821429D01*
X82509523Y49773810D01*
X82890476Y49773810D01*
X81747619Y49297620D02*
X81842857Y49345239D01*
X81890476Y49392858D01*
X81938095Y49488096D01*
X81938095Y49773810D01*
X81890476Y49869048D01*
X81842857Y49916667D01*
X81747619Y49964286D01*
X81604761Y49964286D01*
X81509523Y49916667D01*
X81461904Y49869048D01*
X81414285Y49773810D01*
X81414285Y49488096D01*
X81461904Y49392858D01*
X81509523Y49345239D01*
X81604761Y49297620D01*
X81747619Y49297620D01*
X80985714Y49297620D02*
X80985714Y49964286D01*
X80985714Y50297620D02*
X81033333Y50250000D01*
X80985714Y50202381D01*
X80938095Y50250000D01*
X80985714Y50297620D01*
X80985714Y50202381D01*
X80509523Y49964286D02*
X80509523Y49297620D01*
X80509523Y49869048D02*
X80461904Y49916667D01*
X80366666Y49964286D01*
X80223809Y49964286D01*
X80128571Y49916667D01*
X80080952Y49821429D01*
X80080952Y49297620D01*
X79747619Y49964286D02*
X79366666Y49964286D01*
X79604761Y50297620D02*
X79604761Y49440477D01*
X79557142Y49345239D01*
X79461904Y49297620D01*
X79366666Y49297620D01*
X84438095Y46897620D02*
X83866666Y46897620D01*
X84152380Y45897620D02*
X84152380Y46897620D01*
X83533333Y45897620D02*
X83533333Y46897620D01*
X83152380Y46897620D01*
X83057142Y46850000D01*
X83009523Y46802381D01*
X82961904Y46707143D01*
X82961904Y46564286D01*
X83009523Y46469048D01*
X83057142Y46421429D01*
X83152380Y46373810D01*
X83533333Y46373810D01*
X82009523Y45897620D02*
X82580952Y45897620D01*
X82295238Y45897620D02*
X82295238Y46897620D01*
X82390476Y46754762D01*
X82485714Y46659524D01*
X82580952Y46611905D01*
X81628571Y46802381D02*
X81580952Y46850000D01*
X81485714Y46897620D01*
X81247619Y46897620D01*
X81152380Y46850000D01*
X81104761Y46802381D01*
X81057142Y46707143D01*
X81057142Y46611905D01*
X81104761Y46469048D01*
X81676190Y45897620D01*
X81057142Y45897620D01*
%TO.C,TP2*%
X45783333Y50297620D02*
X45211904Y50297620D01*
X45497619Y49297620D02*
X45497619Y50297620D01*
X44497619Y49345239D02*
X44592857Y49297620D01*
X44783333Y49297620D01*
X44878571Y49345239D01*
X44926190Y49440477D01*
X44926190Y49821429D01*
X44878571Y49916667D01*
X44783333Y49964286D01*
X44592857Y49964286D01*
X44497619Y49916667D01*
X44450000Y49821429D01*
X44450000Y49726191D01*
X44926190Y49630953D01*
X44069047Y49345239D02*
X43973809Y49297620D01*
X43783333Y49297620D01*
X43688095Y49345239D01*
X43640476Y49440477D01*
X43640476Y49488096D01*
X43688095Y49583334D01*
X43783333Y49630953D01*
X43926190Y49630953D01*
X44021428Y49678572D01*
X44069047Y49773810D01*
X44069047Y49821429D01*
X44021428Y49916667D01*
X43926190Y49964286D01*
X43783333Y49964286D01*
X43688095Y49916667D01*
X43354761Y49964286D02*
X42973809Y49964286D01*
X43211904Y50297620D02*
X43211904Y49440477D01*
X43164285Y49345239D01*
X43069047Y49297620D01*
X42973809Y49297620D01*
X42640476Y49297620D02*
X42640476Y50297620D01*
X42259523Y50297620D01*
X42164285Y50250000D01*
X42116666Y50202381D01*
X42069047Y50107143D01*
X42069047Y49964286D01*
X42116666Y49869048D01*
X42164285Y49821429D01*
X42259523Y49773810D01*
X42640476Y49773810D01*
X41497619Y49297620D02*
X41592857Y49345239D01*
X41640476Y49392858D01*
X41688095Y49488096D01*
X41688095Y49773810D01*
X41640476Y49869048D01*
X41592857Y49916667D01*
X41497619Y49964286D01*
X41354761Y49964286D01*
X41259523Y49916667D01*
X41211904Y49869048D01*
X41164285Y49773810D01*
X41164285Y49488096D01*
X41211904Y49392858D01*
X41259523Y49345239D01*
X41354761Y49297620D01*
X41497619Y49297620D01*
X40735714Y49297620D02*
X40735714Y49964286D01*
X40735714Y50297620D02*
X40783333Y50250000D01*
X40735714Y50202381D01*
X40688095Y50250000D01*
X40735714Y50297620D01*
X40735714Y50202381D01*
X40259523Y49964286D02*
X40259523Y49297620D01*
X40259523Y49869048D02*
X40211904Y49916667D01*
X40116666Y49964286D01*
X39973809Y49964286D01*
X39878571Y49916667D01*
X39830952Y49821429D01*
X39830952Y49297620D01*
X39497619Y49964286D02*
X39116666Y49964286D01*
X39354761Y50297620D02*
X39354761Y49440477D01*
X39307142Y49345239D01*
X39211904Y49297620D01*
X39116666Y49297620D01*
X43711904Y46897620D02*
X43140476Y46897620D01*
X43426190Y45897620D02*
X43426190Y46897620D01*
X42807142Y45897620D02*
X42807142Y46897620D01*
X42426190Y46897620D01*
X42330952Y46850000D01*
X42283333Y46802381D01*
X42235714Y46707143D01*
X42235714Y46564286D01*
X42283333Y46469048D01*
X42330952Y46421429D01*
X42426190Y46373810D01*
X42807142Y46373810D01*
X41854761Y46802381D02*
X41807142Y46850000D01*
X41711904Y46897620D01*
X41473809Y46897620D01*
X41378571Y46850000D01*
X41330952Y46802381D01*
X41283333Y46707143D01*
X41283333Y46611905D01*
X41330952Y46469048D01*
X41902380Y45897620D01*
X41283333Y45897620D01*
%TO.C,TP1*%
X40033333Y48797620D02*
X39461904Y48797620D01*
X39747619Y47797620D02*
X39747619Y48797620D01*
X38747619Y47845239D02*
X38842857Y47797620D01*
X39033333Y47797620D01*
X39128571Y47845239D01*
X39176190Y47940477D01*
X39176190Y48321429D01*
X39128571Y48416667D01*
X39033333Y48464286D01*
X38842857Y48464286D01*
X38747619Y48416667D01*
X38700000Y48321429D01*
X38700000Y48226191D01*
X39176190Y48130953D01*
X38319047Y47845239D02*
X38223809Y47797620D01*
X38033333Y47797620D01*
X37938095Y47845239D01*
X37890476Y47940477D01*
X37890476Y47988096D01*
X37938095Y48083334D01*
X38033333Y48130953D01*
X38176190Y48130953D01*
X38271428Y48178572D01*
X38319047Y48273810D01*
X38319047Y48321429D01*
X38271428Y48416667D01*
X38176190Y48464286D01*
X38033333Y48464286D01*
X37938095Y48416667D01*
X37604761Y48464286D02*
X37223809Y48464286D01*
X37461904Y48797620D02*
X37461904Y47940477D01*
X37414285Y47845239D01*
X37319047Y47797620D01*
X37223809Y47797620D01*
X36890476Y47797620D02*
X36890476Y48797620D01*
X36509523Y48797620D01*
X36414285Y48750000D01*
X36366666Y48702381D01*
X36319047Y48607143D01*
X36319047Y48464286D01*
X36366666Y48369048D01*
X36414285Y48321429D01*
X36509523Y48273810D01*
X36890476Y48273810D01*
X35747619Y47797620D02*
X35842857Y47845239D01*
X35890476Y47892858D01*
X35938095Y47988096D01*
X35938095Y48273810D01*
X35890476Y48369048D01*
X35842857Y48416667D01*
X35747619Y48464286D01*
X35604761Y48464286D01*
X35509523Y48416667D01*
X35461904Y48369048D01*
X35414285Y48273810D01*
X35414285Y47988096D01*
X35461904Y47892858D01*
X35509523Y47845239D01*
X35604761Y47797620D01*
X35747619Y47797620D01*
X34985714Y47797620D02*
X34985714Y48464286D01*
X34985714Y48797620D02*
X35033333Y48750000D01*
X34985714Y48702381D01*
X34938095Y48750000D01*
X34985714Y48797620D01*
X34985714Y48702381D01*
X34509523Y48464286D02*
X34509523Y47797620D01*
X34509523Y48369048D02*
X34461904Y48416667D01*
X34366666Y48464286D01*
X34223809Y48464286D01*
X34128571Y48416667D01*
X34080952Y48321429D01*
X34080952Y47797620D01*
X33747619Y48464286D02*
X33366666Y48464286D01*
X33604761Y48797620D02*
X33604761Y47940477D01*
X33557142Y47845239D01*
X33461904Y47797620D01*
X33366666Y47797620D01*
X37961904Y45397620D02*
X37390476Y45397620D01*
X37676190Y44397620D02*
X37676190Y45397620D01*
X37057142Y44397620D02*
X37057142Y45397620D01*
X36676190Y45397620D01*
X36580952Y45350000D01*
X36533333Y45302381D01*
X36485714Y45207143D01*
X36485714Y45064286D01*
X36533333Y44969048D01*
X36580952Y44921429D01*
X36676190Y44873810D01*
X37057142Y44873810D01*
X35533333Y44397620D02*
X36104761Y44397620D01*
X35819047Y44397620D02*
X35819047Y45397620D01*
X35914285Y45254762D01*
X36009523Y45159524D01*
X36104761Y45111905D01*
%TO.C,R9*%
X44695238Y31747620D02*
X45266666Y31747620D01*
X44980952Y31747620D02*
X44980952Y32747620D01*
X45076190Y32604762D01*
X45171428Y32509524D01*
X45266666Y32461905D01*
X44076190Y32747620D02*
X43980952Y32747620D01*
X43885714Y32700000D01*
X43838095Y32652381D01*
X43790476Y32557143D01*
X43742857Y32366667D01*
X43742857Y32128572D01*
X43790476Y31938096D01*
X43838095Y31842858D01*
X43885714Y31795239D01*
X43980952Y31747620D01*
X44076190Y31747620D01*
X44171428Y31795239D01*
X44219047Y31842858D01*
X44266666Y31938096D01*
X44314285Y32128572D01*
X44314285Y32366667D01*
X44266666Y32557143D01*
X44219047Y32652381D01*
X44171428Y32700000D01*
X44076190Y32747620D01*
X43314285Y31747620D02*
X43314285Y32747620D01*
X43219047Y32128572D02*
X42933333Y31747620D01*
X42933333Y32414286D02*
X43314285Y32033334D01*
D14*
X49916666Y32119048D02*
X50050000Y32309524D01*
X50145238Y32119048D02*
X50145238Y32519048D01*
X49992857Y32519048D01*
X49954761Y32500000D01*
X49935714Y32480953D01*
X49916666Y32442858D01*
X49916666Y32385715D01*
X49935714Y32347620D01*
X49954761Y32328572D01*
X49992857Y32309524D01*
X50145238Y32309524D01*
X49726190Y32119048D02*
X49650000Y32119048D01*
X49611904Y32138096D01*
X49592857Y32157143D01*
X49554761Y32214286D01*
X49535714Y32290477D01*
X49535714Y32442858D01*
X49554761Y32480953D01*
X49573809Y32500000D01*
X49611904Y32519048D01*
X49688095Y32519048D01*
X49726190Y32500000D01*
X49745238Y32480953D01*
X49764285Y32442858D01*
X49764285Y32347620D01*
X49745238Y32309524D01*
X49726190Y32290477D01*
X49688095Y32271429D01*
X49611904Y32271429D01*
X49573809Y32290477D01*
X49554761Y32309524D01*
X49535714Y32347620D01*
%TO.C,R6*%
D13*
X44695238Y33347620D02*
X45266666Y33347620D01*
X44980952Y33347620D02*
X44980952Y34347620D01*
X45076190Y34204762D01*
X45171428Y34109524D01*
X45266666Y34061905D01*
X44076190Y34347620D02*
X43980952Y34347620D01*
X43885714Y34300000D01*
X43838095Y34252381D01*
X43790476Y34157143D01*
X43742857Y33966667D01*
X43742857Y33728572D01*
X43790476Y33538096D01*
X43838095Y33442858D01*
X43885714Y33395239D01*
X43980952Y33347620D01*
X44076190Y33347620D01*
X44171428Y33395239D01*
X44219047Y33442858D01*
X44266666Y33538096D01*
X44314285Y33728572D01*
X44314285Y33966667D01*
X44266666Y34157143D01*
X44219047Y34252381D01*
X44171428Y34300000D01*
X44076190Y34347620D01*
X43314285Y33347620D02*
X43314285Y34347620D01*
X43219047Y33728572D02*
X42933333Y33347620D01*
X42933333Y34014286D02*
X43314285Y33633334D01*
D14*
X49916666Y33719048D02*
X50050000Y33909524D01*
X50145238Y33719048D02*
X50145238Y34119048D01*
X49992857Y34119048D01*
X49954761Y34100000D01*
X49935714Y34080953D01*
X49916666Y34042858D01*
X49916666Y33985715D01*
X49935714Y33947620D01*
X49954761Y33928572D01*
X49992857Y33909524D01*
X50145238Y33909524D01*
X49573809Y34119048D02*
X49650000Y34119048D01*
X49688095Y34100000D01*
X49707142Y34080953D01*
X49745238Y34023810D01*
X49764285Y33947620D01*
X49764285Y33795239D01*
X49745238Y33757143D01*
X49726190Y33738096D01*
X49688095Y33719048D01*
X49611904Y33719048D01*
X49573809Y33738096D01*
X49554761Y33757143D01*
X49535714Y33795239D01*
X49535714Y33890477D01*
X49554761Y33928572D01*
X49573809Y33947620D01*
X49611904Y33966667D01*
X49688095Y33966667D01*
X49726190Y33947620D01*
X49745238Y33928572D01*
X49764285Y33890477D01*
%TO.C,R4*%
D13*
X44695238Y30147620D02*
X45266666Y30147620D01*
X44980952Y30147620D02*
X44980952Y31147620D01*
X45076190Y31004762D01*
X45171428Y30909524D01*
X45266666Y30861905D01*
X44076190Y31147620D02*
X43980952Y31147620D01*
X43885714Y31100000D01*
X43838095Y31052381D01*
X43790476Y30957143D01*
X43742857Y30766667D01*
X43742857Y30528572D01*
X43790476Y30338096D01*
X43838095Y30242858D01*
X43885714Y30195239D01*
X43980952Y30147620D01*
X44076190Y30147620D01*
X44171428Y30195239D01*
X44219047Y30242858D01*
X44266666Y30338096D01*
X44314285Y30528572D01*
X44314285Y30766667D01*
X44266666Y30957143D01*
X44219047Y31052381D01*
X44171428Y31100000D01*
X44076190Y31147620D01*
X43314285Y30147620D02*
X43314285Y31147620D01*
X43219047Y30528572D02*
X42933333Y30147620D01*
X42933333Y30814286D02*
X43314285Y30433334D01*
D14*
X49916666Y30519048D02*
X50050000Y30709524D01*
X50145238Y30519048D02*
X50145238Y30919048D01*
X49992857Y30919048D01*
X49954761Y30900000D01*
X49935714Y30880953D01*
X49916666Y30842858D01*
X49916666Y30785715D01*
X49935714Y30747620D01*
X49954761Y30728572D01*
X49992857Y30709524D01*
X50145238Y30709524D01*
X49573809Y30785715D02*
X49573809Y30519048D01*
X49669047Y30938096D02*
X49764285Y30652381D01*
X49516666Y30652381D01*
%TO.C,U4*%
D13*
X39822380Y44531905D02*
X40631904Y44531905D01*
X40727142Y44484286D01*
X40774761Y44436667D01*
X40822380Y44341429D01*
X40822380Y44150953D01*
X40774761Y44055715D01*
X40727142Y44008096D01*
X40631904Y43960477D01*
X39822380Y43960477D01*
X40155714Y43055715D02*
X40822380Y43055715D01*
X39774761Y43293810D02*
X40489047Y43531905D01*
X40489047Y42912858D01*
%TO.C,R1*%
X63147619Y35147620D02*
X63338095Y35147620D01*
X63433333Y35100000D01*
X63480952Y35052381D01*
X63576190Y34909524D01*
X63623809Y34719048D01*
X63623809Y34338096D01*
X63576190Y34242858D01*
X63528571Y34195239D01*
X63433333Y34147620D01*
X63242857Y34147620D01*
X63147619Y34195239D01*
X63100000Y34242858D01*
X63052380Y34338096D01*
X63052380Y34576191D01*
X63100000Y34671429D01*
X63147619Y34719048D01*
X63242857Y34766667D01*
X63433333Y34766667D01*
X63528571Y34719048D01*
X63576190Y34671429D01*
X63623809Y34576191D01*
X62623809Y34242858D02*
X62576190Y34195239D01*
X62623809Y34147620D01*
X62671428Y34195239D01*
X62623809Y34242858D01*
X62623809Y34147620D01*
X62004761Y34719048D02*
X62100000Y34766667D01*
X62147619Y34814286D01*
X62195238Y34909524D01*
X62195238Y34957143D01*
X62147619Y35052381D01*
X62100000Y35100000D01*
X62004761Y35147620D01*
X61814285Y35147620D01*
X61719047Y35100000D01*
X61671428Y35052381D01*
X61623809Y34957143D01*
X61623809Y34909524D01*
X61671428Y34814286D01*
X61719047Y34766667D01*
X61814285Y34719048D01*
X62004761Y34719048D01*
X62100000Y34671429D01*
X62147619Y34623810D01*
X62195238Y34528572D01*
X62195238Y34338096D01*
X62147619Y34242858D01*
X62100000Y34195239D01*
X62004761Y34147620D01*
X61814285Y34147620D01*
X61719047Y34195239D01*
X61671428Y34242858D01*
X61623809Y34338096D01*
X61623809Y34528572D01*
X61671428Y34623810D01*
X61719047Y34671429D01*
X61814285Y34719048D01*
X61052380Y34242858D02*
X61004761Y34195239D01*
X61052380Y34147620D01*
X61100000Y34195239D01*
X61052380Y34242858D01*
X61052380Y34147620D01*
X61242857Y35100000D02*
X61147619Y35147620D01*
X60909523Y35147620D01*
X60814285Y35100000D01*
X60766666Y35004762D01*
X60766666Y34909524D01*
X60814285Y34814286D01*
X60861904Y34766667D01*
X60957142Y34719048D01*
X61004761Y34671429D01*
X61052380Y34576191D01*
X61052380Y34528572D01*
X59290476Y33766667D02*
X59338095Y33814286D01*
X59433333Y33957143D01*
X59480952Y34052381D01*
X59528571Y34195239D01*
X59576190Y34433334D01*
X59576190Y34623810D01*
X59528571Y34861905D01*
X59480952Y35004762D01*
X59433333Y35100000D01*
X59338095Y35242858D01*
X59290476Y35290477D01*
X58385714Y34147620D02*
X58957142Y34147620D01*
X58671428Y34147620D02*
X58671428Y35147620D01*
X58766666Y35004762D01*
X58861904Y34909524D01*
X58957142Y34861905D01*
X57242857Y35195239D02*
X58100000Y33909524D01*
X56480952Y34814286D02*
X56480952Y34147620D01*
X56719047Y35195239D02*
X56957142Y34480953D01*
X56338095Y34480953D01*
X56052380Y35147620D02*
X55814285Y34147620D01*
X55623809Y34861905D01*
X55433333Y34147620D01*
X55195238Y35147620D01*
X54909523Y33766667D02*
X54861904Y33814286D01*
X54766666Y33957143D01*
X54719047Y34052381D01*
X54671428Y34195239D01*
X54623809Y34433334D01*
X54623809Y34623810D01*
X54671428Y34861905D01*
X54719047Y35004762D01*
X54766666Y35100000D01*
X54861904Y35242858D01*
X54909523Y35290477D01*
D18*
X53546190Y33563334D02*
X53308095Y33730000D01*
X53546190Y33849048D02*
X53046190Y33849048D01*
X53046190Y33658572D01*
X53070000Y33610953D01*
X53093809Y33587143D01*
X53141428Y33563334D01*
X53212857Y33563334D01*
X53260476Y33587143D01*
X53284285Y33610953D01*
X53308095Y33658572D01*
X53308095Y33849048D01*
X53546190Y33087143D02*
X53546190Y33372858D01*
X53546190Y33230000D02*
X53046190Y33230000D01*
X53117619Y33277620D01*
X53165238Y33325239D01*
X53189047Y33372858D01*
%TO.C,C10*%
D13*
X40095238Y37547620D02*
X40666666Y37547620D01*
X40380952Y37547620D02*
X40380952Y38547620D01*
X40476190Y38404762D01*
X40571428Y38309524D01*
X40666666Y38261905D01*
X39238095Y38214286D02*
X39238095Y37547620D01*
X39666666Y38214286D02*
X39666666Y37690477D01*
X39619047Y37595239D01*
X39523809Y37547620D01*
X39380952Y37547620D01*
X39285714Y37595239D01*
X39238095Y37642858D01*
X38428571Y38071429D02*
X38761904Y38071429D01*
X38761904Y37547620D02*
X38761904Y38547620D01*
X38285714Y38547620D01*
D14*
X39707142Y39357143D02*
X39726190Y39338096D01*
X39783333Y39319048D01*
X39821428Y39319048D01*
X39878571Y39338096D01*
X39916666Y39376191D01*
X39935714Y39414286D01*
X39954761Y39490477D01*
X39954761Y39547620D01*
X39935714Y39623810D01*
X39916666Y39661905D01*
X39878571Y39700000D01*
X39821428Y39719048D01*
X39783333Y39719048D01*
X39726190Y39700000D01*
X39707142Y39680953D01*
X39326190Y39319048D02*
X39554761Y39319048D01*
X39440476Y39319048D02*
X39440476Y39719048D01*
X39478571Y39661905D01*
X39516666Y39623810D01*
X39554761Y39604762D01*
X39078571Y39719048D02*
X39040476Y39719048D01*
X39002380Y39700000D01*
X38983333Y39680953D01*
X38964285Y39642858D01*
X38945238Y39566667D01*
X38945238Y39471429D01*
X38964285Y39395239D01*
X38983333Y39357143D01*
X39002380Y39338096D01*
X39040476Y39319048D01*
X39078571Y39319048D01*
X39116666Y39338096D01*
X39135714Y39357143D01*
X39154761Y39395239D01*
X39173809Y39471429D01*
X39173809Y39566667D01*
X39154761Y39642858D01*
X39135714Y39680953D01*
X39116666Y39700000D01*
X39078571Y39719048D01*
%TO.C,C9*%
D13*
X43045238Y37547620D02*
X43616666Y37547620D01*
X43330952Y37547620D02*
X43330952Y38547620D01*
X43426190Y38404762D01*
X43521428Y38309524D01*
X43616666Y38261905D01*
X42188095Y38214286D02*
X42188095Y37547620D01*
X42616666Y38214286D02*
X42616666Y37690477D01*
X42569047Y37595239D01*
X42473809Y37547620D01*
X42330952Y37547620D01*
X42235714Y37595239D01*
X42188095Y37642858D01*
X41378571Y38071429D02*
X41711904Y38071429D01*
X41711904Y37547620D02*
X41711904Y38547620D01*
X41235714Y38547620D01*
D14*
X42516666Y39357143D02*
X42535714Y39338096D01*
X42592857Y39319048D01*
X42630952Y39319048D01*
X42688095Y39338096D01*
X42726190Y39376191D01*
X42745238Y39414286D01*
X42764285Y39490477D01*
X42764285Y39547620D01*
X42745238Y39623810D01*
X42726190Y39661905D01*
X42688095Y39700000D01*
X42630952Y39719048D01*
X42592857Y39719048D01*
X42535714Y39700000D01*
X42516666Y39680953D01*
X42326190Y39319048D02*
X42250000Y39319048D01*
X42211904Y39338096D01*
X42192857Y39357143D01*
X42154761Y39414286D01*
X42135714Y39490477D01*
X42135714Y39642858D01*
X42154761Y39680953D01*
X42173809Y39700000D01*
X42211904Y39719048D01*
X42288095Y39719048D01*
X42326190Y39700000D01*
X42345238Y39680953D01*
X42364285Y39642858D01*
X42364285Y39547620D01*
X42345238Y39509524D01*
X42326190Y39490477D01*
X42288095Y39471429D01*
X42211904Y39471429D01*
X42173809Y39490477D01*
X42154761Y39509524D01*
X42135714Y39547620D01*
%TO.C,J3*%
D13*
X67140476Y-7492380D02*
X67140476Y-8301904D01*
X67092857Y-8397142D01*
X67045238Y-8444761D01*
X66950000Y-8492380D01*
X66759523Y-8492380D01*
X66664285Y-8444761D01*
X66616666Y-8397142D01*
X66569047Y-8301904D01*
X66569047Y-7492380D01*
X66140476Y-8444761D02*
X65997619Y-8492380D01*
X65759523Y-8492380D01*
X65664285Y-8444761D01*
X65616666Y-8397142D01*
X65569047Y-8301904D01*
X65569047Y-8206666D01*
X65616666Y-8111428D01*
X65664285Y-8063809D01*
X65759523Y-8016190D01*
X65950000Y-7968571D01*
X66045238Y-7920952D01*
X66092857Y-7873333D01*
X66140476Y-7778095D01*
X66140476Y-7682857D01*
X66092857Y-7587619D01*
X66045238Y-7540000D01*
X65950000Y-7492380D01*
X65711904Y-7492380D01*
X65569047Y-7540000D01*
X64807142Y-7968571D02*
X64664285Y-8016190D01*
X64616666Y-8063809D01*
X64569047Y-8159047D01*
X64569047Y-8301904D01*
X64616666Y-8397142D01*
X64664285Y-8444761D01*
X64759523Y-8492380D01*
X65140476Y-8492380D01*
X65140476Y-7492380D01*
X64807142Y-7492380D01*
X64711904Y-7540000D01*
X64664285Y-7587619D01*
X64616666Y-7682857D01*
X64616666Y-7778095D01*
X64664285Y-7873333D01*
X64711904Y-7920952D01*
X64807142Y-7968571D01*
X65140476Y-7968571D01*
X64378571Y-8587619D02*
X63616666Y-8587619D01*
X62807142Y-8397142D02*
X62854761Y-8444761D01*
X62997619Y-8492380D01*
X63092857Y-8492380D01*
X63235714Y-8444761D01*
X63330952Y-8349523D01*
X63378571Y-8254285D01*
X63426190Y-8063809D01*
X63426190Y-7920952D01*
X63378571Y-7730476D01*
X63330952Y-7635238D01*
X63235714Y-7540000D01*
X63092857Y-7492380D01*
X62997619Y-7492380D01*
X62854761Y-7540000D01*
X62807142Y-7587619D01*
X62616666Y-8587619D02*
X61854761Y-8587619D01*
X61045238Y-8492380D02*
X61378571Y-8016190D01*
X61616666Y-8492380D02*
X61616666Y-7492380D01*
X61235714Y-7492380D01*
X61140476Y-7540000D01*
X61092857Y-7587619D01*
X61045238Y-7682857D01*
X61045238Y-7825714D01*
X61092857Y-7920952D01*
X61140476Y-7968571D01*
X61235714Y-8016190D01*
X61616666Y-8016190D01*
X60235714Y-8444761D02*
X60330952Y-8492380D01*
X60521428Y-8492380D01*
X60616666Y-8444761D01*
X60664285Y-8349523D01*
X60664285Y-7968571D01*
X60616666Y-7873333D01*
X60521428Y-7825714D01*
X60330952Y-7825714D01*
X60235714Y-7873333D01*
X60188095Y-7968571D01*
X60188095Y-8063809D01*
X60664285Y-8159047D01*
X59330952Y-8444761D02*
X59426190Y-8492380D01*
X59616666Y-8492380D01*
X59711904Y-8444761D01*
X59759523Y-8397142D01*
X59807142Y-8301904D01*
X59807142Y-8016190D01*
X59759523Y-7920952D01*
X59711904Y-7873333D01*
X59616666Y-7825714D01*
X59426190Y-7825714D01*
X59330952Y-7873333D01*
X58521428Y-8444761D02*
X58616666Y-8492380D01*
X58807142Y-8492380D01*
X58902380Y-8444761D01*
X58950000Y-8349523D01*
X58950000Y-7968571D01*
X58902380Y-7873333D01*
X58807142Y-7825714D01*
X58616666Y-7825714D01*
X58521428Y-7873333D01*
X58473809Y-7968571D01*
X58473809Y-8063809D01*
X58950000Y-8159047D01*
X58045238Y-7825714D02*
X58045238Y-8825714D01*
X58045238Y-7873333D02*
X57950000Y-7825714D01*
X57759523Y-7825714D01*
X57664285Y-7873333D01*
X57616666Y-7920952D01*
X57569047Y-8016190D01*
X57569047Y-8301904D01*
X57616666Y-8397142D01*
X57664285Y-8444761D01*
X57759523Y-8492380D01*
X57950000Y-8492380D01*
X58045238Y-8444761D01*
X57283333Y-7825714D02*
X56902380Y-7825714D01*
X57140476Y-7492380D02*
X57140476Y-8349523D01*
X57092857Y-8444761D01*
X56997619Y-8492380D01*
X56902380Y-8492380D01*
X56140476Y-8492380D02*
X56140476Y-7968571D01*
X56188095Y-7873333D01*
X56283333Y-7825714D01*
X56473809Y-7825714D01*
X56569047Y-7873333D01*
X56140476Y-8444761D02*
X56235714Y-8492380D01*
X56473809Y-8492380D01*
X56569047Y-8444761D01*
X56616666Y-8349523D01*
X56616666Y-8254285D01*
X56569047Y-8159047D01*
X56473809Y-8111428D01*
X56235714Y-8111428D01*
X56140476Y-8063809D01*
X55235714Y-8444761D02*
X55330952Y-8492380D01*
X55521428Y-8492380D01*
X55616666Y-8444761D01*
X55664285Y-8397142D01*
X55711904Y-8301904D01*
X55711904Y-8016190D01*
X55664285Y-7920952D01*
X55616666Y-7873333D01*
X55521428Y-7825714D01*
X55330952Y-7825714D01*
X55235714Y-7873333D01*
X54664285Y-8492380D02*
X54759523Y-8444761D01*
X54807142Y-8349523D01*
X54807142Y-7492380D01*
X53902380Y-8444761D02*
X53997619Y-8492380D01*
X54188095Y-8492380D01*
X54283333Y-8444761D01*
X54330952Y-8349523D01*
X54330952Y-7968571D01*
X54283333Y-7873333D01*
X54188095Y-7825714D01*
X53997619Y-7825714D01*
X53902380Y-7873333D01*
X53854761Y-7968571D01*
X53854761Y-8063809D01*
X54330952Y-8159047D01*
X53664285Y-8587619D02*
X52902380Y-8587619D01*
X52664285Y-7492380D02*
X52664285Y-8301904D01*
X52616666Y-8397142D01*
X52569047Y-8444761D01*
X52473809Y-8492380D01*
X52283333Y-8492380D01*
X52188095Y-8444761D01*
X52140476Y-8397142D01*
X52092857Y-8301904D01*
X52092857Y-7492380D01*
X51664285Y-8444761D02*
X51521428Y-8492380D01*
X51283333Y-8492380D01*
X51188095Y-8444761D01*
X51140476Y-8397142D01*
X51092857Y-8301904D01*
X51092857Y-8206666D01*
X51140476Y-8111428D01*
X51188095Y-8063809D01*
X51283333Y-8016190D01*
X51473809Y-7968571D01*
X51569047Y-7920952D01*
X51616666Y-7873333D01*
X51664285Y-7778095D01*
X51664285Y-7682857D01*
X51616666Y-7587619D01*
X51569047Y-7540000D01*
X51473809Y-7492380D01*
X51235714Y-7492380D01*
X51092857Y-7540000D01*
X50330952Y-7968571D02*
X50188095Y-8016190D01*
X50140476Y-8063809D01*
X50092857Y-8159047D01*
X50092857Y-8301904D01*
X50140476Y-8397142D01*
X50188095Y-8444761D01*
X50283333Y-8492380D01*
X50664285Y-8492380D01*
X50664285Y-7492380D01*
X50330952Y-7492380D01*
X50235714Y-7540000D01*
X50188095Y-7587619D01*
X50140476Y-7682857D01*
X50140476Y-7778095D01*
X50188095Y-7873333D01*
X50235714Y-7920952D01*
X50330952Y-7968571D01*
X50664285Y-7968571D01*
X49711904Y-7587619D02*
X49664285Y-7540000D01*
X49569047Y-7492380D01*
X49330952Y-7492380D01*
X49235714Y-7540000D01*
X49188095Y-7587619D01*
X49140476Y-7682857D01*
X49140476Y-7778095D01*
X49188095Y-7920952D01*
X49759523Y-8492380D01*
X49140476Y-8492380D01*
X48711904Y-8397142D02*
X48664285Y-8444761D01*
X48711904Y-8492380D01*
X48759523Y-8444761D01*
X48711904Y-8397142D01*
X48711904Y-8492380D01*
X48045238Y-7492380D02*
X47950000Y-7492380D01*
X47854761Y-7540000D01*
X47807142Y-7587619D01*
X47759523Y-7682857D01*
X47711904Y-7873333D01*
X47711904Y-8111428D01*
X47759523Y-8301904D01*
X47807142Y-8397142D01*
X47854761Y-8444761D01*
X47950000Y-8492380D01*
X48045238Y-8492380D01*
X48140476Y-8444761D01*
X48188095Y-8397142D01*
X48235714Y-8301904D01*
X48283333Y-8111428D01*
X48283333Y-7873333D01*
X48235714Y-7682857D01*
X48188095Y-7587619D01*
X48140476Y-7540000D01*
X48045238Y-7492380D01*
X57783333Y-2432380D02*
X57783333Y-3146666D01*
X57830952Y-3289523D01*
X57926190Y-3384761D01*
X58069047Y-3432380D01*
X58164285Y-3432380D01*
X57402380Y-2432380D02*
X56783333Y-2432380D01*
X57116666Y-2813333D01*
X56973809Y-2813333D01*
X56878571Y-2860952D01*
X56830952Y-2908571D01*
X56783333Y-3003809D01*
X56783333Y-3241904D01*
X56830952Y-3337142D01*
X56878571Y-3384761D01*
X56973809Y-3432380D01*
X57259523Y-3432380D01*
X57354761Y-3384761D01*
X57402380Y-3337142D01*
%TO.C,U3*%
X53107142Y11942858D02*
X53154761Y11990477D01*
X53202380Y12133334D01*
X53202380Y12228572D01*
X53154761Y12371429D01*
X53059523Y12466667D01*
X52964285Y12514286D01*
X52773809Y12561905D01*
X52630952Y12561905D01*
X52440476Y12514286D01*
X52345238Y12466667D01*
X52250000Y12371429D01*
X52202380Y12228572D01*
X52202380Y12133334D01*
X52250000Y11990477D01*
X52297619Y11942858D01*
X53202380Y11514286D02*
X52202380Y11514286D01*
X52678571Y11514286D02*
X52678571Y10942858D01*
X53202380Y10942858D02*
X52202380Y10942858D01*
X52202380Y10561905D02*
X52202380Y9942858D01*
X52583333Y10276191D01*
X52583333Y10133334D01*
X52630952Y10038096D01*
X52678571Y9990477D01*
X52773809Y9942858D01*
X53011904Y9942858D01*
X53107142Y9990477D01*
X53154761Y10038096D01*
X53202380Y10133334D01*
X53202380Y10419048D01*
X53154761Y10514286D01*
X53107142Y10561905D01*
X52535714Y9085715D02*
X53202380Y9085715D01*
X52154761Y9323810D02*
X52869047Y9561905D01*
X52869047Y8942858D01*
X52202380Y8371429D02*
X52202380Y8276191D01*
X52250000Y8180953D01*
X52297619Y8133334D01*
X52392857Y8085715D01*
X52583333Y8038096D01*
X52821428Y8038096D01*
X53011904Y8085715D01*
X53107142Y8133334D01*
X53154761Y8180953D01*
X53202380Y8276191D01*
X53202380Y8371429D01*
X53154761Y8466667D01*
X53107142Y8514286D01*
X53011904Y8561905D01*
X52821428Y8609524D01*
X52583333Y8609524D01*
X52392857Y8561905D01*
X52297619Y8514286D01*
X52250000Y8466667D01*
X52202380Y8371429D01*
X53107142Y7038096D02*
X53154761Y7085715D01*
X53202380Y7228572D01*
X53202380Y7323810D01*
X53154761Y7466667D01*
X53059523Y7561905D01*
X52964285Y7609524D01*
X52773809Y7657143D01*
X52630952Y7657143D01*
X52440476Y7609524D01*
X52345238Y7561905D01*
X52250000Y7466667D01*
X52202380Y7323810D01*
X52202380Y7228572D01*
X52250000Y7085715D01*
X52297619Y7038096D01*
X58113333Y10546667D02*
X58906666Y10546667D01*
X59000000Y10500000D01*
X59046666Y10453334D01*
X59093333Y10360000D01*
X59093333Y10173334D01*
X59046666Y10080000D01*
X59000000Y10033334D01*
X58906666Y9986667D01*
X58113333Y9986667D01*
X58113333Y9613334D02*
X58113333Y9006667D01*
X58486666Y9333334D01*
X58486666Y9193334D01*
X58533333Y9100000D01*
X58580000Y9053334D01*
X58673333Y9006667D01*
X58906666Y9006667D01*
X59000000Y9053334D01*
X59046666Y9100000D01*
X59093333Y9193334D01*
X59093333Y9473334D01*
X59046666Y9566667D01*
X59000000Y9613334D01*
%TO.C,U1*%
X46616666Y11247620D02*
X45950000Y10247620D01*
X45950000Y11247620D02*
X46616666Y10247620D01*
X44997619Y10342858D02*
X45045238Y10295239D01*
X45188095Y10247620D01*
X45283333Y10247620D01*
X45426190Y10295239D01*
X45521428Y10390477D01*
X45569047Y10485715D01*
X45616666Y10676191D01*
X45616666Y10819048D01*
X45569047Y11009524D01*
X45521428Y11104762D01*
X45426190Y11200000D01*
X45283333Y11247620D01*
X45188095Y11247620D01*
X45045238Y11200000D01*
X44997619Y11152381D01*
X44140476Y11247620D02*
X44330952Y11247620D01*
X44426190Y11200000D01*
X44473809Y11152381D01*
X44569047Y11009524D01*
X44616666Y10819048D01*
X44616666Y10438096D01*
X44569047Y10342858D01*
X44521428Y10295239D01*
X44426190Y10247620D01*
X44235714Y10247620D01*
X44140476Y10295239D01*
X44092857Y10342858D01*
X44045238Y10438096D01*
X44045238Y10676191D01*
X44092857Y10771429D01*
X44140476Y10819048D01*
X44235714Y10866667D01*
X44426190Y10866667D01*
X44521428Y10819048D01*
X44569047Y10771429D01*
X44616666Y10676191D01*
X43664285Y11152381D02*
X43616666Y11200000D01*
X43521428Y11247620D01*
X43283333Y11247620D01*
X43188095Y11200000D01*
X43140476Y11152381D01*
X43092857Y11057143D01*
X43092857Y10961905D01*
X43140476Y10819048D01*
X43711904Y10247620D01*
X43092857Y10247620D01*
X42473809Y11247620D02*
X42378571Y11247620D01*
X42283333Y11200000D01*
X42235714Y11152381D01*
X42188095Y11057143D01*
X42140476Y10866667D01*
X42140476Y10628572D01*
X42188095Y10438096D01*
X42235714Y10342858D01*
X42283333Y10295239D01*
X42378571Y10247620D01*
X42473809Y10247620D01*
X42569047Y10295239D01*
X42616666Y10342858D01*
X42664285Y10438096D01*
X42711904Y10628572D01*
X42711904Y10866667D01*
X42664285Y11057143D01*
X42616666Y11152381D01*
X42569047Y11200000D01*
X42473809Y11247620D01*
X41283333Y11247620D02*
X41473809Y11247620D01*
X41569047Y11200000D01*
X41616666Y11152381D01*
X41711904Y11009524D01*
X41759523Y10819048D01*
X41759523Y10438096D01*
X41711904Y10342858D01*
X41664285Y10295239D01*
X41569047Y10247620D01*
X41378571Y10247620D01*
X41283333Y10295239D01*
X41235714Y10342858D01*
X41188095Y10438096D01*
X41188095Y10676191D01*
X41235714Y10771429D01*
X41283333Y10819048D01*
X41378571Y10866667D01*
X41569047Y10866667D01*
X41664285Y10819048D01*
X41711904Y10771429D01*
X41759523Y10676191D01*
X40759523Y10247620D02*
X40759523Y11247620D01*
X40378571Y11247620D01*
X40283333Y11200000D01*
X40235714Y11152381D01*
X40188095Y11057143D01*
X40188095Y10914286D01*
X40235714Y10819048D01*
X40283333Y10771429D01*
X40378571Y10723810D01*
X40759523Y10723810D01*
X39854761Y11247620D02*
X39235714Y11247620D01*
X39569047Y10866667D01*
X39426190Y10866667D01*
X39330952Y10819048D01*
X39283333Y10771429D01*
X39235714Y10676191D01*
X39235714Y10438096D01*
X39283333Y10342858D01*
X39330952Y10295239D01*
X39426190Y10247620D01*
X39711904Y10247620D01*
X39807142Y10295239D01*
X39854761Y10342858D01*
X38902380Y11247620D02*
X38283333Y11247620D01*
X38616666Y10866667D01*
X38473809Y10866667D01*
X38378571Y10819048D01*
X38330952Y10771429D01*
X38283333Y10676191D01*
X38283333Y10438096D01*
X38330952Y10342858D01*
X38378571Y10295239D01*
X38473809Y10247620D01*
X38759523Y10247620D01*
X38854761Y10295239D01*
X38902380Y10342858D01*
X37902380Y11152381D02*
X37854761Y11200000D01*
X37759523Y11247620D01*
X37521428Y11247620D01*
X37426190Y11200000D01*
X37378571Y11152381D01*
X37330952Y11057143D01*
X37330952Y10961905D01*
X37378571Y10819048D01*
X37950000Y10247620D01*
X37330952Y10247620D01*
X36902380Y10247620D02*
X36902380Y11247620D01*
X36521428Y11247620D01*
X36426190Y11200000D01*
X36378571Y11152381D01*
X36330952Y11057143D01*
X36330952Y10914286D01*
X36378571Y10819048D01*
X36426190Y10771429D01*
X36521428Y10723810D01*
X36902380Y10723810D01*
X35330952Y10247620D02*
X35664285Y10723810D01*
X35902380Y10247620D02*
X35902380Y11247620D01*
X35521428Y11247620D01*
X35426190Y11200000D01*
X35378571Y11152381D01*
X35330952Y11057143D01*
X35330952Y10914286D01*
X35378571Y10819048D01*
X35426190Y10771429D01*
X35521428Y10723810D01*
X35902380Y10723810D01*
X40202380Y14961905D02*
X41011904Y14961905D01*
X41107142Y14914286D01*
X41154761Y14866667D01*
X41202380Y14771429D01*
X41202380Y14580953D01*
X41154761Y14485715D01*
X41107142Y14438096D01*
X41011904Y14390477D01*
X40202380Y14390477D01*
X41202380Y13390477D02*
X41202380Y13961905D01*
X41202380Y13676191D02*
X40202380Y13676191D01*
X40345238Y13771429D01*
X40440476Y13866667D01*
X40488095Y13961905D01*
%TO.C,R23*%
X68142857Y2947620D02*
X68619047Y2947620D01*
X68666666Y2471429D01*
X68619047Y2519048D01*
X68523809Y2566667D01*
X68285714Y2566667D01*
X68190476Y2519048D01*
X68142857Y2471429D01*
X68095238Y2376191D01*
X68095238Y2138096D01*
X68142857Y2042858D01*
X68190476Y1995239D01*
X68285714Y1947620D01*
X68523809Y1947620D01*
X68619047Y1995239D01*
X68666666Y2042858D01*
X67666666Y1947620D02*
X67666666Y2947620D01*
X67571428Y2328572D02*
X67285714Y1947620D01*
X67285714Y2614286D02*
X67666666Y2233334D01*
X66333333Y1947620D02*
X66904761Y1947620D01*
X66619047Y1947620D02*
X66619047Y2947620D01*
X66714285Y2804762D01*
X66809523Y2709524D01*
X66904761Y2661905D01*
D14*
X64707142Y1769048D02*
X64840476Y1959524D01*
X64935714Y1769048D02*
X64935714Y2169048D01*
X64783333Y2169048D01*
X64745238Y2150000D01*
X64726190Y2130953D01*
X64707142Y2092858D01*
X64707142Y2035715D01*
X64726190Y1997620D01*
X64745238Y1978572D01*
X64783333Y1959524D01*
X64935714Y1959524D01*
X64554761Y2130953D02*
X64535714Y2150000D01*
X64497619Y2169048D01*
X64402380Y2169048D01*
X64364285Y2150000D01*
X64345238Y2130953D01*
X64326190Y2092858D01*
X64326190Y2054762D01*
X64345238Y1997620D01*
X64573809Y1769048D01*
X64326190Y1769048D01*
X64192857Y2169048D02*
X63945238Y2169048D01*
X64078571Y2016667D01*
X64021428Y2016667D01*
X63983333Y1997620D01*
X63964285Y1978572D01*
X63945238Y1940477D01*
X63945238Y1845239D01*
X63964285Y1807143D01*
X63983333Y1788096D01*
X64021428Y1769048D01*
X64135714Y1769048D01*
X64173809Y1788096D01*
X64192857Y1807143D01*
%TO.C,R22*%
D13*
X53342857Y6977620D02*
X53819047Y6977620D01*
X53866666Y6501429D01*
X53819047Y6549048D01*
X53723809Y6596667D01*
X53485714Y6596667D01*
X53390476Y6549048D01*
X53342857Y6501429D01*
X53295238Y6406191D01*
X53295238Y6168096D01*
X53342857Y6072858D01*
X53390476Y6025239D01*
X53485714Y5977620D01*
X53723809Y5977620D01*
X53819047Y6025239D01*
X53866666Y6072858D01*
X52866666Y5977620D02*
X52866666Y6977620D01*
X52771428Y6358572D02*
X52485714Y5977620D01*
X52485714Y6644286D02*
X52866666Y6263334D01*
X51533333Y5977620D02*
X52104761Y5977620D01*
X51819047Y5977620D02*
X51819047Y6977620D01*
X51914285Y6834762D01*
X52009523Y6739524D01*
X52104761Y6691905D01*
D14*
X52957142Y4819048D02*
X53090476Y5009524D01*
X53185714Y4819048D02*
X53185714Y5219048D01*
X53033333Y5219048D01*
X52995238Y5200000D01*
X52976190Y5180953D01*
X52957142Y5142858D01*
X52957142Y5085715D01*
X52976190Y5047620D01*
X52995238Y5028572D01*
X53033333Y5009524D01*
X53185714Y5009524D01*
X52804761Y5180953D02*
X52785714Y5200000D01*
X52747619Y5219048D01*
X52652380Y5219048D01*
X52614285Y5200000D01*
X52595238Y5180953D01*
X52576190Y5142858D01*
X52576190Y5104762D01*
X52595238Y5047620D01*
X52823809Y4819048D01*
X52576190Y4819048D01*
X52423809Y5180953D02*
X52404761Y5200000D01*
X52366666Y5219048D01*
X52271428Y5219048D01*
X52233333Y5200000D01*
X52214285Y5180953D01*
X52195238Y5142858D01*
X52195238Y5104762D01*
X52214285Y5047620D01*
X52442857Y4819048D01*
X52195238Y4819048D01*
%TO.C,R20*%
D13*
X74152380Y15842858D02*
X74152380Y16319048D01*
X74628571Y16366667D01*
X74580952Y16319048D01*
X74533333Y16223810D01*
X74533333Y15985715D01*
X74580952Y15890477D01*
X74628571Y15842858D01*
X74723809Y15795239D01*
X74961904Y15795239D01*
X75057142Y15842858D01*
X75104761Y15890477D01*
X75152380Y15985715D01*
X75152380Y16223810D01*
X75104761Y16319048D01*
X75057142Y16366667D01*
X75152380Y15366667D02*
X74152380Y15366667D01*
X74771428Y15271429D02*
X75152380Y14985715D01*
X74485714Y14985715D02*
X74866666Y15366667D01*
X75152380Y14033334D02*
X75152380Y14604762D01*
X75152380Y14319048D02*
X74152380Y14319048D01*
X74295238Y14414286D01*
X74390476Y14509524D01*
X74438095Y14604762D01*
D14*
X74870952Y12457143D02*
X74680476Y12590477D01*
X74870952Y12685715D02*
X74470952Y12685715D01*
X74470952Y12533334D01*
X74490000Y12495239D01*
X74509047Y12476191D01*
X74547142Y12457143D01*
X74604285Y12457143D01*
X74642380Y12476191D01*
X74661428Y12495239D01*
X74680476Y12533334D01*
X74680476Y12685715D01*
X74509047Y12304762D02*
X74490000Y12285715D01*
X74470952Y12247620D01*
X74470952Y12152381D01*
X74490000Y12114286D01*
X74509047Y12095239D01*
X74547142Y12076191D01*
X74585238Y12076191D01*
X74642380Y12095239D01*
X74870952Y12323810D01*
X74870952Y12076191D01*
X74470952Y11828572D02*
X74470952Y11790477D01*
X74490000Y11752381D01*
X74509047Y11733334D01*
X74547142Y11714286D01*
X74623333Y11695239D01*
X74718571Y11695239D01*
X74794761Y11714286D01*
X74832857Y11733334D01*
X74851904Y11752381D01*
X74870952Y11790477D01*
X74870952Y11828572D01*
X74851904Y11866667D01*
X74832857Y11885715D01*
X74794761Y11904762D01*
X74718571Y11923810D01*
X74623333Y11923810D01*
X74547142Y11904762D01*
X74509047Y11885715D01*
X74490000Y11866667D01*
X74470952Y11828572D01*
%TO.C,R19*%
D13*
X69952380Y15842858D02*
X69952380Y16319048D01*
X70428571Y16366667D01*
X70380952Y16319048D01*
X70333333Y16223810D01*
X70333333Y15985715D01*
X70380952Y15890477D01*
X70428571Y15842858D01*
X70523809Y15795239D01*
X70761904Y15795239D01*
X70857142Y15842858D01*
X70904761Y15890477D01*
X70952380Y15985715D01*
X70952380Y16223810D01*
X70904761Y16319048D01*
X70857142Y16366667D01*
X70952380Y15366667D02*
X69952380Y15366667D01*
X70571428Y15271429D02*
X70952380Y14985715D01*
X70285714Y14985715D02*
X70666666Y15366667D01*
X70952380Y14033334D02*
X70952380Y14604762D01*
X70952380Y14319048D02*
X69952380Y14319048D01*
X70095238Y14414286D01*
X70190476Y14509524D01*
X70238095Y14604762D01*
D14*
X70680952Y12457143D02*
X70490476Y12590477D01*
X70680952Y12685715D02*
X70280952Y12685715D01*
X70280952Y12533334D01*
X70300000Y12495239D01*
X70319047Y12476191D01*
X70357142Y12457143D01*
X70414285Y12457143D01*
X70452380Y12476191D01*
X70471428Y12495239D01*
X70490476Y12533334D01*
X70490476Y12685715D01*
X70680952Y12076191D02*
X70680952Y12304762D01*
X70680952Y12190477D02*
X70280952Y12190477D01*
X70338095Y12228572D01*
X70376190Y12266667D01*
X70395238Y12304762D01*
X70680952Y11885715D02*
X70680952Y11809524D01*
X70661904Y11771429D01*
X70642857Y11752381D01*
X70585714Y11714286D01*
X70509523Y11695239D01*
X70357142Y11695239D01*
X70319047Y11714286D01*
X70300000Y11733334D01*
X70280952Y11771429D01*
X70280952Y11847620D01*
X70300000Y11885715D01*
X70319047Y11904762D01*
X70357142Y11923810D01*
X70452380Y11923810D01*
X70490476Y11904762D01*
X70509523Y11885715D01*
X70528571Y11847620D01*
X70528571Y11771429D01*
X70509523Y11733334D01*
X70490476Y11714286D01*
X70452380Y11695239D01*
%TO.C,R18*%
D13*
X62525238Y13477620D02*
X63096666Y13477620D01*
X62810952Y13477620D02*
X62810952Y14477620D01*
X62906190Y14334762D01*
X63001428Y14239524D01*
X63096666Y14191905D01*
X61906190Y14477620D02*
X61810952Y14477620D01*
X61715714Y14430000D01*
X61668095Y14382381D01*
X61620476Y14287143D01*
X61572857Y14096667D01*
X61572857Y13858572D01*
X61620476Y13668096D01*
X61668095Y13572858D01*
X61715714Y13525239D01*
X61810952Y13477620D01*
X61906190Y13477620D01*
X62001428Y13525239D01*
X62049047Y13572858D01*
X62096666Y13668096D01*
X62144285Y13858572D01*
X62144285Y14096667D01*
X62096666Y14287143D01*
X62049047Y14382381D01*
X62001428Y14430000D01*
X61906190Y14477620D01*
X61144285Y13477620D02*
X61144285Y14477620D01*
X61049047Y13858572D02*
X60763333Y13477620D01*
X60763333Y14144286D02*
X61144285Y13763334D01*
D14*
X62187142Y15179048D02*
X62320476Y15369524D01*
X62415714Y15179048D02*
X62415714Y15579048D01*
X62263333Y15579048D01*
X62225238Y15560000D01*
X62206190Y15540953D01*
X62187142Y15502858D01*
X62187142Y15445715D01*
X62206190Y15407620D01*
X62225238Y15388572D01*
X62263333Y15369524D01*
X62415714Y15369524D01*
X61806190Y15179048D02*
X62034761Y15179048D01*
X61920476Y15179048D02*
X61920476Y15579048D01*
X61958571Y15521905D01*
X61996666Y15483810D01*
X62034761Y15464762D01*
X61577619Y15407620D02*
X61615714Y15426667D01*
X61634761Y15445715D01*
X61653809Y15483810D01*
X61653809Y15502858D01*
X61634761Y15540953D01*
X61615714Y15560000D01*
X61577619Y15579048D01*
X61501428Y15579048D01*
X61463333Y15560000D01*
X61444285Y15540953D01*
X61425238Y15502858D01*
X61425238Y15483810D01*
X61444285Y15445715D01*
X61463333Y15426667D01*
X61501428Y15407620D01*
X61577619Y15407620D01*
X61615714Y15388572D01*
X61634761Y15369524D01*
X61653809Y15331429D01*
X61653809Y15255239D01*
X61634761Y15217143D01*
X61615714Y15198096D01*
X61577619Y15179048D01*
X61501428Y15179048D01*
X61463333Y15198096D01*
X61444285Y15217143D01*
X61425238Y15255239D01*
X61425238Y15331429D01*
X61444285Y15369524D01*
X61463333Y15388572D01*
X61501428Y15407620D01*
%TO.C,R17*%
D13*
X60095238Y19517620D02*
X60666666Y19517620D01*
X60380952Y19517620D02*
X60380952Y20517620D01*
X60476190Y20374762D01*
X60571428Y20279524D01*
X60666666Y20231905D01*
X59476190Y20517620D02*
X59380952Y20517620D01*
X59285714Y20470000D01*
X59238095Y20422381D01*
X59190476Y20327143D01*
X59142857Y20136667D01*
X59142857Y19898572D01*
X59190476Y19708096D01*
X59238095Y19612858D01*
X59285714Y19565239D01*
X59380952Y19517620D01*
X59476190Y19517620D01*
X59571428Y19565239D01*
X59619047Y19612858D01*
X59666666Y19708096D01*
X59714285Y19898572D01*
X59714285Y20136667D01*
X59666666Y20327143D01*
X59619047Y20422381D01*
X59571428Y20470000D01*
X59476190Y20517620D01*
X58714285Y19517620D02*
X58714285Y20517620D01*
X58619047Y19898572D02*
X58333333Y19517620D01*
X58333333Y20184286D02*
X58714285Y19803334D01*
D14*
X59757142Y21219048D02*
X59890476Y21409524D01*
X59985714Y21219048D02*
X59985714Y21619048D01*
X59833333Y21619048D01*
X59795238Y21600000D01*
X59776190Y21580953D01*
X59757142Y21542858D01*
X59757142Y21485715D01*
X59776190Y21447620D01*
X59795238Y21428572D01*
X59833333Y21409524D01*
X59985714Y21409524D01*
X59376190Y21219048D02*
X59604761Y21219048D01*
X59490476Y21219048D02*
X59490476Y21619048D01*
X59528571Y21561905D01*
X59566666Y21523810D01*
X59604761Y21504762D01*
X59242857Y21619048D02*
X58976190Y21619048D01*
X59147619Y21219048D01*
%TO.C,R16*%
D13*
X76295238Y-1652380D02*
X76866666Y-1652380D01*
X76580952Y-1652380D02*
X76580952Y-652380D01*
X76676190Y-795238D01*
X76771428Y-890476D01*
X76866666Y-938095D01*
X75676190Y-652380D02*
X75580952Y-652380D01*
X75485714Y-700000D01*
X75438095Y-747619D01*
X75390476Y-842857D01*
X75342857Y-1033333D01*
X75342857Y-1271428D01*
X75390476Y-1461904D01*
X75438095Y-1557142D01*
X75485714Y-1604761D01*
X75580952Y-1652380D01*
X75676190Y-1652380D01*
X75771428Y-1604761D01*
X75819047Y-1557142D01*
X75866666Y-1461904D01*
X75914285Y-1271428D01*
X75914285Y-1033333D01*
X75866666Y-842857D01*
X75819047Y-747619D01*
X75771428Y-700000D01*
X75676190Y-652380D01*
X74914285Y-1652380D02*
X74914285Y-652380D01*
X74819047Y-1271428D02*
X74533333Y-1652380D01*
X74533333Y-985714D02*
X74914285Y-1366666D01*
D14*
X68557142Y-1280952D02*
X68690476Y-1090476D01*
X68785714Y-1280952D02*
X68785714Y-880952D01*
X68633333Y-880952D01*
X68595238Y-900000D01*
X68576190Y-919047D01*
X68557142Y-957142D01*
X68557142Y-1014285D01*
X68576190Y-1052380D01*
X68595238Y-1071428D01*
X68633333Y-1090476D01*
X68785714Y-1090476D01*
X68176190Y-1280952D02*
X68404761Y-1280952D01*
X68290476Y-1280952D02*
X68290476Y-880952D01*
X68328571Y-938095D01*
X68366666Y-976190D01*
X68404761Y-995238D01*
X67833333Y-880952D02*
X67909523Y-880952D01*
X67947619Y-900000D01*
X67966666Y-919047D01*
X68004761Y-976190D01*
X68023809Y-1052380D01*
X68023809Y-1204761D01*
X68004761Y-1242857D01*
X67985714Y-1261904D01*
X67947619Y-1280952D01*
X67871428Y-1280952D01*
X67833333Y-1261904D01*
X67814285Y-1242857D01*
X67795238Y-1204761D01*
X67795238Y-1109523D01*
X67814285Y-1071428D01*
X67833333Y-1052380D01*
X67871428Y-1033333D01*
X67947619Y-1033333D01*
X67985714Y-1052380D01*
X68004761Y-1071428D01*
X68023809Y-1109523D01*
%TO.C,R15*%
D13*
X76295238Y-3252380D02*
X76866666Y-3252380D01*
X76580952Y-3252380D02*
X76580952Y-2252380D01*
X76676190Y-2395238D01*
X76771428Y-2490476D01*
X76866666Y-2538095D01*
X75676190Y-2252380D02*
X75580952Y-2252380D01*
X75485714Y-2300000D01*
X75438095Y-2347619D01*
X75390476Y-2442857D01*
X75342857Y-2633333D01*
X75342857Y-2871428D01*
X75390476Y-3061904D01*
X75438095Y-3157142D01*
X75485714Y-3204761D01*
X75580952Y-3252380D01*
X75676190Y-3252380D01*
X75771428Y-3204761D01*
X75819047Y-3157142D01*
X75866666Y-3061904D01*
X75914285Y-2871428D01*
X75914285Y-2633333D01*
X75866666Y-2442857D01*
X75819047Y-2347619D01*
X75771428Y-2300000D01*
X75676190Y-2252380D01*
X74914285Y-3252380D02*
X74914285Y-2252380D01*
X74819047Y-2871428D02*
X74533333Y-3252380D01*
X74533333Y-2585714D02*
X74914285Y-2966666D01*
D14*
X68557142Y-2880952D02*
X68690476Y-2690476D01*
X68785714Y-2880952D02*
X68785714Y-2480952D01*
X68633333Y-2480952D01*
X68595238Y-2500000D01*
X68576190Y-2519047D01*
X68557142Y-2557142D01*
X68557142Y-2614285D01*
X68576190Y-2652380D01*
X68595238Y-2671428D01*
X68633333Y-2690476D01*
X68785714Y-2690476D01*
X68176190Y-2880952D02*
X68404761Y-2880952D01*
X68290476Y-2880952D02*
X68290476Y-2480952D01*
X68328571Y-2538095D01*
X68366666Y-2576190D01*
X68404761Y-2595238D01*
X67814285Y-2480952D02*
X68004761Y-2480952D01*
X68023809Y-2671428D01*
X68004761Y-2652380D01*
X67966666Y-2633333D01*
X67871428Y-2633333D01*
X67833333Y-2652380D01*
X67814285Y-2671428D01*
X67795238Y-2709523D01*
X67795238Y-2804761D01*
X67814285Y-2842857D01*
X67833333Y-2861904D01*
X67871428Y-2880952D01*
X67966666Y-2880952D01*
X68004761Y-2861904D01*
X68023809Y-2842857D01*
%TO.C,R14*%
D13*
X31095238Y19117620D02*
X31666666Y19117620D01*
X31380952Y19117620D02*
X31380952Y20117620D01*
X31476190Y19974762D01*
X31571428Y19879524D01*
X31666666Y19831905D01*
X30476190Y20117620D02*
X30380952Y20117620D01*
X30285714Y20070000D01*
X30238095Y20022381D01*
X30190476Y19927143D01*
X30142857Y19736667D01*
X30142857Y19498572D01*
X30190476Y19308096D01*
X30238095Y19212858D01*
X30285714Y19165239D01*
X30380952Y19117620D01*
X30476190Y19117620D01*
X30571428Y19165239D01*
X30619047Y19212858D01*
X30666666Y19308096D01*
X30714285Y19498572D01*
X30714285Y19736667D01*
X30666666Y19927143D01*
X30619047Y20022381D01*
X30571428Y20070000D01*
X30476190Y20117620D01*
X29714285Y19117620D02*
X29714285Y20117620D01*
X29619047Y19498572D02*
X29333333Y19117620D01*
X29333333Y19784286D02*
X29714285Y19403334D01*
D14*
X30757142Y20819048D02*
X30890476Y21009524D01*
X30985714Y20819048D02*
X30985714Y21219048D01*
X30833333Y21219048D01*
X30795238Y21200000D01*
X30776190Y21180953D01*
X30757142Y21142858D01*
X30757142Y21085715D01*
X30776190Y21047620D01*
X30795238Y21028572D01*
X30833333Y21009524D01*
X30985714Y21009524D01*
X30376190Y20819048D02*
X30604761Y20819048D01*
X30490476Y20819048D02*
X30490476Y21219048D01*
X30528571Y21161905D01*
X30566666Y21123810D01*
X30604761Y21104762D01*
X30033333Y21085715D02*
X30033333Y20819048D01*
X30128571Y21238096D02*
X30223809Y20952381D01*
X29976190Y20952381D01*
%TO.C,R13*%
D13*
X31095238Y37917620D02*
X31666666Y37917620D01*
X31380952Y37917620D02*
X31380952Y38917620D01*
X31476190Y38774762D01*
X31571428Y38679524D01*
X31666666Y38631905D01*
X30476190Y38917620D02*
X30380952Y38917620D01*
X30285714Y38870000D01*
X30238095Y38822381D01*
X30190476Y38727143D01*
X30142857Y38536667D01*
X30142857Y38298572D01*
X30190476Y38108096D01*
X30238095Y38012858D01*
X30285714Y37965239D01*
X30380952Y37917620D01*
X30476190Y37917620D01*
X30571428Y37965239D01*
X30619047Y38012858D01*
X30666666Y38108096D01*
X30714285Y38298572D01*
X30714285Y38536667D01*
X30666666Y38727143D01*
X30619047Y38822381D01*
X30571428Y38870000D01*
X30476190Y38917620D01*
X29714285Y37917620D02*
X29714285Y38917620D01*
X29619047Y38298572D02*
X29333333Y37917620D01*
X29333333Y38584286D02*
X29714285Y38203334D01*
D14*
X30757142Y39619048D02*
X30890476Y39809524D01*
X30985714Y39619048D02*
X30985714Y40019048D01*
X30833333Y40019048D01*
X30795238Y40000000D01*
X30776190Y39980953D01*
X30757142Y39942858D01*
X30757142Y39885715D01*
X30776190Y39847620D01*
X30795238Y39828572D01*
X30833333Y39809524D01*
X30985714Y39809524D01*
X30376190Y39619048D02*
X30604761Y39619048D01*
X30490476Y39619048D02*
X30490476Y40019048D01*
X30528571Y39961905D01*
X30566666Y39923810D01*
X30604761Y39904762D01*
X30242857Y40019048D02*
X29995238Y40019048D01*
X30128571Y39866667D01*
X30071428Y39866667D01*
X30033333Y39847620D01*
X30014285Y39828572D01*
X29995238Y39790477D01*
X29995238Y39695239D01*
X30014285Y39657143D01*
X30033333Y39638096D01*
X30071428Y39619048D01*
X30185714Y39619048D01*
X30223809Y39638096D01*
X30242857Y39657143D01*
%TO.C,R11*%
D13*
X31095238Y74917620D02*
X31666666Y74917620D01*
X31380952Y74917620D02*
X31380952Y75917620D01*
X31476190Y75774762D01*
X31571428Y75679524D01*
X31666666Y75631905D01*
X30476190Y75917620D02*
X30380952Y75917620D01*
X30285714Y75870000D01*
X30238095Y75822381D01*
X30190476Y75727143D01*
X30142857Y75536667D01*
X30142857Y75298572D01*
X30190476Y75108096D01*
X30238095Y75012858D01*
X30285714Y74965239D01*
X30380952Y74917620D01*
X30476190Y74917620D01*
X30571428Y74965239D01*
X30619047Y75012858D01*
X30666666Y75108096D01*
X30714285Y75298572D01*
X30714285Y75536667D01*
X30666666Y75727143D01*
X30619047Y75822381D01*
X30571428Y75870000D01*
X30476190Y75917620D01*
X29714285Y74917620D02*
X29714285Y75917620D01*
X29619047Y75298572D02*
X29333333Y74917620D01*
X29333333Y75584286D02*
X29714285Y75203334D01*
D14*
X30757142Y76619048D02*
X30890476Y76809524D01*
X30985714Y76619048D02*
X30985714Y77019048D01*
X30833333Y77019048D01*
X30795238Y77000000D01*
X30776190Y76980953D01*
X30757142Y76942858D01*
X30757142Y76885715D01*
X30776190Y76847620D01*
X30795238Y76828572D01*
X30833333Y76809524D01*
X30985714Y76809524D01*
X30376190Y76619048D02*
X30604761Y76619048D01*
X30490476Y76619048D02*
X30490476Y77019048D01*
X30528571Y76961905D01*
X30566666Y76923810D01*
X30604761Y76904762D01*
X29995238Y76619048D02*
X30223809Y76619048D01*
X30109523Y76619048D02*
X30109523Y77019048D01*
X30147619Y76961905D01*
X30185714Y76923810D01*
X30223809Y76904762D01*
%TO.C,R10*%
D13*
X34771428Y8647620D02*
X34771428Y9647620D01*
X34771428Y8695239D02*
X34866666Y8647620D01*
X35057142Y8647620D01*
X35152380Y8695239D01*
X35200000Y8742858D01*
X35247619Y8838096D01*
X35247619Y9123810D01*
X35200000Y9219048D01*
X35152380Y9266667D01*
X35057142Y9314286D01*
X34866666Y9314286D01*
X34771428Y9266667D01*
X34295238Y9314286D02*
X34295238Y8647620D01*
X34295238Y9219048D02*
X34247619Y9266667D01*
X34152380Y9314286D01*
X34009523Y9314286D01*
X33914285Y9266667D01*
X33866666Y9171429D01*
X33866666Y8647620D01*
X33390476Y9314286D02*
X33390476Y8314286D01*
X33390476Y9266667D02*
X33295238Y9314286D01*
X33104761Y9314286D01*
X33009523Y9266667D01*
X32961904Y9219048D01*
X32914285Y9123810D01*
X32914285Y8838096D01*
X32961904Y8742858D01*
X33009523Y8695239D01*
X33104761Y8647620D01*
X33295238Y8647620D01*
X33390476Y8695239D01*
X31771428Y9695239D02*
X32628571Y8409524D01*
X30914285Y8647620D02*
X31485714Y8647620D01*
X31200000Y8647620D02*
X31200000Y9647620D01*
X31295238Y9504762D01*
X31390476Y9409524D01*
X31485714Y9361905D01*
X30295238Y9647620D02*
X30200000Y9647620D01*
X30104761Y9600000D01*
X30057142Y9552381D01*
X30009523Y9457143D01*
X29961904Y9266667D01*
X29961904Y9028572D01*
X30009523Y8838096D01*
X30057142Y8742858D01*
X30104761Y8695239D01*
X30200000Y8647620D01*
X30295238Y8647620D01*
X30390476Y8695239D01*
X30438095Y8742858D01*
X30485714Y8838096D01*
X30533333Y9028572D01*
X30533333Y9266667D01*
X30485714Y9457143D01*
X30438095Y9552381D01*
X30390476Y9600000D01*
X30295238Y9647620D01*
X29533333Y8647620D02*
X29533333Y9647620D01*
X29438095Y9028572D02*
X29152380Y8647620D01*
X29152380Y9314286D02*
X29533333Y8933334D01*
D14*
X36357142Y9019048D02*
X36490476Y9209524D01*
X36585714Y9019048D02*
X36585714Y9419048D01*
X36433333Y9419048D01*
X36395238Y9400000D01*
X36376190Y9380953D01*
X36357142Y9342858D01*
X36357142Y9285715D01*
X36376190Y9247620D01*
X36395238Y9228572D01*
X36433333Y9209524D01*
X36585714Y9209524D01*
X35976190Y9019048D02*
X36204761Y9019048D01*
X36090476Y9019048D02*
X36090476Y9419048D01*
X36128571Y9361905D01*
X36166666Y9323810D01*
X36204761Y9304762D01*
X35728571Y9419048D02*
X35690476Y9419048D01*
X35652380Y9400000D01*
X35633333Y9380953D01*
X35614285Y9342858D01*
X35595238Y9266667D01*
X35595238Y9171429D01*
X35614285Y9095239D01*
X35633333Y9057143D01*
X35652380Y9038096D01*
X35690476Y9019048D01*
X35728571Y9019048D01*
X35766666Y9038096D01*
X35785714Y9057143D01*
X35804761Y9095239D01*
X35823809Y9171429D01*
X35823809Y9266667D01*
X35804761Y9342858D01*
X35785714Y9380953D01*
X35766666Y9400000D01*
X35728571Y9419048D01*
%TO.C,R8*%
D13*
X42542857Y88947620D02*
X43019047Y88947620D01*
X43066666Y88471429D01*
X43019047Y88519048D01*
X42923809Y88566667D01*
X42685714Y88566667D01*
X42590476Y88519048D01*
X42542857Y88471429D01*
X42495238Y88376191D01*
X42495238Y88138096D01*
X42542857Y88042858D01*
X42590476Y87995239D01*
X42685714Y87947620D01*
X42923809Y87947620D01*
X43019047Y87995239D01*
X43066666Y88042858D01*
X42066666Y87947620D02*
X42066666Y88947620D01*
X41971428Y88328572D02*
X41685714Y87947620D01*
X41685714Y88614286D02*
X42066666Y88233334D01*
X40733333Y87947620D02*
X41304761Y87947620D01*
X41019047Y87947620D02*
X41019047Y88947620D01*
X41114285Y88804762D01*
X41209523Y88709524D01*
X41304761Y88661905D01*
D14*
X43280952Y93666667D02*
X43090476Y93800000D01*
X43280952Y93895239D02*
X42880952Y93895239D01*
X42880952Y93742858D01*
X42900000Y93704762D01*
X42919047Y93685715D01*
X42957142Y93666667D01*
X43014285Y93666667D01*
X43052380Y93685715D01*
X43071428Y93704762D01*
X43090476Y93742858D01*
X43090476Y93895239D01*
X43052380Y93438096D02*
X43033333Y93476191D01*
X43014285Y93495239D01*
X42976190Y93514286D01*
X42957142Y93514286D01*
X42919047Y93495239D01*
X42900000Y93476191D01*
X42880952Y93438096D01*
X42880952Y93361905D01*
X42900000Y93323810D01*
X42919047Y93304762D01*
X42957142Y93285715D01*
X42976190Y93285715D01*
X43014285Y93304762D01*
X43033333Y93323810D01*
X43052380Y93361905D01*
X43052380Y93438096D01*
X43071428Y93476191D01*
X43090476Y93495239D01*
X43128571Y93514286D01*
X43204761Y93514286D01*
X43242857Y93495239D01*
X43261904Y93476191D01*
X43280952Y93438096D01*
X43280952Y93361905D01*
X43261904Y93323810D01*
X43242857Y93304762D01*
X43204761Y93285715D01*
X43128571Y93285715D01*
X43090476Y93304762D01*
X43071428Y93323810D01*
X43052380Y93361905D01*
%TO.C,R7*%
D13*
X45542857Y88947620D02*
X46019047Y88947620D01*
X46066666Y88471429D01*
X46019047Y88519048D01*
X45923809Y88566667D01*
X45685714Y88566667D01*
X45590476Y88519048D01*
X45542857Y88471429D01*
X45495238Y88376191D01*
X45495238Y88138096D01*
X45542857Y88042858D01*
X45590476Y87995239D01*
X45685714Y87947620D01*
X45923809Y87947620D01*
X46019047Y87995239D01*
X46066666Y88042858D01*
X45066666Y87947620D02*
X45066666Y88947620D01*
X44971428Y88328572D02*
X44685714Y87947620D01*
X44685714Y88614286D02*
X45066666Y88233334D01*
X43733333Y87947620D02*
X44304761Y87947620D01*
X44019047Y87947620D02*
X44019047Y88947620D01*
X44114285Y88804762D01*
X44209523Y88709524D01*
X44304761Y88661905D01*
D14*
X45040952Y93666667D02*
X44850476Y93800000D01*
X45040952Y93895239D02*
X44640952Y93895239D01*
X44640952Y93742858D01*
X44660000Y93704762D01*
X44679047Y93685715D01*
X44717142Y93666667D01*
X44774285Y93666667D01*
X44812380Y93685715D01*
X44831428Y93704762D01*
X44850476Y93742858D01*
X44850476Y93895239D01*
X44640952Y93533334D02*
X44640952Y93266667D01*
X45040952Y93438096D01*
%TO.C,R5*%
D13*
X52895238Y76747620D02*
X53466666Y76747620D01*
X53180952Y76747620D02*
X53180952Y77747620D01*
X53276190Y77604762D01*
X53371428Y77509524D01*
X53466666Y77461905D01*
X52276190Y77747620D02*
X52180952Y77747620D01*
X52085714Y77700000D01*
X52038095Y77652381D01*
X51990476Y77557143D01*
X51942857Y77366667D01*
X51942857Y77128572D01*
X51990476Y76938096D01*
X52038095Y76842858D01*
X52085714Y76795239D01*
X52180952Y76747620D01*
X52276190Y76747620D01*
X52371428Y76795239D01*
X52419047Y76842858D01*
X52466666Y76938096D01*
X52514285Y77128572D01*
X52514285Y77366667D01*
X52466666Y77557143D01*
X52419047Y77652381D01*
X52371428Y77700000D01*
X52276190Y77747620D01*
X51514285Y76747620D02*
X51514285Y77747620D01*
X51419047Y77128572D02*
X51133333Y76747620D01*
X51133333Y77414286D02*
X51514285Y77033334D01*
D14*
X53766666Y75419048D02*
X53900000Y75609524D01*
X53995238Y75419048D02*
X53995238Y75819048D01*
X53842857Y75819048D01*
X53804761Y75800000D01*
X53785714Y75780953D01*
X53766666Y75742858D01*
X53766666Y75685715D01*
X53785714Y75647620D01*
X53804761Y75628572D01*
X53842857Y75609524D01*
X53995238Y75609524D01*
X53404761Y75819048D02*
X53595238Y75819048D01*
X53614285Y75628572D01*
X53595238Y75647620D01*
X53557142Y75666667D01*
X53461904Y75666667D01*
X53423809Y75647620D01*
X53404761Y75628572D01*
X53385714Y75590477D01*
X53385714Y75495239D01*
X53404761Y75457143D01*
X53423809Y75438096D01*
X53461904Y75419048D01*
X53557142Y75419048D01*
X53595238Y75438096D01*
X53614285Y75457143D01*
%TO.C,R3*%
D13*
X31095238Y56117620D02*
X31666666Y56117620D01*
X31380952Y56117620D02*
X31380952Y57117620D01*
X31476190Y56974762D01*
X31571428Y56879524D01*
X31666666Y56831905D01*
X30476190Y57117620D02*
X30380952Y57117620D01*
X30285714Y57070000D01*
X30238095Y57022381D01*
X30190476Y56927143D01*
X30142857Y56736667D01*
X30142857Y56498572D01*
X30190476Y56308096D01*
X30238095Y56212858D01*
X30285714Y56165239D01*
X30380952Y56117620D01*
X30476190Y56117620D01*
X30571428Y56165239D01*
X30619047Y56212858D01*
X30666666Y56308096D01*
X30714285Y56498572D01*
X30714285Y56736667D01*
X30666666Y56927143D01*
X30619047Y57022381D01*
X30571428Y57070000D01*
X30476190Y57117620D01*
X29714285Y56117620D02*
X29714285Y57117620D01*
X29619047Y56498572D02*
X29333333Y56117620D01*
X29333333Y56784286D02*
X29714285Y56403334D01*
D14*
X30566666Y57819048D02*
X30700000Y58009524D01*
X30795238Y57819048D02*
X30795238Y58219048D01*
X30642857Y58219048D01*
X30604761Y58200000D01*
X30585714Y58180953D01*
X30566666Y58142858D01*
X30566666Y58085715D01*
X30585714Y58047620D01*
X30604761Y58028572D01*
X30642857Y58009524D01*
X30795238Y58009524D01*
X30433333Y58219048D02*
X30185714Y58219048D01*
X30319047Y58066667D01*
X30261904Y58066667D01*
X30223809Y58047620D01*
X30204761Y58028572D01*
X30185714Y57990477D01*
X30185714Y57895239D01*
X30204761Y57857143D01*
X30223809Y57838096D01*
X30261904Y57819048D01*
X30376190Y57819048D01*
X30414285Y57838096D01*
X30433333Y57857143D01*
%TO.C,R2*%
D13*
X81295238Y51977620D02*
X81866666Y51977620D01*
X81580952Y51977620D02*
X81580952Y52977620D01*
X81676190Y52834762D01*
X81771428Y52739524D01*
X81866666Y52691905D01*
X80676190Y52977620D02*
X80580952Y52977620D01*
X80485714Y52930000D01*
X80438095Y52882381D01*
X80390476Y52787143D01*
X80342857Y52596667D01*
X80342857Y52358572D01*
X80390476Y52168096D01*
X80438095Y52072858D01*
X80485714Y52025239D01*
X80580952Y51977620D01*
X80676190Y51977620D01*
X80771428Y52025239D01*
X80819047Y52072858D01*
X80866666Y52168096D01*
X80914285Y52358572D01*
X80914285Y52596667D01*
X80866666Y52787143D01*
X80819047Y52882381D01*
X80771428Y52930000D01*
X80676190Y52977620D01*
X79914285Y51977620D02*
X79914285Y52977620D01*
X79819047Y52358572D02*
X79533333Y51977620D01*
X79533333Y52644286D02*
X79914285Y52263334D01*
D14*
X80766666Y50819048D02*
X80900000Y51009524D01*
X80995238Y50819048D02*
X80995238Y51219048D01*
X80842857Y51219048D01*
X80804761Y51200000D01*
X80785714Y51180953D01*
X80766666Y51142858D01*
X80766666Y51085715D01*
X80785714Y51047620D01*
X80804761Y51028572D01*
X80842857Y51009524D01*
X80995238Y51009524D01*
X80614285Y51180953D02*
X80595238Y51200000D01*
X80557142Y51219048D01*
X80461904Y51219048D01*
X80423809Y51200000D01*
X80404761Y51180953D01*
X80385714Y51142858D01*
X80385714Y51104762D01*
X80404761Y51047620D01*
X80633333Y50819048D01*
X80385714Y50819048D01*
%TO.C,Q5*%
D13*
X66876190Y15733334D02*
X66400000Y15733334D01*
X66971428Y15447620D02*
X66638095Y16447620D01*
X66304761Y15447620D01*
X65780952Y16447620D02*
X65590476Y16447620D01*
X65495238Y16400000D01*
X65400000Y16304762D01*
X65352380Y16114286D01*
X65352380Y15780953D01*
X65400000Y15590477D01*
X65495238Y15495239D01*
X65590476Y15447620D01*
X65780952Y15447620D01*
X65876190Y15495239D01*
X65971428Y15590477D01*
X66019047Y15780953D01*
X66019047Y16114286D01*
X65971428Y16304762D01*
X65876190Y16400000D01*
X65780952Y16447620D01*
X65019047Y16447620D02*
X64400000Y16447620D01*
X64733333Y16066667D01*
X64590476Y16066667D01*
X64495238Y16019048D01*
X64447619Y15971429D01*
X64400000Y15876191D01*
X64400000Y15638096D01*
X64447619Y15542858D01*
X64495238Y15495239D01*
X64590476Y15447620D01*
X64876190Y15447620D01*
X64971428Y15495239D01*
X65019047Y15542858D01*
X63542857Y16114286D02*
X63542857Y15447620D01*
X63780952Y16495239D02*
X64019047Y15780953D01*
X63400000Y15780953D01*
X62828571Y16447620D02*
X62733333Y16447620D01*
X62638095Y16400000D01*
X62590476Y16352381D01*
X62542857Y16257143D01*
X62495238Y16066667D01*
X62495238Y15828572D01*
X62542857Y15638096D01*
X62590476Y15542858D01*
X62638095Y15495239D01*
X62733333Y15447620D01*
X62828571Y15447620D01*
X62923809Y15495239D01*
X62971428Y15542858D01*
X63019047Y15638096D01*
X63066666Y15828572D01*
X63066666Y16066667D01*
X63019047Y16257143D01*
X62971428Y16352381D01*
X62923809Y16400000D01*
X62828571Y16447620D01*
X61876190Y16447620D02*
X61780952Y16447620D01*
X61685714Y16400000D01*
X61638095Y16352381D01*
X61590476Y16257143D01*
X61542857Y16066667D01*
X61542857Y15828572D01*
X61590476Y15638096D01*
X61638095Y15542858D01*
X61685714Y15495239D01*
X61780952Y15447620D01*
X61876190Y15447620D01*
X61971428Y15495239D01*
X62019047Y15542858D01*
X62066666Y15638096D01*
X62114285Y15828572D01*
X62114285Y16066667D01*
X62066666Y16257143D01*
X62019047Y16352381D01*
X61971428Y16400000D01*
X61876190Y16447620D01*
X60066666Y15066667D02*
X60114285Y15114286D01*
X60209523Y15257143D01*
X60257142Y15352381D01*
X60304761Y15495239D01*
X60352380Y15733334D01*
X60352380Y15923810D01*
X60304761Y16161905D01*
X60257142Y16304762D01*
X60209523Y16400000D01*
X60114285Y16542858D01*
X60066666Y16590477D01*
X59733333Y15733334D02*
X59257142Y15733334D01*
X59828571Y15447620D02*
X59495238Y16447620D01*
X59161904Y15447620D01*
X58638095Y16447620D02*
X58542857Y16447620D01*
X58447619Y16400000D01*
X58400000Y16352381D01*
X58352380Y16257143D01*
X58304761Y16066667D01*
X58304761Y15828572D01*
X58352380Y15638096D01*
X58400000Y15542858D01*
X58447619Y15495239D01*
X58542857Y15447620D01*
X58638095Y15447620D01*
X58733333Y15495239D01*
X58780952Y15542858D01*
X58828571Y15638096D01*
X58876190Y15828572D01*
X58876190Y16066667D01*
X58828571Y16257143D01*
X58780952Y16352381D01*
X58733333Y16400000D01*
X58638095Y16447620D01*
X57828571Y15447620D02*
X57638095Y15447620D01*
X57542857Y15495239D01*
X57495238Y15542858D01*
X57400000Y15685715D01*
X57352380Y15876191D01*
X57352380Y16257143D01*
X57400000Y16352381D01*
X57447619Y16400000D01*
X57542857Y16447620D01*
X57733333Y16447620D01*
X57828571Y16400000D01*
X57876190Y16352381D01*
X57923809Y16257143D01*
X57923809Y16019048D01*
X57876190Y15923810D01*
X57828571Y15876191D01*
X57733333Y15828572D01*
X57542857Y15828572D01*
X57447619Y15876191D01*
X57400000Y15923810D01*
X57352380Y16019048D01*
X57066666Y16447620D02*
X56495238Y16447620D01*
X56780952Y15447620D02*
X56780952Y16447620D01*
X56257142Y15066667D02*
X56209523Y15114286D01*
X56114285Y15257143D01*
X56066666Y15352381D01*
X56019047Y15495239D01*
X55971428Y15733334D01*
X55971428Y15923810D01*
X56019047Y16161905D01*
X56066666Y16304762D01*
X56114285Y16400000D01*
X56209523Y16542858D01*
X56257142Y16590477D01*
D16*
X61673809Y18447620D02*
X61650000Y18495239D01*
X61602380Y18542858D01*
X61530952Y18614286D01*
X61507142Y18661905D01*
X61507142Y18709524D01*
X61626190Y18685715D02*
X61602380Y18733334D01*
X61554761Y18780953D01*
X61459523Y18804762D01*
X61292857Y18804762D01*
X61197619Y18780953D01*
X61150000Y18733334D01*
X61126190Y18685715D01*
X61126190Y18590477D01*
X61150000Y18542858D01*
X61197619Y18495239D01*
X61292857Y18471429D01*
X61459523Y18471429D01*
X61554761Y18495239D01*
X61602380Y18542858D01*
X61626190Y18590477D01*
X61626190Y18685715D01*
X61126190Y18019048D02*
X61126190Y18257143D01*
X61364285Y18280953D01*
X61340476Y18257143D01*
X61316666Y18209524D01*
X61316666Y18090477D01*
X61340476Y18042858D01*
X61364285Y18019048D01*
X61411904Y17995239D01*
X61530952Y17995239D01*
X61578571Y18019048D01*
X61602380Y18042858D01*
X61626190Y18090477D01*
X61626190Y18209524D01*
X61602380Y18257143D01*
X61578571Y18280953D01*
%TO.C,Q4*%
D13*
X62786190Y14023334D02*
X62310000Y14023334D01*
X62881428Y13737620D02*
X62548095Y14737620D01*
X62214761Y13737620D01*
X61690952Y14737620D02*
X61500476Y14737620D01*
X61405238Y14690000D01*
X61310000Y14594762D01*
X61262380Y14404286D01*
X61262380Y14070953D01*
X61310000Y13880477D01*
X61405238Y13785239D01*
X61500476Y13737620D01*
X61690952Y13737620D01*
X61786190Y13785239D01*
X61881428Y13880477D01*
X61929047Y14070953D01*
X61929047Y14404286D01*
X61881428Y14594762D01*
X61786190Y14690000D01*
X61690952Y14737620D01*
X60929047Y14737620D02*
X60310000Y14737620D01*
X60643333Y14356667D01*
X60500476Y14356667D01*
X60405238Y14309048D01*
X60357619Y14261429D01*
X60310000Y14166191D01*
X60310000Y13928096D01*
X60357619Y13832858D01*
X60405238Y13785239D01*
X60500476Y13737620D01*
X60786190Y13737620D01*
X60881428Y13785239D01*
X60929047Y13832858D01*
X59452857Y14404286D02*
X59452857Y13737620D01*
X59690952Y14785239D02*
X59929047Y14070953D01*
X59310000Y14070953D01*
X58738571Y14737620D02*
X58643333Y14737620D01*
X58548095Y14690000D01*
X58500476Y14642381D01*
X58452857Y14547143D01*
X58405238Y14356667D01*
X58405238Y14118572D01*
X58452857Y13928096D01*
X58500476Y13832858D01*
X58548095Y13785239D01*
X58643333Y13737620D01*
X58738571Y13737620D01*
X58833809Y13785239D01*
X58881428Y13832858D01*
X58929047Y13928096D01*
X58976666Y14118572D01*
X58976666Y14356667D01*
X58929047Y14547143D01*
X58881428Y14642381D01*
X58833809Y14690000D01*
X58738571Y14737620D01*
X57786190Y14737620D02*
X57690952Y14737620D01*
X57595714Y14690000D01*
X57548095Y14642381D01*
X57500476Y14547143D01*
X57452857Y14356667D01*
X57452857Y14118572D01*
X57500476Y13928096D01*
X57548095Y13832858D01*
X57595714Y13785239D01*
X57690952Y13737620D01*
X57786190Y13737620D01*
X57881428Y13785239D01*
X57929047Y13832858D01*
X57976666Y13928096D01*
X58024285Y14118572D01*
X58024285Y14356667D01*
X57976666Y14547143D01*
X57929047Y14642381D01*
X57881428Y14690000D01*
X57786190Y14737620D01*
X55976666Y13356667D02*
X56024285Y13404286D01*
X56119523Y13547143D01*
X56167142Y13642381D01*
X56214761Y13785239D01*
X56262380Y14023334D01*
X56262380Y14213810D01*
X56214761Y14451905D01*
X56167142Y14594762D01*
X56119523Y14690000D01*
X56024285Y14832858D01*
X55976666Y14880477D01*
X55643333Y14023334D02*
X55167142Y14023334D01*
X55738571Y13737620D02*
X55405238Y14737620D01*
X55071904Y13737620D01*
X54548095Y14737620D02*
X54452857Y14737620D01*
X54357619Y14690000D01*
X54310000Y14642381D01*
X54262380Y14547143D01*
X54214761Y14356667D01*
X54214761Y14118572D01*
X54262380Y13928096D01*
X54310000Y13832858D01*
X54357619Y13785239D01*
X54452857Y13737620D01*
X54548095Y13737620D01*
X54643333Y13785239D01*
X54690952Y13832858D01*
X54738571Y13928096D01*
X54786190Y14118572D01*
X54786190Y14356667D01*
X54738571Y14547143D01*
X54690952Y14642381D01*
X54643333Y14690000D01*
X54548095Y14737620D01*
X53738571Y13737620D02*
X53548095Y13737620D01*
X53452857Y13785239D01*
X53405238Y13832858D01*
X53310000Y13975715D01*
X53262380Y14166191D01*
X53262380Y14547143D01*
X53310000Y14642381D01*
X53357619Y14690000D01*
X53452857Y14737620D01*
X53643333Y14737620D01*
X53738571Y14690000D01*
X53786190Y14642381D01*
X53833809Y14547143D01*
X53833809Y14309048D01*
X53786190Y14213810D01*
X53738571Y14166191D01*
X53643333Y14118572D01*
X53452857Y14118572D01*
X53357619Y14166191D01*
X53310000Y14213810D01*
X53262380Y14309048D01*
X52976666Y14737620D02*
X52405238Y14737620D01*
X52690952Y13737620D02*
X52690952Y14737620D01*
X52167142Y13356667D02*
X52119523Y13404286D01*
X52024285Y13547143D01*
X51976666Y13642381D01*
X51929047Y13785239D01*
X51881428Y14023334D01*
X51881428Y14213810D01*
X51929047Y14451905D01*
X51976666Y14594762D01*
X52024285Y14690000D01*
X52119523Y14832858D01*
X52167142Y14880477D01*
D16*
X57583809Y16737620D02*
X57560000Y16785239D01*
X57512380Y16832858D01*
X57440952Y16904286D01*
X57417142Y16951905D01*
X57417142Y16999524D01*
X57536190Y16975715D02*
X57512380Y17023334D01*
X57464761Y17070953D01*
X57369523Y17094762D01*
X57202857Y17094762D01*
X57107619Y17070953D01*
X57060000Y17023334D01*
X57036190Y16975715D01*
X57036190Y16880477D01*
X57060000Y16832858D01*
X57107619Y16785239D01*
X57202857Y16761429D01*
X57369523Y16761429D01*
X57464761Y16785239D01*
X57512380Y16832858D01*
X57536190Y16880477D01*
X57536190Y16975715D01*
X57202857Y16332858D02*
X57536190Y16332858D01*
X57012380Y16451905D02*
X57369523Y16570953D01*
X57369523Y16261429D01*
%TO.C,Q3*%
D13*
X51116666Y35076191D02*
X51116666Y34600000D01*
X51402380Y35171429D02*
X50402380Y34838096D01*
X51402380Y34504762D01*
X50402380Y33980953D02*
X50402380Y33790477D01*
X50450000Y33695239D01*
X50545238Y33600000D01*
X50735714Y33552381D01*
X51069047Y33552381D01*
X51259523Y33600000D01*
X51354761Y33695239D01*
X51402380Y33790477D01*
X51402380Y33980953D01*
X51354761Y34076191D01*
X51259523Y34171429D01*
X51069047Y34219048D01*
X50735714Y34219048D01*
X50545238Y34171429D01*
X50450000Y34076191D01*
X50402380Y33980953D01*
X50402380Y33219048D02*
X50402380Y32600000D01*
X50783333Y32933334D01*
X50783333Y32790477D01*
X50830952Y32695239D01*
X50878571Y32647620D01*
X50973809Y32600000D01*
X51211904Y32600000D01*
X51307142Y32647620D01*
X51354761Y32695239D01*
X51402380Y32790477D01*
X51402380Y33076191D01*
X51354761Y33171429D01*
X51307142Y33219048D01*
X50735714Y31742858D02*
X51402380Y31742858D01*
X50354761Y31980953D02*
X51069047Y32219048D01*
X51069047Y31600000D01*
X50402380Y31028572D02*
X50402380Y30933334D01*
X50450000Y30838096D01*
X50497619Y30790477D01*
X50592857Y30742858D01*
X50783333Y30695239D01*
X51021428Y30695239D01*
X51211904Y30742858D01*
X51307142Y30790477D01*
X51354761Y30838096D01*
X51402380Y30933334D01*
X51402380Y31028572D01*
X51354761Y31123810D01*
X51307142Y31171429D01*
X51211904Y31219048D01*
X51021428Y31266667D01*
X50783333Y31266667D01*
X50592857Y31219048D01*
X50497619Y31171429D01*
X50450000Y31123810D01*
X50402380Y31028572D01*
X50402380Y30076191D02*
X50402380Y29980953D01*
X50450000Y29885715D01*
X50497619Y29838096D01*
X50592857Y29790477D01*
X50783333Y29742858D01*
X51021428Y29742858D01*
X51211904Y29790477D01*
X51307142Y29838096D01*
X51354761Y29885715D01*
X51402380Y29980953D01*
X51402380Y30076191D01*
X51354761Y30171429D01*
X51307142Y30219048D01*
X51211904Y30266667D01*
X51021428Y30314286D01*
X50783333Y30314286D01*
X50592857Y30266667D01*
X50497619Y30219048D01*
X50450000Y30171429D01*
X50402380Y30076191D01*
X51783333Y28266667D02*
X51735714Y28314286D01*
X51592857Y28409524D01*
X51497619Y28457143D01*
X51354761Y28504762D01*
X51116666Y28552381D01*
X50926190Y28552381D01*
X50688095Y28504762D01*
X50545238Y28457143D01*
X50450000Y28409524D01*
X50307142Y28314286D01*
X50259523Y28266667D01*
X51116666Y27933334D02*
X51116666Y27457143D01*
X51402380Y28028572D02*
X50402380Y27695239D01*
X51402380Y27361905D01*
X50402380Y26838096D02*
X50402380Y26742858D01*
X50450000Y26647620D01*
X50497619Y26600000D01*
X50592857Y26552381D01*
X50783333Y26504762D01*
X51021428Y26504762D01*
X51211904Y26552381D01*
X51307142Y26600000D01*
X51354761Y26647620D01*
X51402380Y26742858D01*
X51402380Y26838096D01*
X51354761Y26933334D01*
X51307142Y26980953D01*
X51211904Y27028572D01*
X51021428Y27076191D01*
X50783333Y27076191D01*
X50592857Y27028572D01*
X50497619Y26980953D01*
X50450000Y26933334D01*
X50402380Y26838096D01*
X51402380Y26028572D02*
X51402380Y25838096D01*
X51354761Y25742858D01*
X51307142Y25695239D01*
X51164285Y25600000D01*
X50973809Y25552381D01*
X50592857Y25552381D01*
X50497619Y25600000D01*
X50450000Y25647620D01*
X50402380Y25742858D01*
X50402380Y25933334D01*
X50450000Y26028572D01*
X50497619Y26076191D01*
X50592857Y26123810D01*
X50830952Y26123810D01*
X50926190Y26076191D01*
X50973809Y26028572D01*
X51021428Y25933334D01*
X51021428Y25742858D01*
X50973809Y25647620D01*
X50926190Y25600000D01*
X50830952Y25552381D01*
X50402380Y25266667D02*
X50402380Y24695239D01*
X51402380Y24980953D02*
X50402380Y24980953D01*
X51783333Y24457143D02*
X51735714Y24409524D01*
X51592857Y24314286D01*
X51497619Y24266667D01*
X51354761Y24219048D01*
X51116666Y24171429D01*
X50926190Y24171429D01*
X50688095Y24219048D01*
X50545238Y24266667D01*
X50450000Y24314286D01*
X50307142Y24409524D01*
X50259523Y24457143D01*
D16*
X53497619Y29326191D02*
X53545238Y29350000D01*
X53592857Y29397620D01*
X53664285Y29469048D01*
X53711904Y29492858D01*
X53759523Y29492858D01*
X53735714Y29373810D02*
X53783333Y29397620D01*
X53830952Y29445239D01*
X53854761Y29540477D01*
X53854761Y29707143D01*
X53830952Y29802381D01*
X53783333Y29850000D01*
X53735714Y29873810D01*
X53640476Y29873810D01*
X53592857Y29850000D01*
X53545238Y29802381D01*
X53521428Y29707143D01*
X53521428Y29540477D01*
X53545238Y29445239D01*
X53592857Y29397620D01*
X53640476Y29373810D01*
X53735714Y29373810D01*
X53354761Y29873810D02*
X53045238Y29873810D01*
X53211904Y29683334D01*
X53140476Y29683334D01*
X53092857Y29659524D01*
X53069047Y29635715D01*
X53045238Y29588096D01*
X53045238Y29469048D01*
X53069047Y29421429D01*
X53092857Y29397620D01*
X53140476Y29373810D01*
X53283333Y29373810D01*
X53330952Y29397620D01*
X53354761Y29421429D01*
%TO.C,J2*%
D13*
X61773809Y88632858D02*
X61821428Y88585239D01*
X61964285Y88537620D01*
X62059523Y88537620D01*
X62202380Y88585239D01*
X62297619Y88680477D01*
X62345238Y88775715D01*
X62392857Y88966191D01*
X62392857Y89109048D01*
X62345238Y89299524D01*
X62297619Y89394762D01*
X62202380Y89490000D01*
X62059523Y89537620D01*
X61964285Y89537620D01*
X61821428Y89490000D01*
X61773809Y89442381D01*
X61202380Y88537620D02*
X61297619Y88585239D01*
X61345238Y88632858D01*
X61392857Y88728096D01*
X61392857Y89013810D01*
X61345238Y89109048D01*
X61297619Y89156667D01*
X61202380Y89204286D01*
X61059523Y89204286D01*
X60964285Y89156667D01*
X60916666Y89109048D01*
X60869047Y89013810D01*
X60869047Y88728096D01*
X60916666Y88632858D01*
X60964285Y88585239D01*
X61059523Y88537620D01*
X61202380Y88537620D01*
X60440476Y89204286D02*
X60440476Y88537620D01*
X60440476Y89109048D02*
X60392857Y89156667D01*
X60297619Y89204286D01*
X60154761Y89204286D01*
X60059523Y89156667D01*
X60011904Y89061429D01*
X60011904Y88537620D01*
X59535714Y89204286D02*
X59535714Y88537620D01*
X59535714Y89109048D02*
X59488095Y89156667D01*
X59392857Y89204286D01*
X59250000Y89204286D01*
X59154761Y89156667D01*
X59107142Y89061429D01*
X59107142Y88537620D01*
X58869047Y88442381D02*
X58107142Y88442381D01*
X57678571Y89537620D02*
X57583333Y89537620D01*
X57488095Y89490000D01*
X57440476Y89442381D01*
X57392857Y89347143D01*
X57345238Y89156667D01*
X57345238Y88918572D01*
X57392857Y88728096D01*
X57440476Y88632858D01*
X57488095Y88585239D01*
X57583333Y88537620D01*
X57678571Y88537620D01*
X57773809Y88585239D01*
X57821428Y88632858D01*
X57869047Y88728096D01*
X57916666Y88918572D01*
X57916666Y89156667D01*
X57869047Y89347143D01*
X57821428Y89442381D01*
X57773809Y89490000D01*
X57678571Y89537620D01*
X56964285Y89442381D02*
X56916666Y89490000D01*
X56821428Y89537620D01*
X56583333Y89537620D01*
X56488095Y89490000D01*
X56440476Y89442381D01*
X56392857Y89347143D01*
X56392857Y89251905D01*
X56440476Y89109048D01*
X57011904Y88537620D01*
X56392857Y88537620D01*
X56059523Y88537620D02*
X55535714Y89204286D01*
X56059523Y89204286D02*
X55535714Y88537620D01*
X54964285Y89537620D02*
X54869047Y89537620D01*
X54773809Y89490000D01*
X54726190Y89442381D01*
X54678571Y89347143D01*
X54630952Y89156667D01*
X54630952Y88918572D01*
X54678571Y88728096D01*
X54726190Y88632858D01*
X54773809Y88585239D01*
X54869047Y88537620D01*
X54964285Y88537620D01*
X55059523Y88585239D01*
X55107142Y88632858D01*
X55154761Y88728096D01*
X55202380Y88918572D01*
X55202380Y89156667D01*
X55154761Y89347143D01*
X55107142Y89442381D01*
X55059523Y89490000D01*
X54964285Y89537620D01*
X54297619Y89537620D02*
X53678571Y89537620D01*
X54011904Y89156667D01*
X53869047Y89156667D01*
X53773809Y89109048D01*
X53726190Y89061429D01*
X53678571Y88966191D01*
X53678571Y88728096D01*
X53726190Y88632858D01*
X53773809Y88585239D01*
X53869047Y88537620D01*
X54154761Y88537620D01*
X54250000Y88585239D01*
X54297619Y88632858D01*
X53488095Y88442381D02*
X52726190Y88442381D01*
X51916666Y88632858D02*
X51964285Y88585239D01*
X52107142Y88537620D01*
X52202380Y88537620D01*
X52345238Y88585239D01*
X52440476Y88680477D01*
X52488095Y88775715D01*
X52535714Y88966191D01*
X52535714Y89109048D01*
X52488095Y89299524D01*
X52440476Y89394762D01*
X52345238Y89490000D01*
X52202380Y89537620D01*
X52107142Y89537620D01*
X51964285Y89490000D01*
X51916666Y89442381D01*
X51345238Y88537620D02*
X51440476Y88585239D01*
X51488095Y88632858D01*
X51535714Y88728096D01*
X51535714Y89013810D01*
X51488095Y89109048D01*
X51440476Y89156667D01*
X51345238Y89204286D01*
X51202380Y89204286D01*
X51107142Y89156667D01*
X51059523Y89109048D01*
X51011904Y89013810D01*
X51011904Y88728096D01*
X51059523Y88632858D01*
X51107142Y88585239D01*
X51202380Y88537620D01*
X51345238Y88537620D01*
X50154761Y89204286D02*
X50154761Y88537620D01*
X50583333Y89204286D02*
X50583333Y88680477D01*
X50535714Y88585239D01*
X50440476Y88537620D01*
X50297619Y88537620D01*
X50202380Y88585239D01*
X50154761Y88632858D01*
X49678571Y89204286D02*
X49678571Y88537620D01*
X49678571Y89109048D02*
X49630952Y89156667D01*
X49535714Y89204286D01*
X49392857Y89204286D01*
X49297619Y89156667D01*
X49250000Y89061429D01*
X49250000Y88537620D01*
X48916666Y89204286D02*
X48535714Y89204286D01*
X48773809Y89537620D02*
X48773809Y88680477D01*
X48726190Y88585239D01*
X48630952Y88537620D01*
X48535714Y88537620D01*
X47821428Y88585239D02*
X47916666Y88537620D01*
X48107142Y88537620D01*
X48202380Y88585239D01*
X48250000Y88680477D01*
X48250000Y89061429D01*
X48202380Y89156667D01*
X48107142Y89204286D01*
X47916666Y89204286D01*
X47821428Y89156667D01*
X47773809Y89061429D01*
X47773809Y88966191D01*
X48250000Y88870953D01*
X47345238Y88537620D02*
X47345238Y89204286D01*
X47345238Y89013810D02*
X47297619Y89109048D01*
X47250000Y89156667D01*
X47154761Y89204286D01*
X47059523Y89204286D01*
X46964285Y88442381D02*
X46202380Y88442381D01*
X45392857Y88632858D02*
X45440476Y88585239D01*
X45583333Y88537620D01*
X45678571Y88537620D01*
X45821428Y88585239D01*
X45916666Y88680477D01*
X45964285Y88775715D01*
X46011904Y88966191D01*
X46011904Y89109048D01*
X45964285Y89299524D01*
X45916666Y89394762D01*
X45821428Y89490000D01*
X45678571Y89537620D01*
X45583333Y89537620D01*
X45440476Y89490000D01*
X45392857Y89442381D01*
X44821428Y88537620D02*
X44916666Y88585239D01*
X44964285Y88680477D01*
X44964285Y89537620D01*
X44297619Y88537620D02*
X44392857Y88585239D01*
X44440476Y88632858D01*
X44488095Y88728096D01*
X44488095Y89013810D01*
X44440476Y89109048D01*
X44392857Y89156667D01*
X44297619Y89204286D01*
X44154761Y89204286D01*
X44059523Y89156667D01*
X44011904Y89109048D01*
X43964285Y89013810D01*
X43964285Y88728096D01*
X44011904Y88632858D01*
X44059523Y88585239D01*
X44154761Y88537620D01*
X44297619Y88537620D01*
X43107142Y88585239D02*
X43202380Y88537620D01*
X43392857Y88537620D01*
X43488095Y88585239D01*
X43535714Y88632858D01*
X43583333Y88728096D01*
X43583333Y89013810D01*
X43535714Y89109048D01*
X43488095Y89156667D01*
X43392857Y89204286D01*
X43202380Y89204286D01*
X43107142Y89156667D01*
X42678571Y88537620D02*
X42678571Y89537620D01*
X42583333Y88918572D02*
X42297619Y88537620D01*
X42297619Y89204286D02*
X42678571Y88823334D01*
X41964285Y89204286D02*
X41773809Y88537620D01*
X41583333Y89013810D01*
X41392857Y88537620D01*
X41202380Y89204286D01*
X40821428Y88537620D02*
X40821428Y89204286D01*
X40821428Y89537620D02*
X40869047Y89490000D01*
X40821428Y89442381D01*
X40773809Y89490000D01*
X40821428Y89537620D01*
X40821428Y89442381D01*
X40392857Y88585239D02*
X40297619Y88537620D01*
X40107142Y88537620D01*
X40011904Y88585239D01*
X39964285Y88680477D01*
X39964285Y88728096D01*
X40011904Y88823334D01*
X40107142Y88870953D01*
X40250000Y88870953D01*
X40345238Y88918572D01*
X40392857Y89013810D01*
X40392857Y89061429D01*
X40345238Y89156667D01*
X40250000Y89204286D01*
X40107142Y89204286D01*
X40011904Y89156667D01*
X39154761Y88585239D02*
X39250000Y88537620D01*
X39440476Y88537620D01*
X39535714Y88585239D01*
X39583333Y88680477D01*
X39583333Y89061429D01*
X39535714Y89156667D01*
X39440476Y89204286D01*
X39250000Y89204286D01*
X39154761Y89156667D01*
X39107142Y89061429D01*
X39107142Y88966191D01*
X39583333Y88870953D01*
X50202380Y94633334D02*
X50916666Y94633334D01*
X51059523Y94680953D01*
X51154761Y94776191D01*
X51202380Y94919048D01*
X51202380Y95014286D01*
X50297619Y94204762D02*
X50250000Y94157143D01*
X50202380Y94061905D01*
X50202380Y93823810D01*
X50250000Y93728572D01*
X50297619Y93680953D01*
X50392857Y93633334D01*
X50488095Y93633334D01*
X50630952Y93680953D01*
X51202380Y94252381D01*
X51202380Y93633334D01*
%TO.C,D3*%
X77230000Y13866667D02*
X77182380Y13961905D01*
X77182380Y14104762D01*
X77230000Y14247620D01*
X77325238Y14342858D01*
X77420476Y14390477D01*
X77610952Y14438096D01*
X77753809Y14438096D01*
X77944285Y14390477D01*
X78039523Y14342858D01*
X78134761Y14247620D01*
X78182380Y14104762D01*
X78182380Y14009524D01*
X78134761Y13866667D01*
X78087142Y13819048D01*
X77753809Y13819048D01*
X77753809Y14009524D01*
X78182380Y12819048D02*
X77706190Y13152381D01*
X78182380Y13390477D02*
X77182380Y13390477D01*
X77182380Y13009524D01*
X77230000Y12914286D01*
X77277619Y12866667D01*
X77372857Y12819048D01*
X77515714Y12819048D01*
X77610952Y12866667D01*
X77658571Y12914286D01*
X77706190Y13009524D01*
X77706190Y13390477D01*
X77658571Y12390477D02*
X77658571Y12057143D01*
X78182380Y11914286D02*
X78182380Y12390477D01*
X77182380Y12390477D01*
X77182380Y11914286D01*
X77658571Y11485715D02*
X77658571Y11152381D01*
X78182380Y11009524D02*
X78182380Y11485715D01*
X77182380Y11485715D01*
X77182380Y11009524D01*
X78182380Y10580953D02*
X77182380Y10580953D01*
X78182380Y10009524D01*
X77182380Y10009524D01*
D14*
X76480952Y12495239D02*
X76080952Y12495239D01*
X76080952Y12400000D01*
X76100000Y12342858D01*
X76138095Y12304762D01*
X76176190Y12285715D01*
X76252380Y12266667D01*
X76309523Y12266667D01*
X76385714Y12285715D01*
X76423809Y12304762D01*
X76461904Y12342858D01*
X76480952Y12400000D01*
X76480952Y12495239D01*
X76080952Y12133334D02*
X76080952Y11885715D01*
X76233333Y12019048D01*
X76233333Y11961905D01*
X76252380Y11923810D01*
X76271428Y11904762D01*
X76309523Y11885715D01*
X76404761Y11885715D01*
X76442857Y11904762D01*
X76461904Y11923810D01*
X76480952Y11961905D01*
X76480952Y12076191D01*
X76461904Y12114286D01*
X76442857Y12133334D01*
%TO.C,D2*%
D13*
X73538571Y13509524D02*
X73586190Y13366667D01*
X73633809Y13319048D01*
X73729047Y13271429D01*
X73871904Y13271429D01*
X73967142Y13319048D01*
X74014761Y13366667D01*
X74062380Y13461905D01*
X74062380Y13842858D01*
X73062380Y13842858D01*
X73062380Y13509524D01*
X73110000Y13414286D01*
X73157619Y13366667D01*
X73252857Y13319048D01*
X73348095Y13319048D01*
X73443333Y13366667D01*
X73490952Y13414286D01*
X73538571Y13509524D01*
X73538571Y13842858D01*
X74062380Y12366667D02*
X74062380Y12842858D01*
X73062380Y12842858D01*
X73062380Y12033334D02*
X73871904Y12033334D01*
X73967142Y11985715D01*
X74014761Y11938096D01*
X74062380Y11842858D01*
X74062380Y11652381D01*
X74014761Y11557143D01*
X73967142Y11509524D01*
X73871904Y11461905D01*
X73062380Y11461905D01*
X73538571Y10985715D02*
X73538571Y10652381D01*
X74062380Y10509524D02*
X74062380Y10985715D01*
X73062380Y10985715D01*
X73062380Y10509524D01*
D14*
X72360952Y12495239D02*
X71960952Y12495239D01*
X71960952Y12400000D01*
X71980000Y12342858D01*
X72018095Y12304762D01*
X72056190Y12285715D01*
X72132380Y12266667D01*
X72189523Y12266667D01*
X72265714Y12285715D01*
X72303809Y12304762D01*
X72341904Y12342858D01*
X72360952Y12400000D01*
X72360952Y12495239D01*
X71999047Y12114286D02*
X71980000Y12095239D01*
X71960952Y12057143D01*
X71960952Y11961905D01*
X71980000Y11923810D01*
X71999047Y11904762D01*
X72037142Y11885715D01*
X72075238Y11885715D01*
X72132380Y11904762D01*
X72360952Y12133334D01*
X72360952Y11885715D01*
%TO.C,D1*%
D13*
X50552380Y3228572D02*
X50552380Y2609524D01*
X50933333Y2942858D01*
X50933333Y2800000D01*
X50980952Y2704762D01*
X51028571Y2657143D01*
X51123809Y2609524D01*
X51361904Y2609524D01*
X51457142Y2657143D01*
X51504761Y2704762D01*
X51552380Y2800000D01*
X51552380Y3085715D01*
X51504761Y3180953D01*
X51457142Y3228572D01*
X51266666Y2228572D02*
X51266666Y1752381D01*
X51552380Y2323810D02*
X50552380Y1990477D01*
X51552380Y1657143D01*
X50552380Y371429D02*
X50552380Y276191D01*
X50600000Y180953D01*
X50647619Y133334D01*
X50742857Y85715D01*
X50933333Y38096D01*
X51171428Y38096D01*
X51361904Y85715D01*
X51457142Y133334D01*
X51504761Y180953D01*
X51552380Y276191D01*
X51552380Y371429D01*
X51504761Y466667D01*
X51457142Y514286D01*
X51361904Y561905D01*
X51171428Y609524D01*
X50933333Y609524D01*
X50742857Y561905D01*
X50647619Y514286D01*
X50600000Y466667D01*
X50552380Y371429D01*
X51457142Y-390476D02*
X51504761Y-438095D01*
X51552380Y-390476D01*
X51504761Y-342857D01*
X51457142Y-390476D01*
X51552380Y-390476D01*
X50552380Y-1342857D02*
X50552380Y-866666D01*
X51028571Y-819047D01*
X50980952Y-866666D01*
X50933333Y-961904D01*
X50933333Y-1200000D01*
X50980952Y-1295238D01*
X51028571Y-1342857D01*
X51123809Y-1390476D01*
X51361904Y-1390476D01*
X51457142Y-1342857D01*
X51504761Y-1295238D01*
X51552380Y-1200000D01*
X51552380Y-961904D01*
X51504761Y-866666D01*
X51457142Y-819047D01*
X50552380Y-2438095D02*
X51552380Y-2771428D01*
X50552380Y-3104761D01*
X50885714Y-3295238D02*
X50885714Y-3676190D01*
X51552380Y-3438095D02*
X50695238Y-3438095D01*
X50600000Y-3485714D01*
X50552380Y-3580952D01*
X50552380Y-3676190D01*
X46452380Y538096D02*
X45452380Y538096D01*
X45452380Y300000D01*
X45500000Y157143D01*
X45595238Y61905D01*
X45690476Y14286D01*
X45880952Y-33333D01*
X46023809Y-33333D01*
X46214285Y14286D01*
X46309523Y61905D01*
X46404761Y157143D01*
X46452380Y300000D01*
X46452380Y538096D01*
X46452380Y-985714D02*
X46452380Y-414285D01*
X46452380Y-700000D02*
X45452380Y-700000D01*
X45595238Y-604761D01*
X45690476Y-509523D01*
X45738095Y-414285D01*
%TO.C,C8*%
X65647619Y4347620D02*
X66219047Y4347620D01*
X65933333Y4347620D02*
X65933333Y5347620D01*
X66028571Y5204762D01*
X66123809Y5109524D01*
X66219047Y5061905D01*
X65028571Y5347620D02*
X64933333Y5347620D01*
X64838095Y5300000D01*
X64790476Y5252381D01*
X64742857Y5157143D01*
X64695238Y4966667D01*
X64695238Y4728572D01*
X64742857Y4538096D01*
X64790476Y4442858D01*
X64838095Y4395239D01*
X64933333Y4347620D01*
X65028571Y4347620D01*
X65123809Y4395239D01*
X65171428Y4442858D01*
X65219047Y4538096D01*
X65266666Y4728572D01*
X65266666Y4966667D01*
X65219047Y5157143D01*
X65171428Y5252381D01*
X65123809Y5300000D01*
X65028571Y5347620D01*
X64076190Y5347620D02*
X63980952Y5347620D01*
X63885714Y5300000D01*
X63838095Y5252381D01*
X63790476Y5157143D01*
X63742857Y4966667D01*
X63742857Y4728572D01*
X63790476Y4538096D01*
X63838095Y4442858D01*
X63885714Y4395239D01*
X63980952Y4347620D01*
X64076190Y4347620D01*
X64171428Y4395239D01*
X64219047Y4442858D01*
X64266666Y4538096D01*
X64314285Y4728572D01*
X64314285Y4966667D01*
X64266666Y5157143D01*
X64219047Y5252381D01*
X64171428Y5300000D01*
X64076190Y5347620D01*
X63314285Y5014286D02*
X63314285Y4347620D01*
X63314285Y4919048D02*
X63266666Y4966667D01*
X63171428Y5014286D01*
X63028571Y5014286D01*
X62933333Y4966667D01*
X62885714Y4871429D01*
X62885714Y4347620D01*
X62076190Y4871429D02*
X62409523Y4871429D01*
X62409523Y4347620D02*
X62409523Y5347620D01*
X61933333Y5347620D01*
D14*
X60179166Y4857143D02*
X60198214Y4838096D01*
X60255357Y4819048D01*
X60293452Y4819048D01*
X60350595Y4838096D01*
X60388690Y4876191D01*
X60407738Y4914286D01*
X60426785Y4990477D01*
X60426785Y5047620D01*
X60407738Y5123810D01*
X60388690Y5161905D01*
X60350595Y5200000D01*
X60293452Y5219048D01*
X60255357Y5219048D01*
X60198214Y5200000D01*
X60179166Y5180953D01*
X59950595Y5047620D02*
X59988690Y5066667D01*
X60007738Y5085715D01*
X60026785Y5123810D01*
X60026785Y5142858D01*
X60007738Y5180953D01*
X59988690Y5200000D01*
X59950595Y5219048D01*
X59874404Y5219048D01*
X59836309Y5200000D01*
X59817261Y5180953D01*
X59798214Y5142858D01*
X59798214Y5123810D01*
X59817261Y5085715D01*
X59836309Y5066667D01*
X59874404Y5047620D01*
X59950595Y5047620D01*
X59988690Y5028572D01*
X60007738Y5009524D01*
X60026785Y4971429D01*
X60026785Y4895239D01*
X60007738Y4857143D01*
X59988690Y4838096D01*
X59950595Y4819048D01*
X59874404Y4819048D01*
X59836309Y4838096D01*
X59817261Y4857143D01*
X59798214Y4895239D01*
X59798214Y4971429D01*
X59817261Y5009524D01*
X59836309Y5028572D01*
X59874404Y5047620D01*
%TO.C,C7*%
D13*
X76247619Y-52380D02*
X76819047Y-52380D01*
X76533333Y-52380D02*
X76533333Y947620D01*
X76628571Y804762D01*
X76723809Y709524D01*
X76819047Y661905D01*
X75628571Y947620D02*
X75533333Y947620D01*
X75438095Y900000D01*
X75390476Y852381D01*
X75342857Y757143D01*
X75295238Y566667D01*
X75295238Y328572D01*
X75342857Y138096D01*
X75390476Y42858D01*
X75438095Y-4761D01*
X75533333Y-52380D01*
X75628571Y-52380D01*
X75723809Y-4761D01*
X75771428Y42858D01*
X75819047Y138096D01*
X75866666Y328572D01*
X75866666Y566667D01*
X75819047Y757143D01*
X75771428Y852381D01*
X75723809Y900000D01*
X75628571Y947620D01*
X74676190Y947620D02*
X74580952Y947620D01*
X74485714Y900000D01*
X74438095Y852381D01*
X74390476Y757143D01*
X74342857Y566667D01*
X74342857Y328572D01*
X74390476Y138096D01*
X74438095Y42858D01*
X74485714Y-4761D01*
X74580952Y-52380D01*
X74676190Y-52380D01*
X74771428Y-4761D01*
X74819047Y42858D01*
X74866666Y138096D01*
X74914285Y328572D01*
X74914285Y566667D01*
X74866666Y757143D01*
X74819047Y852381D01*
X74771428Y900000D01*
X74676190Y947620D01*
X73914285Y614286D02*
X73914285Y-52380D01*
X73914285Y519048D02*
X73866666Y566667D01*
X73771428Y614286D01*
X73628571Y614286D01*
X73533333Y566667D01*
X73485714Y471429D01*
X73485714Y-52380D01*
X72676190Y471429D02*
X73009523Y471429D01*
X73009523Y-52380D02*
X73009523Y947620D01*
X72533333Y947620D01*
D14*
X68366666Y357143D02*
X68385714Y338096D01*
X68442857Y319048D01*
X68480952Y319048D01*
X68538095Y338096D01*
X68576190Y376191D01*
X68595238Y414286D01*
X68614285Y490477D01*
X68614285Y547620D01*
X68595238Y623810D01*
X68576190Y661905D01*
X68538095Y700000D01*
X68480952Y719048D01*
X68442857Y719048D01*
X68385714Y700000D01*
X68366666Y680953D01*
X68233333Y719048D02*
X67966666Y719048D01*
X68138095Y319048D01*
%TO.C,C5*%
D13*
X50428571Y4647620D02*
X51000000Y4647620D01*
X50714285Y4647620D02*
X50714285Y5647620D01*
X50809523Y5504762D01*
X50904761Y5409524D01*
X51000000Y5361905D01*
X49809523Y5647620D02*
X49714285Y5647620D01*
X49619047Y5600000D01*
X49571428Y5552381D01*
X49523809Y5457143D01*
X49476190Y5266667D01*
X49476190Y5028572D01*
X49523809Y4838096D01*
X49571428Y4742858D01*
X49619047Y4695239D01*
X49714285Y4647620D01*
X49809523Y4647620D01*
X49904761Y4695239D01*
X49952380Y4742858D01*
X50000000Y4838096D01*
X50047619Y5028572D01*
X50047619Y5266667D01*
X50000000Y5457143D01*
X49952380Y5552381D01*
X49904761Y5600000D01*
X49809523Y5647620D01*
X48619047Y5314286D02*
X48619047Y4647620D01*
X49047619Y5314286D02*
X49047619Y4790477D01*
X49000000Y4695239D01*
X48904761Y4647620D01*
X48761904Y4647620D01*
X48666666Y4695239D01*
X48619047Y4742858D01*
X48285714Y5314286D02*
X47904761Y5314286D01*
X48142857Y4647620D02*
X48142857Y5504762D01*
X48095238Y5600000D01*
X48000000Y5647620D01*
X47904761Y5647620D01*
D17*
X49633333Y6714286D02*
X49671428Y6676191D01*
X49785714Y6638096D01*
X49861904Y6638096D01*
X49976190Y6676191D01*
X50052380Y6752381D01*
X50090476Y6828572D01*
X50128571Y6980953D01*
X50128571Y7095239D01*
X50090476Y7247620D01*
X50052380Y7323810D01*
X49976190Y7400000D01*
X49861904Y7438096D01*
X49785714Y7438096D01*
X49671428Y7400000D01*
X49633333Y7361905D01*
X48909523Y7438096D02*
X49290476Y7438096D01*
X49328571Y7057143D01*
X49290476Y7095239D01*
X49214285Y7133334D01*
X49023809Y7133334D01*
X48947619Y7095239D01*
X48909523Y7057143D01*
X48871428Y6980953D01*
X48871428Y6790477D01*
X48909523Y6714286D01*
X48947619Y6676191D01*
X49023809Y6638096D01*
X49214285Y6638096D01*
X49290476Y6676191D01*
X49328571Y6714286D01*
%TO.C,C4*%
D13*
X46515238Y13827620D02*
X47086666Y13827620D01*
X46800952Y13827620D02*
X46800952Y14827620D01*
X46896190Y14684762D01*
X46991428Y14589524D01*
X47086666Y14541905D01*
X45658095Y14494286D02*
X45658095Y13827620D01*
X46086666Y14494286D02*
X46086666Y13970477D01*
X46039047Y13875239D01*
X45943809Y13827620D01*
X45800952Y13827620D01*
X45705714Y13875239D01*
X45658095Y13922858D01*
X44848571Y14351429D02*
X45181904Y14351429D01*
X45181904Y13827620D02*
X45181904Y14827620D01*
X44705714Y14827620D01*
D14*
X45986666Y15567143D02*
X46005714Y15548096D01*
X46062857Y15529048D01*
X46100952Y15529048D01*
X46158095Y15548096D01*
X46196190Y15586191D01*
X46215238Y15624286D01*
X46234285Y15700477D01*
X46234285Y15757620D01*
X46215238Y15833810D01*
X46196190Y15871905D01*
X46158095Y15910000D01*
X46100952Y15929048D01*
X46062857Y15929048D01*
X46005714Y15910000D01*
X45986666Y15890953D01*
X45643809Y15795715D02*
X45643809Y15529048D01*
X45739047Y15948096D02*
X45834285Y15662381D01*
X45586666Y15662381D01*
%TO.C,C3*%
D13*
X49895238Y10347620D02*
X50466666Y10347620D01*
X50180952Y10347620D02*
X50180952Y11347620D01*
X50276190Y11204762D01*
X50371428Y11109524D01*
X50466666Y11061905D01*
X49038095Y11014286D02*
X49038095Y10347620D01*
X49466666Y11014286D02*
X49466666Y10490477D01*
X49419047Y10395239D01*
X49323809Y10347620D01*
X49180952Y10347620D01*
X49085714Y10395239D01*
X49038095Y10442858D01*
X48228571Y10871429D02*
X48561904Y10871429D01*
X48561904Y10347620D02*
X48561904Y11347620D01*
X48085714Y11347620D01*
D14*
X49366666Y9057143D02*
X49385714Y9038096D01*
X49442857Y9019048D01*
X49480952Y9019048D01*
X49538095Y9038096D01*
X49576190Y9076191D01*
X49595238Y9114286D01*
X49614285Y9190477D01*
X49614285Y9247620D01*
X49595238Y9323810D01*
X49576190Y9361905D01*
X49538095Y9400000D01*
X49480952Y9419048D01*
X49442857Y9419048D01*
X49385714Y9400000D01*
X49366666Y9380953D01*
X49233333Y9419048D02*
X48985714Y9419048D01*
X49119047Y9266667D01*
X49061904Y9266667D01*
X49023809Y9247620D01*
X49004761Y9228572D01*
X48985714Y9190477D01*
X48985714Y9095239D01*
X49004761Y9057143D01*
X49023809Y9038096D01*
X49061904Y9019048D01*
X49176190Y9019048D01*
X49214285Y9038096D01*
X49233333Y9057143D01*
%TO.C,C2*%
D13*
X86717619Y54017620D02*
X87289047Y54017620D01*
X87003333Y54017620D02*
X87003333Y55017620D01*
X87098571Y54874762D01*
X87193809Y54779524D01*
X87289047Y54731905D01*
X86098571Y55017620D02*
X86003333Y55017620D01*
X85908095Y54970000D01*
X85860476Y54922381D01*
X85812857Y54827143D01*
X85765238Y54636667D01*
X85765238Y54398572D01*
X85812857Y54208096D01*
X85860476Y54112858D01*
X85908095Y54065239D01*
X86003333Y54017620D01*
X86098571Y54017620D01*
X86193809Y54065239D01*
X86241428Y54112858D01*
X86289047Y54208096D01*
X86336666Y54398572D01*
X86336666Y54636667D01*
X86289047Y54827143D01*
X86241428Y54922381D01*
X86193809Y54970000D01*
X86098571Y55017620D01*
X85146190Y55017620D02*
X85050952Y55017620D01*
X84955714Y54970000D01*
X84908095Y54922381D01*
X84860476Y54827143D01*
X84812857Y54636667D01*
X84812857Y54398572D01*
X84860476Y54208096D01*
X84908095Y54112858D01*
X84955714Y54065239D01*
X85050952Y54017620D01*
X85146190Y54017620D01*
X85241428Y54065239D01*
X85289047Y54112858D01*
X85336666Y54208096D01*
X85384285Y54398572D01*
X85384285Y54636667D01*
X85336666Y54827143D01*
X85289047Y54922381D01*
X85241428Y54970000D01*
X85146190Y55017620D01*
X84384285Y54684286D02*
X84384285Y54017620D01*
X84384285Y54589048D02*
X84336666Y54636667D01*
X84241428Y54684286D01*
X84098571Y54684286D01*
X84003333Y54636667D01*
X83955714Y54541429D01*
X83955714Y54017620D01*
X83146190Y54541429D02*
X83479523Y54541429D01*
X83479523Y54017620D02*
X83479523Y55017620D01*
X83003333Y55017620D01*
D14*
X80766666Y54457143D02*
X80785714Y54438096D01*
X80842857Y54419048D01*
X80880952Y54419048D01*
X80938095Y54438096D01*
X80976190Y54476191D01*
X80995238Y54514286D01*
X81014285Y54590477D01*
X81014285Y54647620D01*
X80995238Y54723810D01*
X80976190Y54761905D01*
X80938095Y54800000D01*
X80880952Y54819048D01*
X80842857Y54819048D01*
X80785714Y54800000D01*
X80766666Y54780953D01*
X80614285Y54780953D02*
X80595238Y54800000D01*
X80557142Y54819048D01*
X80461904Y54819048D01*
X80423809Y54800000D01*
X80404761Y54780953D01*
X80385714Y54742858D01*
X80385714Y54704762D01*
X80404761Y54647620D01*
X80633333Y54419048D01*
X80385714Y54419048D01*
%TO.C,C1*%
D13*
X82247619Y53777620D02*
X82819047Y53777620D01*
X82533333Y53777620D02*
X82533333Y54777620D01*
X82628571Y54634762D01*
X82723809Y54539524D01*
X82819047Y54491905D01*
X81628571Y54777620D02*
X81533333Y54777620D01*
X81438095Y54730000D01*
X81390476Y54682381D01*
X81342857Y54587143D01*
X81295238Y54396667D01*
X81295238Y54158572D01*
X81342857Y53968096D01*
X81390476Y53872858D01*
X81438095Y53825239D01*
X81533333Y53777620D01*
X81628571Y53777620D01*
X81723809Y53825239D01*
X81771428Y53872858D01*
X81819047Y53968096D01*
X81866666Y54158572D01*
X81866666Y54396667D01*
X81819047Y54587143D01*
X81771428Y54682381D01*
X81723809Y54730000D01*
X81628571Y54777620D01*
X80676190Y54777620D02*
X80580952Y54777620D01*
X80485714Y54730000D01*
X80438095Y54682381D01*
X80390476Y54587143D01*
X80342857Y54396667D01*
X80342857Y54158572D01*
X80390476Y53968096D01*
X80438095Y53872858D01*
X80485714Y53825239D01*
X80580952Y53777620D01*
X80676190Y53777620D01*
X80771428Y53825239D01*
X80819047Y53872858D01*
X80866666Y53968096D01*
X80914285Y54158572D01*
X80914285Y54396667D01*
X80866666Y54587143D01*
X80819047Y54682381D01*
X80771428Y54730000D01*
X80676190Y54777620D01*
X79914285Y54444286D02*
X79914285Y53777620D01*
X79914285Y54349048D02*
X79866666Y54396667D01*
X79771428Y54444286D01*
X79628571Y54444286D01*
X79533333Y54396667D01*
X79485714Y54301429D01*
X79485714Y53777620D01*
X78676190Y54301429D02*
X79009523Y54301429D01*
X79009523Y53777620D02*
X79009523Y54777620D01*
X78533333Y54777620D01*
D14*
X80766666Y52657143D02*
X80785714Y52638096D01*
X80842857Y52619048D01*
X80880952Y52619048D01*
X80938095Y52638096D01*
X80976190Y52676191D01*
X80995238Y52714286D01*
X81014285Y52790477D01*
X81014285Y52847620D01*
X80995238Y52923810D01*
X80976190Y52961905D01*
X80938095Y53000000D01*
X80880952Y53019048D01*
X80842857Y53019048D01*
X80785714Y53000000D01*
X80766666Y52980953D01*
X80385714Y52619048D02*
X80614285Y52619048D01*
X80500000Y52619048D02*
X80500000Y53019048D01*
X80538095Y52961905D01*
X80576190Y52923810D01*
X80614285Y52904762D01*
%TD*%
M02*
