%TF.GenerationSoftware,KiCad,Pcbnew,(5.1.6-0-10_14)*%
%TF.CreationDate,2021-01-05T22:04:13+01:00*%
%TF.ProjectId,ecsc21-badge,65637363-3231-42d6-9261-6467652e6b69,rev?*%
%TF.SameCoordinates,PX5c07920PY8b3c880*%
%TF.FileFunction,Paste,Bot*%
%TF.FilePolarity,Positive*%
%FSLAX46Y46*%
G04 Gerber Fmt 4.6, Leading zero omitted, Abs format (unit mm)*
G04 Created by KiCad (PCBNEW (5.1.6-0-10_14)) date 2021-01-05 22:04:13*
%MOMM*%
%LPD*%
G01*
G04 APERTURE LIST*
%ADD10C,0.010000*%
%ADD11R,0.500000X1.270000*%
%ADD12R,2.300000X3.100000*%
%ADD13R,0.300000X1.100000*%
%ADD14R,0.900000X2.000000*%
%ADD15R,0.900000X0.800000*%
%ADD16R,1.000000X1.550000*%
%ADD17C,0.100000*%
%ADD18R,1.300000X0.900000*%
%ADD19R,1.800000X1.450000*%
%ADD20R,1.800000X1.200000*%
%ADD21R,0.300000X1.160000*%
%ADD22R,0.600000X1.160000*%
%ADD23R,0.800000X0.900000*%
%ADD24R,3.000000X1.000000*%
%ADD25R,1.800000X2.500000*%
G04 APERTURE END LIST*
D10*
%TO.C,U2*%
G36*
X72540000Y67270000D02*
G01*
X72540000Y68600000D01*
X71210000Y68600000D01*
X71210000Y67270000D01*
X72540000Y67270000D01*
G37*
X72540000Y67270000D02*
X72540000Y68600000D01*
X71210000Y68600000D01*
X71210000Y67270000D01*
X72540000Y67270000D01*
G36*
X72540000Y65435000D02*
G01*
X72540000Y66765000D01*
X71210000Y66765000D01*
X71210000Y65435000D01*
X72540000Y65435000D01*
G37*
X72540000Y65435000D02*
X72540000Y66765000D01*
X71210000Y66765000D01*
X71210000Y65435000D01*
X72540000Y65435000D01*
G36*
X72540000Y63600000D02*
G01*
X72540000Y64930000D01*
X71210000Y64930000D01*
X71210000Y63600000D01*
X72540000Y63600000D01*
G37*
X72540000Y63600000D02*
X72540000Y64930000D01*
X71210000Y64930000D01*
X71210000Y63600000D01*
X72540000Y63600000D01*
G36*
X76210000Y63600000D02*
G01*
X76210000Y64930000D01*
X74880000Y64930000D01*
X74880000Y63600000D01*
X76210000Y63600000D01*
G37*
X76210000Y63600000D02*
X76210000Y64930000D01*
X74880000Y64930000D01*
X74880000Y63600000D01*
X76210000Y63600000D01*
G36*
X76210000Y65435000D02*
G01*
X76210000Y66765000D01*
X74880000Y66765000D01*
X74880000Y65435000D01*
X76210000Y65435000D01*
G37*
X76210000Y65435000D02*
X76210000Y66765000D01*
X74880000Y66765000D01*
X74880000Y65435000D01*
X76210000Y65435000D01*
G36*
X76210000Y67270000D02*
G01*
X76210000Y68600000D01*
X74880000Y68600000D01*
X74880000Y67270000D01*
X76210000Y67270000D01*
G37*
X76210000Y67270000D02*
X76210000Y68600000D01*
X74880000Y68600000D01*
X74880000Y67270000D01*
X76210000Y67270000D01*
G36*
X74375000Y67270000D02*
G01*
X74375000Y68600000D01*
X73045000Y68600000D01*
X73045000Y67270000D01*
X74375000Y67270000D01*
G37*
X74375000Y67270000D02*
X74375000Y68600000D01*
X73045000Y68600000D01*
X73045000Y67270000D01*
X74375000Y67270000D01*
G36*
X74375000Y63600000D02*
G01*
X74375000Y64930000D01*
X73045000Y64930000D01*
X73045000Y63600000D01*
X74375000Y63600000D01*
G37*
X74375000Y63600000D02*
X74375000Y64930000D01*
X73045000Y64930000D01*
X73045000Y63600000D01*
X74375000Y63600000D01*
G36*
X74375000Y65435000D02*
G01*
X74375000Y66765000D01*
X73045000Y66765000D01*
X73045000Y65435000D01*
X74375000Y65435000D01*
G37*
X74375000Y65435000D02*
X74375000Y66765000D01*
X73045000Y66765000D01*
X73045000Y65435000D01*
X74375000Y65435000D01*
%TD*%
%TO.C,D6*%
G36*
G01*
X41350000Y-1943750D02*
X41350000Y-2456250D01*
G75*
G02*
X41131250Y-2675000I-218750J0D01*
G01*
X40693750Y-2675000D01*
G75*
G02*
X40475000Y-2456250I0J218750D01*
G01*
X40475000Y-1943750D01*
G75*
G02*
X40693750Y-1725000I218750J0D01*
G01*
X41131250Y-1725000D01*
G75*
G02*
X41350000Y-1943750I0J-218750D01*
G01*
G37*
G36*
G01*
X42925000Y-1943750D02*
X42925000Y-2456250D01*
G75*
G02*
X42706250Y-2675000I-218750J0D01*
G01*
X42268750Y-2675000D01*
G75*
G02*
X42050000Y-2456250I0J218750D01*
G01*
X42050000Y-1943750D01*
G75*
G02*
X42268750Y-1725000I218750J0D01*
G01*
X42706250Y-1725000D01*
G75*
G02*
X42925000Y-1943750I0J-218750D01*
G01*
G37*
%TD*%
%TO.C,D5*%
G36*
G01*
X42037500Y9743750D02*
X42037500Y10256250D01*
G75*
G02*
X42256250Y10475000I218750J0D01*
G01*
X42693750Y10475000D01*
G75*
G02*
X42912500Y10256250I0J-218750D01*
G01*
X42912500Y9743750D01*
G75*
G02*
X42693750Y9525000I-218750J0D01*
G01*
X42256250Y9525000D01*
G75*
G02*
X42037500Y9743750I0J218750D01*
G01*
G37*
G36*
G01*
X40462500Y9743750D02*
X40462500Y10256250D01*
G75*
G02*
X40681250Y10475000I218750J0D01*
G01*
X41118750Y10475000D01*
G75*
G02*
X41337500Y10256250I0J-218750D01*
G01*
X41337500Y9743750D01*
G75*
G02*
X41118750Y9525000I-218750J0D01*
G01*
X40681250Y9525000D01*
G75*
G02*
X40462500Y9743750I0J218750D01*
G01*
G37*
%TD*%
D11*
%TO.C,J5*%
X65405000Y95800000D03*
X64135000Y95800000D03*
X62865000Y95800000D03*
X61595000Y95800000D03*
%TD*%
D12*
%TO.C,J4*%
X69670000Y44550000D03*
X46830000Y44550000D03*
D13*
X68000000Y42850000D03*
X67500000Y42850000D03*
X67000000Y42850000D03*
X66500000Y42850000D03*
X66000000Y42850000D03*
X65500000Y42850000D03*
X65000000Y42850000D03*
X64500000Y42850000D03*
X64000000Y42850000D03*
X63500000Y42850000D03*
X63000000Y42850000D03*
X62500000Y42850000D03*
X62000000Y42850000D03*
X61500000Y42850000D03*
X61000000Y42850000D03*
X60500000Y42850000D03*
X60000000Y42850000D03*
X59500000Y42850000D03*
X59000000Y42850000D03*
X58500000Y42850000D03*
X58000000Y42850000D03*
X57500000Y42850000D03*
X57000000Y42850000D03*
X56500000Y42850000D03*
X56000000Y42850000D03*
X55500000Y42850000D03*
X55000000Y42850000D03*
X54500000Y42850000D03*
X54000000Y42850000D03*
X53500000Y42850000D03*
X53000000Y42850000D03*
X52500000Y42850000D03*
X52000000Y42850000D03*
X51500000Y42850000D03*
X51000000Y42850000D03*
X50500000Y42850000D03*
X50000000Y42850000D03*
X49500000Y42850000D03*
X49000000Y42850000D03*
X48500000Y42850000D03*
%TD*%
%TO.C,R29*%
G36*
G01*
X73043750Y93025000D02*
X73556250Y93025000D01*
G75*
G02*
X73775000Y92806250I0J-218750D01*
G01*
X73775000Y92368750D01*
G75*
G02*
X73556250Y92150000I-218750J0D01*
G01*
X73043750Y92150000D01*
G75*
G02*
X72825000Y92368750I0J218750D01*
G01*
X72825000Y92806250D01*
G75*
G02*
X73043750Y93025000I218750J0D01*
G01*
G37*
G36*
G01*
X73043750Y91450000D02*
X73556250Y91450000D01*
G75*
G02*
X73775000Y91231250I0J-218750D01*
G01*
X73775000Y90793750D01*
G75*
G02*
X73556250Y90575000I-218750J0D01*
G01*
X73043750Y90575000D01*
G75*
G02*
X72825000Y90793750I0J218750D01*
G01*
X72825000Y91231250D01*
G75*
G02*
X73043750Y91450000I218750J0D01*
G01*
G37*
%TD*%
%TO.C,R28*%
G36*
G01*
X58156250Y96375000D02*
X57643750Y96375000D01*
G75*
G02*
X57425000Y96593750I0J218750D01*
G01*
X57425000Y97031250D01*
G75*
G02*
X57643750Y97250000I218750J0D01*
G01*
X58156250Y97250000D01*
G75*
G02*
X58375000Y97031250I0J-218750D01*
G01*
X58375000Y96593750D01*
G75*
G02*
X58156250Y96375000I-218750J0D01*
G01*
G37*
G36*
G01*
X58156250Y97950000D02*
X57643750Y97950000D01*
G75*
G02*
X57425000Y98168750I0J218750D01*
G01*
X57425000Y98606250D01*
G75*
G02*
X57643750Y98825000I218750J0D01*
G01*
X58156250Y98825000D01*
G75*
G02*
X58375000Y98606250I0J-218750D01*
G01*
X58375000Y98168750D01*
G75*
G02*
X58156250Y97950000I-218750J0D01*
G01*
G37*
%TD*%
%TO.C,R27*%
G36*
G01*
X36150000Y-3543750D02*
X36150000Y-4056250D01*
G75*
G02*
X35931250Y-4275000I-218750J0D01*
G01*
X35493750Y-4275000D01*
G75*
G02*
X35275000Y-4056250I0J218750D01*
G01*
X35275000Y-3543750D01*
G75*
G02*
X35493750Y-3325000I218750J0D01*
G01*
X35931250Y-3325000D01*
G75*
G02*
X36150000Y-3543750I0J-218750D01*
G01*
G37*
G36*
G01*
X37725000Y-3543750D02*
X37725000Y-4056250D01*
G75*
G02*
X37506250Y-4275000I-218750J0D01*
G01*
X37068750Y-4275000D01*
G75*
G02*
X36850000Y-4056250I0J218750D01*
G01*
X36850000Y-3543750D01*
G75*
G02*
X37068750Y-3325000I218750J0D01*
G01*
X37506250Y-3325000D01*
G75*
G02*
X37725000Y-3543750I0J-218750D01*
G01*
G37*
%TD*%
%TO.C,R12*%
G36*
G01*
X35043750Y6250000D02*
X35556250Y6250000D01*
G75*
G02*
X35775000Y6031250I0J-218750D01*
G01*
X35775000Y5593750D01*
G75*
G02*
X35556250Y5375000I-218750J0D01*
G01*
X35043750Y5375000D01*
G75*
G02*
X34825000Y5593750I0J218750D01*
G01*
X34825000Y6031250D01*
G75*
G02*
X35043750Y6250000I218750J0D01*
G01*
G37*
G36*
G01*
X35043750Y7825000D02*
X35556250Y7825000D01*
G75*
G02*
X35775000Y7606250I0J-218750D01*
G01*
X35775000Y7168750D01*
G75*
G02*
X35556250Y6950000I-218750J0D01*
G01*
X35043750Y6950000D01*
G75*
G02*
X34825000Y7168750I0J218750D01*
G01*
X34825000Y7606250D01*
G75*
G02*
X35043750Y7825000I218750J0D01*
G01*
G37*
%TD*%
%TO.C,R21*%
G36*
G01*
X57743750Y95025000D02*
X58256250Y95025000D01*
G75*
G02*
X58475000Y94806250I0J-218750D01*
G01*
X58475000Y94368750D01*
G75*
G02*
X58256250Y94150000I-218750J0D01*
G01*
X57743750Y94150000D01*
G75*
G02*
X57525000Y94368750I0J218750D01*
G01*
X57525000Y94806250D01*
G75*
G02*
X57743750Y95025000I218750J0D01*
G01*
G37*
G36*
G01*
X57743750Y93450000D02*
X58256250Y93450000D01*
G75*
G02*
X58475000Y93231250I0J-218750D01*
G01*
X58475000Y92793750D01*
G75*
G02*
X58256250Y92575000I-218750J0D01*
G01*
X57743750Y92575000D01*
G75*
G02*
X57525000Y92793750I0J218750D01*
G01*
X57525000Y93231250D01*
G75*
G02*
X57743750Y93450000I218750J0D01*
G01*
G37*
%TD*%
D14*
%TO.C,U2*%
X81210000Y75600000D03*
X79940000Y75600000D03*
X78670000Y75600000D03*
X77400000Y75600000D03*
X76130000Y75600000D03*
X74860000Y75600000D03*
X73590000Y75600000D03*
X72320000Y75600000D03*
X71050000Y75600000D03*
X69780000Y75600000D03*
X68510000Y75600000D03*
X67240000Y75600000D03*
X65970000Y75600000D03*
X64700000Y75600000D03*
X63430000Y75600000D03*
X62160000Y75600000D03*
X60890000Y75600000D03*
X59620000Y75600000D03*
X58350000Y75600000D03*
X58350000Y58600000D03*
X59620000Y58600000D03*
X60890000Y58600000D03*
X62160000Y58600000D03*
X63430000Y58600000D03*
X64700000Y58600000D03*
X65970000Y58600000D03*
X67240000Y58600000D03*
X68510000Y58600000D03*
X69780000Y58600000D03*
X71050000Y58600000D03*
X72320000Y58600000D03*
X73590000Y58600000D03*
X74860000Y58600000D03*
X76130000Y58600000D03*
X77400000Y58600000D03*
X78670000Y58600000D03*
X79940000Y58600000D03*
X81210000Y58600000D03*
%TD*%
%TO.C,R26*%
G36*
G01*
X34860000Y3828750D02*
X34860000Y4341250D01*
G75*
G02*
X35078750Y4560000I218750J0D01*
G01*
X35516250Y4560000D01*
G75*
G02*
X35735000Y4341250I0J-218750D01*
G01*
X35735000Y3828750D01*
G75*
G02*
X35516250Y3610000I-218750J0D01*
G01*
X35078750Y3610000D01*
G75*
G02*
X34860000Y3828750I0J218750D01*
G01*
G37*
G36*
G01*
X33285000Y3828750D02*
X33285000Y4341250D01*
G75*
G02*
X33503750Y4560000I218750J0D01*
G01*
X33941250Y4560000D01*
G75*
G02*
X34160000Y4341250I0J-218750D01*
G01*
X34160000Y3828750D01*
G75*
G02*
X33941250Y3610000I-218750J0D01*
G01*
X33503750Y3610000D01*
G75*
G02*
X33285000Y3828750I0J218750D01*
G01*
G37*
%TD*%
D15*
%TO.C,Q1*%
X35730000Y555000D03*
X33730000Y1505000D03*
X33730000Y-395000D03*
%TD*%
%TO.C,D4*%
G36*
G01*
X76275000Y98175000D02*
X76275000Y96925000D01*
G75*
G02*
X76025000Y96675000I-250000J0D01*
G01*
X75275000Y96675000D01*
G75*
G02*
X75025000Y96925000I0J250000D01*
G01*
X75025000Y98175000D01*
G75*
G02*
X75275000Y98425000I250000J0D01*
G01*
X76025000Y98425000D01*
G75*
G02*
X76275000Y98175000I0J-250000D01*
G01*
G37*
G36*
G01*
X73475000Y98175000D02*
X73475000Y96925000D01*
G75*
G02*
X73225000Y96675000I-250000J0D01*
G01*
X72475000Y96675000D01*
G75*
G02*
X72225000Y96925000I0J250000D01*
G01*
X72225000Y98175000D01*
G75*
G02*
X72475000Y98425000I250000J0D01*
G01*
X73225000Y98425000D01*
G75*
G02*
X73475000Y98175000I0J-250000D01*
G01*
G37*
%TD*%
%TO.C,R25*%
G36*
G01*
X75475000Y95556250D02*
X75475000Y95043750D01*
G75*
G02*
X75256250Y94825000I-218750J0D01*
G01*
X74818750Y94825000D01*
G75*
G02*
X74600000Y95043750I0J218750D01*
G01*
X74600000Y95556250D01*
G75*
G02*
X74818750Y95775000I218750J0D01*
G01*
X75256250Y95775000D01*
G75*
G02*
X75475000Y95556250I0J-218750D01*
G01*
G37*
G36*
G01*
X73900000Y95556250D02*
X73900000Y95043750D01*
G75*
G02*
X73681250Y94825000I-218750J0D01*
G01*
X73243750Y94825000D01*
G75*
G02*
X73025000Y95043750I0J218750D01*
G01*
X73025000Y95556250D01*
G75*
G02*
X73243750Y95775000I218750J0D01*
G01*
X73681250Y95775000D01*
G75*
G02*
X73900000Y95556250I0J-218750D01*
G01*
G37*
%TD*%
%TO.C,R24*%
G36*
G01*
X44643750Y98825000D02*
X45156250Y98825000D01*
G75*
G02*
X45375000Y98606250I0J-218750D01*
G01*
X45375000Y98168750D01*
G75*
G02*
X45156250Y97950000I-218750J0D01*
G01*
X44643750Y97950000D01*
G75*
G02*
X44425000Y98168750I0J218750D01*
G01*
X44425000Y98606250D01*
G75*
G02*
X44643750Y98825000I218750J0D01*
G01*
G37*
G36*
G01*
X44643750Y97250000D02*
X45156250Y97250000D01*
G75*
G02*
X45375000Y97031250I0J-218750D01*
G01*
X45375000Y96593750D01*
G75*
G02*
X45156250Y96375000I-218750J0D01*
G01*
X44643750Y96375000D01*
G75*
G02*
X44425000Y96593750I0J218750D01*
G01*
X44425000Y97031250D01*
G75*
G02*
X44643750Y97250000I218750J0D01*
G01*
G37*
%TD*%
%TO.C,C11*%
G36*
G01*
X60975000Y92425000D02*
X60975000Y93675000D01*
G75*
G02*
X61225000Y93925000I250000J0D01*
G01*
X61975000Y93925000D01*
G75*
G02*
X62225000Y93675000I0J-250000D01*
G01*
X62225000Y92425000D01*
G75*
G02*
X61975000Y92175000I-250000J0D01*
G01*
X61225000Y92175000D01*
G75*
G02*
X60975000Y92425000I0J250000D01*
G01*
G37*
G36*
G01*
X63775000Y92425000D02*
X63775000Y93675000D01*
G75*
G02*
X64025000Y93925000I250000J0D01*
G01*
X64775000Y93925000D01*
G75*
G02*
X65025000Y93675000I0J-250000D01*
G01*
X65025000Y92425000D01*
G75*
G02*
X64775000Y92175000I-250000J0D01*
G01*
X64025000Y92175000D01*
G75*
G02*
X63775000Y92425000I0J250000D01*
G01*
G37*
%TD*%
D16*
%TO.C,SW4*%
X26550000Y16750000D03*
X26550000Y22050000D03*
X24850000Y16750000D03*
X24850000Y22050000D03*
%TD*%
%TO.C,SW3*%
X26550000Y34750000D03*
X26550000Y40050000D03*
X24850000Y34750000D03*
X24850000Y40050000D03*
%TD*%
%TO.C,SW2*%
X26550000Y52750000D03*
X26550000Y58050000D03*
X24850000Y52750000D03*
X24850000Y58050000D03*
%TD*%
%TO.C,SW1*%
X26550000Y70950000D03*
X26550000Y76250000D03*
X24850000Y70950000D03*
X24850000Y76250000D03*
%TD*%
%TO.C,C6*%
G36*
G01*
X35325000Y40225000D02*
X36575000Y40225000D01*
G75*
G02*
X36825000Y39975000I0J-250000D01*
G01*
X36825000Y39225000D01*
G75*
G02*
X36575000Y38975000I-250000J0D01*
G01*
X35325000Y38975000D01*
G75*
G02*
X35075000Y39225000I0J250000D01*
G01*
X35075000Y39975000D01*
G75*
G02*
X35325000Y40225000I250000J0D01*
G01*
G37*
G36*
G01*
X35325000Y43025000D02*
X36575000Y43025000D01*
G75*
G02*
X36825000Y42775000I0J-250000D01*
G01*
X36825000Y42025000D01*
G75*
G02*
X36575000Y41775000I-250000J0D01*
G01*
X35325000Y41775000D01*
G75*
G02*
X35075000Y42025000I0J250000D01*
G01*
X35075000Y42775000D01*
G75*
G02*
X35325000Y43025000I250000J0D01*
G01*
G37*
%TD*%
%TO.C,R9*%
G36*
G01*
X49500000Y32556250D02*
X49500000Y32043750D01*
G75*
G02*
X49281250Y31825000I-218750J0D01*
G01*
X48843750Y31825000D01*
G75*
G02*
X48625000Y32043750I0J218750D01*
G01*
X48625000Y32556250D01*
G75*
G02*
X48843750Y32775000I218750J0D01*
G01*
X49281250Y32775000D01*
G75*
G02*
X49500000Y32556250I0J-218750D01*
G01*
G37*
G36*
G01*
X51075000Y32556250D02*
X51075000Y32043750D01*
G75*
G02*
X50856250Y31825000I-218750J0D01*
G01*
X50418750Y31825000D01*
G75*
G02*
X50200000Y32043750I0J218750D01*
G01*
X50200000Y32556250D01*
G75*
G02*
X50418750Y32775000I218750J0D01*
G01*
X50856250Y32775000D01*
G75*
G02*
X51075000Y32556250I0J-218750D01*
G01*
G37*
%TD*%
%TO.C,R6*%
G36*
G01*
X49500000Y34156250D02*
X49500000Y33643750D01*
G75*
G02*
X49281250Y33425000I-218750J0D01*
G01*
X48843750Y33425000D01*
G75*
G02*
X48625000Y33643750I0J218750D01*
G01*
X48625000Y34156250D01*
G75*
G02*
X48843750Y34375000I218750J0D01*
G01*
X49281250Y34375000D01*
G75*
G02*
X49500000Y34156250I0J-218750D01*
G01*
G37*
G36*
G01*
X51075000Y34156250D02*
X51075000Y33643750D01*
G75*
G02*
X50856250Y33425000I-218750J0D01*
G01*
X50418750Y33425000D01*
G75*
G02*
X50200000Y33643750I0J218750D01*
G01*
X50200000Y34156250D01*
G75*
G02*
X50418750Y34375000I218750J0D01*
G01*
X50856250Y34375000D01*
G75*
G02*
X51075000Y34156250I0J-218750D01*
G01*
G37*
%TD*%
%TO.C,R4*%
G36*
G01*
X49500000Y30956250D02*
X49500000Y30443750D01*
G75*
G02*
X49281250Y30225000I-218750J0D01*
G01*
X48843750Y30225000D01*
G75*
G02*
X48625000Y30443750I0J218750D01*
G01*
X48625000Y30956250D01*
G75*
G02*
X48843750Y31175000I218750J0D01*
G01*
X49281250Y31175000D01*
G75*
G02*
X49500000Y30956250I0J-218750D01*
G01*
G37*
G36*
G01*
X51075000Y30956250D02*
X51075000Y30443750D01*
G75*
G02*
X50856250Y30225000I-218750J0D01*
G01*
X50418750Y30225000D01*
G75*
G02*
X50200000Y30443750I0J218750D01*
G01*
X50200000Y30956250D01*
G75*
G02*
X50418750Y31175000I218750J0D01*
G01*
X50856250Y31175000D01*
G75*
G02*
X51075000Y30956250I0J-218750D01*
G01*
G37*
%TD*%
D17*
%TO.C,U4*%
G36*
X38570000Y44636500D02*
G01*
X41695000Y44636500D01*
X41695000Y44220000D01*
X43170000Y44220000D01*
X43170000Y43320000D01*
X41695000Y43320000D01*
X41695000Y42903500D01*
X38570000Y42903500D01*
X38570000Y44636500D01*
G37*
D18*
X42520000Y42270000D03*
X42520000Y45270000D03*
%TD*%
%TO.C,R1*%
G36*
G01*
X52869999Y33030000D02*
X53770001Y33030000D01*
G75*
G02*
X54020000Y32780001I0J-249999D01*
G01*
X54020000Y32129999D01*
G75*
G02*
X53770001Y31880000I-249999J0D01*
G01*
X52869999Y31880000D01*
G75*
G02*
X52620000Y32129999I0J249999D01*
G01*
X52620000Y32780001D01*
G75*
G02*
X52869999Y33030000I249999J0D01*
G01*
G37*
G36*
G01*
X52869999Y35080000D02*
X53770001Y35080000D01*
G75*
G02*
X54020000Y34830001I0J-249999D01*
G01*
X54020000Y34179999D01*
G75*
G02*
X53770001Y33930000I-249999J0D01*
G01*
X52869999Y33930000D01*
G75*
G02*
X52620000Y34179999I0J249999D01*
G01*
X52620000Y34830001D01*
G75*
G02*
X52869999Y35080000I249999J0D01*
G01*
G37*
%TD*%
%TO.C,C10*%
G36*
G01*
X39800000Y39243750D02*
X39800000Y39756250D01*
G75*
G02*
X40018750Y39975000I218750J0D01*
G01*
X40456250Y39975000D01*
G75*
G02*
X40675000Y39756250I0J-218750D01*
G01*
X40675000Y39243750D01*
G75*
G02*
X40456250Y39025000I-218750J0D01*
G01*
X40018750Y39025000D01*
G75*
G02*
X39800000Y39243750I0J218750D01*
G01*
G37*
G36*
G01*
X38225000Y39243750D02*
X38225000Y39756250D01*
G75*
G02*
X38443750Y39975000I218750J0D01*
G01*
X38881250Y39975000D01*
G75*
G02*
X39100000Y39756250I0J-218750D01*
G01*
X39100000Y39243750D01*
G75*
G02*
X38881250Y39025000I-218750J0D01*
G01*
X38443750Y39025000D01*
G75*
G02*
X38225000Y39243750I0J218750D01*
G01*
G37*
%TD*%
%TO.C,C9*%
G36*
G01*
X42800000Y39243750D02*
X42800000Y39756250D01*
G75*
G02*
X43018750Y39975000I218750J0D01*
G01*
X43456250Y39975000D01*
G75*
G02*
X43675000Y39756250I0J-218750D01*
G01*
X43675000Y39243750D01*
G75*
G02*
X43456250Y39025000I-218750J0D01*
G01*
X43018750Y39025000D01*
G75*
G02*
X42800000Y39243750I0J218750D01*
G01*
G37*
G36*
G01*
X41225000Y39243750D02*
X41225000Y39756250D01*
G75*
G02*
X41443750Y39975000I218750J0D01*
G01*
X41881250Y39975000D01*
G75*
G02*
X42100000Y39756250I0J-218750D01*
G01*
X42100000Y39243750D01*
G75*
G02*
X41881250Y39025000I-218750J0D01*
G01*
X41443750Y39025000D01*
G75*
G02*
X41225000Y39243750I0J218750D01*
G01*
G37*
%TD*%
D19*
%TO.C,J3*%
X62500000Y-320000D03*
X52400000Y-320000D03*
D20*
X62500000Y-4500000D03*
X52400000Y-4500000D03*
D21*
X58200000Y710000D03*
X57700000Y710000D03*
X57200000Y710000D03*
X59200000Y710000D03*
X58700000Y710000D03*
X56200000Y710000D03*
X56700000Y710000D03*
X55700000Y710000D03*
D22*
X59850000Y710000D03*
X59850000Y710000D03*
X60650000Y710000D03*
X60650000Y710000D03*
X55050000Y710000D03*
X54250000Y710000D03*
X55050000Y710000D03*
X54250000Y710000D03*
%TD*%
%TO.C,U3*%
G36*
G01*
X63245000Y11300000D02*
X62945000Y11300000D01*
G75*
G02*
X62795000Y11450000I0J150000D01*
G01*
X62795000Y13100000D01*
G75*
G02*
X62945000Y13250000I150000J0D01*
G01*
X63245000Y13250000D01*
G75*
G02*
X63395000Y13100000I0J-150000D01*
G01*
X63395000Y11450000D01*
G75*
G02*
X63245000Y11300000I-150000J0D01*
G01*
G37*
G36*
G01*
X61975000Y11300000D02*
X61675000Y11300000D01*
G75*
G02*
X61525000Y11450000I0J150000D01*
G01*
X61525000Y13100000D01*
G75*
G02*
X61675000Y13250000I150000J0D01*
G01*
X61975000Y13250000D01*
G75*
G02*
X62125000Y13100000I0J-150000D01*
G01*
X62125000Y11450000D01*
G75*
G02*
X61975000Y11300000I-150000J0D01*
G01*
G37*
G36*
G01*
X60705000Y11300000D02*
X60405000Y11300000D01*
G75*
G02*
X60255000Y11450000I0J150000D01*
G01*
X60255000Y13100000D01*
G75*
G02*
X60405000Y13250000I150000J0D01*
G01*
X60705000Y13250000D01*
G75*
G02*
X60855000Y13100000I0J-150000D01*
G01*
X60855000Y11450000D01*
G75*
G02*
X60705000Y11300000I-150000J0D01*
G01*
G37*
G36*
G01*
X59435000Y11300000D02*
X59135000Y11300000D01*
G75*
G02*
X58985000Y11450000I0J150000D01*
G01*
X58985000Y13100000D01*
G75*
G02*
X59135000Y13250000I150000J0D01*
G01*
X59435000Y13250000D01*
G75*
G02*
X59585000Y13100000I0J-150000D01*
G01*
X59585000Y11450000D01*
G75*
G02*
X59435000Y11300000I-150000J0D01*
G01*
G37*
G36*
G01*
X58165000Y11300000D02*
X57865000Y11300000D01*
G75*
G02*
X57715000Y11450000I0J150000D01*
G01*
X57715000Y13100000D01*
G75*
G02*
X57865000Y13250000I150000J0D01*
G01*
X58165000Y13250000D01*
G75*
G02*
X58315000Y13100000I0J-150000D01*
G01*
X58315000Y11450000D01*
G75*
G02*
X58165000Y11300000I-150000J0D01*
G01*
G37*
G36*
G01*
X56895000Y11300000D02*
X56595000Y11300000D01*
G75*
G02*
X56445000Y11450000I0J150000D01*
G01*
X56445000Y13100000D01*
G75*
G02*
X56595000Y13250000I150000J0D01*
G01*
X56895000Y13250000D01*
G75*
G02*
X57045000Y13100000I0J-150000D01*
G01*
X57045000Y11450000D01*
G75*
G02*
X56895000Y11300000I-150000J0D01*
G01*
G37*
G36*
G01*
X55625000Y11300000D02*
X55325000Y11300000D01*
G75*
G02*
X55175000Y11450000I0J150000D01*
G01*
X55175000Y13100000D01*
G75*
G02*
X55325000Y13250000I150000J0D01*
G01*
X55625000Y13250000D01*
G75*
G02*
X55775000Y13100000I0J-150000D01*
G01*
X55775000Y11450000D01*
G75*
G02*
X55625000Y11300000I-150000J0D01*
G01*
G37*
G36*
G01*
X54355000Y11300000D02*
X54055000Y11300000D01*
G75*
G02*
X53905000Y11450000I0J150000D01*
G01*
X53905000Y13100000D01*
G75*
G02*
X54055000Y13250000I150000J0D01*
G01*
X54355000Y13250000D01*
G75*
G02*
X54505000Y13100000I0J-150000D01*
G01*
X54505000Y11450000D01*
G75*
G02*
X54355000Y11300000I-150000J0D01*
G01*
G37*
G36*
G01*
X54355000Y6350000D02*
X54055000Y6350000D01*
G75*
G02*
X53905000Y6500000I0J150000D01*
G01*
X53905000Y8150000D01*
G75*
G02*
X54055000Y8300000I150000J0D01*
G01*
X54355000Y8300000D01*
G75*
G02*
X54505000Y8150000I0J-150000D01*
G01*
X54505000Y6500000D01*
G75*
G02*
X54355000Y6350000I-150000J0D01*
G01*
G37*
G36*
G01*
X55625000Y6350000D02*
X55325000Y6350000D01*
G75*
G02*
X55175000Y6500000I0J150000D01*
G01*
X55175000Y8150000D01*
G75*
G02*
X55325000Y8300000I150000J0D01*
G01*
X55625000Y8300000D01*
G75*
G02*
X55775000Y8150000I0J-150000D01*
G01*
X55775000Y6500000D01*
G75*
G02*
X55625000Y6350000I-150000J0D01*
G01*
G37*
G36*
G01*
X56895000Y6350000D02*
X56595000Y6350000D01*
G75*
G02*
X56445000Y6500000I0J150000D01*
G01*
X56445000Y8150000D01*
G75*
G02*
X56595000Y8300000I150000J0D01*
G01*
X56895000Y8300000D01*
G75*
G02*
X57045000Y8150000I0J-150000D01*
G01*
X57045000Y6500000D01*
G75*
G02*
X56895000Y6350000I-150000J0D01*
G01*
G37*
G36*
G01*
X58165000Y6350000D02*
X57865000Y6350000D01*
G75*
G02*
X57715000Y6500000I0J150000D01*
G01*
X57715000Y8150000D01*
G75*
G02*
X57865000Y8300000I150000J0D01*
G01*
X58165000Y8300000D01*
G75*
G02*
X58315000Y8150000I0J-150000D01*
G01*
X58315000Y6500000D01*
G75*
G02*
X58165000Y6350000I-150000J0D01*
G01*
G37*
G36*
G01*
X59435000Y6350000D02*
X59135000Y6350000D01*
G75*
G02*
X58985000Y6500000I0J150000D01*
G01*
X58985000Y8150000D01*
G75*
G02*
X59135000Y8300000I150000J0D01*
G01*
X59435000Y8300000D01*
G75*
G02*
X59585000Y8150000I0J-150000D01*
G01*
X59585000Y6500000D01*
G75*
G02*
X59435000Y6350000I-150000J0D01*
G01*
G37*
G36*
G01*
X60705000Y6350000D02*
X60405000Y6350000D01*
G75*
G02*
X60255000Y6500000I0J150000D01*
G01*
X60255000Y8150000D01*
G75*
G02*
X60405000Y8300000I150000J0D01*
G01*
X60705000Y8300000D01*
G75*
G02*
X60855000Y8150000I0J-150000D01*
G01*
X60855000Y6500000D01*
G75*
G02*
X60705000Y6350000I-150000J0D01*
G01*
G37*
G36*
G01*
X61975000Y6350000D02*
X61675000Y6350000D01*
G75*
G02*
X61525000Y6500000I0J150000D01*
G01*
X61525000Y8150000D01*
G75*
G02*
X61675000Y8300000I150000J0D01*
G01*
X61975000Y8300000D01*
G75*
G02*
X62125000Y8150000I0J-150000D01*
G01*
X62125000Y6500000D01*
G75*
G02*
X61975000Y6350000I-150000J0D01*
G01*
G37*
G36*
G01*
X63245000Y6350000D02*
X62945000Y6350000D01*
G75*
G02*
X62795000Y6500000I0J150000D01*
G01*
X62795000Y8150000D01*
G75*
G02*
X62945000Y8300000I150000J0D01*
G01*
X63245000Y8300000D01*
G75*
G02*
X63395000Y8150000I0J-150000D01*
G01*
X63395000Y6500000D01*
G75*
G02*
X63245000Y6350000I-150000J0D01*
G01*
G37*
%TD*%
D17*
%TO.C,U1*%
G36*
X38950000Y15066500D02*
G01*
X42075000Y15066500D01*
X42075000Y14650000D01*
X43550000Y14650000D01*
X43550000Y13750000D01*
X42075000Y13750000D01*
X42075000Y13333500D01*
X38950000Y13333500D01*
X38950000Y15066500D01*
G37*
D18*
X42900000Y12700000D03*
X42900000Y15700000D03*
%TD*%
%TO.C,R23*%
G36*
G01*
X64100000Y2206250D02*
X64100000Y1693750D01*
G75*
G02*
X63881250Y1475000I-218750J0D01*
G01*
X63443750Y1475000D01*
G75*
G02*
X63225000Y1693750I0J218750D01*
G01*
X63225000Y2206250D01*
G75*
G02*
X63443750Y2425000I218750J0D01*
G01*
X63881250Y2425000D01*
G75*
G02*
X64100000Y2206250I0J-218750D01*
G01*
G37*
G36*
G01*
X65675000Y2206250D02*
X65675000Y1693750D01*
G75*
G02*
X65456250Y1475000I-218750J0D01*
G01*
X65018750Y1475000D01*
G75*
G02*
X64800000Y1693750I0J218750D01*
G01*
X64800000Y2206250D01*
G75*
G02*
X65018750Y2425000I218750J0D01*
G01*
X65456250Y2425000D01*
G75*
G02*
X65675000Y2206250I0J-218750D01*
G01*
G37*
%TD*%
%TO.C,R22*%
G36*
G01*
X53050000Y4743750D02*
X53050000Y5256250D01*
G75*
G02*
X53268750Y5475000I218750J0D01*
G01*
X53706250Y5475000D01*
G75*
G02*
X53925000Y5256250I0J-218750D01*
G01*
X53925000Y4743750D01*
G75*
G02*
X53706250Y4525000I-218750J0D01*
G01*
X53268750Y4525000D01*
G75*
G02*
X53050000Y4743750I0J218750D01*
G01*
G37*
G36*
G01*
X51475000Y4743750D02*
X51475000Y5256250D01*
G75*
G02*
X51693750Y5475000I218750J0D01*
G01*
X52131250Y5475000D01*
G75*
G02*
X52350000Y5256250I0J-218750D01*
G01*
X52350000Y4743750D01*
G75*
G02*
X52131250Y4525000I-218750J0D01*
G01*
X51693750Y4525000D01*
G75*
G02*
X51475000Y4743750I0J218750D01*
G01*
G37*
%TD*%
%TO.C,R20*%
G36*
G01*
X74433750Y11850000D02*
X74946250Y11850000D01*
G75*
G02*
X75165000Y11631250I0J-218750D01*
G01*
X75165000Y11193750D01*
G75*
G02*
X74946250Y10975000I-218750J0D01*
G01*
X74433750Y10975000D01*
G75*
G02*
X74215000Y11193750I0J218750D01*
G01*
X74215000Y11631250D01*
G75*
G02*
X74433750Y11850000I218750J0D01*
G01*
G37*
G36*
G01*
X74433750Y13425000D02*
X74946250Y13425000D01*
G75*
G02*
X75165000Y13206250I0J-218750D01*
G01*
X75165000Y12768750D01*
G75*
G02*
X74946250Y12550000I-218750J0D01*
G01*
X74433750Y12550000D01*
G75*
G02*
X74215000Y12768750I0J218750D01*
G01*
X74215000Y13206250D01*
G75*
G02*
X74433750Y13425000I218750J0D01*
G01*
G37*
%TD*%
%TO.C,R19*%
G36*
G01*
X70756250Y12550000D02*
X70243750Y12550000D01*
G75*
G02*
X70025000Y12768750I0J218750D01*
G01*
X70025000Y13206250D01*
G75*
G02*
X70243750Y13425000I218750J0D01*
G01*
X70756250Y13425000D01*
G75*
G02*
X70975000Y13206250I0J-218750D01*
G01*
X70975000Y12768750D01*
G75*
G02*
X70756250Y12550000I-218750J0D01*
G01*
G37*
G36*
G01*
X70756250Y10975000D02*
X70243750Y10975000D01*
G75*
G02*
X70025000Y11193750I0J218750D01*
G01*
X70025000Y11631250D01*
G75*
G02*
X70243750Y11850000I218750J0D01*
G01*
X70756250Y11850000D01*
G75*
G02*
X70975000Y11631250I0J-218750D01*
G01*
X70975000Y11193750D01*
G75*
G02*
X70756250Y10975000I-218750J0D01*
G01*
G37*
%TD*%
%TO.C,R18*%
G36*
G01*
X61580000Y15616250D02*
X61580000Y15103750D01*
G75*
G02*
X61361250Y14885000I-218750J0D01*
G01*
X60923750Y14885000D01*
G75*
G02*
X60705000Y15103750I0J218750D01*
G01*
X60705000Y15616250D01*
G75*
G02*
X60923750Y15835000I218750J0D01*
G01*
X61361250Y15835000D01*
G75*
G02*
X61580000Y15616250I0J-218750D01*
G01*
G37*
G36*
G01*
X63155000Y15616250D02*
X63155000Y15103750D01*
G75*
G02*
X62936250Y14885000I-218750J0D01*
G01*
X62498750Y14885000D01*
G75*
G02*
X62280000Y15103750I0J218750D01*
G01*
X62280000Y15616250D01*
G75*
G02*
X62498750Y15835000I218750J0D01*
G01*
X62936250Y15835000D01*
G75*
G02*
X63155000Y15616250I0J-218750D01*
G01*
G37*
%TD*%
%TO.C,R17*%
G36*
G01*
X59150000Y21656250D02*
X59150000Y21143750D01*
G75*
G02*
X58931250Y20925000I-218750J0D01*
G01*
X58493750Y20925000D01*
G75*
G02*
X58275000Y21143750I0J218750D01*
G01*
X58275000Y21656250D01*
G75*
G02*
X58493750Y21875000I218750J0D01*
G01*
X58931250Y21875000D01*
G75*
G02*
X59150000Y21656250I0J-218750D01*
G01*
G37*
G36*
G01*
X60725000Y21656250D02*
X60725000Y21143750D01*
G75*
G02*
X60506250Y20925000I-218750J0D01*
G01*
X60068750Y20925000D01*
G75*
G02*
X59850000Y21143750I0J218750D01*
G01*
X59850000Y21656250D01*
G75*
G02*
X60068750Y21875000I218750J0D01*
G01*
X60506250Y21875000D01*
G75*
G02*
X60725000Y21656250I0J-218750D01*
G01*
G37*
%TD*%
%TO.C,R16*%
G36*
G01*
X68650000Y-1356250D02*
X68650000Y-843750D01*
G75*
G02*
X68868750Y-625000I218750J0D01*
G01*
X69306250Y-625000D01*
G75*
G02*
X69525000Y-843750I0J-218750D01*
G01*
X69525000Y-1356250D01*
G75*
G02*
X69306250Y-1575000I-218750J0D01*
G01*
X68868750Y-1575000D01*
G75*
G02*
X68650000Y-1356250I0J218750D01*
G01*
G37*
G36*
G01*
X67075000Y-1356250D02*
X67075000Y-843750D01*
G75*
G02*
X67293750Y-625000I218750J0D01*
G01*
X67731250Y-625000D01*
G75*
G02*
X67950000Y-843750I0J-218750D01*
G01*
X67950000Y-1356250D01*
G75*
G02*
X67731250Y-1575000I-218750J0D01*
G01*
X67293750Y-1575000D01*
G75*
G02*
X67075000Y-1356250I0J218750D01*
G01*
G37*
%TD*%
%TO.C,R15*%
G36*
G01*
X67950000Y-2443750D02*
X67950000Y-2956250D01*
G75*
G02*
X67731250Y-3175000I-218750J0D01*
G01*
X67293750Y-3175000D01*
G75*
G02*
X67075000Y-2956250I0J218750D01*
G01*
X67075000Y-2443750D01*
G75*
G02*
X67293750Y-2225000I218750J0D01*
G01*
X67731250Y-2225000D01*
G75*
G02*
X67950000Y-2443750I0J-218750D01*
G01*
G37*
G36*
G01*
X69525000Y-2443750D02*
X69525000Y-2956250D01*
G75*
G02*
X69306250Y-3175000I-218750J0D01*
G01*
X68868750Y-3175000D01*
G75*
G02*
X68650000Y-2956250I0J218750D01*
G01*
X68650000Y-2443750D01*
G75*
G02*
X68868750Y-2225000I218750J0D01*
G01*
X69306250Y-2225000D01*
G75*
G02*
X69525000Y-2443750I0J-218750D01*
G01*
G37*
%TD*%
%TO.C,R14*%
G36*
G01*
X30150000Y21256250D02*
X30150000Y20743750D01*
G75*
G02*
X29931250Y20525000I-218750J0D01*
G01*
X29493750Y20525000D01*
G75*
G02*
X29275000Y20743750I0J218750D01*
G01*
X29275000Y21256250D01*
G75*
G02*
X29493750Y21475000I218750J0D01*
G01*
X29931250Y21475000D01*
G75*
G02*
X30150000Y21256250I0J-218750D01*
G01*
G37*
G36*
G01*
X31725000Y21256250D02*
X31725000Y20743750D01*
G75*
G02*
X31506250Y20525000I-218750J0D01*
G01*
X31068750Y20525000D01*
G75*
G02*
X30850000Y20743750I0J218750D01*
G01*
X30850000Y21256250D01*
G75*
G02*
X31068750Y21475000I218750J0D01*
G01*
X31506250Y21475000D01*
G75*
G02*
X31725000Y21256250I0J-218750D01*
G01*
G37*
%TD*%
%TO.C,R13*%
G36*
G01*
X30150000Y40056250D02*
X30150000Y39543750D01*
G75*
G02*
X29931250Y39325000I-218750J0D01*
G01*
X29493750Y39325000D01*
G75*
G02*
X29275000Y39543750I0J218750D01*
G01*
X29275000Y40056250D01*
G75*
G02*
X29493750Y40275000I218750J0D01*
G01*
X29931250Y40275000D01*
G75*
G02*
X30150000Y40056250I0J-218750D01*
G01*
G37*
G36*
G01*
X31725000Y40056250D02*
X31725000Y39543750D01*
G75*
G02*
X31506250Y39325000I-218750J0D01*
G01*
X31068750Y39325000D01*
G75*
G02*
X30850000Y39543750I0J218750D01*
G01*
X30850000Y40056250D01*
G75*
G02*
X31068750Y40275000I218750J0D01*
G01*
X31506250Y40275000D01*
G75*
G02*
X31725000Y40056250I0J-218750D01*
G01*
G37*
%TD*%
%TO.C,R11*%
G36*
G01*
X30150000Y77056250D02*
X30150000Y76543750D01*
G75*
G02*
X29931250Y76325000I-218750J0D01*
G01*
X29493750Y76325000D01*
G75*
G02*
X29275000Y76543750I0J218750D01*
G01*
X29275000Y77056250D01*
G75*
G02*
X29493750Y77275000I218750J0D01*
G01*
X29931250Y77275000D01*
G75*
G02*
X30150000Y77056250I0J-218750D01*
G01*
G37*
G36*
G01*
X31725000Y77056250D02*
X31725000Y76543750D01*
G75*
G02*
X31506250Y76325000I-218750J0D01*
G01*
X31068750Y76325000D01*
G75*
G02*
X30850000Y76543750I0J218750D01*
G01*
X30850000Y77056250D01*
G75*
G02*
X31068750Y77275000I218750J0D01*
G01*
X31506250Y77275000D01*
G75*
G02*
X31725000Y77056250I0J-218750D01*
G01*
G37*
%TD*%
%TO.C,R10*%
G36*
G01*
X35750000Y9456250D02*
X35750000Y8943750D01*
G75*
G02*
X35531250Y8725000I-218750J0D01*
G01*
X35093750Y8725000D01*
G75*
G02*
X34875000Y8943750I0J218750D01*
G01*
X34875000Y9456250D01*
G75*
G02*
X35093750Y9675000I218750J0D01*
G01*
X35531250Y9675000D01*
G75*
G02*
X35750000Y9456250I0J-218750D01*
G01*
G37*
G36*
G01*
X37325000Y9456250D02*
X37325000Y8943750D01*
G75*
G02*
X37106250Y8725000I-218750J0D01*
G01*
X36668750Y8725000D01*
G75*
G02*
X36450000Y8943750I0J218750D01*
G01*
X36450000Y9456250D01*
G75*
G02*
X36668750Y9675000I218750J0D01*
G01*
X37106250Y9675000D01*
G75*
G02*
X37325000Y9456250I0J-218750D01*
G01*
G37*
%TD*%
%TO.C,R8*%
G36*
G01*
X42843750Y94825000D02*
X43356250Y94825000D01*
G75*
G02*
X43575000Y94606250I0J-218750D01*
G01*
X43575000Y94168750D01*
G75*
G02*
X43356250Y93950000I-218750J0D01*
G01*
X42843750Y93950000D01*
G75*
G02*
X42625000Y94168750I0J218750D01*
G01*
X42625000Y94606250D01*
G75*
G02*
X42843750Y94825000I218750J0D01*
G01*
G37*
G36*
G01*
X42843750Y93250000D02*
X43356250Y93250000D01*
G75*
G02*
X43575000Y93031250I0J-218750D01*
G01*
X43575000Y92593750D01*
G75*
G02*
X43356250Y92375000I-218750J0D01*
G01*
X42843750Y92375000D01*
G75*
G02*
X42625000Y92593750I0J218750D01*
G01*
X42625000Y93031250D01*
G75*
G02*
X42843750Y93250000I218750J0D01*
G01*
G37*
%TD*%
%TO.C,R7*%
G36*
G01*
X44603750Y94825000D02*
X45116250Y94825000D01*
G75*
G02*
X45335000Y94606250I0J-218750D01*
G01*
X45335000Y94168750D01*
G75*
G02*
X45116250Y93950000I-218750J0D01*
G01*
X44603750Y93950000D01*
G75*
G02*
X44385000Y94168750I0J218750D01*
G01*
X44385000Y94606250D01*
G75*
G02*
X44603750Y94825000I218750J0D01*
G01*
G37*
G36*
G01*
X44603750Y93250000D02*
X45116250Y93250000D01*
G75*
G02*
X45335000Y93031250I0J-218750D01*
G01*
X45335000Y92593750D01*
G75*
G02*
X45116250Y92375000I-218750J0D01*
G01*
X44603750Y92375000D01*
G75*
G02*
X44385000Y92593750I0J218750D01*
G01*
X44385000Y93031250D01*
G75*
G02*
X44603750Y93250000I218750J0D01*
G01*
G37*
%TD*%
%TO.C,R5*%
G36*
G01*
X54050000Y75343750D02*
X54050000Y75856250D01*
G75*
G02*
X54268750Y76075000I218750J0D01*
G01*
X54706250Y76075000D01*
G75*
G02*
X54925000Y75856250I0J-218750D01*
G01*
X54925000Y75343750D01*
G75*
G02*
X54706250Y75125000I-218750J0D01*
G01*
X54268750Y75125000D01*
G75*
G02*
X54050000Y75343750I0J218750D01*
G01*
G37*
G36*
G01*
X52475000Y75343750D02*
X52475000Y75856250D01*
G75*
G02*
X52693750Y76075000I218750J0D01*
G01*
X53131250Y76075000D01*
G75*
G02*
X53350000Y75856250I0J-218750D01*
G01*
X53350000Y75343750D01*
G75*
G02*
X53131250Y75125000I-218750J0D01*
G01*
X52693750Y75125000D01*
G75*
G02*
X52475000Y75343750I0J218750D01*
G01*
G37*
%TD*%
%TO.C,R3*%
G36*
G01*
X30150000Y58256250D02*
X30150000Y57743750D01*
G75*
G02*
X29931250Y57525000I-218750J0D01*
G01*
X29493750Y57525000D01*
G75*
G02*
X29275000Y57743750I0J218750D01*
G01*
X29275000Y58256250D01*
G75*
G02*
X29493750Y58475000I218750J0D01*
G01*
X29931250Y58475000D01*
G75*
G02*
X30150000Y58256250I0J-218750D01*
G01*
G37*
G36*
G01*
X31725000Y58256250D02*
X31725000Y57743750D01*
G75*
G02*
X31506250Y57525000I-218750J0D01*
G01*
X31068750Y57525000D01*
G75*
G02*
X30850000Y57743750I0J218750D01*
G01*
X30850000Y58256250D01*
G75*
G02*
X31068750Y58475000I218750J0D01*
G01*
X31506250Y58475000D01*
G75*
G02*
X31725000Y58256250I0J-218750D01*
G01*
G37*
%TD*%
%TO.C,R2*%
G36*
G01*
X81050000Y50743750D02*
X81050000Y51256250D01*
G75*
G02*
X81268750Y51475000I218750J0D01*
G01*
X81706250Y51475000D01*
G75*
G02*
X81925000Y51256250I0J-218750D01*
G01*
X81925000Y50743750D01*
G75*
G02*
X81706250Y50525000I-218750J0D01*
G01*
X81268750Y50525000D01*
G75*
G02*
X81050000Y50743750I0J218750D01*
G01*
G37*
G36*
G01*
X79475000Y50743750D02*
X79475000Y51256250D01*
G75*
G02*
X79693750Y51475000I218750J0D01*
G01*
X80131250Y51475000D01*
G75*
G02*
X80350000Y51256250I0J-218750D01*
G01*
X80350000Y50743750D01*
G75*
G02*
X80131250Y50525000I-218750J0D01*
G01*
X79693750Y50525000D01*
G75*
G02*
X79475000Y50743750I0J218750D01*
G01*
G37*
%TD*%
D15*
%TO.C,Q5*%
X60400000Y18400000D03*
X62400000Y17450000D03*
X62400000Y19350000D03*
%TD*%
%TO.C,Q4*%
X56310000Y16690000D03*
X58310000Y15740000D03*
X58310000Y17640000D03*
%TD*%
D23*
%TO.C,Q3*%
X53450000Y30600000D03*
X52500000Y28600000D03*
X54400000Y28600000D03*
%TD*%
D24*
%TO.C,J2*%
X48230000Y96840000D03*
X53270000Y96840000D03*
X48230000Y94300000D03*
X53270000Y94300000D03*
X48230000Y91760000D03*
X53270000Y91760000D03*
%TD*%
%TO.C,D3*%
G36*
G01*
X76043750Y11850000D02*
X76556250Y11850000D01*
G75*
G02*
X76775000Y11631250I0J-218750D01*
G01*
X76775000Y11193750D01*
G75*
G02*
X76556250Y10975000I-218750J0D01*
G01*
X76043750Y10975000D01*
G75*
G02*
X75825000Y11193750I0J218750D01*
G01*
X75825000Y11631250D01*
G75*
G02*
X76043750Y11850000I218750J0D01*
G01*
G37*
G36*
G01*
X76043750Y13425000D02*
X76556250Y13425000D01*
G75*
G02*
X76775000Y13206250I0J-218750D01*
G01*
X76775000Y12768750D01*
G75*
G02*
X76556250Y12550000I-218750J0D01*
G01*
X76043750Y12550000D01*
G75*
G02*
X75825000Y12768750I0J218750D01*
G01*
X75825000Y13206250D01*
G75*
G02*
X76043750Y13425000I218750J0D01*
G01*
G37*
%TD*%
%TO.C,D2*%
G36*
G01*
X71923750Y11850000D02*
X72436250Y11850000D01*
G75*
G02*
X72655000Y11631250I0J-218750D01*
G01*
X72655000Y11193750D01*
G75*
G02*
X72436250Y10975000I-218750J0D01*
G01*
X71923750Y10975000D01*
G75*
G02*
X71705000Y11193750I0J218750D01*
G01*
X71705000Y11631250D01*
G75*
G02*
X71923750Y11850000I218750J0D01*
G01*
G37*
G36*
G01*
X71923750Y13425000D02*
X72436250Y13425000D01*
G75*
G02*
X72655000Y13206250I0J-218750D01*
G01*
X72655000Y12768750D01*
G75*
G02*
X72436250Y12550000I-218750J0D01*
G01*
X71923750Y12550000D01*
G75*
G02*
X71705000Y12768750I0J218750D01*
G01*
X71705000Y13206250D01*
G75*
G02*
X71923750Y13425000I218750J0D01*
G01*
G37*
%TD*%
D25*
%TO.C,D1*%
X48500000Y-2200000D03*
X48500000Y1800000D03*
%TD*%
%TO.C,C8*%
G36*
G01*
X59762500Y5256250D02*
X59762500Y4743750D01*
G75*
G02*
X59543750Y4525000I-218750J0D01*
G01*
X59106250Y4525000D01*
G75*
G02*
X58887500Y4743750I0J218750D01*
G01*
X58887500Y5256250D01*
G75*
G02*
X59106250Y5475000I218750J0D01*
G01*
X59543750Y5475000D01*
G75*
G02*
X59762500Y5256250I0J-218750D01*
G01*
G37*
G36*
G01*
X61337500Y5256250D02*
X61337500Y4743750D01*
G75*
G02*
X61118750Y4525000I-218750J0D01*
G01*
X60681250Y4525000D01*
G75*
G02*
X60462500Y4743750I0J218750D01*
G01*
X60462500Y5256250D01*
G75*
G02*
X60681250Y5475000I218750J0D01*
G01*
X61118750Y5475000D01*
G75*
G02*
X61337500Y5256250I0J-218750D01*
G01*
G37*
%TD*%
%TO.C,C7*%
G36*
G01*
X67950000Y756250D02*
X67950000Y243750D01*
G75*
G02*
X67731250Y25000I-218750J0D01*
G01*
X67293750Y25000D01*
G75*
G02*
X67075000Y243750I0J218750D01*
G01*
X67075000Y756250D01*
G75*
G02*
X67293750Y975000I218750J0D01*
G01*
X67731250Y975000D01*
G75*
G02*
X67950000Y756250I0J-218750D01*
G01*
G37*
G36*
G01*
X69525000Y756250D02*
X69525000Y243750D01*
G75*
G02*
X69306250Y25000I-218750J0D01*
G01*
X68868750Y25000D01*
G75*
G02*
X68650000Y243750I0J218750D01*
G01*
X68650000Y756250D01*
G75*
G02*
X68868750Y975000I218750J0D01*
G01*
X69306250Y975000D01*
G75*
G02*
X69525000Y756250I0J-218750D01*
G01*
G37*
%TD*%
%TO.C,C5*%
G36*
G01*
X50275000Y6375000D02*
X50275000Y7625000D01*
G75*
G02*
X50525000Y7875000I250000J0D01*
G01*
X51275000Y7875000D01*
G75*
G02*
X51525000Y7625000I0J-250000D01*
G01*
X51525000Y6375000D01*
G75*
G02*
X51275000Y6125000I-250000J0D01*
G01*
X50525000Y6125000D01*
G75*
G02*
X50275000Y6375000I0J250000D01*
G01*
G37*
G36*
G01*
X47475000Y6375000D02*
X47475000Y7625000D01*
G75*
G02*
X47725000Y7875000I250000J0D01*
G01*
X48475000Y7875000D01*
G75*
G02*
X48725000Y7625000I0J-250000D01*
G01*
X48725000Y6375000D01*
G75*
G02*
X48475000Y6125000I-250000J0D01*
G01*
X47725000Y6125000D01*
G75*
G02*
X47475000Y6375000I0J250000D01*
G01*
G37*
%TD*%
%TO.C,C4*%
G36*
G01*
X45570000Y15966250D02*
X45570000Y15453750D01*
G75*
G02*
X45351250Y15235000I-218750J0D01*
G01*
X44913750Y15235000D01*
G75*
G02*
X44695000Y15453750I0J218750D01*
G01*
X44695000Y15966250D01*
G75*
G02*
X44913750Y16185000I218750J0D01*
G01*
X45351250Y16185000D01*
G75*
G02*
X45570000Y15966250I0J-218750D01*
G01*
G37*
G36*
G01*
X47145000Y15966250D02*
X47145000Y15453750D01*
G75*
G02*
X46926250Y15235000I-218750J0D01*
G01*
X46488750Y15235000D01*
G75*
G02*
X46270000Y15453750I0J218750D01*
G01*
X46270000Y15966250D01*
G75*
G02*
X46488750Y16185000I218750J0D01*
G01*
X46926250Y16185000D01*
G75*
G02*
X47145000Y15966250I0J-218750D01*
G01*
G37*
%TD*%
%TO.C,C3*%
G36*
G01*
X48950000Y9456250D02*
X48950000Y8943750D01*
G75*
G02*
X48731250Y8725000I-218750J0D01*
G01*
X48293750Y8725000D01*
G75*
G02*
X48075000Y8943750I0J218750D01*
G01*
X48075000Y9456250D01*
G75*
G02*
X48293750Y9675000I218750J0D01*
G01*
X48731250Y9675000D01*
G75*
G02*
X48950000Y9456250I0J-218750D01*
G01*
G37*
G36*
G01*
X50525000Y9456250D02*
X50525000Y8943750D01*
G75*
G02*
X50306250Y8725000I-218750J0D01*
G01*
X49868750Y8725000D01*
G75*
G02*
X49650000Y8943750I0J218750D01*
G01*
X49650000Y9456250D01*
G75*
G02*
X49868750Y9675000I218750J0D01*
G01*
X50306250Y9675000D01*
G75*
G02*
X50525000Y9456250I0J-218750D01*
G01*
G37*
%TD*%
%TO.C,C2*%
G36*
G01*
X81050000Y54343750D02*
X81050000Y54856250D01*
G75*
G02*
X81268750Y55075000I218750J0D01*
G01*
X81706250Y55075000D01*
G75*
G02*
X81925000Y54856250I0J-218750D01*
G01*
X81925000Y54343750D01*
G75*
G02*
X81706250Y54125000I-218750J0D01*
G01*
X81268750Y54125000D01*
G75*
G02*
X81050000Y54343750I0J218750D01*
G01*
G37*
G36*
G01*
X79475000Y54343750D02*
X79475000Y54856250D01*
G75*
G02*
X79693750Y55075000I218750J0D01*
G01*
X80131250Y55075000D01*
G75*
G02*
X80350000Y54856250I0J-218750D01*
G01*
X80350000Y54343750D01*
G75*
G02*
X80131250Y54125000I-218750J0D01*
G01*
X79693750Y54125000D01*
G75*
G02*
X79475000Y54343750I0J218750D01*
G01*
G37*
%TD*%
%TO.C,C1*%
G36*
G01*
X81050000Y52543750D02*
X81050000Y53056250D01*
G75*
G02*
X81268750Y53275000I218750J0D01*
G01*
X81706250Y53275000D01*
G75*
G02*
X81925000Y53056250I0J-218750D01*
G01*
X81925000Y52543750D01*
G75*
G02*
X81706250Y52325000I-218750J0D01*
G01*
X81268750Y52325000D01*
G75*
G02*
X81050000Y52543750I0J218750D01*
G01*
G37*
G36*
G01*
X79475000Y52543750D02*
X79475000Y53056250D01*
G75*
G02*
X79693750Y53275000I218750J0D01*
G01*
X80131250Y53275000D01*
G75*
G02*
X80350000Y53056250I0J-218750D01*
G01*
X80350000Y52543750D01*
G75*
G02*
X80131250Y52325000I-218750J0D01*
G01*
X79693750Y52325000D01*
G75*
G02*
X79475000Y52543750I0J218750D01*
G01*
G37*
%TD*%
M02*
