M48
; DRILL file {KiCad (5.1.6-0-10_14)} date Tuesday, January 05, 2021 at 10:05:36 PM
; FORMAT={-:-/ absolute / metric / decimal}
; #@! TF.CreationDate,2021-01-05T22:05:36+01:00
; #@! TF.GenerationSoftware,Kicad,Pcbnew,(5.1.6-0-10_14)
; #@! TF.FileFunction,Plated,1,2,PTH
FMAT,2
METRIC
T1C0.400
T2C0.500
T3C4.400
%
G90
G05
T1
X30.1Y21.8
X30.3Y75.0
X30.5Y59.0
X30.5Y41.0
X32.207Y14.782
X32.3Y75.2
X32.5Y62.2
X32.7Y41.8
X33.3Y10.6
X33.7Y22.8
X39.1Y22.6
X40.95Y46.75
X41.2Y40.0
X41.7Y66.2
X43.7Y39.0
X45.7Y35.6
X48.218Y36.055
X48.3Y41.2
X49.05Y35.5
X49.225Y40.251
X49.95Y41.007
X50.02Y35.257
X50.7Y40.2
X51.6Y35.5
X52.5Y34.0
X53.7Y1.45
X55.7Y69.6
X56.2Y74.1
X56.5Y29.4
X60.7Y19.0
X60.975Y40.6
X61.2Y1.45
X61.725Y39.8
X62.1Y66.2
X62.225Y41.6
X62.77Y38.746
X62.9Y68.2
X63.036Y61.528
X63.5Y72.8
X63.7Y62.275
X63.825Y39.8
X64.1Y-3.725
X64.584Y39.134
X65.494Y39.549
X65.855Y67.044
X66.3Y72.8
X66.3Y-2.075
X66.575Y66.35
X67.1Y68.4
X68.9Y63.0
X69.5Y12.2
X70.7Y60.6
X71.1Y73.8
X71.5Y40.0
X72.1Y61.6
X72.95Y43.0
X73.675Y44.0
X73.9Y78.2
X74.089Y10.811
X74.4Y45.0
X74.7Y74.0
X74.85Y72.2
X74.9Y78.2
X75.1Y70.8
X75.1Y46.0
X75.625Y62.475
X75.9Y56.6
X76.0Y44.8
X76.087Y46.387
X76.7Y60.8
X77.375Y70.068
X77.425Y73.6
X77.7Y45.0
X78.365Y73.941
X78.5Y43.8
X78.7Y45.2
X79.225Y73.2
X79.7Y49.6
X79.9Y16.4
X80.7Y73.6
X81.025Y70.6
X81.025Y62.6
T2
X42.9Y41.8
X44.1Y14.0
X44.9Y10.4
X50.5Y38.6
X51.9Y44.2
X52.1Y40.2
X56.9Y88.0
X59.9Y92.4
X59.9Y40.0
X65.875Y95.2
X66.7Y39.0
X67.7Y95.4
X69.5Y65.4
X81.5Y49.4
X82.3Y54.2
T3
X33.84Y94.11
X33.84Y94.11
T0
M30
